<svg width="16" height="16" viewBox="0 0 16 16" fill="none" xmlns="http://www.w3.org/2000/svg">
<g id="social-media-linkedin">
<path id="Vector" d="M12.224 12.226H10.4473V9.44133C10.4473 8.77733 10.434 7.92267 9.52067 7.92267C8.59467 7.92267 8.45333 8.64533 8.45333 9.39267V12.226H6.676V6.5H8.38267V7.28H8.406C8.64467 6.83067 9.22467 6.35533 10.0913 6.35533C11.8913 6.35533 12.2247 7.54067 12.2247 9.08333L12.224 12.226ZM4.66933 5.71667C4.5337 5.71684 4.39937 5.69025 4.27404 5.6384C4.14871 5.58656 4.03485 5.51049 3.93897 5.41456C3.8431 5.31862 3.7671 5.20471 3.71534 5.07934C3.66358 4.95398 3.63707 4.81963 3.63733 4.684C3.63747 4.47989 3.69812 4.2804 3.81163 4.11076C3.92513 3.94113 4.0864 3.80896 4.27502 3.73097C4.46364 3.65298 4.67116 3.63268 4.87132 3.67263C5.07148 3.71258 5.2553 3.81098 5.39954 3.9554C5.54377 4.09983 5.64194 4.28377 5.68163 4.48399C5.72132 4.6842 5.70075 4.89169 5.62252 5.08021C5.54429 5.26873 5.41191 5.42983 5.24213 5.54311C5.07234 5.6564 4.87278 5.7168 4.66867 5.71667M5.55933 12.226H3.778V6.5H5.56L5.55933 12.226ZM13.1133 2H2.88667C2.396 2 2 2.38667 2 2.86467V13.1353C2 13.6133 2.396 14 2.88533 14H13.1113C13.6 14 14 13.6133 14 13.1353V2.86467C14 2.38733 13.6 2 13.1107 2H13.1133Z" fill="#868E96"/>
</g>
</svg>
