<svg width="16" height="16" viewBox="0 0 16 16" fill="none" xmlns="http://www.w3.org/2000/svg">
<g id="social-media-telegram">
<path id="Vector" d="M7.99992 1.33334C4.31992 1.33334 1.33325 4.32 1.33325 8C1.33325 11.68 4.31992 14.6667 7.99992 14.6667C11.6799 14.6667 14.6666 11.68 14.6666 8C14.6666 4.32 11.6799 1.33334 7.99992 1.33334ZM11.0933 5.86667C10.9933 6.92 10.5599 9.48 10.3399 10.66C10.2466 11.16 10.0599 11.3267 9.88659 11.3467C9.49992 11.38 9.20659 11.0933 8.83325 10.8467C8.24659 10.46 7.91325 10.22 7.34659 9.84667C6.68659 9.41334 7.11325 9.17334 7.49325 8.78667C7.59325 8.68667 9.29992 7.13334 9.33325 6.99334C9.33788 6.97213 9.33727 6.95012 9.33146 6.9292C9.32565 6.90829 9.31482 6.88911 9.29992 6.87334C9.25992 6.84 9.20659 6.85334 9.15992 6.86C9.09992 6.87334 8.16659 7.49334 6.34659 8.72C6.07992 8.9 5.83992 8.99334 5.62659 8.98667C5.38659 8.98 4.93325 8.85334 4.59325 8.74C4.17325 8.60667 3.84659 8.53334 3.87325 8.3C3.88659 8.18 4.05325 8.06 4.36659 7.93334C6.31325 7.08667 7.60659 6.52667 8.25325 6.26C10.1066 5.48667 10.4866 5.35334 10.7399 5.35334C10.7933 5.35334 10.9199 5.36667 10.9999 5.43334C11.0666 5.48667 11.0866 5.56 11.0933 5.61334C11.0866 5.65334 11.0999 5.77334 11.0933 5.86667Z" fill="#868E96"/>
</g>
</svg>
