<svg width="16" height="16" viewBox="0 0 16 16" fill="none" xmlns="http://www.w3.org/2000/svg">
<g id="social-media-github">
<path id="Vector" d="M7.99992 1.33334C7.12444 1.33334 6.25753 1.50577 5.4487 1.84081C4.63986 2.17584 3.90493 2.6669 3.28587 3.28596C2.03563 4.5362 1.33325 6.23189 1.33325 8C1.33325 10.9467 3.24659 13.4467 5.89325 14.3333C6.22659 14.3867 6.33325 14.18 6.33325 14V12.8733C4.48659 13.2733 4.09325 11.98 4.09325 11.98C3.78659 11.2067 3.35325 11 3.35325 11C2.74659 10.5867 3.39992 10.6 3.39992 10.6C4.06659 10.6467 4.41992 11.2867 4.41992 11.2867C4.99992 12.3 5.97992 12 6.35992 11.84C6.41992 11.4067 6.59325 11.1133 6.77992 10.9467C5.29992 10.78 3.74659 10.2067 3.74659 7.66667C3.74659 6.92667 3.99992 6.33334 4.43325 5.86C4.36659 5.69334 4.13325 5 4.49992 4.1C4.49992 4.1 5.05992 3.92 6.33325 4.78C6.85992 4.63334 7.43325 4.56 7.99992 4.56C8.56659 4.56 9.13992 4.63334 9.66659 4.78C10.9399 3.92 11.4999 4.1 11.4999 4.1C11.8666 5 11.6333 5.69334 11.5666 5.86C11.9999 6.33334 12.2533 6.92667 12.2533 7.66667C12.2533 10.2133 10.6933 10.7733 9.20659 10.94C9.44659 11.1467 9.66659 11.5533 9.66659 12.1733V14C9.66659 14.18 9.77325 14.3933 10.1133 14.3333C12.7599 13.44 14.6666 10.9467 14.6666 8C14.6666 7.12452 14.4941 6.25762 14.1591 5.44878C13.8241 4.63994 13.333 3.90501 12.714 3.28596C12.0949 2.6669 11.36 2.17584 10.5511 1.84081C9.7423 1.50577 8.8754 1.33334 7.99992 1.33334Z" fill="#868E96"/>
</g>
</svg>
