<svg width="16" height="16" viewBox="0 0 16 16" fill="none" xmlns="http://www.w3.org/2000/svg">
<g id="social-media-gitlab">
<path id="Vector" d="M14.442 6.658L14.4233 6.61L12.6106 1.88067C12.574 1.78736 12.5087 1.7081 12.4241 1.6543C12.3395 1.60051 12.24 1.57496 12.14 1.58133C12.0398 1.58569 11.9436 1.62173 11.8653 1.68428C11.7869 1.74682 11.7304 1.83263 11.704 1.92933L10.48 5.68H5.52132L4.29532 1.93C4.26917 1.83325 4.213 1.7473 4.13489 1.68453C4.05677 1.62175 3.96075 1.58538 3.86065 1.58067C3.7606 1.57522 3.66136 1.60122 3.57684 1.65502C3.49231 1.70882 3.42674 1.78772 3.38932 1.88067L1.57465 6.61667L1.55598 6.66333C1.29579 7.34546 1.26392 8.09359 1.46515 8.79538C1.66638 9.49717 2.08986 10.1147 2.67198 10.5553L2.67865 10.56L2.69465 10.5727L5.45932 12.642L6.82598 13.6773L7.65732 14.3067C7.75473 14.3806 7.87367 14.4207 7.99598 14.4207C8.11829 14.4207 8.23724 14.3806 8.33465 14.3067L9.16598 13.6773L10.5326 12.642L13.314 10.56L13.3207 10.5547C13.9051 10.1148 14.3306 9.4968 14.5329 8.79385C14.7352 8.09089 14.7033 7.34121 14.442 6.658Z" fill="#868E96"/>
</g>
</svg>
