<svg width="16" height="16" viewBox="0 0 16 16" fill="none" xmlns="http://www.w3.org/2000/svg">
<g id="social-media-instagram">
<path id="Vector" d="M8.68539 1.33334C9.43539 1.33534 9.81605 1.33934 10.1447 1.34867L10.2741 1.35334C10.4234 1.35867 10.5707 1.36534 10.7487 1.37334C11.4581 1.40667 11.9421 1.51867 12.3667 1.68334C12.8067 1.85267 13.1774 2.082 13.5481 2.452C13.8872 2.78516 14.1495 3.18832 14.3167 3.63334C14.4814 4.058 14.5934 4.542 14.6267 5.252C14.6347 5.42934 14.6414 5.57667 14.6467 5.72667L14.6507 5.856C14.6607 6.184 14.6647 6.56467 14.6661 7.31467L14.6667 7.812V8.68534C14.6683 9.17161 14.6632 9.65787 14.6514 10.144L14.6474 10.2733C14.6421 10.4233 14.6354 10.5707 14.6274 10.748C14.5941 11.458 14.4807 11.9413 14.3167 12.3667C14.1495 12.8117 13.8872 13.2148 13.5481 13.548C13.2149 13.8871 12.8117 14.1495 12.3667 14.3167C11.9421 14.4813 11.4581 14.5933 10.7487 14.6267L10.2741 14.6467L10.1447 14.6507C9.81605 14.66 9.43539 14.6647 8.68539 14.666L8.18805 14.6667H7.31539C6.82889 14.6684 6.3424 14.6633 5.85605 14.6513L5.72672 14.6473C5.56846 14.6413 5.41024 14.6345 5.25205 14.6267C4.54272 14.5933 4.05872 14.4813 3.63339 14.3167C3.18861 14.1494 2.78568 13.8871 2.45272 13.548C2.11335 13.2149 1.85079 12.8117 1.68339 12.3667C1.51872 11.942 1.40672 11.458 1.37339 10.748L1.35339 10.2733L1.35005 10.144C1.33776 9.65788 1.33221 9.17161 1.33339 8.68534V7.31467C1.33154 6.8284 1.33643 6.34213 1.34805 5.856L1.35272 5.72667C1.35805 5.57667 1.36472 5.42934 1.37272 5.252C1.40605 4.542 1.51805 4.05867 1.68272 3.63334C1.85052 3.18813 2.11354 2.78496 2.45339 2.452C2.78616 2.11304 3.18885 1.85072 3.63339 1.68334C4.05872 1.51867 4.54205 1.40667 5.25205 1.37334C5.42939 1.36534 5.57739 1.35867 5.72672 1.35334L5.85605 1.34934C6.34218 1.33749 6.82845 1.33238 7.31472 1.334L8.68539 1.33334ZM8.00005 4.66667C7.116 4.66667 6.26815 5.01786 5.64303 5.64298C5.01791 6.2681 4.66672 7.11595 4.66672 8C4.66672 8.88406 5.01791 9.7319 5.64303 10.357C6.26815 10.9821 7.116 11.3333 8.00005 11.3333C8.88411 11.3333 9.73195 10.9821 10.3571 10.357C10.9822 9.7319 11.3334 8.88406 11.3334 8C11.3334 7.11595 10.9822 6.2681 10.3571 5.64298C9.73195 5.01786 8.88411 4.66667 8.00005 4.66667ZM8.00005 6C8.2627 5.99996 8.52278 6.05165 8.76545 6.15212C9.00811 6.25259 9.22862 6.39987 9.41436 6.58555C9.60011 6.77124 9.74747 6.99169 9.84802 7.23433C9.94857 7.47696 10.0003 7.73703 10.0004 7.99967C10.0004 8.26231 9.94874 8.52239 9.84827 8.76506C9.7478 9.00773 9.60052 9.22823 9.41484 9.41398C9.22915 9.59973 9.0087 9.74708 8.76606 9.84763C8.52343 9.94818 8.26336 9.99996 8.00072 10C7.47029 10 6.96158 9.78929 6.58651 9.41422C6.21143 9.03914 6.00072 8.53044 6.00072 8C6.00072 7.46957 6.21143 6.96086 6.58651 6.58579C6.96158 6.21072 7.47029 6 8.00072 6M11.5007 3.66667C11.2797 3.66667 11.0677 3.75447 10.9115 3.91075C10.7552 4.06703 10.6674 4.27899 10.6674 4.5C10.6674 4.72102 10.7552 4.93298 10.9115 5.08926C11.0677 5.24554 11.2797 5.33334 11.5007 5.33334C11.7217 5.33334 11.9337 5.24554 12.09 5.08926C12.2463 4.93298 12.3341 4.72102 12.3341 4.5C12.3341 4.27899 12.2463 4.06703 12.09 3.91075C11.9337 3.75447 11.7217 3.66667 11.5007 3.66667Z" fill="#868E96"/>
</g>
</svg>
