<svg width="16" height="16" viewBox="0 0 16 16" fill="none" xmlns="http://www.w3.org/2000/svg">
<g id="social-media-medium">
<path id="Vector" d="M8.94008 8.00466C8.94008 10.3047 7.08741 12.1693 4.80341 12.1693C2.51941 12.1693 0.666748 10.3053 0.666748 8.00466C0.666748 5.704 2.51875 3.84 4.80341 3.84C7.08808 3.84 8.94008 5.70466 8.94008 8.00466ZM13.4767 8.00466C13.4767 10.17 12.5501 11.9247 11.4087 11.9247C10.2661 11.9247 9.34008 10.1693 9.34008 8.00466C9.34008 5.84 10.2667 4.08466 11.4087 4.08466C12.5507 4.08466 13.4767 5.84 13.4767 8.00466ZM15.3327 8.00466C15.3327 9.94466 15.0067 11.5173 14.6054 11.5173C14.2034 11.5173 13.8781 9.944 13.8781 8.00466C13.8781 6.06533 14.2034 4.492 14.6054 4.492C15.0074 4.492 15.3334 6.06533 15.3334 8.00533" fill="#868E96"/>
</g>
</svg>
