<svg width="16" height="16" viewBox="0 0 16 16" fill="none" xmlns="http://www.w3.org/2000/svg">
<g id="social-media-reddit">
<path id="Vector" d="M8.00065 14.6667C4.31865 14.6667 1.33398 11.682 1.33398 8C1.33398 4.318 4.31865 1.33334 8.00065 1.33334C11.6827 1.33334 14.6673 4.318 14.6673 8C14.6673 11.682 11.6827 14.6667 8.00065 14.6667ZM12.4473 8C12.4405 7.81235 12.3795 7.63069 12.2717 7.47692C12.1639 7.32315 12.014 7.20383 11.8399 7.13337C11.6658 7.0629 11.4751 7.04428 11.2907 7.07976C11.1063 7.11525 10.9361 7.20331 10.8007 7.33334C10.0426 6.81712 9.15091 6.53224 8.23398 6.51334L8.66732 4.43334L10.094 4.73334C10.1109 4.89099 10.1835 5.03744 10.2987 5.14639C10.414 5.25534 10.5642 5.31967 10.7226 5.32782C10.8809 5.33596 11.037 5.2874 11.1628 5.19085C11.2886 5.09429 11.3758 4.95607 11.4089 4.80099C11.4419 4.6459 11.4186 4.48412 11.3431 4.34467C11.2676 4.20523 11.1449 4.09725 10.997 4.04013C10.8491 3.983 10.6856 3.98047 10.536 4.03299C10.3864 4.0855 10.2604 4.18963 10.1807 4.32667L8.54732 4C8.52061 3.99414 8.49299 3.99364 8.46609 3.99853C8.43918 4.00342 8.41351 4.0136 8.39057 4.02848C8.36762 4.04337 8.34786 4.06265 8.33243 4.08523C8.31699 4.10781 8.30619 4.13322 8.30065 4.16L7.80732 6.47334C6.87924 6.48733 5.9755 6.77235 5.20732 7.29334C5.10455 7.19664 4.98198 7.12344 4.8481 7.07882C4.71423 7.0342 4.57226 7.01923 4.43202 7.03493C4.29178 7.05063 4.15664 7.09664 4.03595 7.16976C3.91526 7.24289 3.81192 7.34138 3.73308 7.45842C3.65424 7.57545 3.60179 7.70823 3.57937 7.84755C3.55694 7.98687 3.56508 8.1294 3.60322 8.26526C3.64136 8.40112 3.70858 8.52707 3.80023 8.63437C3.89187 8.74167 4.00576 8.82776 4.13398 8.88667C4.1268 8.98432 4.1268 9.08236 4.13398 9.18C4.13398 10.6733 5.87398 11.8867 8.02065 11.8867C10.1673 11.8867 11.9073 10.6733 11.9073 9.18C11.9145 9.08236 11.9145 8.98432 11.9073 8.88667C12.0718 8.8049 12.2098 8.67825 12.3054 8.52134C12.401 8.36444 12.4502 8.18369 12.4473 8ZM5.78065 8.66667C5.78065 8.48986 5.85089 8.32029 5.97591 8.19526C6.10094 8.07024 6.27051 8 6.44732 8C6.62413 8 6.7937 8.07024 6.91872 8.19526C7.04375 8.32029 7.11398 8.48986 7.11398 8.66667C7.11398 8.84348 7.04375 9.01305 6.91872 9.13807C6.7937 9.2631 6.62413 9.33334 6.44732 9.33334C6.27051 9.33334 6.10094 9.2631 5.97591 9.13807C5.85089 9.01305 5.78065 8.84348 5.78065 8.66667ZM9.65398 10.5C9.181 10.8564 8.59906 11.0379 8.00732 11.0133C7.41557 11.0379 6.83364 10.8564 6.36065 10.5C6.3323 10.4655 6.31781 10.4216 6.32001 10.377C6.3222 10.3323 6.34091 10.2901 6.37251 10.2585C6.40411 10.2269 6.44633 10.2082 6.49096 10.206C6.53559 10.2038 6.57944 10.2183 6.61398 10.2467C7.0148 10.5407 7.50406 10.6889 8.00065 10.6667C8.49785 10.6937 8.98939 10.5502 9.39398 10.26C9.41104 10.2409 9.43183 10.2255 9.45508 10.2148C9.47833 10.2041 9.50354 10.1983 9.52913 10.1977C9.55473 10.1971 9.58016 10.2018 9.60386 10.2115C9.62756 10.2212 9.64901 10.2357 9.66688 10.254C9.68475 10.2723 9.69866 10.2942 9.70775 10.3181C9.71683 10.342 9.7209 10.3676 9.71969 10.3931C9.71848 10.4187 9.71202 10.4438 9.70072 10.4667C9.68941 10.4897 9.67351 10.5101 9.65398 10.5267V10.5ZM9.53398 9.36C9.40213 9.36 9.27324 9.3209 9.1636 9.24765C9.05397 9.17439 8.96852 9.07028 8.91806 8.94846C8.86761 8.82664 8.8544 8.6926 8.88013 8.56328C8.90585 8.43396 8.96935 8.31517 9.06258 8.22193C9.15582 8.1287 9.2746 8.0652 9.40392 8.03948C9.53325 8.01376 9.66729 8.02696 9.78911 8.07742C9.91092 8.12787 10.015 8.21332 10.0883 8.32296C10.1616 8.43259 10.2007 8.56148 10.2007 8.69334C10.2043 8.78367 10.1895 8.87379 10.1572 8.95822C10.1249 9.04266 10.0758 9.11965 10.0128 9.1845C9.94979 9.24935 9.87428 9.30072 9.79082 9.33547C9.70737 9.37023 9.61772 9.38765 9.52732 9.38667L9.53398 9.36Z" fill="#868E96"/>
</g>
</svg>
