<svg width="16" height="16" viewBox="0 0 16 16" fill="none" xmlns="http://www.w3.org/2000/svg">
<g clip-path="url(#clip0_49_27542)">
<path fill-rule="evenodd" clip-rule="evenodd" d="M4.49993 8C4.5005 7.48921 4.61286 6.98474 4.82913 6.522C5.04539 6.05926 5.36032 5.64946 5.75181 5.32137C6.14329 4.99328 6.60184 4.75486 7.09527 4.62283C7.5887 4.49081 8.10504 4.46838 8.60806 4.55713C9.11108 4.64588 9.58857 4.84366 10.007 5.13657C10.4255 5.42948 10.7748 5.81044 11.0303 6.25269C11.2859 6.69494 11.4416 7.18777 11.4864 7.69658C11.5313 8.2054 11.4642 8.71786 11.2899 9.198C11.2585 9.27607 11.2089 9.34554 11.1453 9.40067L11.0919 9.45067C11.0074 9.5285 10.9021 9.58004 10.7888 9.59899C10.6755 9.61794 10.5592 9.60349 10.4539 9.55738C10.3487 9.51128 10.2592 9.43553 10.1963 9.33939C10.1335 9.24325 10.1 9.13087 10.0999 9.016V8C10.0999 7.52755 9.94052 7.06892 9.6476 6.69823C9.35468 6.32754 8.94532 6.06646 8.48568 5.95718C8.02605 5.8479 7.54299 5.8968 7.11458 6.09598C6.68617 6.29517 6.33744 6.63299 6.12475 7.05486C5.91207 7.47673 5.84786 7.958 5.94249 8.42087C6.03713 8.88375 6.28508 9.30119 6.64628 9.60573C7.00749 9.91027 7.46083 10.0841 7.93304 10.0992C8.40525 10.1142 8.86874 9.96959 9.2486 9.68867C9.35435 9.9157 9.51223 10.1145 9.70936 10.269C9.9065 10.4235 10.1373 10.5293 10.3831 10.5777C10.6288 10.6261 10.8825 10.6158 11.1235 10.5476C11.3645 10.4794 11.586 10.3553 11.7699 10.1853L11.8233 10.136C11.9899 9.98267 12.1406 9.784 12.2293 9.54067C12.5569 8.64147 12.5894 7.66123 12.3219 6.74233C12.0544 5.82344 11.501 5.01374 10.7419 4.43087C9.98284 3.848 9.05772 3.52231 8.10092 3.5011C7.14412 3.4799 6.20548 3.76429 5.42134 4.31296C4.63721 4.86164 4.04841 5.64602 3.7405 6.55216C3.43258 7.45831 3.42157 8.43902 3.70908 9.35185C3.99658 10.2647 4.56762 11.0621 5.33925 11.6282C6.11087 12.1943 7.0429 12.4997 7.99993 12.5C8.13263 12.5 8.25989 12.4473 8.35372 12.3535C8.44755 12.2596 8.50026 12.1324 8.50026 11.9997C8.50026 11.867 8.44755 11.7397 8.35372 11.6459C8.25989 11.552 8.13263 11.4993 7.99993 11.4993C7.07179 11.4993 6.18165 11.1307 5.52529 10.4744C4.86893 9.81821 4.50011 8.92814 4.49993 8ZM7.99993 6.9C8.14438 6.9 8.28742 6.92845 8.42088 6.98373C8.55434 7.03901 8.6756 7.12004 8.77775 7.22218C8.87989 7.32433 8.96092 7.44559 9.0162 7.57905C9.07148 7.71251 9.09993 7.85555 9.09993 8C9.09993 8.14445 9.07148 8.28749 9.0162 8.42095C8.96092 8.55441 8.87989 8.67567 8.77775 8.77782C8.6756 8.87996 8.55434 8.96099 8.42088 9.01627C8.28742 9.07155 8.14438 9.1 7.99993 9.1C7.70819 9.1 7.4284 8.98411 7.22211 8.77782C7.01582 8.57153 6.89993 8.29174 6.89993 8C6.89993 7.70826 7.01582 7.42847 7.22211 7.22218C7.4284 7.01589 7.70819 6.9 7.99993 6.9Z" fill="#868E96"/>
<path fill-rule="evenodd" clip-rule="evenodd" d="M8.03792 0.833333H7.96192C6.42259 0.833333 5.21659 0.833333 4.27525 0.96C3.31259 1.08933 2.55259 1.36 1.95592 1.956C1.35925 2.55267 1.08925 3.31267 0.959919 4.276C0.833252 5.21667 0.833252 6.42267 0.833252 7.962V8.038C0.833252 9.57733 0.833252 10.7833 0.959919 11.7247C1.08925 12.6873 1.35992 13.4473 1.95592 14.044C2.55259 14.6407 3.31259 14.9107 4.27592 15.04C5.21659 15.1667 6.42259 15.1667 7.96192 15.1667H8.03792C9.57725 15.1667 10.7833 15.1667 11.7246 15.04C12.6873 14.9107 13.4473 14.64 14.0439 14.044C14.6406 13.4473 14.9106 12.6873 15.0399 11.724C15.1666 10.7833 15.1666 9.57733 15.1666 8.038V7.962C15.1666 6.42267 15.1666 5.21667 15.0399 4.27533C14.9106 3.31267 14.6399 2.55267 14.0439 1.956C13.4473 1.35933 12.6873 1.08933 11.7239 0.96C10.7833 0.833333 9.57725 0.833333 8.03792 0.833333ZM2.66325 2.66333C3.04325 2.28333 3.55659 2.06533 4.40925 1.95067C5.27592 1.83467 6.41459 1.83333 7.99992 1.83333C9.58525 1.83333 10.7239 1.83467 11.5906 1.95067C12.4433 2.06533 12.9573 2.284 13.3373 2.66333C13.7166 3.04333 13.9346 3.55667 14.0493 4.40933C14.1653 5.276 14.1666 6.41467 14.1666 8C14.1666 9.58533 14.1653 10.724 14.0493 11.5907C13.9346 12.4433 13.7159 12.9573 13.3366 13.3373C12.9566 13.7167 12.4433 13.9347 11.5906 14.0493C10.7239 14.1653 9.58525 14.1667 7.99992 14.1667C6.41459 14.1667 5.27592 14.1653 4.40925 14.0493C3.55659 13.9347 3.04259 13.716 2.66259 13.3367C2.28325 12.9567 2.06525 12.4433 1.95059 11.5907C1.83459 10.724 1.83325 9.58533 1.83325 8C1.83325 6.41467 1.83459 5.276 1.95059 4.40933C2.06525 3.55667 2.28392 3.04333 2.66325 2.66333Z" fill="#868E96"/>
</g>
<defs>
<clipPath id="clip0_49_27542">
<rect width="16" height="16" fill="white"/>
</clipPath>
</defs>
</svg>
