<svg width="16" height="16" viewBox="0 0 16 16" fill="none" xmlns="http://www.w3.org/2000/svg">
<g clip-path="url(#clip0_49_27549)">
<path d="M8.49992 5.99999C8.49992 5.86739 8.44724 5.74021 8.35347 5.64644C8.2597 5.55267 8.13253 5.49999 7.99992 5.49999C7.86731 5.49999 7.74013 5.55267 7.64637 5.64644C7.5526 5.74021 7.49992 5.86739 7.49992 5.99999V7.49999H5.99992C5.86731 7.49999 5.74013 7.55267 5.64637 7.64644C5.5526 7.74021 5.49992 7.86739 5.49992 7.99999C5.49992 8.1326 5.5526 8.25978 5.64637 8.35355C5.74013 8.44732 5.86731 8.49999 5.99992 8.49999H7.49992V10C7.49992 10.1326 7.5526 10.2598 7.64637 10.3535C7.74013 10.4473 7.86731 10.5 7.99992 10.5C8.13253 10.5 8.2597 10.4473 8.35347 10.3535C8.44724 10.2598 8.49992 10.1326 8.49992 10V8.49999H9.99992C10.1325 8.49999 10.2597 8.44732 10.3535 8.35355C10.4472 8.25978 10.4999 8.1326 10.4999 7.99999C10.4999 7.86739 10.4472 7.74021 10.3535 7.64644C10.2597 7.55267 10.1325 7.49999 9.99992 7.49999H8.49992V5.99999Z" fill="#868E96"/>
<path fill-rule="evenodd" clip-rule="evenodd" d="M8.03792 0.833328H7.96192C6.42259 0.833328 5.21659 0.833328 4.27525 0.959995C3.31259 1.08933 2.55259 1.35999 1.95592 1.95599C1.35925 2.55266 1.08925 3.31266 0.959919 4.27599C0.833252 5.21666 0.833252 6.42266 0.833252 7.96199V8.03799C0.833252 9.57733 0.833252 10.7833 0.959919 11.7247C1.08925 12.6873 1.35992 13.4473 1.95592 14.044C2.55259 14.6407 3.31259 14.9107 4.27592 15.04C5.21659 15.1667 6.42259 15.1667 7.96192 15.1667H8.03792C9.57725 15.1667 10.7833 15.1667 11.7246 15.04C12.6873 14.9107 13.4473 14.64 14.0439 14.044C14.6406 13.4473 14.9106 12.6873 15.0399 11.724C15.1666 10.7833 15.1666 9.57733 15.1666 8.03799V7.96199C15.1666 6.42266 15.1666 5.21666 15.0399 4.27533C14.9106 3.31266 14.6399 2.55266 14.0439 1.95599C13.4473 1.35933 12.6873 1.08933 11.7239 0.959995C10.7833 0.833328 9.57725 0.833328 8.03792 0.833328ZM2.66325 2.66333C3.04325 2.28333 3.55659 2.06533 4.40925 1.95066C5.27592 1.83466 6.41459 1.83333 7.99992 1.83333C9.58525 1.83333 10.7239 1.83466 11.5906 1.95066C12.4433 2.06533 12.9573 2.28399 13.3373 2.66333C13.7166 3.04333 13.9346 3.55666 14.0493 4.40933C14.1653 5.27599 14.1666 6.41466 14.1666 7.99999C14.1666 9.58533 14.1653 10.724 14.0493 11.5907C13.9346 12.4433 13.7159 12.9573 13.3366 13.3373C12.9566 13.7167 12.4433 13.9347 11.5906 14.0493C10.7239 14.1653 9.58525 14.1667 7.99992 14.1667C6.41459 14.1667 5.27592 14.1653 4.40925 14.0493C3.55659 13.9347 3.04259 13.716 2.66259 13.3367C2.28325 12.9567 2.06525 12.4433 1.95059 11.5907C1.83459 10.724 1.83325 9.58533 1.83325 7.99999C1.83325 6.41466 1.83459 5.27599 1.95059 4.40933C2.06525 3.55666 2.28392 3.04333 2.66325 2.66333Z" fill="#868E96"/>
</g>
<defs>
<clipPath id="clip0_49_27549">
<rect width="16" height="16" fill="white"/>
</clipPath>
</defs>
</svg>
