<svg width="16" height="16" viewBox="0 0 16 16" fill="none" xmlns="http://www.w3.org/2000/svg">
<path d="M14.0261 10.2661V8.47414C14.0261 6.73019 14.0261 5.85819 13.5857 5.31641C13.1454 4.77463 12.4368 4.77463 11.0195 4.77463H10.01C9.39557 4.77463 9.0883 4.77463 8.81208 4.63383C8.53578 4.49302 8.31856 4.22571 7.88405 3.69107L7.39038 3.08356C6.95586 2.54892 6.73862 2.28161 6.46237 2.1408C6.18612 2 5.87889 2 5.26443 2H5.00651C3.58923 2 2.88059 2 2.4403 2.54178C2 3.08356 2 3.95554 2 5.69951V10.3239C2 12.0678 2 12.9398 2.4403 13.4816C2.88059 14.0234 3.58923 14.0234 5.00651 14.0234H10.2679" stroke="#E8E3E3"/>
<path d="M10.3839 12.3569H12.3569" stroke="#FFEFEF"/>
<path d="M12.3569 12.3569H14.33" stroke="#FFEFEF"/>
<path d="M12.3569 12.3569V14.33" stroke="#FFEFEF"/>
<path d="M12.3569 12.3569V10.3838" stroke="#FFEFEF"/>
</svg>
