<svg width="16" height="16" viewBox="0 0 16 16" fill="none" xmlns="http://www.w3.org/2000/svg">
<g clip-path="url(#clip0_12_19)">
<path d="M15 10.625V8.53846C15 6.50782 15 5.49246 14.4874 4.86162C13.9748 4.23077 13.1499 4.23077 11.5 4.23077H10.3248C9.60948 4.23077 9.25177 4.23077 8.93021 4.06682C8.60856 3.90287 8.35569 3.5916 7.84985 2.96908L7.27515 2.26169C6.76931 1.63916 6.51642 1.3279 6.19482 1.16395C5.87323 1 5.51557 1 4.80026 1H4.5C2.85008 1 2.02512 1 1.51257 1.63085C1 2.26169 1 3.27702 1 5.30769V10.6923C1 12.723 1 13.7383 1.51257 14.3691C2.02512 15 2.85008 15 4.5 15H10.625" stroke="#E8E3E3"/>
<path d="M10.625 12.8125H12.8125" stroke="#FFEFEF"/>
<path d="M12.8125 12.8125H15" stroke="#FFEFEF"/>
<path d="M12.8125 12.8125V15" stroke="#FFEFEF"/>
<path d="M12.8125 12.8125V10.625" stroke="#FFEFEF"/>
</g>
<defs>
<clipPath id="clip0_12_19">
<rect width="16" height="16" fill="white"/>
</clipPath>
</defs>
</svg>
