<svg width="16" height="16" viewBox="0 0 16 16" fill="none" xmlns="http://www.w3.org/2000/svg">
<path d="M1.33325 3.33333C1.33325 2.70467 1.33325 2.39067 1.52859 2.19533C1.72392 2 2.03792 2 2.66659 2H13.3333C13.9619 2 14.2759 2 14.4713 2.19533C14.6666 2.39067 14.6666 2.70467 14.6666 3.33333C14.6666 3.962 14.6666 4.276 14.4713 4.47133C14.2759 4.66667 13.9619 4.66667 13.3333 4.66667H2.66659C2.03792 4.66667 1.72392 4.66667 1.52859 4.47133C1.33325 4.276 1.33325 3.962 1.33325 3.33333Z" fill="#868E96"/>
<path fill-rule="evenodd" clip-rule="evenodd" d="M13.3793 5.66667L13.6666 5.66533V8.66667C13.6666 11.1807 13.6666 12.438 12.8853 13.2187C12.1039 13.9993 10.8473 14 8.33325 14H7.66659C5.15259 14 3.89525 14 3.11459 13.2187C2.33392 12.4373 2.33325 11.1807 2.33325 8.66667V5.66533L2.62059 5.66667H13.3793ZM5.99992 8C5.99992 7.68933 5.99992 7.534 6.05059 7.41133C6.11825 7.24806 6.24797 7.11833 6.41125 7.05067C6.53392 7 6.68925 7 6.99992 7H8.99992C9.31059 7 9.46592 7 9.58859 7.05067C9.75161 7.11847 9.88108 7.24818 9.94859 7.41133C9.99992 7.534 9.99992 7.68933 9.99992 8C9.99992 8.31067 9.99992 8.466 9.94925 8.58867C9.88145 8.75169 9.75174 8.88116 9.58859 8.94867C9.46592 9 9.31059 9 8.99992 9H6.99992C6.68925 9 6.53392 9 6.41125 8.94933C6.24823 8.88153 6.11876 8.75182 6.05125 8.58867C5.99992 8.466 5.99992 8.31067 5.99992 8Z" fill="#868E96"/>
</svg>
