<svg width="16" height="16" viewBox="0 0 16 16" fill="none" xmlns="http://www.w3.org/2000/svg">
<path d="M7.35335 5.98C7.25857 5.89168 7.13321 5.8436 7.00367 5.84589C6.87414 5.84817 6.75055 5.90065 6.65894 5.99226C6.56733 6.08387 6.51486 6.20746 6.51257 6.33699C6.51029 6.46652 6.55837 6.59189 6.64669 6.68667L7.96002 8L6.64669 9.31334C6.59756 9.35911 6.55816 9.41431 6.53083 9.47565C6.50351 9.53698 6.48881 9.60319 6.48763 9.67032C6.48644 9.73746 6.49879 9.80414 6.52394 9.8664C6.54909 9.92866 6.58652 9.98522 6.634 10.0327C6.68148 10.0802 6.73803 10.1176 6.80029 10.1428C6.86255 10.1679 6.92923 10.1803 6.99637 10.1791C7.0635 10.1779 7.12971 10.1632 7.19105 10.1359C7.25238 10.1085 7.30758 10.0691 7.35335 10.02L8.66669 8.70667L9.98002 10.02C10.0748 10.1083 10.2002 10.1564 10.3297 10.1541C10.4592 10.1518 10.5828 10.0994 10.6744 10.0078C10.766 9.91614 10.8185 9.79255 10.8208 9.66302C10.8231 9.53349 10.775 9.40812 10.6867 9.31334L9.37335 8L10.6867 6.68667C10.775 6.59189 10.8231 6.46652 10.8208 6.33699C10.8185 6.20746 10.766 6.08387 10.6744 5.99226C10.5828 5.90065 10.4592 5.84817 10.3297 5.84589C10.2002 5.8436 10.0748 5.89168 9.98002 5.98L8.66669 7.29334L7.35335 5.98Z" fill="#868E96"/>
<path fill-rule="evenodd" clip-rule="evenodd" d="M14.2133 3.08934C13.7026 2.59267 13.0566 2.37334 12.2579 2.26867C11.4793 2.16667 10.4833 2.16667 9.22259 2.16667H7.40392C6.68192 2.16667 6.10525 2.16667 5.63325 2.21067C5.14659 2.25601 4.73325 2.35067 4.34325 2.56067C3.95259 2.77134 3.64992 3.06334 3.34992 3.44334C3.06125 3.81067 2.75525 4.28734 2.37325 4.88201L1.89125 5.63334C1.57259 6.12934 1.31192 6.53467 1.13459 6.88801C0.949252 7.25667 0.833252 7.60801 0.833252 8.00067C0.833252 8.39334 0.949252 8.74467 1.13459 9.11401C1.31192 9.46734 1.57259 9.87201 1.89125 10.368L2.37325 11.1187C2.75525 11.7133 3.06125 12.19 3.35059 12.5573C3.64992 12.9373 3.95259 13.2293 4.34392 13.44C4.73325 13.65 5.14592 13.7447 5.63325 13.79C6.10525 13.834 6.68192 13.834 7.40392 13.834H9.22259C10.4833 13.834 11.4793 13.834 12.2579 13.732C13.0566 13.6273 13.7026 13.408 14.2126 12.9113C14.7246 12.4133 14.9526 11.7793 15.0613 10.9953C15.1666 10.2353 15.1666 9.26334 15.1666 8.03934V7.96201C15.1666 6.73801 15.1666 5.76667 15.0613 5.00601C14.9533 4.22201 14.7246 3.58867 14.2126 3.09001M9.18525 3.16734C10.4906 3.16734 11.4213 3.16867 12.1273 3.26067C12.8206 3.35134 13.2219 3.52201 13.5146 3.80734C13.8053 4.08934 13.9779 4.47467 14.0706 5.14334C14.1646 5.82734 14.1659 6.72934 14.1659 8.00067C14.1659 9.27201 14.1646 10.174 14.0706 10.858C13.9779 11.5267 13.8053 11.9113 13.5146 12.1947C13.2219 12.4793 12.8206 12.65 12.1273 12.7407C11.4206 12.8333 10.4906 12.834 9.18525 12.834H7.42725C6.67592 12.834 6.14592 12.834 5.72525 12.794C5.31525 12.756 5.04725 12.684 4.81725 12.5593C4.58792 12.436 4.38392 12.2547 4.13525 11.938C3.87925 11.6133 3.59925 11.178 3.20059 10.5573L2.74659 9.85067C2.40992 9.32601 2.17859 8.96534 2.02792 8.66467C1.88192 8.37467 1.83259 8.18134 1.83259 8.00067C1.83259 7.82001 1.88192 7.62667 2.02792 7.33667C2.17859 7.03667 2.40992 6.67534 2.74659 6.15067L3.19992 5.44401C3.59925 4.82401 3.87992 4.38801 4.13525 4.06334C4.38459 3.74667 4.58859 3.56534 4.81725 3.44201C5.04725 3.31734 5.31525 3.24534 5.72525 3.20667C6.14525 3.16801 6.67592 3.16734 7.42725 3.16734H9.18525Z" fill="#868E96"/>
</svg>
