<svg width="16" height="16" viewBox="0 0 16 16" fill="none" xmlns="http://www.w3.org/2000/svg">
<path fill-rule="evenodd" clip-rule="evenodd" d="M4.73333 0.833252H11.2673C11.9453 0.833252 12.412 0.833252 12.8047 0.969252C13.1716 1.09904 13.5036 1.31161 13.7751 1.59047C14.0466 1.86934 14.2501 2.207 14.37 2.57725C14.5007 2.97525 14.5 3.44859 14.5 4.15059V13.5826C14.5 14.5599 13.3487 15.1413 12.5907 14.4473C12.5663 14.424 12.534 14.411 12.5003 14.411C12.4667 14.411 12.4343 14.424 12.41 14.4473L12.0873 14.7419C11.4687 15.3086 10.5313 15.3086 9.91267 14.7419C9.80069 14.6374 9.6532 14.5792 9.5 14.5792C9.3468 14.5792 9.19931 14.6374 9.08733 14.7419C8.46867 15.3086 7.53133 15.3086 6.91267 14.7419C6.80069 14.6374 6.6532 14.5792 6.5 14.5792C6.3468 14.5792 6.19931 14.6374 6.08733 14.7419C5.46867 15.3086 4.53133 15.3086 3.91267 14.7419L3.59067 14.4473C3.56632 14.4238 3.53382 14.4107 3.5 14.4107C3.46618 14.4107 3.43368 14.4238 3.40933 14.4473C2.65133 15.1406 1.5 14.5599 1.5 13.5826V4.15125C1.5 3.44859 1.5 2.97525 1.63 2.57725C1.74987 2.207 1.95344 1.86934 2.22491 1.59047C2.49637 1.31161 2.82843 1.09904 3.19533 0.969252C3.58867 0.832585 4.05533 0.833252 4.73333 0.833252ZM4.83 1.83325C4.016 1.83325 3.73533 1.83992 3.52333 1.91392C3.30192 1.9933 3.10175 2.12255 2.93828 2.29168C2.77482 2.4608 2.65246 2.66527 2.58067 2.88925C2.50667 3.11459 2.50067 3.41192 2.50067 4.24659V13.5826C2.50067 13.6626 2.54 13.7106 2.59 13.7339C2.61281 13.7448 2.63825 13.7489 2.66333 13.7459C2.69031 13.7413 2.71522 13.7285 2.73467 13.7093C2.94328 13.5172 3.21646 13.4106 3.5 13.4106C3.78354 13.4106 4.05672 13.5172 4.26533 13.7093L4.58733 14.0039C4.69931 14.1085 4.8468 14.1666 5 14.1666C5.1532 14.1666 5.30069 14.1085 5.41267 14.0039C5.70896 13.7309 6.09711 13.5794 6.5 13.5794C6.90289 13.5794 7.29104 13.7309 7.58733 14.0039C7.69931 14.1085 7.8468 14.1666 8 14.1666C8.1532 14.1666 8.30069 14.1085 8.41267 14.0039C8.70896 13.7309 9.09711 13.5794 9.5 13.5794C9.90289 13.5794 10.291 13.7309 10.5873 14.0039C10.6993 14.1085 10.8468 14.1666 11 14.1666C11.1532 14.1666 11.3007 14.1085 11.4127 14.0039L11.7347 13.7093C11.9433 13.5172 12.2165 13.4106 12.5 13.4106C12.7835 13.4106 13.0567 13.5172 13.2653 13.7093C13.294 13.7359 13.3187 13.7439 13.3373 13.7459C13.3622 13.7488 13.3874 13.7447 13.41 13.7339C13.46 13.7106 13.5 13.6619 13.5 13.5826V4.24659C13.5 3.41192 13.4933 3.11459 13.42 2.88859C13.348 2.66459 13.2254 2.46016 13.0617 2.29115C12.898 2.12213 12.6976 1.99306 12.476 1.91392C12.2647 1.84059 11.984 1.83392 11.17 1.83392L4.83 1.83325ZM10.0007 4.95992C10.0497 5.00366 10.0897 5.05665 10.1183 5.11585C10.1469 5.17506 10.1635 5.23932 10.1672 5.30496C10.1709 5.37059 10.1617 5.43632 10.14 5.49837C10.1182 5.56043 10.0845 5.61759 10.0407 5.66659L7.65933 8.33325C7.61243 8.38579 7.55496 8.42783 7.49068 8.45662C7.4264 8.4854 7.35676 8.50028 7.28633 8.50028C7.2159 8.50028 7.14627 8.4854 7.08199 8.45662C7.01771 8.42783 6.96024 8.38579 6.91333 8.33325L5.96133 7.26659C5.87384 7.16761 5.82906 7.03803 5.83679 6.90615C5.84453 6.77428 5.90413 6.65082 6.0026 6.56275C6.10106 6.47467 6.23038 6.42915 6.3623 6.43611C6.49422 6.44308 6.61802 6.50197 6.70667 6.59992L7.28667 7.24925L9.29467 5.00059C9.33835 4.95155 9.39126 4.91161 9.45039 4.88303C9.50951 4.85445 9.57368 4.83779 9.63924 4.83402C9.7048 4.83024 9.77046 4.83941 9.83248 4.86102C9.89449 4.88262 9.95164 4.91623 10.0007 4.95992ZM4.50067 10.3333C4.50067 10.2006 4.55334 10.0735 4.64711 9.9797C4.74088 9.88593 4.86806 9.83325 5.00067 9.83325H11.0007C11.1333 9.83325 11.2605 9.88593 11.3542 9.9797C11.448 10.0735 11.5007 10.2006 11.5007 10.3333C11.5007 10.4659 11.448 10.593 11.3542 10.6868C11.2605 10.7806 11.1333 10.8333 11.0007 10.8333H5.00067C4.86806 10.8333 4.74088 10.7806 4.64711 10.6868C4.55334 10.593 4.50067 10.4659 4.50067 10.3333Z" fill="#868E96"/>
</svg>
