<svg width="16" height="16" viewBox="0 0 16 16" fill="none" xmlns="http://www.w3.org/2000/svg">
<path fill-rule="evenodd" clip-rule="evenodd" d="M2.30925 2.30933C1.33325 3.28667 1.33325 4.85733 1.33325 8C1.33325 11.1427 1.33325 12.714 2.30925 13.69C3.28659 14.6667 4.85725 14.6667 7.99992 14.6667C11.1426 14.6667 12.7139 14.6667 13.6899 13.69C14.6666 12.7147 14.6666 11.1427 14.6666 8C14.6666 4.85733 14.6666 3.286 13.6899 2.30933C12.7146 1.33333 11.1426 1.33333 7.99992 1.33333C4.85725 1.33333 3.28592 1.33333 2.30925 2.30933ZM4.28258 6.34667C4.36748 6.24486 4.48932 6.18092 4.62134 6.16892C4.75335 6.15692 4.88473 6.19783 4.98659 6.28266L5.17125 6.436C5.57458 6.772 5.91792 7.058 6.15525 7.32133C6.40792 7.60133 6.60458 7.922 6.60458 8.33333C6.60458 8.74467 6.40792 9.066 6.15525 9.34533C5.91792 9.60866 5.57458 9.89466 5.17125 10.2307L4.98659 10.384C4.93641 10.4279 4.87795 10.4613 4.81467 10.4823C4.75138 10.5033 4.68454 10.5114 4.61808 10.5061C4.55161 10.5009 4.48687 10.4824 4.42765 10.4518C4.36843 10.4212 4.31594 10.379 4.27326 10.3278C4.23057 10.2766 4.19857 10.2173 4.17912 10.1535C4.15967 10.0898 4.15317 10.0228 4.16 9.95644C4.16683 9.89012 4.18686 9.82584 4.2189 9.76737C4.25095 9.70891 4.29436 9.65744 4.34659 9.616L4.50259 9.486C4.94192 9.11933 5.22925 8.87933 5.41325 8.67533C5.58792 8.482 5.60458 8.39067 5.60458 8.33333C5.60458 8.276 5.58792 8.18533 5.41325 7.99133C5.22859 7.78733 4.94192 7.54667 4.50259 7.18067L4.34659 7.05067C4.24478 6.96577 4.18084 6.84393 4.16884 6.71191C4.15684 6.5799 4.19775 6.44852 4.28258 6.34667ZM11.8333 10C11.8333 10.1326 11.7806 10.2598 11.6868 10.3536C11.593 10.4473 11.4659 10.5 11.3333 10.5H7.99992C7.86731 10.5 7.74013 10.4473 7.64637 10.3536C7.5526 10.2598 7.49992 10.1326 7.49992 10C7.49992 9.86739 7.5526 9.74021 7.64637 9.64645C7.74013 9.55268 7.86731 9.5 7.99992 9.5H11.3333C11.4659 9.5 11.593 9.55268 11.6868 9.64645C11.7806 9.74021 11.8333 9.86739 11.8333 10Z" fill="#868E96"/>
</svg>
