<svg width="16" height="16" viewBox="0 0 16 16" fill="none" xmlns="http://www.w3.org/2000/svg">
<path d="M9.34525 4.91C9.37964 4.7819 9.36174 4.64538 9.29547 4.53048C9.22921 4.41559 9.12002 4.33172 8.99192 4.29733C8.86382 4.26294 8.72731 4.28084 8.61241 4.34711C8.49751 4.41337 8.41364 4.52256 8.37925 4.65066L6.65392 11.0907C6.61962 11.2189 6.63764 11.3554 6.70403 11.4703C6.77042 11.5852 6.87973 11.669 7.00792 11.7033C7.13611 11.7376 7.27267 11.7196 7.38757 11.6532C7.50246 11.5868 7.58628 11.4775 7.62059 11.3493L9.34525 4.91Z" fill="#868E96"/>
<path fill-rule="evenodd" clip-rule="evenodd" d="M7.99992 0.833328C4.04192 0.833328 0.833252 4.042 0.833252 8C0.833252 11.958 4.04192 15.1667 7.99992 15.1667C11.9579 15.1667 15.1666 11.958 15.1666 8C15.1666 4.042 11.9579 0.833328 7.99992 0.833328ZM1.83325 8C1.83325 6.36449 2.48295 4.79598 3.63943 3.6395C4.7959 2.48303 6.36442 1.83333 7.99992 1.83333C9.63542 1.83333 11.2039 2.48303 12.3604 3.6395C13.5169 4.79598 14.1666 6.36449 14.1666 8C14.1666 9.6355 13.5169 11.204 12.3604 12.3605C11.2039 13.517 9.63542 14.1667 7.99992 14.1667C6.36442 14.1667 4.7959 13.517 3.63943 12.3605C2.48295 11.204 1.83325 9.6355 1.83325 8Z" fill="#868E96"/>
</svg>
