<svg width="16" height="16" viewBox="0 0 16 16" fill="none" xmlns="http://www.w3.org/2000/svg">
<g clip-path="url(#clip0_62_40927)">
<path d="M10.6866 6.68667C10.7357 6.64089 10.7751 6.58569 10.8024 6.52436C10.8298 6.46303 10.8445 6.39682 10.8456 6.32968C10.8468 6.26255 10.8345 6.19586 10.8093 6.1336C10.7842 6.07135 10.7468 6.01479 10.6993 5.96731C10.6518 5.91983 10.5952 5.8824 10.533 5.85725C10.4707 5.83211 10.404 5.81976 10.3369 5.82094C10.2698 5.82213 10.2036 5.83682 10.1422 5.86415C10.0809 5.89148 10.0257 5.93088 9.97992 5.98L6.99992 8.96L6.01992 7.98C5.92514 7.89168 5.79977 7.8436 5.67024 7.84589C5.5407 7.84817 5.41711 7.90065 5.3255 7.99226C5.2339 8.08386 5.18142 8.20745 5.17914 8.33699C5.17685 8.46652 5.22493 8.59189 5.31325 8.68667L6.64659 10.02C6.74034 10.1136 6.86742 10.1662 6.99992 10.1662C7.13242 10.1662 7.2595 10.1136 7.35325 10.02L10.6866 6.68667Z" fill="#868E96"/>
<path fill-rule="evenodd" clip-rule="evenodd" d="M7.99992 0.833336C4.04192 0.833336 0.833252 4.042 0.833252 8C0.833252 11.958 4.04192 15.1667 7.99992 15.1667C11.9579 15.1667 15.1666 11.958 15.1666 8C15.1666 4.042 11.9579 0.833336 7.99992 0.833336ZM1.83325 8C1.83325 6.3645 2.48295 4.79599 3.63943 3.63951C4.7959 2.48304 6.36442 1.83334 7.99992 1.83334C9.63542 1.83334 11.2039 2.48304 12.3604 3.63951C13.5169 4.79599 14.1666 6.3645 14.1666 8C14.1666 9.6355 13.5169 11.204 12.3604 12.3605C11.2039 13.517 9.63542 14.1667 7.99992 14.1667C6.36442 14.1667 4.7959 13.517 3.63943 12.3605C2.48295 11.204 1.83325 9.6355 1.83325 8Z" fill="#868E96"/>
</g>
<defs>
<clipPath id="clip0_62_40927">
<rect width="16" height="16" fill="white"/>
</clipPath>
</defs>
</svg>
