<svg width="16" height="16" viewBox="0 0 16 16" fill="none" xmlns="http://www.w3.org/2000/svg">
<g clip-path="url(#clip0_474_9413)">
<path fill-rule="evenodd" clip-rule="evenodd" d="M8.00065 1.83325C6.36515 1.83325 4.79663 2.48295 3.64016 3.63943C2.48368 4.7959 1.83398 6.36442 1.83398 7.99992C1.83398 9.63542 2.48368 11.2039 3.64016 12.3604C4.79663 13.5169 6.36515 14.1666 8.00065 14.1666C9.63615 14.1666 11.2047 13.5169 12.3611 12.3604C13.5176 11.2039 14.1673 9.63542 14.1673 7.99992C14.1673 6.36442 13.5176 4.7959 12.3611 3.63943C11.2047 2.48295 9.63615 1.83325 8.00065 1.83325ZM0.833984 7.99992C0.833984 4.04192 4.04265 0.833252 8.00065 0.833252C11.9587 0.833252 15.1673 4.04192 15.1673 7.99992C15.1673 11.9579 11.9587 15.1666 8.00065 15.1666C4.04265 15.1666 0.833984 11.9579 0.833984 7.99992ZM8.00065 4.83325C8.13326 4.83325 8.26044 4.88593 8.3542 4.9797C8.44797 5.07347 8.50065 5.20064 8.50065 5.33325V7.79325L10.0206 9.31325C10.0698 9.35903 10.1092 9.41423 10.1365 9.47556C10.1638 9.53689 10.1785 9.6031 10.1797 9.67024C10.1809 9.73737 10.1685 9.80406 10.1434 9.86632C10.1183 9.92858 10.0808 9.98513 10.0333 10.0326C9.98586 10.0801 9.92931 10.1175 9.86705 10.1427C9.80479 10.1678 9.7381 10.1802 9.67097 10.179C9.60383 10.1778 9.53762 10.1631 9.47629 10.1358C9.41496 10.1084 9.35976 10.069 9.31398 10.0199L7.64732 8.35325C7.55352 8.25957 7.50077 8.13248 7.50065 7.99992V5.33325C7.50065 5.20064 7.55333 5.07347 7.6471 4.9797C7.74087 4.88593 7.86804 4.83325 8.00065 4.83325Z" fill="#868E96"/>
</g>
<defs>
<clipPath id="clip0_474_9413">
<rect width="16" height="16" fill="white"/>
</clipPath>
</defs>
</svg>
