<svg width="16" height="16" viewBox="0 0 16 16" fill="none" xmlns="http://www.w3.org/2000/svg">
<g clip-path="url(#clip0_49_27553)">
<path d="M6.68661 5.98C6.59182 5.89168 6.46646 5.8436 6.33693 5.84588C6.20739 5.84817 6.0838 5.90064 5.99219 5.99225C5.90058 6.08386 5.84811 6.20745 5.84582 6.33699C5.84354 6.46652 5.89162 6.59188 5.97994 6.68667L7.29327 8L5.97994 9.31333C5.93082 9.35911 5.89141 9.41431 5.86409 9.47564C5.83676 9.53698 5.82206 9.60318 5.82088 9.67032C5.81969 9.73745 5.83204 9.80414 5.85719 9.8664C5.88234 9.92866 5.91977 9.98521 5.96725 10.0327C6.01473 10.0802 6.07128 10.1176 6.13354 10.1427C6.1958 10.1679 6.26249 10.1802 6.32962 10.1791C6.39676 10.1779 6.46297 10.1632 6.5243 10.1359C6.58563 10.1085 6.64083 10.0691 6.68661 10.02L7.99994 8.70667L9.31327 10.02C9.40806 10.1083 9.53342 10.1564 9.66295 10.1541C9.79249 10.1518 9.91608 10.0994 10.0077 10.0077C10.0993 9.91614 10.1518 9.79255 10.1541 9.66302C10.1563 9.53348 10.1083 9.40812 10.0199 9.31333L8.70661 8L10.0199 6.68667C10.0691 6.64089 10.1085 6.58569 10.1358 6.52436C10.1631 6.46303 10.1778 6.39682 10.179 6.32968C10.1802 6.26255 10.1678 6.19586 10.1427 6.1336C10.1175 6.07134 10.0801 6.01479 10.0326 5.96731C9.98515 5.91983 9.9286 5.8824 9.86634 5.85725C9.80408 5.83211 9.73739 5.81976 9.67026 5.82094C9.60312 5.82212 9.53691 5.83682 9.47558 5.86415C9.41425 5.89147 9.35905 5.93088 9.31327 5.98L7.99994 7.29333L6.68661 5.98Z" fill="#868E96"/>
<path fill-rule="evenodd" clip-rule="evenodd" d="M8.03792 0.833328H7.96192C6.42259 0.833328 5.21659 0.833328 4.27525 0.959995C3.31259 1.08933 2.55259 1.35999 1.95592 1.95599C1.35925 2.55266 1.08925 3.31266 0.959919 4.27599C0.833252 5.21666 0.833252 6.42266 0.833252 7.96199V8.03799C0.833252 9.57733 0.833252 10.7833 0.959919 11.7247C1.08925 12.6873 1.35992 13.4473 1.95592 14.044C2.55259 14.6407 3.31259 14.9107 4.27592 15.04C5.21659 15.1667 6.42259 15.1667 7.96192 15.1667H8.03792C9.57725 15.1667 10.7833 15.1667 11.7246 15.04C12.6873 14.9107 13.4473 14.64 14.0439 14.044C14.6406 13.4473 14.9106 12.6873 15.0399 11.724C15.1666 10.7833 15.1666 9.57733 15.1666 8.03799V7.96199C15.1666 6.42266 15.1666 5.21666 15.0399 4.27533C14.9106 3.31266 14.6399 2.55266 14.0439 1.95599C13.4473 1.35933 12.6873 1.08933 11.7239 0.959995C10.7833 0.833328 9.57725 0.833328 8.03792 0.833328ZM2.66325 2.66333C3.04325 2.28333 3.55659 2.06533 4.40925 1.95066C5.27592 1.83466 6.41459 1.83333 7.99992 1.83333C9.58525 1.83333 10.7239 1.83466 11.5906 1.95066C12.4433 2.06533 12.9573 2.28399 13.3373 2.66333C13.7166 3.04333 13.9346 3.55666 14.0493 4.40933C14.1653 5.27599 14.1666 6.41466 14.1666 7.99999C14.1666 9.58533 14.1653 10.724 14.0493 11.5907C13.9346 12.4433 13.7159 12.9573 13.3366 13.3373C12.9566 13.7167 12.4433 13.9347 11.5906 14.0493C10.7239 14.1653 9.58525 14.1667 7.99992 14.1667C6.41459 14.1667 5.27592 14.1653 4.40925 14.0493C3.55659 13.9347 3.04259 13.716 2.66259 13.3367C2.28325 12.9567 2.06525 12.4433 1.95059 11.5907C1.83459 10.724 1.83325 9.58533 1.83325 7.99999C1.83325 6.41466 1.83459 5.27599 1.95059 4.40933C2.06525 3.55666 2.28392 3.04333 2.66325 2.66333Z" fill="#868E96"/>
</g>
<defs>
<clipPath id="clip0_49_27553">
<rect width="16" height="16" fill="white"/>
</clipPath>
</defs>
</svg>
