<svg width="16" height="16" viewBox="0 0 16 16" fill="none" xmlns="http://www.w3.org/2000/svg">
<g clip-path="url(#clip0_49_27524)">
<path d="M10.6866 5.64666C10.6408 5.59754 10.5856 5.55814 10.5243 5.53081C10.4629 5.50348 10.3967 5.48878 10.3296 5.4876C10.2625 5.48642 10.1958 5.49877 10.1335 5.52391C10.0713 5.54906 10.0147 5.58649 9.96723 5.63397C9.91975 5.68145 9.88232 5.738 9.85717 5.80026C9.83202 5.86252 9.81967 5.92921 9.82086 5.99634C9.82204 6.06348 9.83674 6.12969 9.86406 6.19102C9.89139 6.25235 9.93079 6.30755 9.97992 6.35333L10.0939 6.46799C10.5486 6.92266 10.8533 7.22799 11.0499 7.48666C11.2386 7.73333 11.2813 7.87733 11.2813 7.99999C11.2813 8.12266 11.2386 8.26666 11.0499 8.51333C10.8533 8.77133 10.5486 9.07733 10.0939 9.53199L9.97992 9.64666C9.93079 9.69244 9.89139 9.74764 9.86406 9.80897C9.83674 9.8703 9.82204 9.93651 9.82086 10.0036C9.81967 10.0708 9.83202 10.1375 9.85717 10.1997C9.88232 10.262 9.91975 10.3185 9.96723 10.366C10.0147 10.4135 10.0713 10.4509 10.1335 10.4761C10.1958 10.5012 10.2625 10.5136 10.3296 10.5124C10.3967 10.5112 10.4629 10.4965 10.5243 10.4692C10.5856 10.4419 10.6408 10.4025 10.6866 10.3533L10.8259 10.2147C11.2493 9.79133 11.6026 9.43799 11.8453 9.12C12.1013 8.784 12.2813 8.42933 12.2813 7.99999C12.2813 7.57066 12.1013 7.21599 11.8453 6.87999C11.6026 6.56199 11.2493 6.20866 10.8253 5.78533L10.6866 5.64666ZM8.99192 4.29733C9.11988 4.3317 9.22898 4.41546 9.29523 4.53021C9.36148 4.64496 9.37947 4.78132 9.34525 4.90933L7.61992 11.3493C7.60289 11.4128 7.57354 11.4722 7.53353 11.5243C7.49353 11.5764 7.44366 11.6201 7.38676 11.6529C7.27187 11.7191 7.13535 11.7371 7.00725 11.7027C6.87915 11.6683 6.76996 11.5844 6.7037 11.4695C6.63743 11.3546 6.61953 11.2181 6.65392 11.09L8.37992 4.65066C8.41429 4.5227 8.49805 4.41361 8.6128 4.34736C8.72756 4.2811 8.86391 4.26311 8.99192 4.29733ZM6.01992 5.64666C5.92617 5.55303 5.79909 5.50043 5.66659 5.50043C5.53409 5.50043 5.407 5.55303 5.31325 5.64666L5.17459 5.78533C4.75059 6.20866 4.39725 6.56199 4.15459 6.87999C3.89859 7.21599 3.71925 7.57066 3.71925 7.99999C3.71925 8.42933 3.89925 8.784 4.15459 9.12C4.39725 9.43799 4.75059 9.79133 5.17459 10.2147L5.31325 10.3533C5.40804 10.4416 5.5334 10.4897 5.66293 10.4874C5.79247 10.4852 5.91606 10.4327 6.00767 10.3411C6.09928 10.2495 6.15175 10.1259 6.15404 9.99634C6.15632 9.86681 6.10824 9.74145 6.01992 9.64666L5.90592 9.53199C5.45125 9.07733 5.14725 8.772 4.94992 8.51333C4.76125 8.26666 4.71925 8.12266 4.71925 7.99999C4.71925 7.87733 4.76125 7.73333 4.94992 7.48666C5.14725 7.22866 5.45125 6.92266 5.90592 6.46799L6.02059 6.35333C6.11422 6.25958 6.16681 6.13249 6.16681 5.99999C6.16681 5.86749 6.11355 5.74041 6.01992 5.64666Z" fill="#868E96"/>
<path fill-rule="evenodd" clip-rule="evenodd" d="M7.99992 0.833328C4.04192 0.833328 0.833252 4.04199 0.833252 7.99999C0.833252 11.958 4.04192 15.1667 7.99992 15.1667C11.9579 15.1667 15.1666 11.958 15.1666 7.99999C15.1666 4.04199 11.9579 0.833328 7.99992 0.833328ZM1.83325 7.99999C1.83325 6.36449 2.48295 4.79598 3.63943 3.6395C4.7959 2.48303 6.36442 1.83333 7.99992 1.83333C9.63542 1.83333 11.2039 2.48303 12.3604 3.6395C13.5169 4.79598 14.1666 6.36449 14.1666 7.99999C14.1666 9.6355 13.5169 11.204 12.3604 12.3605C11.2039 13.517 9.63542 14.1667 7.99992 14.1667C6.36442 14.1667 4.7959 13.517 3.63943 12.3605C2.48295 11.204 1.83325 9.6355 1.83325 7.99999Z" fill="#868E96"/>
</g>
<defs>
<clipPath id="clip0_49_27524">
<rect width="16" height="16" fill="white"/>
</clipPath>
</defs>
</svg>
