<svg width="16" height="16" viewBox="0 0 16 16" fill="none" xmlns="http://www.w3.org/2000/svg">
<path fill-rule="evenodd" clip-rule="evenodd" d="M3.54141 7.17467C5.48675 3.72467 6.45941 2 8.00008 2C9.54075 2 10.5134 3.72467 12.4587 7.17467L12.7014 7.604C14.3181 10.4707 15.1267 11.904 14.3961 12.952C13.6654 14 11.8574 14 8.24275 14H7.75741C4.14275 14 2.33475 14 1.60408 12.952C0.873412 11.904 1.68208 10.4707 3.29875 7.604L3.54141 7.17467ZM8.00008 4.83333C8.13269 4.83333 8.25986 4.88601 8.35363 4.97978C8.4474 5.07355 8.50008 5.20073 8.50008 5.33333V8.66667C8.50008 8.79927 8.4474 8.92645 8.35363 9.02022C8.25986 9.11399 8.13269 9.16667 8.00008 9.16667C7.86747 9.16667 7.74029 9.11399 7.64653 9.02022C7.55276 8.92645 7.50008 8.79927 7.50008 8.66667V5.33333C7.50008 5.20073 7.55276 5.07355 7.64653 4.97978C7.74029 4.88601 7.86747 4.83333 8.00008 4.83333ZM8.00008 11.3333C8.17689 11.3333 8.34646 11.2631 8.47148 11.1381C8.59651 11.013 8.66675 10.8435 8.66675 10.6667C8.66675 10.4899 8.59651 10.3203 8.47148 10.1953C8.34646 10.0702 8.17689 10 8.00008 10C7.82327 10 7.6537 10.0702 7.52867 10.1953C7.40365 10.3203 7.33341 10.4899 7.33341 10.6667C7.33341 10.8435 7.40365 11.013 7.52867 11.1381C7.6537 11.2631 7.82327 11.3333 8.00008 11.3333Z" fill="#868E96"/>
</svg>
