<svg width="16" height="16" viewBox="0 0 16 16" fill="none" xmlns="http://www.w3.org/2000/svg">
<path fill-rule="evenodd" clip-rule="evenodd" d="M14.6666 8C14.6666 4.318 11.6819 1.33333 7.99992 1.33333C4.31792 1.33333 1.33325 4.318 1.33325 8C1.33325 11.682 4.31792 14.6667 7.99992 14.6667C11.6819 14.6667 14.6666 11.682 14.6666 8ZM7.99992 4.16666C8.13253 4.16666 8.2597 4.21934 8.35347 4.31311C8.44724 4.40688 8.49992 4.53405 8.49992 4.66666V8.66666C8.49992 8.79927 8.44724 8.92645 8.35347 9.02022C8.2597 9.11398 8.13253 9.16666 7.99992 9.16666C7.86731 9.16666 7.74013 9.11398 7.64637 9.02022C7.5526 8.92645 7.49992 8.79927 7.49992 8.66666V4.66666C7.49992 4.53405 7.5526 4.40688 7.64637 4.31311C7.74013 4.21934 7.86731 4.16666 7.99992 4.16666ZM7.99992 11.3333C8.17673 11.3333 8.3463 11.2631 8.47132 11.1381C8.59635 11.013 8.66659 10.8435 8.66659 10.6667C8.66659 10.4899 8.59635 10.3203 8.47132 10.1953C8.3463 10.0702 8.17673 10 7.99992 10C7.82311 10 7.65354 10.0702 7.52851 10.1953C7.40349 10.3203 7.33325 10.4899 7.33325 10.6667C7.33325 10.8435 7.40349 11.013 7.52851 11.1381C7.65354 11.2631 7.82311 11.3333 7.99992 11.3333Z" fill="#868E96"/>
</svg>
