<svg width="16" height="16" viewBox="0 0 16 16" fill="none" xmlns="http://www.w3.org/2000/svg">
<g clip-path="url(#clip0_49_27532)">
<path d="M11.3333 6.00134C12.7833 6.00934 13.5686 6.074 14.0806 6.586C14.6666 7.172 14.6666 8.11467 14.6666 10V10.6667C14.6666 12.5527 14.6666 13.4953 14.0806 14.0813C13.4953 14.6667 12.5519 14.6667 10.6666 14.6667H5.33325C3.44792 14.6667 2.50459 14.6667 1.91925 14.0813C1.33325 13.4947 1.33325 12.5527 1.33325 10.6667V10C1.33325 8.11467 1.33325 7.172 1.91925 6.586C2.43125 6.074 3.21659 6.00934 4.66659 6.00134" stroke="#868E96" stroke-linecap="round"/>
<path d="M8 10V1.33334M8 1.33334L10 3.66667M8 1.33334L6 3.66667" stroke="#868E96" stroke-linecap="round" stroke-linejoin="round"/>
</g>
<defs>
<clipPath id="clip0_49_27532">
<rect width="16" height="16" fill="white"/>
</clipPath>
</defs>
</svg>
