<svg width="16" height="16" viewBox="0 0 16 16" fill="none" xmlns="http://www.w3.org/2000/svg">
<path fill-rule="evenodd" clip-rule="evenodd" d="M10 0.833328H7.296C6.07067 0.833328 5.1 0.833328 4.34067 0.935328C3.55933 1.04066 2.92667 1.262 2.42733 1.76066C1.92867 2.26 1.70733 2.89266 1.602 3.674C1.5 4.434 1.5 5.404 1.5 6.62933V10.6667C1.49988 11.2623 1.71244 11.8384 2.0994 12.2913C2.48636 12.7441 3.02228 13.0439 3.61067 13.1367C3.702 13.646 3.87867 14.0807 4.232 14.4347C4.63333 14.836 5.13867 15.008 5.73867 15.0893C6.31667 15.1667 7.052 15.1667 7.96333 15.1667H10.0367C10.948 15.1667 11.6833 15.1667 12.2613 15.0893C12.8613 15.008 13.3667 14.836 13.768 14.4347C14.1693 14.0333 14.3413 13.528 14.4227 12.928C14.5 12.35 14.5 11.6147 14.5 10.7033V7.29666C14.5 6.38533 14.5 5.64999 14.4227 5.07199C14.3413 4.47199 14.1693 3.96666 13.768 3.56533C13.414 3.212 12.9793 3.03533 12.47 2.94399C12.3772 2.35561 12.0774 1.81969 11.6246 1.43273C11.1718 1.04577 10.5956 0.833209 10 0.833328ZM11.42 2.84733C11.3186 2.55133 11.1272 2.29443 10.8726 2.11261C10.618 1.93079 10.3129 1.83314 10 1.83333H7.33333C6.062 1.83333 5.15933 1.83466 4.47333 1.92666C3.80333 2.01666 3.41667 2.18599 3.13467 2.46799C2.85267 2.74999 2.68333 3.13666 2.59333 3.80666C2.50133 4.49266 2.5 5.39533 2.5 6.66666V10.6667C2.49981 10.9795 2.59746 11.2846 2.77928 11.5393C2.96111 11.7939 3.218 11.9853 3.514 12.0867C3.5 11.68 3.5 11.22 3.5 10.7033V7.29666C3.5 6.38533 3.5 5.64999 3.578 5.07199C3.658 4.47199 3.83133 3.96666 4.232 3.56533C4.63333 3.164 5.13867 2.992 5.73867 2.91133C6.31667 2.83333 7.052 2.83333 7.96333 2.83333H10.0367C10.5533 2.83333 11.0133 2.83333 11.42 2.84733ZM4.93867 4.27333C5.12333 4.08866 5.382 3.96866 5.872 3.90266C6.37467 3.83533 7.04267 3.83399 7.99933 3.83399H9.99933C10.956 3.83399 11.6233 3.83533 12.1273 3.90266C12.6167 3.96866 12.8753 4.08933 13.06 4.27333C13.2447 4.45799 13.3647 4.71666 13.4307 5.20666C13.498 5.70933 13.4993 6.37733 13.4993 7.334V10.6673C13.4993 11.624 13.498 12.2913 13.4307 12.7953C13.3647 13.2847 13.244 13.5433 13.06 13.728C12.8753 13.9127 12.6167 14.0327 12.1267 14.0987C11.6233 14.166 10.956 14.1673 9.99933 14.1673H7.99933C7.04267 14.1673 6.37467 14.166 5.87133 14.0987C5.382 14.0327 5.12333 13.912 4.93867 13.728C4.754 13.5433 4.634 13.2847 4.568 12.7947C4.50067 12.2913 4.49933 11.624 4.49933 10.6673V7.334C4.49933 6.37733 4.50067 5.70933 4.568 5.206C4.634 4.71666 4.75467 4.45799 4.93867 4.27333Z" fill="#868E96"/>
<path d="M9.5 7C9.5 6.86739 9.44732 6.74021 9.35355 6.64644C9.25979 6.55267 9.13261 6.5 9 6.5C8.86739 6.5 8.74022 6.55267 8.64645 6.64644C8.55268 6.74021 8.5 6.86739 8.5 7V8.5H7C6.86739 8.5 6.74022 8.55267 6.64645 8.64644C6.55268 8.74021 6.5 8.86739 6.5 9C6.5 9.1326 6.55268 9.25978 6.64645 9.35355C6.74022 9.44732 6.86739 9.5 7 9.5H8.5V11C8.5 11.1326 8.55268 11.2598 8.64645 11.3535C8.74022 11.4473 8.86739 11.5 9 11.5C9.13261 11.5 9.25979 11.4473 9.35355 11.3535C9.44732 11.2598 9.5 11.1326 9.5 11V9.5H11C11.1326 9.5 11.2598 9.44732 11.3536 9.35355C11.4473 9.25978 11.5 9.1326 11.5 9C11.5 8.86739 11.4473 8.74021 11.3536 8.64644C11.2598 8.55267 11.1326 8.5 11 8.5H9.5V7Z" fill="#868E96"/>
</svg>
