<svg width="16" height="16" viewBox="0 0 16 16" fill="none" xmlns="http://www.w3.org/2000/svg">
<path fill-rule="evenodd" clip-rule="evenodd" d="M9.40006 1.594C9.88884 1.115 10.5469 0.848262 11.2312 0.851749C11.9156 0.855236 12.5709 1.12867 13.0548 1.61262C13.5386 2.09658 13.812 2.75194 13.8153 3.43629C13.8187 4.12063 13.5518 4.77865 13.0727 5.26733L8.01006 10.33C7.72473 10.6153 7.55006 10.79 7.35673 10.9413C7.1278 11.1197 6.88011 11.2726 6.61806 11.3973C6.3954 11.5033 6.1614 11.5813 5.77873 11.7087L3.9974 12.3027L3.5694 12.4453C3.38163 12.5081 3.1801 12.5172 2.98742 12.4718C2.79473 12.4264 2.61852 12.3282 2.47853 12.1882C2.33855 12.0482 2.24034 11.872 2.19492 11.6793C2.1495 11.4866 2.15867 11.2851 2.2214 11.0973L2.95806 8.888C3.0854 8.50533 3.1634 8.27133 3.2694 8.04867C3.39436 7.78681 3.54748 7.53935 3.72606 7.31067C3.8774 7.11667 4.0514 6.942 4.33673 6.65733L9.40006 1.594ZM3.9734 11.2567L3.41073 10.6927L3.89606 9.236C4.0374 8.812 4.09606 8.63933 4.17206 8.47933C4.2654 8.28267 4.38073 8.09733 4.51406 7.926C4.6234 7.786 4.7514 7.65667 5.0674 7.34L8.99473 3.41333C9.1988 3.92316 9.50483 4.38595 9.89406 4.77333C10.2815 5.16233 10.7443 5.46813 11.2541 5.672L7.32673 9.59867C7.01006 9.91533 6.8814 10.0433 6.7414 10.152C6.56977 10.2857 6.38425 10.4006 6.18806 10.4947C6.02806 10.5707 5.85473 10.6293 5.43073 10.7707L3.9734 11.2567ZM12.0507 4.87467C11.948 4.85197 11.8467 4.82325 11.7474 4.78867C11.3154 4.63764 10.9233 4.39055 10.6007 4.066C10.2763 3.74329 10.0292 3.35125 9.87806 2.91933C9.84326 2.82001 9.81432 2.71872 9.7914 2.616L10.1067 2.30133C10.4079 2.00988 10.8116 1.84847 11.2306 1.85191C11.6497 1.85535 12.0507 2.02336 12.347 2.3197C12.6434 2.61605 12.8114 3.017 12.8148 3.43609C12.8183 3.85518 12.6568 4.25883 12.3654 4.56L12.0507 4.87467ZM2.16673 14.6667C2.16673 14.5341 2.21941 14.4069 2.31318 14.3131C2.40695 14.2193 2.53412 14.1667 2.66673 14.1667H13.3334V15.1667H2.66673C2.53412 15.1667 2.40695 15.114 2.31318 15.0202C2.21941 14.9265 2.16673 14.7993 2.16673 14.6667Z" fill="#868E96"/>
</svg>
