<svg width="16" height="16" viewBox="0 0 16 16" fill="none" xmlns="http://www.w3.org/2000/svg">
<path d="M8.82733 11.8967C8.92168 11.9877 9.048 12.038 9.1791 12.0368C9.3102 12.0356 9.43558 11.983 9.52824 11.8902C9.6209 11.7975 9.67343 11.6721 9.67451 11.541C9.67558 11.4099 9.62512 11.2836 9.534 11.1893L8.82733 11.8967ZM4.81067 6.46466C4.76452 6.41693 4.70933 6.37886 4.64832 6.35269C4.5873 6.32651 4.52169 6.31275 4.4553 6.31221C4.38891 6.31166 4.32307 6.32434 4.26164 6.34951C4.2002 6.37468 4.14439 6.41183 4.09747 6.4588C4.05054 6.50577 4.01344 6.56161 3.98833 6.62307C3.96322 6.68453 3.9506 6.75038 3.95121 6.81677C3.95182 6.88316 3.96564 6.94876 3.99187 7.00975C4.01811 7.07074 4.05622 7.1259 4.104 7.172L4.81067 6.46466ZM11.9767 8.03933L8.04 11.976L8.74667 12.6827L12.6833 8.74666L11.9767 8.03933ZM4.02333 7.96L7.96 4.02266L7.25333 3.31666L3.31667 7.252L4.02333 7.96ZM4.02333 11.976C3.45667 11.4093 3.068 11.0187 2.81533 10.6873C2.57067 10.3667 2.5 10.1607 2.5 9.96733L1.5 9.96799C1.5 10.4673 1.708 10.884 2.02 11.294C2.32333 11.6913 2.77 12.136 3.31667 12.6827L4.02333 11.976ZM3.31667 7.252C2.77 7.79866 2.32333 8.244 2.02 8.64133C1.708 9.05066 1.5 9.46799 1.5 9.96799L2.5 9.96733C2.5 9.774 2.57067 9.568 2.81533 9.24799C3.06867 8.916 3.45667 8.52666 4.02333 7.96L3.31667 7.252ZM8.04 11.976C7.47333 12.5427 7.08333 12.9313 6.75133 13.1847C6.43133 13.4287 6.22467 13.4993 6.03133 13.4993V14.4993C6.53133 14.4993 6.94867 14.2913 7.358 13.9793C7.75533 13.676 8.20067 13.2293 8.74733 12.6827L8.04 11.976ZM3.31667 12.6827C3.86333 13.2293 4.308 13.676 4.706 13.9793C5.11533 14.2913 5.53267 14.5 6.032 14.5V13.4993C5.83867 13.4993 5.63267 13.4287 5.312 13.184C4.98067 12.9307 4.59 12.5427 4.02333 11.976L3.31667 12.6827ZM11.9767 4.02266C12.5433 4.58933 12.932 4.98 13.1853 5.31133C13.4293 5.632 13.5 5.838 13.5 6.03133H14.5C14.5 5.532 14.292 5.11466 13.98 4.70466C13.6767 4.30733 13.23 3.86266 12.6833 3.316L11.9767 4.02266ZM12.6833 8.74666C13.23 8.2 13.6767 7.75466 13.98 7.35733C14.292 6.948 14.5 6.53066 14.5 6.03066H13.5C13.5 6.224 13.4293 6.43066 13.1847 6.75066C12.9313 7.08266 12.5433 7.47266 11.9767 8.03933L12.6833 8.74666ZM12.6833 3.316C12.1367 2.76933 11.692 2.32266 11.294 2.01933C10.8847 1.70733 10.4673 1.49933 9.968 1.49933V2.49933C10.1613 2.49933 10.3673 2.57 10.688 2.81466C11.0193 3.068 11.41 3.456 11.9767 4.02266L12.6833 3.316ZM7.96 4.02266C8.52667 3.456 8.91667 3.06733 9.24867 2.81466C9.56867 2.57 9.77533 2.49933 9.96867 2.49933V1.49933C9.46867 1.49933 9.05133 1.70733 8.642 2.01933C8.24467 2.32266 7.79933 2.76933 7.25267 3.316L7.96 4.02266ZM9.53467 11.1887L4.81067 6.46533L4.104 7.172L8.82733 11.8967L9.53467 11.1887Z" fill="#868E96"/>
<path d="M6 14H14" stroke="#868E96" stroke-linecap="round"/>
</svg>
