<svg width="16" height="16" viewBox="0 0 16 16" fill="none" xmlns="http://www.w3.org/2000/svg">
<path fill-rule="evenodd" clip-rule="evenodd" d="M7.64653 2.31312C7.84179 2.11786 8.15837 2.11786 8.35363 2.31312L10.3536 4.31312C10.5489 4.50838 10.5489 4.82496 10.3536 5.02023C10.1584 5.21549 9.84179 5.21549 9.64653 5.02023L8.50008 3.87378V9.33334C8.50008 9.60948 8.27622 9.83334 8.00008 9.83334C7.72394 9.83334 7.50008 9.60948 7.50008 9.33334V3.87378L6.35363 5.02023C6.15837 5.21549 5.84179 5.21549 5.64653 5.02023C5.45127 4.82496 5.45127 4.50838 5.64653 4.31312L7.64653 2.31312ZM2.66675 7.50001C2.94289 7.50001 3.16675 7.72386 3.16675 8.00001C3.16675 9.28189 3.67597 10.5113 4.5824 11.4177C5.48882 12.3241 6.7182 12.8333 8.00008 12.8333C9.28196 12.8333 10.5113 12.3241 11.4178 11.4177C12.3242 10.5113 12.8334 9.28189 12.8334 8.00001C12.8334 7.72386 13.0573 7.50001 13.3334 7.50001C13.6096 7.50001 13.8334 7.72386 13.8334 8.00001C13.8334 9.5471 13.2188 11.0308 12.1249 12.1248C11.0309 13.2188 9.54718 13.8333 8.00008 13.8333C6.45299 13.8333 4.96925 13.2188 3.87529 12.1248C2.78133 11.0308 2.16675 9.5471 2.16675 8.00001C2.16675 7.72386 2.39061 7.50001 2.66675 7.50001Z" fill="#868E96"/>
</svg>
