<svg width="16" height="16" viewBox="0 0 16 16" fill="none" xmlns="http://www.w3.org/2000/svg">
<path fill-rule="evenodd" clip-rule="evenodd" d="M8.00016 5.50001C7.33712 5.50001 6.70124 5.7634 6.2324 6.23224C5.76356 6.70108 5.50016 7.33696 5.50016 8.00001C5.50016 8.66305 5.76356 9.29893 6.2324 9.76777C6.70124 10.2366 7.33712 10.5 8.00016 10.5C8.6632 10.5 9.29909 10.2366 9.76793 9.76777C10.2368 9.29893 10.5002 8.66305 10.5002 8.00001C10.5002 7.33696 10.2368 6.70108 9.76793 6.23224C9.29909 5.7634 8.6632 5.50001 8.00016 5.50001ZM6.50016 8.00001C6.50016 7.60218 6.6582 7.22065 6.9395 6.93935C7.22081 6.65804 7.60234 6.50001 8.00016 6.50001C8.39799 6.50001 8.77952 6.65804 9.06082 6.93935C9.34213 7.22065 9.50016 7.60218 9.50016 8.00001C9.50016 8.39783 9.34213 8.77936 9.06082 9.06067C8.77952 9.34197 8.39799 9.50001 8.00016 9.50001C7.60234 9.50001 7.22081 9.34197 6.9395 9.06067C6.6582 8.77936 6.50016 8.39783 6.50016 8.00001Z" fill="#868E96"/>
<path fill-rule="evenodd" clip-rule="evenodd" d="M8.00016 2.16667C4.99083 2.16667 2.9635 3.96934 1.78683 5.498L1.76616 5.52534C1.4995 5.87134 1.25483 6.18934 1.08883 6.56534C0.910829 6.96867 0.833496 7.40801 0.833496 8.00001C0.833496 8.59201 0.910829 9.03134 1.08883 9.43467C1.2555 9.81067 1.50016 10.1293 1.76616 10.4747L1.7875 10.502C2.9635 12.0307 4.99083 13.8333 8.00016 13.8333C11.0095 13.8333 13.0368 12.0307 14.2135 10.502L14.2342 10.4747C14.5008 10.1293 14.7455 9.81067 14.9115 9.43467C15.0895 9.03134 15.1668 8.59201 15.1668 8.00001C15.1668 7.40801 15.0895 6.96867 14.9115 6.56534C14.7448 6.18934 14.5002 5.87134 14.2342 5.52534L14.2128 5.498C13.0368 3.96934 11.0095 2.16667 8.00016 2.16667ZM2.58016 6.10801C3.6655 4.69667 5.4335 3.16667 8.00016 3.16667C10.5668 3.16667 12.3342 4.69667 13.4202 6.10801C13.7135 6.48801 13.8842 6.71467 13.9968 6.96934C14.1022 7.20801 14.1668 7.49934 14.1668 8.00001C14.1668 8.50067 14.1022 8.79201 13.9968 9.03067C13.8842 9.28534 13.7128 9.51201 13.4208 9.89201C12.3335 11.3033 10.5668 12.8333 8.00016 12.8333C5.4335 12.8333 3.66616 11.3033 2.58016 9.89201C2.28683 9.51201 2.11616 9.28534 2.0035 9.03067C1.89816 8.79201 1.8335 8.50067 1.8335 8.00001C1.8335 7.49934 1.89816 7.20801 2.0035 6.96934C2.11616 6.71467 2.28816 6.48801 2.58016 6.10801Z" fill="#868E96"/>
</svg>
