<svg width="16" height="16" viewBox="0 0 16 16" fill="none" xmlns="http://www.w3.org/2000/svg">
<path fill-rule="evenodd" clip-rule="evenodd" d="M14.8633 4.20666C14.9238 4.23252 14.9785 4.27004 15.0245 4.31709C15.0704 4.36414 15.1066 4.41979 15.131 4.48084C15.1554 4.5419 15.1675 4.60717 15.1667 4.67292C15.1658 4.73867 15.152 4.8036 15.126 4.86399L14.6667 4.66666L15.1267 4.86399L15.1253 4.86666L15.1233 4.87133L15.1167 4.88733L15.0907 4.94333C14.945 5.24538 14.7833 5.53936 14.606 5.82399C14.2506 6.39608 13.8383 6.9308 13.3753 7.41999L14.0207 8.06599C14.109 8.16078 14.1571 8.28614 14.1548 8.41568C14.1525 8.54521 14.1 8.6688 14.0084 8.76041C13.9168 8.85202 13.7932 8.90449 13.6637 8.90678C13.5341 8.90906 13.4088 8.86098 13.314 8.77266L12.6467 8.10599C12.1823 8.49701 11.6734 8.83199 11.1307 9.10399L11.7533 10.0607C11.8256 10.1719 11.8508 10.3073 11.8233 10.437C11.7958 10.5668 11.7179 10.6803 11.6067 10.7527C11.4955 10.825 11.3601 10.8502 11.2303 10.8226C11.1005 10.7951 10.987 10.7172 10.9147 10.606L10.1887 9.48999C9.66866 9.65999 9.10666 9.77533 8.50066 9.81666V11C8.50066 11.1326 8.44799 11.2598 8.35422 11.3535C8.26045 11.4473 8.13327 11.5 8.00066 11.5C7.86806 11.5 7.74088 11.4473 7.64711 11.3535C7.55334 11.2598 7.50066 11.1326 7.50066 11V9.81666C6.94356 9.77889 6.39298 9.67459 5.86066 9.50599L5.14466 10.606C5.10886 10.6611 5.06255 10.7085 5.0084 10.7457C4.95424 10.7829 4.8933 10.809 4.82904 10.8226C4.76478 10.8363 4.69847 10.8371 4.63389 10.8251C4.56931 10.8131 4.50773 10.7885 4.45266 10.7527C4.34145 10.6803 4.26352 10.5668 4.23601 10.437C4.22239 10.3728 4.22156 10.3065 4.23357 10.2419C4.24558 10.1773 4.27019 10.1157 4.306 10.0607L4.91466 9.12599C4.36741 8.85686 3.85423 8.52339 3.386 8.13266L2.746 8.77266C2.65174 8.86379 2.52546 8.91424 2.39436 8.91317C2.26326 8.91209 2.13783 8.85956 2.04508 8.7669C1.95234 8.67424 1.89969 8.54886 1.89849 8.41776C1.89729 8.28666 1.94763 8.16034 2.03866 8.06599L2.65466 7.44999C1.99978 6.76412 1.44579 5.98857 1.00933 5.14666C0.965699 5.06135 0.923912 4.97511 0.883998 4.88799L0.877331 4.87133L0.874664 4.86666V4.86466H0.873331C0.820995 4.74275 0.819231 4.60438 0.868428 4.48116C0.917625 4.35795 1.01375 4.25933 1.13566 4.20699C1.25758 4.15466 1.39528 4.1529 1.5185 4.20209C1.64171 4.25129 1.74033 4.34742 1.79266 4.46933V4.47066L1.79733 4.47999L1.81666 4.52199C1.83444 4.56022 1.86222 4.61688 1.9 4.69199C2.36155 5.58494 2.97158 6.3929 3.704 7.08133C4.28133 7.61799 4.98866 8.11199 5.83466 8.43733C6.52585 8.70173 7.25997 8.83599 8 8.83333C8.75541 8.836 9.50454 8.69599 10.208 8.42066C11.0493 8.08933 11.752 7.59199 12.3247 7.05466C13.0903 6.32766 13.72 5.46974 14.184 4.52133L14.2027 4.47933L14.2067 4.47066M14.8633 4.20666C14.7415 4.15459 14.604 4.15368 14.481 4.20293C14.358 4.25218 14.2596 4.34823 14.2073 4.46999L14.8633 4.20666Z" fill="#868E96"/>
</svg>
