<svg width="16" height="16" viewBox="0 0 16 16" fill="none" xmlns="http://www.w3.org/2000/svg">
<path fill-rule="evenodd" clip-rule="evenodd" d="M9.33325 14.6667H6.66658C4.15259 14.6667 2.89525 14.6667 2.11459 13.8853C1.33325 13.1047 1.33325 11.8473 1.33325 9.33334V6.66667C1.33325 4.15267 1.33325 2.89534 2.11459 2.11467C2.89525 1.33334 4.15925 1.33334 6.68658 1.33334C7.09058 1.33334 7.41392 1.33334 7.68658 1.34467C7.67792 1.398 7.67325 1.452 7.67325 1.50734L7.66658 3.39667C7.66658 4.128 7.66658 4.77467 7.73658 5.29534C7.81258 5.86 7.98658 6.42467 8.44792 6.886C8.90792 7.346 9.47325 7.52067 10.0379 7.59667C10.5586 7.66667 11.2053 7.66667 11.9366 7.66667H14.6379C14.6666 8.02267 14.6666 8.46 14.6666 9.042V9.33334C14.6666 11.8473 14.6666 13.1047 13.8853 13.8853C13.1046 14.6667 11.8473 14.6667 9.33325 14.6667Z" fill="#868E96"/>
<path d="M12.9014 5.078L10.2614 2.70267C9.51008 2.026 9.13475 1.68733 8.67275 1.51067L8.66675 3.33333C8.66675 4.90467 8.66675 5.69067 9.15475 6.17867C9.64275 6.66667 10.4287 6.66667 12.0001 6.66667H14.3867C14.1454 6.19733 13.7121 5.808 12.9014 5.078Z" fill="#868E96"/>
</svg>
