<svg width="16" height="16" viewBox="0 0 16 16" fill="none" xmlns="http://www.w3.org/2000/svg">
<g clip-path="url(#clip0_49_27543)">
<path fill-rule="evenodd" clip-rule="evenodd" d="M8.16658 1.88934C7.85992 1.83734 7.44125 1.83334 6.68658 1.83334C5.40858 1.83334 4.49992 1.83467 3.81192 1.92667C3.13725 2.01667 2.74992 2.18667 2.46792 2.468C2.18592 2.75 2.01659 3.13667 1.92659 3.80734C1.83459 4.49267 1.83325 5.39534 1.83325 6.66734V9.334C1.83325 10.6047 1.83459 11.5073 1.92659 12.1927C2.01659 12.8633 2.18592 13.25 2.46792 13.5327C2.74992 13.814 3.13658 13.9833 3.80725 14.0733C4.49258 14.166 5.39525 14.1667 6.66658 14.1667H9.33325C10.6046 14.1667 11.5079 14.1653 12.1933 14.0733C12.8633 13.9833 13.2499 13.814 13.5319 13.532C13.8139 13.25 13.9833 12.8633 14.0733 12.1927C14.1653 11.508 14.1666 10.6047 14.1666 9.33333V9.042C14.1666 8.018 14.1599 7.53267 14.0506 7.16667H11.9639C11.2086 7.16667 10.5919 7.16667 10.1039 7.10134C9.59525 7.03267 9.15392 6.88467 8.80125 6.532C8.44858 6.17934 8.30058 5.73867 8.23192 5.22867C8.16658 4.742 8.16658 4.12467 8.16658 3.36867V1.88934ZM9.16658 2.40667V3.33334C9.16658 4.13334 9.16792 4.68267 9.22325 5.09534C9.27658 5.494 9.37258 5.68934 9.50858 5.82467C9.64392 5.96067 9.83925 6.05667 10.2379 6.11C10.6506 6.16534 11.1999 6.16667 11.9999 6.16667H13.3466C13.0908 5.92307 12.8307 5.68392 12.5666 5.44934L9.92725 3.074C9.67826 2.84641 9.42465 2.62392 9.16658 2.40667ZM6.78325 0.833336C7.70658 0.833336 8.30325 0.833336 8.85192 1.04334C9.40059 1.254 9.84192 1.65134 10.5253 2.26667L10.5966 2.33067L13.2353 4.706L13.3186 4.78067C14.1079 5.49067 14.6186 5.95 14.8926 6.566C15.1673 7.182 15.1673 7.86867 15.1666 8.93V9.37067C15.1666 10.596 15.1666 11.5667 15.0646 12.326C14.9593 13.1073 14.7379 13.74 14.2393 14.2393C13.7399 14.738 13.1073 14.9593 12.3259 15.0647C11.5659 15.1667 10.5959 15.1667 9.37058 15.1667H6.62925C5.40392 15.1667 4.43325 15.1667 3.67392 15.0647C2.89259 14.9593 2.25992 14.738 1.76059 14.2393C1.26192 13.74 1.04059 13.1073 0.935252 12.326C0.833252 11.566 0.833252 10.596 0.833252 9.37067V6.63C0.833252 5.40467 0.833252 4.434 0.935252 3.67467C1.04059 2.89334 1.26192 2.26067 1.76059 1.76134C2.26059 1.262 2.89459 1.04134 3.67925 0.936003C4.44192 0.834003 5.41725 0.834003 6.64925 0.834003H6.68658L6.78325 0.833336Z" fill="#868E96"/>
</g>
<defs>
<clipPath id="clip0_49_27543">
<rect width="16" height="16" fill="white"/>
</clipPath>
</defs>
</svg>
