<svg width="16" height="16" viewBox="0 0 16 16" fill="none" xmlns="http://www.w3.org/2000/svg">
<path fill-rule="evenodd" clip-rule="evenodd" d="M13.8786 5.40098C14.33 5.95657 14.33 6.85081 14.33 8.63923V10.8071C14.33 10.8071 14.33 11.6879 14.33 12.5686C14.33 13.4493 13.8896 13.8896 13.8896 13.8896C13.8896 13.8896 13.4493 14.33 12.1282 14.33H11.6879H10.4769H5.0825C3.62939 14.33 2.90284 14.33 2.45142 13.7744C2 13.2188 2 12.3246 2 10.5362V5.79385C2 4.00541 2 3.11119 2.45142 2.5556C2.90284 2 3.62939 2 5.0825 2H5.34694C5.97693 2 6.29192 2 6.57515 2.14439C6.85835 2.28877 7.08105 2.56284 7.52643 3.11096L8.03276 3.7342C8.47805 4.28221 8.70103 4.55663 8.98425 4.70099C9.26746 4.84538 9.58249 4.84538 10.2125 4.84538H11.2475C12.7006 4.84538 13.4271 4.84538 13.8786 5.40098Z" stroke="#E8E3E3"/>
</svg>
