<svg width="16" height="16" viewBox="0 0 16 16" fill="none" xmlns="http://www.w3.org/2000/svg">
<path d="M9.45341 2.85067C9.5815 2.8849 9.69075 2.9686 9.75713 3.08337C9.82352 3.19814 9.8416 3.33457 9.80741 3.46267L7.15874 13.3493C7.12435 13.4775 7.04045 13.5868 6.92549 13.6531C6.81053 13.7195 6.67393 13.7374 6.54574 13.703C6.41755 13.6686 6.30828 13.5847 6.24195 13.4698C6.17563 13.3548 6.15769 13.2182 6.19207 13.09L8.84141 3.20334C8.85842 3.1399 8.88777 3.08044 8.92777 3.02835C8.96778 2.97626 9.01765 2.93256 9.07454 2.89975C9.13144 2.86693 9.19424 2.84565 9.25936 2.83712C9.32448 2.82858 9.39065 2.83296 9.45407 2.85M10.9621 4.88534C11.0508 4.78679 11.175 4.72749 11.3073 4.72049C11.4397 4.71349 11.5695 4.75935 11.6681 4.848L12.8261 5.89067C13.3174 6.332 13.7241 6.69867 14.0041 7.03067C14.2974 7.38067 14.5067 7.756 14.5067 8.22C14.5067 8.68334 14.2981 9.05867 14.0041 9.408C13.7241 9.74067 13.3174 10.1073 12.8261 10.5487L11.6681 11.5913C11.5695 11.6801 11.4397 11.7261 11.3072 11.7191C11.1748 11.7122 11.0505 11.6529 10.9617 11.5543C10.873 11.4558 10.827 11.326 10.834 11.1935C10.8409 11.061 10.9002 10.9368 10.9987 10.848L12.1301 9.83C12.6554 9.35734 13.0094 9.03667 13.2387 8.76467C13.4587 8.50267 13.5067 8.35 13.5067 8.21934C13.5067 8.08934 13.4587 7.93667 13.2387 7.67467C13.0094 7.402 12.6554 7.08134 12.1301 6.60934L10.9987 5.59134C10.9498 5.54742 10.9101 5.49429 10.8817 5.43499C10.8534 5.37568 10.837 5.31138 10.8336 5.24574C10.8301 5.18011 10.8396 5.11444 10.8615 5.05248C10.8835 4.99052 10.9174 4.9335 10.9614 4.88467M5.00141 5.59134C5.09998 5.50258 5.15926 5.3783 5.16619 5.24583C5.17313 5.11337 5.12717 4.98358 5.03841 4.885C4.94965 4.78643 4.82537 4.72716 4.6929 4.72022C4.56044 4.71328 4.43065 4.75924 4.33207 4.848L3.17407 5.89067C2.68274 6.332 2.27607 6.69867 1.99607 7.03067C1.70274 7.38067 1.49341 7.756 1.49341 8.22C1.49341 8.68334 1.70207 9.05867 1.99607 9.408C2.27607 9.74067 2.68274 10.1073 3.17407 10.5487L4.33207 11.5913C4.43065 11.6801 4.56044 11.7261 4.6929 11.7191C4.82537 11.7122 4.94965 11.6529 5.03841 11.5543C5.12717 11.4558 5.17313 11.326 5.16619 11.1935C5.15926 11.061 5.09998 10.9368 5.00141 10.848L3.87007 9.83C3.34474 9.35734 2.99074 9.03667 2.76141 8.76467C2.54141 8.50267 2.49341 8.35 2.49341 8.21934C2.49341 8.08934 2.54141 7.93667 2.76141 7.67467C2.99074 7.402 3.34474 7.08134 3.87007 6.60934L5.00141 5.59134Z" fill="#868E96"/>
</svg>
