<svg width="16" height="16" viewBox="0 0 16 16" fill="none" xmlns="http://www.w3.org/2000/svg">
<path d="M9.64675 6.98001C9.69252 6.93088 9.74772 6.89148 9.80906 6.86415C9.87039 6.83682 9.9366 6.82213 10.0037 6.82094C10.0709 6.81976 10.1376 6.83211 10.1998 6.85726C10.2621 6.8824 10.3186 6.91983 10.3661 6.96731C10.4136 7.01479 10.451 7.07135 10.4762 7.13361C10.5013 7.19587 10.5137 7.26255 10.5125 7.32969C10.5113 7.39682 10.4966 7.46303 10.4693 7.52436C10.4419 7.5857 10.4025 7.6409 10.3534 7.68667L8.35342 9.68667C8.25966 9.78031 8.13258 9.8329 8.00008 9.8329C7.86758 9.8329 7.7405 9.78031 7.64675 9.68667L5.64675 7.68667C5.59762 7.6409 5.55822 7.5857 5.53089 7.52436C5.50357 7.46303 5.48887 7.39682 5.48769 7.32969C5.4865 7.26255 5.49885 7.19587 5.524 7.13361C5.54915 7.07135 5.58658 7.01479 5.63406 6.96731C5.68154 6.91983 5.73809 6.8824 5.80035 6.85726C5.86261 6.83211 5.92929 6.81976 5.99643 6.82094C6.06357 6.82213 6.12977 6.83682 6.19111 6.86415C6.25244 6.89148 6.30764 6.93088 6.35342 6.98001L7.50008 8.12667V2.66667C7.50008 2.53406 7.55276 2.40689 7.64653 2.31312C7.7403 2.21935 7.86747 2.16667 8.00008 2.16667C8.13269 2.16667 8.25987 2.21935 8.35364 2.31312C8.4474 2.40689 8.50008 2.53406 8.50008 2.66667V8.12667L9.64675 6.98001Z" fill="#868E96"/>
<path d="M13.8334 8.00001C13.8334 7.8674 13.7807 7.74022 13.687 7.64645C13.5932 7.55268 13.466 7.50001 13.3334 7.50001C13.2008 7.50001 13.0736 7.55268 12.9799 7.64645C12.8861 7.74022 12.8334 7.8674 12.8334 8.00001C12.8334 8.63473 12.7084 9.26323 12.4655 9.84964C12.2226 10.436 11.8666 10.9689 11.4178 11.4177C10.9689 11.8665 10.4361 12.2225 9.84972 12.4654C9.26331 12.7083 8.6348 12.8333 8.00008 12.8333C7.36536 12.8333 6.73685 12.7083 6.15044 12.4654C5.56404 12.2225 5.03122 11.8665 4.5824 11.4177C4.13358 10.9689 3.77756 10.436 3.53466 9.84964C3.29177 9.26323 3.16675 8.63473 3.16675 8.00001C3.16675 7.8674 3.11407 7.74022 3.0203 7.64645C2.92653 7.55268 2.79936 7.50001 2.66675 7.50001C2.53414 7.50001 2.40696 7.55268 2.31319 7.64645C2.21943 7.74022 2.16675 7.8674 2.16675 8.00001C2.16675 9.5471 2.78133 11.0308 3.87529 12.1248C4.96925 13.2188 6.45299 13.8333 8.00008 13.8333C9.54718 13.8333 11.0309 13.2188 12.1249 12.1248C13.2188 11.0308 13.8334 9.5471 13.8334 8.00001Z" fill="#868E96"/>
</svg>
