<svg width="16" height="16" viewBox="0 0 16 16" fill="none" xmlns="http://www.w3.org/2000/svg">
<path fill-rule="evenodd" clip-rule="evenodd" d="M14.6666 8C14.6666 11.682 11.6819 14.6667 7.99992 14.6667C4.31792 14.6667 1.33325 11.682 1.33325 8C1.33325 4.318 4.31792 1.33333 7.99992 1.33333C11.6819 1.33333 14.6666 4.318 14.6666 8ZM7.99992 11.8333C8.13253 11.8333 8.2597 11.7807 8.35347 11.6869C8.44724 11.5931 8.49992 11.4659 8.49992 11.3333V7.33333C8.49992 7.20072 8.44724 7.07354 8.35347 6.97978C8.2597 6.88601 8.13253 6.83333 7.99992 6.83333C7.86731 6.83333 7.74013 6.88601 7.64637 6.97978C7.5526 7.07354 7.49992 7.20072 7.49992 7.33333V11.3333C7.49992 11.6093 7.72392 11.8333 7.99992 11.8333ZM7.99992 4.66666C8.17673 4.66666 8.3463 4.7369 8.47132 4.86192C8.59635 4.98695 8.66659 5.15652 8.66659 5.33333C8.66659 5.51014 8.59635 5.67971 8.47132 5.80473C8.3463 5.92976 8.17673 6 7.99992 6C7.82311 6 7.65354 5.92976 7.52851 5.80473C7.40349 5.67971 7.33325 5.51014 7.33325 5.33333C7.33325 5.15652 7.40349 4.98695 7.52851 4.86192C7.65354 4.7369 7.82311 4.66666 7.99992 4.66666Z" fill="#868E96"/>
</svg>
