<svg width="16" height="16" viewBox="0 0 16 16" fill="none" xmlns="http://www.w3.org/2000/svg">
<g clip-path="url(#clip0_49_27520)">
<path d="M7.99992 11.8333C8.13253 11.8333 8.2597 11.7807 8.35347 11.6869C8.44724 11.5931 8.49992 11.4659 8.49992 11.3333V7.33334C8.49992 7.20073 8.44724 7.07355 8.35347 6.97979C8.2597 6.88602 8.13253 6.83334 7.99992 6.83334C7.86731 6.83334 7.74013 6.88602 7.64637 6.97979C7.5526 7.07355 7.49992 7.20073 7.49992 7.33334V11.3333C7.49992 11.6093 7.72392 11.8333 7.99992 11.8333ZM7.99992 4.66667C8.17673 4.66667 8.3463 4.73691 8.47132 4.86193C8.59635 4.98696 8.66659 5.15653 8.66659 5.33334C8.66659 5.51015 8.59635 5.67972 8.47132 5.80474C8.3463 5.92977 8.17673 6.00001 7.99992 6.00001C7.82311 6.00001 7.65354 5.92977 7.52851 5.80474C7.40349 5.67972 7.33325 5.51015 7.33325 5.33334C7.33325 5.15653 7.40349 4.98696 7.52851 4.86193C7.65354 4.73691 7.82311 4.66667 7.99992 4.66667Z" fill="#868E96"/>
<path fill-rule="evenodd" clip-rule="evenodd" d="M0.833252 8.00001C0.833252 4.04201 4.04192 0.833344 7.99992 0.833344C11.9579 0.833344 15.1666 4.04201 15.1666 8.00001C15.1666 11.958 11.9579 15.1667 7.99992 15.1667C4.04192 15.1667 0.833252 11.958 0.833252 8.00001ZM7.99992 1.83334C6.36442 1.83334 4.7959 2.48304 3.63943 3.63952C2.48295 4.79599 1.83325 6.36451 1.83325 8.00001C1.83325 9.63551 2.48295 11.204 3.63943 12.3605C4.7959 13.517 6.36442 14.1667 7.99992 14.1667C9.63542 14.1667 11.2039 13.517 12.3604 12.3605C13.5169 11.204 14.1666 9.63551 14.1666 8.00001C14.1666 6.36451 13.5169 4.79599 12.3604 3.63952C11.2039 2.48304 9.63542 1.83334 7.99992 1.83334Z" fill="#868E96"/>
</g>
<defs>
<clipPath id="clip0_49_27520">
<rect width="16" height="16" fill="white"/>
</clipPath>
</defs>
</svg>
