<svg width="16" height="16" viewBox="0 0 16 16" fill="none" xmlns="http://www.w3.org/2000/svg">
<path fill-rule="evenodd" clip-rule="evenodd" d="M12.6514 9.86C13.2215 9.2897 13.6319 8.57967 13.8414 7.80097C14.051 7.02226 14.0523 6.20217 13.8454 5.42277C13.6384 4.64337 13.2304 3.93199 12.6622 3.3598C12.094 2.78761 11.3854 2.37468 10.6075 2.16233C9.82954 1.94998 9.00946 1.94565 8.22932 2.14978C7.44918 2.35392 6.73632 2.75935 6.16208 3.32551C5.58784 3.89168 5.17236 4.59872 4.9572 5.3759C4.74204 6.15307 4.73475 6.97312 4.93607 7.754C4.9994 8 4.94273 8.266 4.76407 8.44533L2.28873 10.92C2.18415 11.0247 2.10444 11.1515 2.05551 11.2911C2.00658 11.4308 1.98968 11.5796 2.00607 11.7267L2.16073 13.1193C2.1774 13.268 2.24407 13.406 2.3494 13.512L2.48807 13.6507C2.59374 13.7563 2.73222 13.8229 2.88073 13.8393L4.2734 13.994C4.42045 14.0104 4.5693 13.9935 4.70893 13.9446C4.84856 13.8956 4.97541 13.8159 5.08007 13.7113L5.5534 13.238L4.38873 12.086C4.3408 12.0401 4.30248 11.9851 4.27601 11.9243C4.24954 11.8634 4.23545 11.7979 4.23455 11.7316C4.23366 11.6652 4.24598 11.5994 4.2708 11.5378C4.29562 11.4763 4.33244 11.4203 4.37912 11.3731C4.4258 11.326 4.4814 11.2885 4.54268 11.2631C4.60396 11.2376 4.6697 11.2246 4.73606 11.2248C4.80242 11.225 4.86807 11.2385 4.92919 11.2643C4.99031 11.2901 5.04568 11.3279 5.09207 11.3753L6.26007 12.5307L7.55473 11.236C7.73473 11.056 8.00007 11.0007 8.24607 11.064C9.02165 11.264 9.83599 11.2581 10.6086 11.0469C11.3812 10.8358 12.0853 10.4266 12.6514 9.86ZM8.39073 5.724C8.51373 5.59665 8.66086 5.49507 8.82353 5.4252C8.9862 5.35532 9.16116 5.31854 9.3382 5.317C9.51524 5.31546 9.69081 5.34919 9.85467 5.41624C10.0185 5.48328 10.1674 5.58228 10.2926 5.70747C10.4178 5.83266 10.5168 5.98153 10.5838 6.14539C10.6509 6.30925 10.6846 6.48483 10.6831 6.66187C10.6815 6.83891 10.6447 7.01387 10.5749 7.17654C10.505 7.33921 10.4034 7.48634 10.2761 7.60933C10.0246 7.85221 9.68779 7.9866 9.3382 7.98356C8.9886 7.98053 8.65419 7.8403 8.40697 7.59309C8.15976 7.34588 8.01954 7.01146 8.0165 6.66187C8.01346 6.31227 8.14786 5.97547 8.39073 5.724Z" fill="#868E96"/>
</svg>
