<svg width="16" height="16" viewBox="0 0 16 16" fill="none" xmlns="http://www.w3.org/2000/svg">
<path fill-rule="evenodd" clip-rule="evenodd" d="M5.78663 2.99533C6.41887 2.36334 7.206 1.90846 8.06926 1.6762C8.93252 1.44395 9.84163 1.44247 10.7056 1.67191C11.5696 1.90136 12.3582 2.35367 12.9925 2.98361C13.6268 3.61355 14.0846 4.39901 14.32 5.26142C14.5554 6.12382 14.5602 7.03292 14.3339 7.89776C14.1076 8.7626 13.6581 9.55285 13.0305 10.1894C12.4029 10.826 11.6191 11.2866 10.7576 11.5252C9.89603 11.7637 8.98695 11.7718 8.1213 11.5487C8.0213 11.522 7.9453 11.5527 7.90796 11.5893L5.4333 14.0653C5.27568 14.223 5.08461 14.3433 4.87424 14.4171C4.66386 14.491 4.43957 14.5166 4.21796 14.492L2.8253 14.3367C2.56407 14.3076 2.3205 14.1905 2.13463 14.0047L1.99596 13.866C1.81012 13.6801 1.69304 13.4366 1.66396 13.1753L1.5093 11.7827C1.48473 11.5611 1.51032 11.3368 1.58418 11.1264C1.65803 10.916 1.77826 10.725 1.93596 10.5673L4.40996 8.09267C4.4473 8.05534 4.4773 7.97934 4.45196 7.87934C4.23022 7.01966 4.23664 6.11699 4.47059 5.26055C4.70455 4.40411 5.15794 3.62355 5.78596 2.996M12.2973 3.70267C11.6607 3.06597 10.8325 2.65622 9.94016 2.53654C9.04782 2.41686 8.14088 2.59389 7.35905 3.04036C6.57722 3.48683 5.96387 4.17796 5.61348 5.00731C5.26309 5.83666 5.19509 6.75821 5.41996 7.63C5.51996 8.022 5.43863 8.47734 5.11663 8.79934L2.64263 11.2733C2.59093 11.3249 2.55149 11.3875 2.52726 11.4564C2.50302 11.5253 2.49461 11.5987 2.50263 11.6713L2.65796 13.0633C2.6613 13.0993 2.67796 13.132 2.70263 13.1573L2.84196 13.2967C2.86718 13.3216 2.90005 13.3373 2.9353 13.3413L4.32863 13.496C4.40107 13.504 4.47437 13.4956 4.54315 13.4715C4.61192 13.4474 4.67439 13.4082 4.72596 13.3567L5.1973 12.8853L4.3893 12.0853C4.33995 12.0398 4.30027 11.9849 4.27262 11.9237C4.24498 11.8625 4.22993 11.7964 4.22838 11.7293C4.22683 11.6622 4.23881 11.5955 4.26361 11.5331C4.2884 11.4707 4.32551 11.4139 4.3727 11.3662C4.4199 11.3185 4.47622 11.2807 4.53832 11.2552C4.60041 11.2297 4.66701 11.217 4.73413 11.2178C4.80125 11.2186 4.86752 11.2329 4.929 11.2598C4.99048 11.2868 5.0459 11.3258 5.09196 11.3747L5.90463 12.178L7.2013 10.882C7.52263 10.56 7.97796 10.478 8.36996 10.5787C9.24176 10.8035 10.1633 10.7355 10.9927 10.3852C11.822 10.0348 12.5131 9.42141 12.9596 8.63958C13.4061 7.85775 13.5831 6.95081 13.4634 6.05847C13.3437 5.16613 12.934 4.33789 12.2973 3.70133M8.03663 5.36933C8.38053 5.02553 8.84692 4.83241 9.3332 4.83247C9.81948 4.83254 10.2858 5.02577 10.6296 5.36967C10.9734 5.71357 11.1666 6.17996 11.1665 6.66624C11.1664 7.15252 10.9732 7.61886 10.6293 7.96267C10.2854 8.30657 9.81897 8.49977 9.33263 8.49977C8.84629 8.49977 8.37986 8.30657 8.03596 7.96267C7.69207 7.61877 7.49887 7.15235 7.49887 6.666C7.49887 6.17966 7.69207 5.71323 8.03596 5.36933M9.9213 6.07667C9.8439 5.99928 9.75203 5.93788 9.65091 5.896C9.54979 5.85412 9.44141 5.83256 9.33196 5.83256C9.22251 5.83256 9.11414 5.85412 9.01302 5.896C8.9119 5.93788 8.82002 5.99928 8.74263 6.07667C8.66524 6.15406 8.60385 6.24594 8.56196 6.34706C8.52008 6.44817 8.49852 6.55655 8.49852 6.666C8.49852 6.77545 8.52008 6.88383 8.56196 6.98495C8.60385 7.08606 8.66524 7.17794 8.74263 7.25534C8.89893 7.41164 9.11092 7.49944 9.33196 7.49944C9.55301 7.49944 9.765 7.41164 9.9213 7.25534C10.0776 7.09903 10.1654 6.88704 10.1654 6.666C10.1654 6.44496 10.0776 6.23297 9.9213 6.07667Z" fill="#868E96"/>
</svg>
