<svg width="16" height="16" viewBox="0 0 16 16" fill="none" xmlns="http://www.w3.org/2000/svg">
<path d="M6.41325 12.6533C6.7346 12.6891 7.05987 12.6521 7.36498 12.5451C7.6701 12.4382 7.94725 12.2639 8.17592 12.0353L9.94592 10.2653C10.8063 10.4151 11.6906 10.3442 12.5161 10.0594C13.3417 9.77455 14.0816 9.28507 14.6666 8.63666C14.6626 11.3593 14.5993 12.782 13.6913 13.69C12.7133 14.6667 11.1426 14.6667 7.99992 14.6667C4.85725 14.6667 3.28592 14.6667 2.30925 13.69C1.33325 12.7147 1.33325 11.1427 1.33325 8C1.33325 4.85733 1.33325 3.286 2.30925 2.30933C3.21792 1.40133 4.64059 1.338 7.36325 1.33333C6.71496 1.91828 6.22553 2.65804 5.94071 3.48347C5.65589 4.3089 5.58498 5.19306 5.73459 6.05333L3.96459 7.824C3.73605 8.05256 3.56185 8.3296 3.45487 8.6346C3.3479 8.9396 3.31089 9.26476 3.34659 9.586L3.47525 10.7467C3.52259 11.1713 3.71258 11.5667 4.01525 11.8693L4.13059 11.9853C4.43275 12.2873 4.82866 12.4775 5.25325 12.5247L6.41325 12.6533Z" fill="#868E96"/>
<path fill-rule="evenodd" clip-rule="evenodd" d="M14.6419 5.608C14.5442 6.46919 14.1565 7.27156 13.5426 7.88333C13.0709 8.35559 12.484 8.69656 11.8402 8.87252C11.1963 9.04849 10.5176 9.05336 9.87125 8.88667C9.77106 8.85855 9.66527 8.85699 9.56429 8.88212C9.4633 8.90725 9.37059 8.95821 9.29525 9.03L8.27525 10.05L8.27392 10.048L7.30192 9.08667C7.20759 8.9934 7.08007 8.94142 6.94742 8.94217C6.81477 8.94292 6.68785 8.99634 6.59459 9.09066C6.50132 9.18499 6.44934 9.31251 6.45009 9.44516C6.45084 9.57781 6.50426 9.70473 6.59859 9.798L7.56858 10.7567L7.23325 11.0927C7.14598 11.1799 7.04019 11.2463 6.92375 11.287C6.8073 11.3278 6.68318 11.3418 6.56059 11.328L5.40059 11.1993C5.277 11.1855 5.1618 11.13 5.07392 11.042L4.95792 10.9267C4.86993 10.8388 4.81444 10.7236 4.80059 10.6L4.67192 9.43933C4.65815 9.31674 4.67216 9.19262 4.7129 9.07617C4.75364 8.95972 4.82006 8.85394 4.90725 8.76666L6.96992 6.70467C7.04171 6.62933 7.09267 6.53662 7.1178 6.43563C7.14293 6.33465 7.14136 6.22886 7.11325 6.12866C6.94655 5.48232 6.95143 4.80365 7.12739 4.15976C7.30336 3.51588 7.64433 2.92906 8.11659 2.45733C8.72838 1.84342 9.53074 1.45576 10.3919 1.358C10.9959 1.38067 11.5119 1.42267 11.9573 1.502C12.5373 1.68 13.0839 1.998 13.5426 2.45733C13.9862 2.89947 14.3142 3.4439 14.4979 4.04267C14.5779 4.488 14.6193 5.004 14.6419 5.608ZM9.99192 4.43667C10.0943 4.33 10.217 4.24483 10.3527 4.18616C10.4884 4.12748 10.6344 4.09648 10.7823 4.09497C10.9301 4.09346 11.0768 4.12146 11.2137 4.17734C11.3506 4.23323 11.475 4.31586 11.5795 4.42041C11.6841 4.52496 11.7667 4.64933 11.8226 4.78622C11.8785 4.92311 11.9065 5.06977 11.9049 5.21762C11.9034 5.36547 11.8724 5.51153 11.8138 5.64725C11.7551 5.78297 11.6699 5.90561 11.5633 6.008C11.3535 6.20938 11.0731 6.3205 10.7823 6.31752C10.4915 6.31454 10.2135 6.19771 10.0078 5.99208C9.80221 5.78645 9.68537 5.50841 9.6824 5.21762C9.67942 4.92683 9.79054 4.64646 9.99192 4.43667Z" fill="#868E96"/>
</svg>
