<svg width="16" height="16" viewBox="0 0 16 16" fill="none" xmlns="http://www.w3.org/2000/svg">
<path d="M2 10.0105H1.85V10.1605V13V13.15H2H6.51371H6.66371V13V12.3703V12.2203H6.51371H2.80766V10.1605V10.0105H2.65766H2ZM13.3423 10.0105H13.1923V10.1605V12.2203H9.48629H9.33629V12.3703V12.9999V13.1499H9.48629H14H14.15V12.9999V10.1605V10.0105H14H13.3423ZM6.52027 5.68947H6.37027V5.83947V10.1604V10.3104H6.52027H9.48629H9.63629V10.1604V9.59252V9.44252H9.48629H7.32793V5.83947V5.68947H7.17793H6.52027ZM2 2.85H1.85V3V5.83947V5.98947H2H2.65766H2.80766V5.83947V3.77957H6.51371H6.66371V3.62957V3V2.85H6.51371H2ZM9.48629 2.85H9.33629V3V3.62957V3.77957H9.48629H13.1923V5.83947V5.98947H13.3423H14H14.15V5.83947V3V2.85H14H9.48629Z" fill="#868E96" stroke="#868E96" stroke-width="0.3"/>
</svg>
