<svg width="16" height="16" viewBox="0 0 16 16" fill="none" xmlns="http://www.w3.org/2000/svg">
<path fill-rule="evenodd" clip-rule="evenodd" d="M8 1.83334C7.08881 1.83351 6.19914 2.1103 5.44867 2.62708C4.6982 3.14387 4.1223 3.8763 3.79714 4.7275C3.47198 5.5787 3.41288 6.50856 3.62767 7.39407C3.84245 8.27959 4.321 9.07904 5 9.68667L5.002 9.68934C5.37334 10.022 5.65534 10.274 5.85667 10.4593C6.04667 10.6327 6.19667 10.7753 6.276 10.8727L6.284 10.8827C6.432 11.0647 6.56 11.2233 6.64534 11.4133C6.73 11.6027 6.762 11.8047 6.79934 12.036L6.80134 12.0493C6.82067 12.168 6.828 12.3133 6.83134 12.5H9.16867C9.172 12.3133 9.17934 12.168 9.19867 12.0493L9.20067 12.036C9.238 11.8047 9.27 11.6027 9.35467 11.4133C9.44 11.2233 9.568 11.0647 9.716 10.8827L9.724 10.8727C9.80334 10.7753 9.95334 10.6327 10.1433 10.4593C10.3447 10.274 10.6267 10.022 10.998 9.68934L11.0007 9.68667C11.6797 9.079 12.1583 8.27949 12.373 7.39391C12.5878 6.50833 12.5287 5.57842 12.2034 4.72719C11.8782 3.87596 11.3022 3.14354 10.5516 2.6268C9.80102 2.11007 8.91125 1.83338 8 1.83334ZM9.16267 13.5H6.83734C6.84 13.5689 6.84356 13.6305 6.848 13.6847C6.86134 13.8347 6.88467 13.8893 6.90067 13.9167C6.94451 13.9925 7.0075 14.0555 7.08334 14.0993C7.11 14.1153 7.16534 14.138 7.31534 14.152C7.472 14.166 7.67934 14.1667 8 14.1667C8.32067 14.1667 8.528 14.1667 8.68467 14.152C8.83467 14.1387 8.88934 14.1153 8.91667 14.0993C8.99251 14.0555 9.0555 13.9925 9.09934 13.9167C9.11534 13.89 9.13867 13.8347 9.152 13.6847C9.15645 13.6305 9.16 13.5689 9.16267 13.5ZM2.5 6.33334C2.50007 5.416 2.72959 4.51324 3.16766 3.70726C3.60573 2.90127 4.23844 2.21766 5.00819 1.71866C5.77793 1.21965 6.66027 0.921105 7.57487 0.850197C8.48947 0.779289 9.40727 0.93827 10.2447 1.31267C11.0822 1.68707 11.8127 2.26499 12.3698 2.99382C12.9268 3.72265 13.2928 4.57925 13.4342 5.48562C13.5757 6.39199 13.4882 7.31934 13.1797 8.18326C12.8712 9.04718 12.3516 9.82022 11.668 10.432C11.3836 10.6852 11.1005 10.9399 10.8187 11.196C10.7191 11.2875 10.6213 11.3808 10.5253 11.476L10.5013 11.502C10.328 11.716 10.29 11.7713 10.268 11.8213C10.2453 11.8713 10.2293 11.936 10.186 12.208C10.1687 12.3153 10.1667 12.4993 10.1667 13V13.0213C10.1667 13.3147 10.1667 13.568 10.148 13.7747C10.128 13.9947 10.084 14.212 9.966 14.4167C9.83431 14.6448 9.64485 14.8343 9.41667 14.966C9.212 15.084 8.99467 15.128 8.77534 15.148C8.56734 15.1667 8.31467 15.1667 8.022 15.1667H7.97867C7.68534 15.1667 7.432 15.1667 7.22534 15.148C7.00534 15.128 6.788 15.084 6.58334 14.966C6.35516 14.8343 6.1657 14.6448 6.034 14.4167C5.916 14.212 5.872 13.9947 5.852 13.7753C5.83334 13.5673 5.83334 13.3147 5.83334 13.022V13C5.83334 12.5 5.83134 12.3153 5.814 12.208C5.77067 11.936 5.754 11.8713 5.732 11.8213C5.71 11.7713 5.672 11.716 5.49867 11.5013L5.492 11.4947L5.47467 11.4753L5.41 11.4107C5.33478 11.3381 5.25855 11.2665 5.18134 11.196C4.98467 11.016 4.70667 10.7673 4.332 10.432C3.7549 9.91662 3.29334 9.28501 2.9776 8.57863C2.66187 7.87225 2.49911 7.10707 2.5 6.33334ZM6.59467 8.90001C6.65153 8.86711 6.71431 8.84574 6.77943 8.83712C6.84455 8.8285 6.91073 8.83279 6.97419 8.84975C7.03764 8.86672 7.09714 8.89602 7.14927 8.93599C7.2014 8.97595 7.24514 9.02579 7.278 9.08267C7.3511 9.2095 7.45632 9.31484 7.58307 9.38808C7.70981 9.46132 7.85362 9.49988 8 9.49988C8.14639 9.49988 8.29019 9.46132 8.41694 9.38808C8.54369 9.31484 8.64891 9.2095 8.722 9.08267C8.75492 9.02581 8.79872 8.97599 8.85089 8.93605C8.90306 8.89612 8.96259 8.86685 9.02607 8.84991C9.08956 8.83298 9.15576 8.82872 9.22089 8.83737C9.28602 8.84603 9.34881 8.86742 9.40567 8.90034C9.46253 8.93326 9.51236 8.97705 9.55229 9.02923C9.59223 9.0814 9.6215 9.14093 9.63843 9.20441C9.65536 9.26789 9.65962 9.33409 9.65097 9.39922C9.64232 9.46435 9.62092 9.52714 9.588 9.58401C9.34876 9.99656 8.95869 10.3001 8.5 10.4307V11.3333C8.5 11.4659 8.44733 11.5931 8.35356 11.6869C8.25979 11.7807 8.13261 11.8333 8 11.8333C7.8674 11.8333 7.74022 11.7807 7.64645 11.6869C7.55268 11.5931 7.5 11.4659 7.5 11.3333V10.4307C7.04132 10.3001 6.65124 9.99656 6.412 9.58401C6.37911 9.52715 6.35774 9.46437 6.34912 9.39925C6.34049 9.33413 6.34479 9.26795 6.36175 9.20449C6.37872 9.14103 6.40802 9.08154 6.44798 9.02941C6.48795 8.97728 6.53779 8.93287 6.59467 8.90001Z" fill="#868E96"/>
</svg>
