<svg width="16" height="16" viewBox="0 0 16 16" fill="none" xmlns="http://www.w3.org/2000/svg">
<path fill-rule="evenodd" clip-rule="evenodd" d="M3 6.44931C3 3.62398 5.23867 1.33331 8 1.33331C10.7613 1.33331 13 3.62398 13 6.44931C13.0022 7.16565 12.8552 7.8746 12.5683 8.53101C12.2815 9.18742 11.8611 9.77692 11.334 10.262C11.298 10.295 11.263 10.3271 11.229 10.3583C10.9414 10.6222 10.7224 10.8231 10.5627 10.9733C10.4738 11.0564 10.4044 11.1231 10.3547 11.1733L10.296 11.2333L10.2793 11.2513L10.276 11.2553L10.274 11.2573C10.116 11.4566 10.082 11.508 10.062 11.5546C10.0413 11.6013 10.0267 11.6613 9.98667 11.9146C9.97133 12.0146 9.96933 12.1853 9.96933 12.6513V12.6713C9.97 12.944 9.97 13.1786 9.95267 13.372C9.934 13.5766 9.894 13.7786 9.78733 13.9686C9.66868 14.18 9.49646 14.3563 9.288 14.48C9.10133 14.5893 8.90467 14.6306 8.70467 14.6493C8.516 14.6666 8.286 14.6666 8.01933 14.6666H7.98067C7.714 14.6666 7.484 14.6666 7.29533 14.6493C7.096 14.6306 6.898 14.59 6.71267 14.48C6.50467 14.3573 6.33267 14.1813 6.21267 13.9686C6.10533 13.7786 6.06533 13.576 6.04733 13.372C6.03 13.1793 6.03 12.944 6.03 12.6713V12.6513C6.03 12.1853 6.02867 12.0146 6.01267 11.9146C5.97333 11.6613 5.958 11.6013 5.938 11.5546C5.918 11.508 5.884 11.4573 5.726 11.2573L5.704 11.2333C5.61673 11.145 5.52783 11.0583 5.43733 10.9733C5.25991 10.8065 5.00951 10.5772 4.67308 10.2691L4.666 10.2626C3.644 9.32598 3 7.96465 3 6.44931ZM9.05667 13.116C9.05489 13.1804 9.05156 13.2378 9.04667 13.288C9.03467 13.428 9.014 13.4786 9 13.504C8.96008 13.5741 8.90265 13.6327 8.83333 13.674C8.80867 13.6893 8.75933 13.71 8.62267 13.7226C8.48 13.736 8.29133 13.736 8 13.736C7.70867 13.736 7.52 13.736 7.37733 13.7226C7.24067 13.71 7.19133 13.6886 7.16667 13.674C7.09735 13.6327 7.03992 13.5741 7 13.504C6.986 13.4786 6.96533 13.428 6.95267 13.288C6.94822 13.2378 6.94511 13.1804 6.94333 13.116H9.05667ZM6.70075 8.83709C6.63563 8.84571 6.57285 8.86708 6.51599 8.89998C6.45912 8.93284 6.40927 8.97725 6.3693 9.02938C6.32934 9.08151 6.30004 9.141 6.28307 9.20446C6.26611 9.26792 6.26182 9.3341 6.27044 9.39922C6.27906 9.46434 6.30043 9.52712 6.33333 9.58398C6.57257 9.99653 6.96264 10.3001 7.42133 10.4306V11.3333C7.42133 11.4659 7.474 11.5931 7.56777 11.6869C7.66154 11.7806 7.78872 11.8333 7.92133 11.8333C8.05393 11.8333 8.18111 11.7806 8.27488 11.6869C8.36865 11.5931 8.42133 11.4659 8.42133 11.3333V10.4306C8.87976 10.2999 9.26958 9.9964 9.50866 9.58398C9.54158 9.52716 9.56298 9.46441 9.57165 9.39932C9.58032 9.33423 9.57608 9.26807 9.55918 9.20462C9.54228 9.14116 9.51305 9.08166 9.47315 9.0295C9.43326 8.97735 9.38348 8.93356 9.32666 8.90064C9.26984 8.86772 9.2071 8.84632 9.142 8.83765C9.07691 8.82898 9.01075 8.83322 8.9473 8.85012C8.88385 8.86702 8.82434 8.89625 8.77219 8.93615C8.72003 8.97605 8.67624 9.02582 8.64333 9.08264C8.57023 9.20947 8.46501 9.31481 8.33826 9.38805C8.21152 9.46129 8.06771 9.49985 7.92133 9.49985C7.77494 9.49985 7.63114 9.46129 7.50439 9.38805C7.37764 9.31481 7.27242 9.20947 7.19933 9.08264C7.16647 9.02577 7.12272 8.97592 7.07059 8.93596C7.01846 8.89599 6.95897 8.86669 6.89551 8.84972C6.83205 8.83276 6.76587 8.82847 6.70075 8.83709Z" fill="#868E96"/>
</svg>
