<svg width="16" height="16" viewBox="0 0 16 16" fill="none" xmlns="http://www.w3.org/2000/svg">
<path d="M13.1593 2.84067C12.3008 1.98221 11.1364 1.49994 9.92234 1.49994C8.70825 1.49994 7.54387 1.98221 6.68534 2.84067L6.20534 3.32134C6.11702 3.41612 6.06894 3.54148 6.07122 3.67102C6.07351 3.80055 6.12598 3.92414 6.21759 4.01575C6.3092 4.10736 6.43279 4.15983 6.56232 4.16212C6.69186 4.1644 6.81722 4.11632 6.91201 4.028L7.39201 3.548C7.72368 3.21319 8.11824 2.94719 8.55301 2.7653C8.98779 2.58341 9.45421 2.48921 9.9255 2.4881C10.3968 2.48699 10.8636 2.57899 11.2993 2.75884C11.7349 2.93868 12.1307 3.20281 12.464 3.53606C12.7972 3.86931 13.0613 4.26511 13.2412 4.70074C13.421 5.13636 13.513 5.60323 13.5119 6.07451C13.5108 6.5458 13.4166 7.01222 13.2347 7.447C13.0528 7.88177 12.7868 8.27633 12.452 8.608L11.972 9.088C11.8837 9.18279 11.8356 9.30815 11.8379 9.43768C11.8402 9.56722 11.8926 9.69081 11.9843 9.78242C12.0759 9.87403 12.1995 9.9265 12.329 9.92879C12.4585 9.93107 12.5839 9.88299 12.6787 9.79467L13.1587 9.31467C14.0169 8.45617 14.4991 7.29193 14.4991 6.078C14.4991 4.86407 14.0176 3.69917 13.1593 2.84067ZM4.02867 6.20467C4.12231 6.29842 4.1749 6.4255 4.1749 6.558C4.1749 6.6905 4.12231 6.81759 4.02867 6.91134L3.54801 7.39267C3.21319 7.72435 2.9472 8.1189 2.76531 8.55368C2.58342 8.98845 2.48921 9.45487 2.4881 9.92616C2.48699 10.3974 2.579 10.8643 2.75884 11.2999C2.93868 11.7356 3.20281 12.1314 3.53606 12.4646C3.86931 12.7979 4.26512 13.062 4.70074 13.2418C5.13637 13.4217 5.60323 13.5137 6.07452 13.5126C6.5458 13.5115 7.01223 13.4173 7.447 13.2354C7.88177 13.0535 8.27633 12.7875 8.60801 12.4527L9.08801 11.9713C9.18279 11.883 9.30815 11.8349 9.43769 11.8372C9.56722 11.8395 9.69081 11.892 9.78242 11.9836C9.87403 12.0752 9.92651 12.1988 9.92879 12.3283C9.93108 12.4579 9.88299 12.5832 9.79467 12.678L9.31467 13.1593C8.45221 13.9985 7.29402 14.4643 6.09071 14.456C4.8874 14.4478 3.73573 13.9661 2.88489 13.1151C2.03404 12.2642 1.55244 11.1125 1.54429 9.90916C1.53614 8.70585 2.0021 7.54772 2.84134 6.68534L3.32134 6.20534C3.41509 6.1117 3.54217 6.05911 3.67467 6.05911C3.80717 6.05911 3.93492 6.11104 4.02867 6.20467Z" fill="#868E96"/>
<path d="M9.79534 6.20467C9.88897 6.29842 9.94157 6.4255 9.94157 6.558C9.94157 6.6905 9.88897 6.81758 9.79534 6.91134L6.91201 9.79534C6.86623 9.84446 6.81103 9.88386 6.7497 9.91119C6.68837 9.93852 6.62216 9.95321 6.55502 9.9544C6.48789 9.95558 6.4212 9.94323 6.35894 9.91808C6.29668 9.89294 6.24013 9.85551 6.19265 9.80803C6.14517 9.76055 6.10774 9.70399 6.08259 9.64173C6.05744 9.57948 6.04509 9.51279 6.04628 9.44565C6.04746 9.37852 6.06216 9.31231 6.08949 9.25098C6.11681 9.18964 6.15622 9.13444 6.20534 9.08867L9.08801 6.20467C9.18176 6.11104 9.30884 6.05844 9.44134 6.05844C9.57384 6.05844 9.70159 6.11104 9.79534 6.20467Z" fill="#868E96"/>
</svg>
