<svg width="16" height="16" viewBox="0 0 16 16" fill="none" xmlns="http://www.w3.org/2000/svg">
<g clip-path="url(#clip0_474_9414)">
<path fill-rule="evenodd" clip-rule="evenodd" d="M6.16797 10.6666C6.16797 10.1804 6.36112 9.71404 6.70494 9.37022C7.04876 9.02641 7.51507 8.83325 8.0013 8.83325C8.48753 8.83325 8.95385 9.02641 9.29766 9.37022C9.64148 9.71404 9.83464 10.1804 9.83464 10.6666C9.83464 11.1528 9.64148 11.6191 9.29766 11.9629C8.95385 12.3068 8.48753 12.4999 8.0013 12.4999C7.51507 12.4999 7.04876 12.3068 6.70494 11.9629C6.36112 11.6191 6.16797 11.1528 6.16797 10.6666ZM8.0013 9.83325C7.78029 9.83325 7.56833 9.92105 7.41205 10.0773C7.25577 10.2336 7.16797 10.4456 7.16797 10.6666C7.16797 10.8876 7.25577 11.0996 7.41205 11.2558C7.56833 11.4121 7.78029 11.4999 8.0013 11.4999C8.22232 11.4999 8.43428 11.4121 8.59056 11.2558C8.74684 11.0996 8.83464 10.8876 8.83464 10.6666C8.83464 10.4456 8.74684 10.2336 8.59056 10.0773C8.43428 9.92105 8.22232 9.83325 8.0013 9.83325Z" fill="#868E96"/>
<path fill-rule="evenodd" clip-rule="evenodd" d="M3.50065 6.20192V5.33325C3.50065 4.13978 3.97476 2.99519 4.81867 2.15127C5.66258 1.30736 6.80718 0.833252 8.00065 0.833252C9.19413 0.833252 10.3387 1.30736 11.1826 2.15127C12.0265 2.99519 12.5007 4.13978 12.5007 5.33325V6.20192C12.6518 6.21214 12.7944 6.22636 12.9287 6.24459C13.5287 6.32458 14.034 6.49792 14.4353 6.89859C14.8367 7.29992 15.0087 7.80525 15.09 8.40525C15.1673 8.98325 15.1673 9.71859 15.1673 10.6299V10.7033C15.1673 11.6146 15.1673 12.3499 15.09 12.9279C15.0087 13.5279 14.8367 14.0333 14.4353 14.4346C14.034 14.8359 13.5287 15.0079 12.9287 15.0893C12.3507 15.1666 11.6153 15.1666 10.704 15.1666H5.29732C4.38598 15.1666 3.65065 15.1666 3.07265 15.0893C2.47265 15.0079 1.96732 14.8359 1.56598 14.4346C1.16465 14.0333 0.992651 13.5279 0.911984 12.9279C0.833984 12.3499 0.833984 11.6146 0.833984 10.7033V10.6299C0.833984 9.71859 0.833984 8.98325 0.911984 8.40525C0.991984 7.80525 1.16532 7.29992 1.56598 6.89859C1.96732 6.49725 2.47265 6.32525 3.07265 6.24459C3.20643 6.22636 3.3491 6.21214 3.50065 6.20192ZM4.50065 5.33325C4.50065 4.40499 4.8694 3.51476 5.52578 2.85838C6.18215 2.202 7.07239 1.83325 8.00065 1.83325C8.92891 1.83325 9.81915 2.202 10.4755 2.85838C11.1319 3.51476 11.5007 4.40499 11.5007 5.33325V6.16859C11.2518 6.16681 10.9862 6.16614 10.704 6.16659H5.29732C5.01554 6.16659 4.74998 6.16725 4.50065 6.16859V5.33325ZM3.20598 7.23525C2.71665 7.30125 2.45798 7.42192 2.27332 7.60592C2.08865 7.79059 1.96865 8.04925 1.90265 8.53925C1.83532 9.04259 1.83398 9.70992 1.83398 10.6666C1.83398 11.6233 1.83532 12.2906 1.90265 12.7946C1.96865 13.2839 2.08932 13.5426 2.27332 13.7273C2.45798 13.9119 2.71665 14.0319 3.20665 14.0979C3.70932 14.1653 4.37732 14.1666 5.33398 14.1666H10.6673C11.624 14.1666 12.2913 14.1653 12.7953 14.0979C13.2847 14.0319 13.5433 13.9113 13.728 13.7273C13.9127 13.5426 14.0327 13.2839 14.0987 12.7939C14.166 12.2906 14.1673 11.6233 14.1673 10.6666C14.1673 9.70992 14.166 9.04192 14.0987 8.53859C14.0327 8.04925 13.912 7.79059 13.728 7.60592C13.5433 7.42125 13.2847 7.30125 12.7947 7.23525C12.2913 7.16792 11.624 7.16659 10.6673 7.16659H5.33398C4.37732 7.16659 3.70932 7.16792 3.20598 7.23525Z" fill="#868E96"/>
</g>
<defs>
<clipPath id="clip0_474_9414">
<rect width="16" height="16" fill="white"/>
</clipPath>
</defs>
</svg>
