<svg width="16" height="16" viewBox="0 0 16 16" fill="none" xmlns="http://www.w3.org/2000/svg">
<path fill-rule="evenodd" clip-rule="evenodd" d="M10.4233 1.416C10.6413 0.861333 11.4253 0.861333 11.6433 1.416L11.9286 2.14267L12.6513 2.42867C13.2046 2.64733 13.2046 3.43133 12.6513 3.65L11.9286 3.93667L11.6433 4.66267C11.4253 5.21733 10.6413 5.21733 10.4233 4.66267L10.138 3.936L9.41462 3.65C8.86129 3.43133 8.86129 2.64733 9.41462 2.42867L10.138 2.142L10.4233 1.416ZM11.0333 1.68667L11.31 2.39C11.3766 2.55933 11.51 2.69333 11.6786 2.76067L12.3833 3.03933L11.6786 3.31867C11.595 3.35167 11.5191 3.40156 11.4557 3.46522C11.3923 3.52889 11.3427 3.60495 11.31 3.68867L11.0333 4.392L10.7566 3.68867C10.7238 3.60489 10.6741 3.52878 10.6106 3.46511C10.547 3.40145 10.471 3.35159 10.3873 3.31867L9.68262 3.03933L10.3873 2.76067C10.4711 2.72767 10.5471 2.67771 10.6107 2.61392C10.6742 2.55014 10.7239 2.4739 10.7566 2.39L11.0333 1.68667ZM2.20929 2.20933C2.4342 1.98431 2.70125 1.80581 2.99517 1.68403C3.2891 1.56224 3.60413 1.49956 3.92229 1.49956C4.24044 1.49956 4.55548 1.56224 4.8494 1.68403C5.14332 1.80581 5.41037 1.98431 5.63529 2.20933L13.7906 10.3647C14.2449 10.819 14.5002 11.4352 14.5002 12.0777C14.5002 12.7202 14.2449 13.3364 13.7906 13.7907C13.3363 14.245 12.7201 14.5002 12.0776 14.5002C11.4351 14.5002 10.8189 14.245 10.3646 13.7907L2.20929 5.63533C1.98427 5.41042 1.80577 5.14337 1.68398 4.84945C1.56219 4.55552 1.49951 4.24049 1.49951 3.92233C1.49951 3.60418 1.56219 3.28914 1.68398 2.99522C1.80577 2.7013 1.98427 2.43425 2.20929 2.20933ZM4.92795 2.916C4.66115 2.64928 4.29931 2.49947 3.92205 2.49954C3.54479 2.4996 3.18301 2.64953 2.91629 2.91633C2.64957 3.18314 2.49976 3.54498 2.49982 3.92224C2.49989 4.2995 2.64981 4.66128 2.91662 4.928L3.97329 5.98533L5.98462 3.974L4.92795 2.916ZM11.072 13.0833L4.68129 6.69333L6.69262 4.682L13.0833 11.0727C13.2154 11.2047 13.3201 11.3615 13.3916 11.5341C13.4631 11.7066 13.4998 11.8916 13.4998 12.0783C13.4998 12.2651 13.4631 12.45 13.3916 12.6226C13.3201 12.7951 13.2154 12.9519 13.0833 13.084C12.9512 13.2161 12.7944 13.3208 12.6219 13.3923C12.4493 13.4638 12.2644 13.5006 12.0776 13.5006C11.8909 13.5006 11.7059 13.4638 11.5334 13.3923C11.3608 13.3208 11.204 13.2154 11.072 13.0833ZM14.2213 5.96467C14.0033 5.40933 13.2193 5.40933 13.0013 5.96467L12.898 6.22667L12.6373 6.33C12.084 6.54867 12.084 7.33267 12.6373 7.55133L12.898 7.65467L13.0013 7.91733C13.2193 8.472 14.0033 8.472 14.2213 7.91733L14.324 7.65467L14.5853 7.55133C15.1386 7.33267 15.1386 6.54867 14.5853 6.33L14.324 6.22667L14.2213 5.96467ZM13.6113 6.23467L13.5173 6.47467C13.4506 6.64333 13.3173 6.778 13.148 6.84467L12.9053 6.94067L13.148 7.03667C13.3173 7.10333 13.4506 7.238 13.5173 7.40667L13.6106 7.64667L13.7053 7.40667C13.772 7.238 13.9053 7.104 14.0746 7.03667L14.3173 6.94067L14.0746 6.84467C13.9909 6.81174 13.9149 6.76189 13.8513 6.69822C13.7878 6.63455 13.7381 6.55844 13.7053 6.47467L13.6113 6.23467ZM3.11195 10.0827C3.32995 9.528 4.11395 9.528 4.33195 10.0827L4.43529 10.3453L4.69529 10.448C5.24862 10.6673 5.24862 11.4513 4.69529 11.67L4.43529 11.7733L4.33195 12.0353C4.11395 12.5907 3.32995 12.5907 3.11195 12.0353L3.00862 11.7733L2.74795 11.67C2.19462 11.4513 2.19462 10.6673 2.74795 10.4487L3.00862 10.3453L3.11195 10.0827ZM3.62795 10.5927L3.72129 10.3527L3.81595 10.5927C3.88262 10.762 4.01595 10.896 4.18529 10.9633L4.42795 11.0593L4.18529 11.1553C4.10157 11.1883 4.02555 11.2381 3.962 11.3018C3.89845 11.3654 3.84873 11.4416 3.81595 11.5253L3.72195 11.7653L3.62795 11.5253C3.59518 11.4416 3.54546 11.3654 3.48191 11.3018C3.41835 11.2381 3.34234 11.1883 3.25862 11.1553L3.01595 11.0593L3.25862 10.9633C3.3424 10.9303 3.41846 10.8804 3.48202 10.8166C3.54557 10.7528 3.59526 10.6766 3.62795 10.5927Z" fill="#868E96"/>
</svg>
