<svg width="16" height="16" viewBox="0 0 16 16" fill="none" xmlns="http://www.w3.org/2000/svg">
<path d="M2.56337 2.56333C2.20296 2.92377 2.00049 3.41262 2.00049 3.92233C2.00049 4.43205 2.20296 4.92089 2.56337 5.28133L3.62137 6.34L3.6467 6.31333L6.31337 3.64667L6.34004 3.62133L5.28137 2.56333C4.92093 2.20292 4.43209 2.00045 3.92237 2.00045C3.41265 2.00045 2.92381 2.20292 2.56337 2.56333ZM7.04537 4.32667L7.02004 4.35333L4.35337 7.02L4.3267 7.04533L10.7187 13.4373C11.0813 13.7878 11.567 13.9817 12.0713 13.9774C12.5755 13.9731 13.0578 13.7709 13.4144 13.4144C13.771 13.0578 13.9732 12.5754 13.9775 12.0712C13.9818 11.567 13.7878 11.0812 13.4374 10.7187L7.04537 4.32667ZM10.7334 1.538C10.7569 1.4776 10.7982 1.42571 10.8517 1.38913C10.9052 1.35255 10.9685 1.33298 11.0334 1.33298C11.0982 1.33298 11.1615 1.35255 11.2151 1.38913C11.2686 1.42571 11.3098 1.4776 11.3334 1.538L11.62 2.268C11.636 2.30934 11.6603 2.34692 11.6915 2.37837C11.7227 2.40981 11.7601 2.43443 11.8014 2.45067L12.5287 2.73867C12.5889 2.76266 12.6406 2.80417 12.677 2.85783C12.7134 2.91149 12.7328 2.97483 12.7328 3.03967C12.7328 3.1045 12.7134 3.16784 12.677 3.2215C12.6406 3.27516 12.5889 3.31667 12.5287 3.34067L11.802 3.62867C11.7612 3.64542 11.724 3.67015 11.6928 3.70139C11.6615 3.73264 11.6368 3.76978 11.62 3.81067L11.3334 4.54C11.3098 4.6004 11.2686 4.65229 11.2151 4.68887C11.1615 4.72545 11.0982 4.74502 11.0334 4.74502C10.9685 4.74502 10.9052 4.72545 10.8517 4.68887C10.7982 4.65229 10.7569 4.6004 10.7334 4.54L10.4467 3.81C10.4299 3.76911 10.4052 3.73197 10.374 3.70072C10.3427 3.66948 10.3056 3.64476 10.2647 3.628L9.53804 3.34C9.47781 3.31601 9.42616 3.2745 9.38977 3.22084C9.35338 3.16718 9.33393 3.10383 9.33393 3.039C9.33393 2.97416 9.35338 2.91082 9.38977 2.85716C9.42616 2.8035 9.47781 2.76199 9.53804 2.738L10.2647 2.45C10.3057 2.43316 10.3428 2.40834 10.3741 2.37698C10.4053 2.34561 10.43 2.30834 10.4467 2.26733L10.7334 1.538ZM13.3114 6.08667C13.3349 6.02626 13.3762 5.97438 13.4297 5.9378C13.4832 5.90121 13.5465 5.88164 13.6114 5.88164C13.6762 5.88164 13.7395 5.90121 13.7931 5.9378C13.8466 5.97438 13.8878 6.02626 13.9114 6.08667L14.0154 6.35267C14.0487 6.436 14.114 6.502 14.1974 6.53467L14.4627 6.64C14.5227 6.6641 14.5742 6.70562 14.6104 6.7592C14.6466 6.81278 14.666 6.87598 14.666 6.94067C14.666 7.00535 14.6466 7.06855 14.6104 7.12213C14.5742 7.17572 14.5227 7.21723 14.4627 7.24133L14.1974 7.34667C14.1565 7.36343 14.1193 7.38815 14.0881 7.41939C14.0569 7.45064 14.0321 7.48778 14.0154 7.52867L13.9114 7.79533C13.8878 7.85574 13.8466 7.90762 13.7931 7.9442C13.7395 7.98078 13.6762 8.00035 13.6114 8.00035C13.5465 8.00035 13.4832 7.98078 13.4297 7.9442C13.3762 7.90762 13.3349 7.85574 13.3114 7.79533L13.2067 7.52867C13.19 7.48784 13.1654 7.45073 13.1343 7.41949C13.1031 7.38825 13.0661 7.3635 13.0254 7.34667L12.76 7.24133C12.7 7.21723 12.6486 7.17572 12.6124 7.12213C12.5761 7.06855 12.5568 7.00535 12.5568 6.94067C12.5568 6.87598 12.5761 6.81278 12.6124 6.7592C12.6486 6.70562 12.7 6.6641 12.76 6.64L13.0254 6.53467C13.0661 6.51783 13.1031 6.49308 13.1343 6.46184C13.1654 6.4306 13.19 6.39349 13.2067 6.35267L13.3114 6.08667ZM3.42204 10.2047C3.44559 10.1443 3.48683 10.0924 3.54035 10.0558C3.59388 10.0192 3.6572 9.99964 3.72204 9.99964C3.78687 9.99964 3.85019 10.0192 3.90372 10.0558C3.95725 10.0924 3.99848 10.1443 4.02204 10.2047L4.1267 10.4713C4.14271 10.5126 4.16709 10.55 4.1983 10.5813C4.22951 10.6127 4.26688 10.6372 4.30804 10.6533L4.57337 10.758C4.6336 10.782 4.68525 10.8235 4.72164 10.8772C4.75802 10.9308 4.77747 10.9942 4.77747 11.059C4.77747 11.1238 4.75802 11.1872 4.72164 11.2408C4.68525 11.2945 4.6336 11.336 4.57337 11.36L4.30804 11.4653C4.26688 11.4815 4.22951 11.506 4.1983 11.5373C4.16709 11.5687 4.14271 11.6061 4.1267 11.6473L4.02204 11.914C3.99848 11.9744 3.95725 12.0263 3.90372 12.0629C3.85019 12.0994 3.78687 12.119 3.72204 12.119C3.6572 12.119 3.59388 12.0994 3.54035 12.0629C3.48683 12.0263 3.44559 11.9744 3.42204 11.914L3.31737 11.6473C3.30136 11.6061 3.27698 11.5687 3.24577 11.5373C3.21456 11.506 3.1772 11.4815 3.13604 11.4653L2.8707 11.36C2.81047 11.336 2.75882 11.2945 2.72244 11.2408C2.68605 11.1872 2.6666 11.1238 2.6666 11.059C2.6666 10.9942 2.68605 10.9308 2.72244 10.8772C2.75882 10.8235 2.81047 10.782 2.8707 10.758L3.13604 10.6533C3.17726 10.6371 3.21466 10.6125 3.24588 10.581C3.27709 10.5496 3.30144 10.512 3.31737 10.4707L3.42204 10.2047Z" fill="#868E96"/>
</svg>
