<svg width="16" height="16" viewBox="0 0 16 16" fill="none" xmlns="http://www.w3.org/2000/svg">
<path fill-rule="evenodd" clip-rule="evenodd" d="M8.00002 14.5C7.51379 14.5 7.04747 14.3068 6.70366 13.963C6.35984 13.6192 6.16669 13.1529 6.16669 12.6667C6.16669 12.1804 6.35984 11.7141 6.70366 11.3703C7.04747 11.0265 7.51379 10.8333 8.00002 10.8333C8.48625 10.8333 8.95257 11.0265 9.29638 11.3703C9.6402 11.7141 9.83335 12.1804 9.83335 12.6667C9.83335 13.1529 9.6402 13.6192 9.29638 13.963C8.95257 14.3068 8.48625 14.5 8.00002 14.5ZM7.16669 12.6667C7.16669 12.8877 7.25448 13.0996 7.41076 13.2559C7.56705 13.4122 7.77901 13.5 8.00002 13.5C8.22103 13.5 8.433 13.4122 8.58928 13.2559C8.74556 13.0996 8.83335 12.8877 8.83335 12.6667C8.83335 12.4457 8.74556 12.2337 8.58928 12.0774C8.433 11.9211 8.22103 11.8333 8.00002 11.8333C7.77901 11.8333 7.56705 11.9211 7.41076 12.0774C7.25448 12.2337 7.16669 12.4457 7.16669 12.6667ZM8.00002 9.83333C7.51379 9.83333 7.04747 9.64018 6.70366 9.29636C6.35984 8.95255 6.16669 8.48623 6.16669 8C6.16669 7.51377 6.35984 7.04745 6.70366 6.70364C7.04747 6.35982 7.51379 6.16667 8.00002 6.16667C8.48625 6.16667 8.95257 6.35982 9.29638 6.70364C9.6402 7.04745 9.83335 7.51377 9.83335 8C9.83335 8.48623 9.6402 8.95255 9.29638 9.29636C8.95257 9.64018 8.48625 9.83333 8.00002 9.83333ZM7.16669 8C7.16669 8.22101 7.25448 8.43298 7.41076 8.58926C7.56705 8.74554 7.77901 8.83333 8.00002 8.83333C8.22103 8.83333 8.433 8.74554 8.58928 8.58926C8.74556 8.43298 8.83335 8.22101 8.83335 8C8.83335 7.77899 8.74556 7.56702 8.58928 7.41074C8.433 7.25446 8.22103 7.16667 8.00002 7.16667C7.77901 7.16667 7.56705 7.25446 7.41076 7.41074C7.25448 7.56702 7.16669 7.77899 7.16669 8ZM6.16669 3.33333C6.16669 3.81956 6.35984 4.28588 6.70366 4.6297C7.04747 4.97351 7.51379 5.16667 8.00002 5.16667C8.48625 5.16667 8.95257 4.97351 9.29638 4.6297C9.6402 4.28588 9.83335 3.81956 9.83335 3.33333C9.83335 2.8471 9.6402 2.38079 9.29638 2.03697C8.95257 1.69315 8.48625 1.5 8.00002 1.5C7.51379 1.5 7.04747 1.69315 6.70366 2.03697C6.35984 2.38079 6.16669 2.8471 6.16669 3.33333ZM8.00002 4.16667C7.89059 4.16667 7.78222 4.14511 7.68112 4.10323C7.58001 4.06135 7.48815 3.99997 7.41076 3.92259C7.33338 3.84521 7.272 3.75334 7.23012 3.65224C7.18824 3.55113 7.16669 3.44277 7.16669 3.33333C7.16669 3.2239 7.18824 3.11554 7.23012 3.01443C7.272 2.91333 7.33338 2.82146 7.41076 2.74408C7.48815 2.66669 7.58001 2.60531 7.68112 2.56343C7.78222 2.52155 7.89059 2.5 8.00002 2.5C8.22103 2.5 8.433 2.5878 8.58928 2.74408C8.74556 2.90036 8.83335 3.11232 8.83335 3.33333C8.83335 3.55435 8.74556 3.76631 8.58928 3.92259C8.433 4.07887 8.22103 4.16667 8.00002 4.16667Z" fill="#868E96"/>
</svg>
