<svg width="16" height="16" viewBox="0 0 16 16" fill="none" xmlns="http://www.w3.org/2000/svg">
<path fill-rule="evenodd" clip-rule="evenodd" d="M1.35205 7.5C1.47817 5.82316 2.23331 4.25592 3.46616 3.11234C4.699 1.96875 6.31847 1.3333 8.00005 1.33333C7.44672 1.33333 6.95338 1.576 6.54672 1.94733C6.14338 2.31667 5.80272 2.83267 5.52672 3.442C5.24938 4.05533 5.03338 4.77267 4.88738 5.55067C4.76897 6.19436 4.69811 6.8459 4.67538 7.5H1.35205ZM1.35205 8.5H4.67538C4.69938 9.168 4.77072 9.82533 4.88738 10.4493C5.03405 11.2273 5.24938 11.9447 5.52672 12.558C5.80272 13.1673 6.14338 13.6833 6.54672 14.0527C6.95338 14.424 7.44672 14.6667 8.00005 14.6667C4.48672 14.6667 1.60738 11.9487 1.35205 8.5Z" fill="#868E96"/>
<path d="M8.00005 2.26333C7.81672 2.26333 7.58005 2.34133 7.30472 2.59333C7.02738 2.84733 6.74938 3.24533 6.50405 3.78733C6.26005 4.326 6.06205 4.976 5.92605 5.70267C5.81938 6.27467 5.75272 6.88133 5.72872 7.5H10.2714C10.2497 6.89687 10.1837 6.29614 10.0741 5.70267C9.93805 4.976 9.74072 4.326 9.49605 3.78733C9.25072 3.24533 8.97338 2.84733 8.69605 2.594C8.42005 2.34133 8.18338 2.26333 8.00005 2.26333ZM5.92605 10.2973C6.06205 11.024 6.26005 11.674 6.50405 12.2127C6.74938 12.7547 7.02738 13.1527 7.30405 13.406C7.58005 13.6587 7.81738 13.7367 8.00005 13.7367C8.18338 13.7367 8.42005 13.6587 8.69538 13.4067C8.97338 13.1527 9.25072 12.7547 9.49605 12.2127C9.74005 11.674 9.93805 11.024 10.0741 10.2973C10.1814 9.72533 10.2481 9.11867 10.2714 8.5H5.72872C5.75205 9.11867 5.81872 9.72533 5.92605 10.2973Z" fill="#868E96"/>
<path d="M8.00005 1.33333C8.55405 1.33333 9.04672 1.576 9.45338 1.94733C9.85672 2.31667 10.1981 2.83267 10.4734 3.442C10.7514 4.05533 10.9667 4.77267 11.1127 5.55067C11.2294 6.17467 11.3007 6.832 11.3247 7.5H14.6481C14.5219 5.82316 13.7668 4.25592 12.5339 3.11234C11.3011 1.96875 9.68163 1.3333 8.00005 1.33333ZM11.1127 10.4493C10.9667 11.2273 10.7514 11.9447 10.4734 12.558C10.1981 13.1673 9.85672 13.6833 9.45338 14.0527C9.04672 14.424 8.55405 14.6667 8.00005 14.6667C11.5134 14.6667 14.3927 11.9487 14.6481 8.5H11.3247C11.302 9.1541 11.2311 9.80564 11.1127 10.4493Z" fill="#868E96"/>
</svg>
