<svg width="16" height="16" viewBox="0 0 16 16" fill="none" xmlns="http://www.w3.org/2000/svg">
<g clip-path="url(#clip0_49_27545)">
<path fill-rule="evenodd" clip-rule="evenodd" d="M6.13725 2.12133C4.97 2.49149 3.93931 3.20063 3.17641 4.15847C2.4135 5.11632 1.9529 6.27953 1.85325 7.5H4.83992C4.86192 6.76933 4.92992 6.04933 5.04325 5.36667C5.18125 4.53067 5.38659 3.76 5.64992 3.1C5.78323 2.76006 5.94631 2.43257 6.13725 2.12133ZM7.99992 0.833332C7.05878 0.833332 6.12685 1.0187 5.25735 1.37886C4.38785 1.73902 3.59781 2.26691 2.93232 2.9324C2.26683 3.59789 1.73894 4.38793 1.37878 5.25743C1.01862 6.12693 0.833252 7.05886 0.833252 8C0.833252 8.94114 1.01862 9.87306 1.37878 10.7426C1.73894 11.6121 2.26683 12.4021 2.93232 13.0676C3.59781 13.7331 4.38785 14.261 5.25735 14.6211C6.12685 14.9813 7.05878 15.1667 7.99992 15.1667C9.90064 15.1667 11.7235 14.4116 13.0675 13.0676C14.4115 11.7236 15.1666 9.90072 15.1666 8C15.1666 6.09928 14.4115 4.27641 13.0675 2.9324C11.7235 1.58839 9.90064 0.833332 7.99992 0.833332ZM7.99992 1.83333C7.82592 1.83333 7.60058 1.91733 7.33925 2.188C7.07525 2.46133 6.81192 2.88867 6.57859 3.47133C6.34725 4.05067 6.15858 4.74933 6.02925 5.53066C5.92592 6.15733 5.86259 6.822 5.84125 7.5H10.1586C10.1394 6.84013 10.0766 6.18225 9.97058 5.53066C9.84125 4.74933 9.65259 4.05067 9.42125 3.47133C9.18792 2.88867 8.92458 2.46133 8.66125 2.188C8.39925 1.91733 8.17458 1.83333 7.99992 1.83333ZM11.1599 7.5C11.14 6.78514 11.072 6.07242 10.9566 5.36667C10.8186 4.53067 10.6133 3.76 10.3499 3.1C10.2164 2.76003 10.0531 2.43253 9.86192 2.12133C10.8046 2.41944 11.6616 2.94011 12.3606 3.63933C13.3947 4.67376 14.0275 6.0421 14.1459 7.5H11.1599ZM10.1586 8.5H5.84125C5.86192 9.178 5.92592 9.84266 6.02925 10.4693C6.15858 11.2507 6.34725 11.9493 6.57859 12.5287C6.81192 13.1113 7.07525 13.5387 7.33859 13.812C7.60058 14.0827 7.82525 14.1667 7.99992 14.1667C8.17392 14.1667 8.39925 14.0827 8.66058 13.812C8.92459 13.5387 9.18792 13.1113 9.42125 12.5287C9.65259 11.9493 9.84125 11.2507 9.97058 10.4693C10.0739 9.84266 10.1373 9.178 10.1586 8.5ZM9.86258 13.8787C10.0426 13.5893 10.2059 13.2593 10.3493 12.9C10.6133 12.24 10.8186 11.4693 10.9566 10.6333C11.0718 9.92756 11.1395 9.21484 11.1593 8.5H14.1459C14.0466 9.72058 13.5861 10.884 12.8232 11.8419C12.0602 12.7998 11.03 13.5088 9.86258 13.8787ZM6.13658 13.8787C5.94587 13.5674 5.78301 13.2399 5.64992 12.9C5.38592 12.24 5.18058 11.4693 5.04258 10.6333C4.92735 9.92756 4.85965 9.21484 4.83992 8.5H1.85325C1.95251 9.7205 2.41288 10.8838 3.17571 11.8417C3.93853 12.7996 4.96928 13.5087 6.13658 13.8787Z" fill="#868E96"/>
</g>
<defs>
<clipPath id="clip0_49_27545">
<rect width="16" height="16" fill="white"/>
</clipPath>
</defs>
</svg>
