<svg width="16" height="16" viewBox="0 0 16 16" fill="none" xmlns="http://www.w3.org/2000/svg">
<path fill-rule="evenodd" clip-rule="evenodd" d="M7.47725 4.18801C7.60418 4.22623 7.71074 4.3133 7.77349 4.43006C7.83625 4.54682 7.85007 4.68373 7.81192 4.81068L7.40525 6.16668H9.69458L10.1879 4.52268C10.2285 4.3986 10.316 4.29531 10.4317 4.23489C10.5474 4.17446 10.6822 4.16169 10.8072 4.19929C10.9322 4.2369 11.0375 4.32191 11.1007 4.43615C11.1639 4.55039 11.1799 4.68481 11.1453 4.81068L10.7386 6.16668H11.9999C12.1325 6.16668 12.2597 6.21936 12.3535 6.31312C12.4472 6.40689 12.4999 6.53407 12.4999 6.66668C12.4999 6.79929 12.4472 6.92646 12.3535 7.02023C12.2597 7.114 12.1325 7.16668 11.9999 7.16668H10.4386L9.93859 8.83334H11.3333C11.4659 8.83334 11.593 8.88602 11.6868 8.97979C11.7806 9.07356 11.8333 9.20074 11.8333 9.33334C11.8333 9.46595 11.7806 9.59313 11.6868 9.6869C11.593 9.78067 11.4659 9.83334 11.3333 9.83334H9.63859L9.14525 11.4767C9.10361 11.5992 9.01606 11.7009 8.90102 11.7602C8.78597 11.8196 8.6524 11.832 8.5284 11.7948C8.40439 11.7577 8.29962 11.6739 8.23612 11.5611C8.17262 11.4483 8.15534 11.3153 8.18792 11.19L8.59459 9.83334H6.30525L5.81192 11.4767C5.79501 11.5417 5.76516 11.6027 5.72416 11.6559C5.68316 11.7092 5.63185 11.7536 5.57329 11.7866C5.51473 11.8195 5.45013 11.8403 5.38334 11.8478C5.31656 11.8552 5.24896 11.8491 5.18458 11.8298C5.12021 11.8106 5.06038 11.7785 5.00867 11.7356C4.95696 11.6927 4.91444 11.6398 4.88363 11.58C4.85283 11.5203 4.83438 11.455 4.82939 11.388C4.8244 11.321 4.83297 11.2536 4.85459 11.19L5.26125 9.83334H3.99992C3.86731 9.83334 3.74013 9.78067 3.64636 9.6869C3.5526 9.59313 3.49992 9.46595 3.49992 9.33334C3.49992 9.20074 3.5526 9.07356 3.64636 8.97979C3.74013 8.88602 3.86731 8.83334 3.99992 8.83334H5.56125L6.06125 7.16668H4.66659C4.53398 7.16668 4.4068 7.114 4.31303 7.02023C4.21926 6.92646 4.16659 6.79929 4.16659 6.66668C4.16659 6.53407 4.21926 6.40689 4.31303 6.31312C4.4068 6.21936 4.53398 6.16668 4.66659 6.16668H6.36125L6.85459 4.52268C6.89281 4.39575 6.97987 4.28919 7.09663 4.22644C7.2134 4.16368 7.3503 4.14986 7.47725 4.18801ZM7.10525 7.16668H9.39459L8.89459 8.83334H6.60525L7.10525 7.16668Z" fill="#868E96"/>
<path fill-rule="evenodd" clip-rule="evenodd" d="M7.99992 0.833344C4.04192 0.833344 0.833252 4.04201 0.833252 8.00001C0.833252 11.958 4.04192 15.1667 7.99992 15.1667C11.9579 15.1667 15.1666 11.958 15.1666 8.00001C15.1666 4.04201 11.9579 0.833344 7.99992 0.833344ZM1.83325 8.00001C1.83325 6.36451 2.48295 4.79599 3.63943 3.63952C4.7959 2.48304 6.36442 1.83334 7.99992 1.83334C9.63542 1.83334 11.2039 2.48304 12.3604 3.63952C13.5169 4.79599 14.1666 6.36451 14.1666 8.00001C14.1666 9.63551 13.5169 11.204 12.3604 12.3605C11.2039 13.517 9.63542 14.1667 7.99992 14.1667C6.36442 14.1667 4.7959 13.517 3.63943 12.3605C2.48295 11.204 1.83325 9.63551 1.83325 8.00001Z" fill="#868E96"/>
</svg>
