<svg width="16" height="16" viewBox="0 0 16 16" fill="none" xmlns="http://www.w3.org/2000/svg">
<path fill-rule="evenodd" clip-rule="evenodd" d="M7.47725 4.18801C7.60418 4.22623 7.71074 4.3133 7.77349 4.43006C7.83625 4.54682 7.85007 4.68373 7.81192 4.81068L7.40525 6.16668H9.69458L10.1879 4.52268C10.2285 4.3986 10.316 4.29531 10.4317 4.23489C10.5474 4.17446 10.6822 4.16169 10.8072 4.19929C10.9322 4.2369 11.0375 4.32191 11.1007 4.43615C11.1639 4.55039 11.1799 4.68481 11.1453 4.81068L10.7386 6.16668H11.9999C12.1325 6.16668 12.2597 6.21936 12.3535 6.31312C12.4472 6.40689 12.4999 6.53407 12.4999 6.66668C12.4999 6.79929 12.4472 6.92646 12.3535 7.02023C12.2597 7.114 12.1325 7.16668 11.9999 7.16668H10.4386L9.93859 8.83334H11.3333C11.4659 8.83334 11.593 8.88602 11.6868 8.97979C11.7806 9.07356 11.8333 9.20074 11.8333 9.33334C11.8333 9.46595 11.7806 9.59313 11.6868 9.6869C11.593 9.78067 11.4659 9.83334 11.3333 9.83334H9.63859L9.14525 11.4767C9.10361 11.5992 9.01606 11.7009 8.90102 11.7602C8.78597 11.8196 8.6524 11.832 8.5284 11.7948C8.40439 11.7577 8.29962 11.6739 8.23612 11.5611C8.17262 11.4483 8.15534 11.3153 8.18792 11.19L8.59459 9.83334H6.30525L5.81192 11.4767C5.79501 11.5417 5.76516 11.6027 5.72416 11.6559C5.68316 11.7092 5.63185 11.7536 5.57329 11.7866C5.51473 11.8195 5.45013 11.8403 5.38334 11.8478C5.31656 11.8552 5.24896 11.8491 5.18458 11.8298C5.12021 11.8106 5.06038 11.7785 5.00867 11.7356C4.95696 11.6927 4.91444 11.6398 4.88363 11.58C4.85283 11.5203 4.83438 11.455 4.82939 11.388C4.8244 11.321 4.83297 11.2536 4.85459 11.19L5.26125 9.83334H3.99992C3.86731 9.83334 3.74013 9.78067 3.64636 9.6869C3.5526 9.59313 3.49992 9.46595 3.49992 9.33334C3.49992 9.20074 3.5526 9.07356 3.64636 8.97979C3.74013 8.88602 3.86731 8.83334 3.99992 8.83334H5.56125L6.06125 7.16668H4.66659C4.53398 7.16668 4.4068 7.114 4.31303 7.02023C4.21926 6.92646 4.16659 6.79929 4.16659 6.66668C4.16659 6.53407 4.21926 6.40689 4.31303 6.31312C4.4068 6.21936 4.53398 6.16668 4.66659 6.16668H6.36125L6.85459 4.52268C6.89281 4.39575 6.97987 4.28919 7.09663 4.22644C7.2134 4.16368 7.3503 4.14986 7.47725 4.18801ZM7.10525 7.16668H9.39459L8.89459 8.83334H6.60525L7.10525 7.16668Z" fill="#868E96"/>
<path fill-rule="evenodd" clip-rule="evenodd" d="M7.96192 0.833344C6.42259 0.833344 5.21659 0.833344 4.27525 0.96001C3.31259 1.08934 2.55259 1.36001 1.95592 1.95601C1.35925 2.55268 1.08925 3.31268 0.959919 4.27601C0.833252 5.21668 0.833252 6.42268 0.833252 7.96201V8.03801C0.833252 9.57734 0.833252 10.7833 0.959919 11.7247C1.08925 12.6873 1.35992 13.4473 1.95592 14.044C2.55259 14.6407 3.31259 14.9107 4.27592 15.04C5.21659 15.1667 6.42259 15.1667 7.96192 15.1667H8.03792C9.57725 15.1667 10.7833 15.1667 11.7246 15.04C12.6873 14.9107 13.4473 14.64 14.0439 14.044C14.6406 13.4473 14.9106 12.6873 15.0399 11.724C15.1666 10.7833 15.1666 9.57734 15.1666 8.03801V7.96201C15.1666 6.42268 15.1666 5.21668 15.0399 4.27534C14.9106 3.31268 14.6399 2.55268 14.0439 1.95601C13.4473 1.35934 12.6873 1.08934 11.7239 0.96001C10.7833 0.833344 9.57725 0.833344 8.03792 0.833344H7.96192ZM2.66325 2.66334C3.04325 2.28334 3.55659 2.06534 4.40925 1.95068C5.27592 1.83468 6.41459 1.83334 7.99992 1.83334C9.58525 1.83334 10.7239 1.83468 11.5906 1.95068C12.4433 2.06534 12.9573 2.28401 13.3373 2.66334C13.7166 3.04334 13.9346 3.55668 14.0493 4.40934C14.1653 5.27601 14.1666 6.41468 14.1666 8.00001C14.1666 9.58534 14.1653 10.724 14.0493 11.5907C13.9346 12.4433 13.7159 12.9573 13.3366 13.3373C12.9566 13.7167 12.4433 13.9347 11.5906 14.0493C10.7239 14.1653 9.58525 14.1667 7.99992 14.1667C6.41459 14.1667 5.27592 14.1653 4.40925 14.0493C3.55659 13.9347 3.04259 13.716 2.66259 13.3367C2.28325 12.9567 2.06525 12.4433 1.95059 11.5907C1.83459 10.724 1.83325 9.58534 1.83325 8.00001C1.83325 6.41468 1.83459 5.27601 1.95059 4.40934C2.06525 3.55668 2.28392 3.04334 2.66325 2.66334Z" fill="#868E96"/>
</svg>
