<svg width="16" height="16" viewBox="0 0 16 16" fill="none" xmlns="http://www.w3.org/2000/svg">
<path d="M10.4999 1.33333C10.4999 1.20072 10.4472 1.07355 10.3535 0.97978C10.2597 0.886011 10.1325 0.833333 9.99992 0.833333C9.86731 0.833333 9.74013 0.886011 9.64637 0.97978C9.5526 1.07355 9.49992 1.20072 9.49992 1.33333V14.6667C9.49992 14.7993 9.5526 14.9265 9.64637 15.0202C9.74013 15.114 9.86731 15.1667 9.99992 15.1667C10.1325 15.1667 10.2597 15.114 10.3535 15.0202C10.4472 14.9265 10.4999 14.7993 10.4999 14.6667V13.3293C12.2573 13.3113 13.2359 13.202 13.8853 12.552C14.6666 11.7713 14.6666 10.514 14.6666 8C14.6666 5.486 14.6666 4.22867 13.8853 3.448C13.2359 2.798 12.2573 2.68867 10.4999 2.67067V1.33333Z" fill="#868E96"/>
<path fill-rule="evenodd" clip-rule="evenodd" d="M2.11459 12.552C2.89525 13.3333 4.15259 13.3333 6.66659 13.3333H8.66659V2.66667H6.66659C4.15259 2.66667 2.89525 2.66667 2.11459 3.448C1.33392 4.22933 1.33325 5.486 1.33325 8C1.33325 10.514 1.33325 11.7713 2.11459 12.552ZM8.66659 8C8.66659 7.82319 8.59635 7.65362 8.47132 7.5286C8.3463 7.40357 8.17673 7.33333 7.99992 7.33333C7.82311 7.33333 7.65354 7.40357 7.52851 7.5286C7.40349 7.65362 7.33325 7.82319 7.33325 8C7.33325 8.17681 7.40349 8.34638 7.52851 8.4714C7.65354 8.59643 7.82311 8.66667 7.99992 8.66667C8.17673 8.66667 8.3463 8.59643 8.47132 8.4714C8.59635 8.34638 8.66659 8.17681 8.66659 8ZM5.99992 8C5.99992 8.17681 5.92968 8.34638 5.80466 8.4714C5.67963 8.59643 5.51006 8.66667 5.33325 8.66667C5.15644 8.66667 4.98687 8.59643 4.86185 8.4714C4.73682 8.34638 4.66659 8.17681 4.66659 8C4.66659 7.82319 4.73682 7.65362 4.86185 7.5286C4.98687 7.40357 5.15644 7.33333 5.33325 7.33333C5.51006 7.33333 5.67963 7.40357 5.80466 7.5286C5.92968 7.65362 5.99992 7.82319 5.99992 8Z" fill="#868E96"/>
</svg>
