<svg width="16" height="16" viewBox="0 0 16 16" fill="none" xmlns="http://www.w3.org/2000/svg">
<path fill-rule="evenodd" clip-rule="evenodd" d="M11.6666 1.83334C11.7992 1.83334 11.9264 1.88602 12.0201 1.97979C12.1139 2.07356 12.1666 2.20074 12.1666 2.33334V3.83334H13.6666C13.7992 3.83334 13.9264 3.88602 14.0201 3.97979C14.1139 4.07356 14.1666 4.20074 14.1666 4.33334C14.1666 4.46595 14.1139 4.59313 14.0201 4.6869C13.9264 4.78067 13.7992 4.83334 13.6666 4.83334H12.1666V6.33334C12.1666 6.46595 12.1139 6.59313 12.0201 6.6869C11.9264 6.78066 11.7992 6.83334 11.6666 6.83334C11.534 6.83334 11.4068 6.78066 11.313 6.6869C11.2193 6.59313 11.1666 6.46595 11.1666 6.33334V4.83334H9.66659C9.53398 4.83334 9.4068 4.78067 9.31303 4.6869C9.21926 4.59313 9.16659 4.46595 9.16659 4.33334C9.16659 4.20074 9.21926 4.07356 9.31303 3.97979C9.4068 3.88602 9.53398 3.83334 9.66659 3.83334H11.1666V2.33334C11.1666 2.20074 11.2193 2.07356 11.313 1.97979C11.4068 1.88602 11.534 1.83334 11.6666 1.83334Z" fill="#868E96"/>
<path d="M1.33325 4.33334C1.33325 2.91934 1.33325 2.21201 1.77259 1.77268C2.21192 1.33334 2.91925 1.33334 4.33325 1.33334C5.74725 1.33334 6.45459 1.33334 6.89392 1.77268C7.33325 2.21201 7.33325 2.91934 7.33325 4.33334C7.33325 5.74734 7.33325 6.45468 6.89392 6.89401C6.45459 7.33334 5.74725 7.33334 4.33325 7.33334C2.91925 7.33334 2.21192 7.33334 1.77259 6.89401C1.33325 6.45468 1.33325 5.74734 1.33325 4.33334ZM8.66659 11.6667C8.66659 10.2527 8.66659 9.54534 9.10592 9.10601C9.54525 8.66668 10.2526 8.66668 11.6666 8.66668C13.0806 8.66668 13.7879 8.66668 14.2273 9.10601C14.6666 9.54534 14.6666 10.2527 14.6666 11.6667C14.6666 13.0807 14.6666 13.788 14.2273 14.2273C13.7879 14.6667 13.0806 14.6667 11.6666 14.6667C10.2526 14.6667 9.54525 14.6667 9.10592 14.2273C8.66659 13.788 8.66659 13.0807 8.66659 11.6667ZM1.33325 11.6667C1.33325 10.2527 1.33325 9.54534 1.77259 9.10601C2.21192 8.66668 2.91925 8.66668 4.33325 8.66668C5.74725 8.66668 6.45459 8.66668 6.89392 9.10601C7.33325 9.54534 7.33325 10.2527 7.33325 11.6667C7.33325 13.0807 7.33325 13.788 6.89392 14.2273C6.45459 14.6667 5.74725 14.6667 4.33325 14.6667C2.91925 14.6667 2.21192 14.6667 1.77259 14.2273C1.33325 13.788 1.33325 13.0807 1.33325 11.6667Z" fill="#868E96"/>
</svg>
