<svg width="16" height="16" viewBox="0 0 16 16" fill="none" xmlns="http://www.w3.org/2000/svg">
<path fill-rule="evenodd" clip-rule="evenodd" d="M1.33325 8.00001C1.33325 5.48601 1.33325 4.22867 2.11459 3.44801C2.89525 2.66667 4.15259 2.66667 6.66658 2.66667H9.33325C11.8473 2.66667 13.1046 2.66667 13.8853 3.44801C14.6666 4.22867 14.6666 5.48601 14.6666 8.00001C14.6666 10.514 14.6666 11.7713 13.8853 12.552C13.1046 13.3333 11.8473 13.3333 9.33325 13.3333H6.66658C4.15259 13.3333 2.89525 13.3333 2.11459 12.552C1.33325 11.7713 1.33325 10.514 1.33325 8.00001ZM3.99992 10.1667C3.86731 10.1667 3.74013 10.2194 3.64636 10.3131C3.5526 10.4069 3.49992 10.5341 3.49992 10.6667C3.49992 10.7993 3.5526 10.9265 3.64636 11.0202C3.74013 11.114 3.86731 11.1667 3.99992 11.1667H6.66658C6.79919 11.1667 6.92637 11.114 7.02014 11.0202C7.11391 10.9265 7.16658 10.7993 7.16658 10.6667C7.16658 10.5341 7.11391 10.4069 7.02014 10.3131C6.92637 10.2194 6.79919 10.1667 6.66658 10.1667H3.99992ZM5.16658 8.66667C5.16658 8.53406 5.11391 8.40689 5.02014 8.31312C4.92637 8.21935 4.79919 8.16667 4.66658 8.16667H3.99992C3.86731 8.16667 3.74013 8.21935 3.64636 8.31312C3.5526 8.40689 3.49992 8.53406 3.49992 8.66667C3.49992 8.79928 3.5526 8.92646 3.64636 9.02023C3.74013 9.11399 3.86731 9.16667 3.99992 9.16667H4.66658C4.79919 9.16667 4.92637 9.11399 5.02014 9.02023C5.11391 8.92646 5.16658 8.79928 5.16658 8.66667ZM7.66658 8.16667C7.79919 8.16667 7.92637 8.21935 8.02014 8.31312C8.11391 8.40689 8.16658 8.53406 8.16658 8.66667C8.16658 8.79928 8.11391 8.92646 8.02014 9.02023C7.92637 9.11399 7.79919 9.16667 7.66658 9.16667H6.33325C6.20064 9.16667 6.07347 9.11399 5.9797 9.02023C5.88593 8.92646 5.83325 8.79928 5.83325 8.66667C5.83325 8.53406 5.88593 8.40689 5.9797 8.31312C6.07347 8.21935 6.20064 8.16667 6.33325 8.16667H7.66658ZM12.4999 8.66667C12.4999 8.53406 12.4472 8.40689 12.3535 8.31312C12.2597 8.21935 12.1325 8.16667 11.9999 8.16667H9.33325C9.20064 8.16667 9.07347 8.21935 8.9797 8.31312C8.88593 8.40689 8.83325 8.53406 8.83325 8.66667C8.83325 8.79928 8.88593 8.92646 8.9797 9.02023C9.07347 9.11399 9.20064 9.16667 9.33325 9.16667H11.9999C12.1325 9.16667 12.2597 9.11399 12.3535 9.02023C12.4472 8.92646 12.4999 8.79928 12.4999 8.66667ZM8.33325 10.1667C8.20064 10.1667 8.07347 10.2194 7.9797 10.3131C7.88593 10.4069 7.83325 10.5341 7.83325 10.6667C7.83325 10.7993 7.88593 10.9265 7.9797 11.0202C8.07347 11.114 8.20064 11.1667 8.33325 11.1667H9.33325C9.46586 11.1667 9.59304 11.114 9.6868 11.0202C9.78057 10.9265 9.83325 10.7993 9.83325 10.6667C9.83325 10.5341 9.78057 10.4069 9.6868 10.3131C9.59304 10.2194 9.46586 10.1667 9.33325 10.1667H8.33325ZM10.4999 10.6667C10.4999 10.5341 10.5526 10.4069 10.6464 10.3131C10.7401 10.2194 10.8673 10.1667 10.9999 10.1667H11.9999C12.1325 10.1667 12.2597 10.2194 12.3535 10.3131C12.4472 10.4069 12.4999 10.5341 12.4999 10.6667C12.4999 10.7993 12.4472 10.9265 12.3535 11.0202C12.2597 11.114 12.1325 11.1667 11.9999 11.1667H10.9999C10.8673 11.1667 10.7401 11.114 10.6464 11.0202C10.5526 10.9265 10.4999 10.7993 10.4999 10.6667Z" fill="#868E96"/>
</svg>
