<svg width="16" height="16" viewBox="0 0 16 16" fill="none" xmlns="http://www.w3.org/2000/svg">
<path fill-rule="evenodd" clip-rule="evenodd" d="M6.62925 1.5H9.37059C10.5959 1.5 11.5666 1.5 12.3259 1.602C13.1073 1.70733 13.7399 1.92867 14.2393 2.42733C14.7379 2.92667 14.9593 3.55933 15.0646 4.34067C15.1666 5.10067 15.1666 6.07067 15.1666 7.296V8.704C15.1666 9.92933 15.1666 10.9 15.0646 11.6593C14.9593 12.4407 14.7379 13.0733 14.2393 13.5727C13.7399 14.0713 13.1073 14.2927 12.3259 14.398C11.5659 14.5 10.5959 14.5 9.37059 14.5H6.62925C5.40392 14.5 4.43325 14.5 3.67392 14.398C2.89259 14.2927 2.25992 14.0713 1.76059 13.5727C1.26192 13.0733 1.04059 12.4407 0.935252 11.6593C0.833252 10.8993 0.833252 9.92933 0.833252 8.704V7.296C0.833252 6.07067 0.833252 5.1 0.935252 4.34067C1.04059 3.55933 1.26192 2.92667 1.76059 2.42733C2.25992 1.92867 2.89259 1.70733 3.67392 1.602C4.43392 1.5 5.40392 1.5 6.62925 1.5ZM3.80659 2.59333C3.13592 2.68333 2.74925 2.85267 2.46659 3.13467C2.18525 3.41667 2.01592 3.80333 1.92592 4.474C1.83392 5.15933 1.83259 6.062 1.83259 7.33333V7.5H14.1659V7.33333C14.1659 6.062 14.1646 5.15933 14.0726 4.47333C13.9826 3.80333 13.8133 3.41667 13.5313 3.13467C13.2493 2.85267 12.8626 2.68333 12.1919 2.59333C11.5073 2.50133 10.6039 2.5 9.33259 2.5H6.66592C5.39459 2.5 4.49259 2.50133 3.80659 2.59333ZM14.1653 8.5H1.83325V8.66667C1.83325 9.938 1.83459 10.8413 1.92659 11.5267C2.01659 12.1967 2.18592 12.5833 2.46792 12.8653C2.74992 13.1473 3.13659 13.3167 3.80725 13.4067C4.49259 13.4987 5.39525 13.5 6.66659 13.5H9.33325C10.6046 13.5 11.5079 13.4987 12.1933 13.4067C12.8633 13.3167 13.2499 13.1473 13.5319 12.8653C13.8139 12.5833 13.9833 12.1967 14.0733 11.526C14.1653 10.8413 14.1666 9.938 14.1666 8.66667L14.1653 8.5ZM3.99992 3.83333C4.13253 3.83333 4.2597 3.88601 4.35347 3.97978C4.44724 4.07355 4.49992 4.20073 4.49992 4.33333V5.66667C4.49992 5.79927 4.44724 5.92645 4.35347 6.02022C4.2597 6.11399 4.13253 6.16667 3.99992 6.16667C3.86731 6.16667 3.74013 6.11399 3.64637 6.02022C3.5526 5.92645 3.49992 5.79927 3.49992 5.66667V4.33333C3.49992 4.20073 3.5526 4.07355 3.64637 3.97978C3.74013 3.88601 3.86731 3.83333 3.99992 3.83333ZM5.99992 3.83333C6.13253 3.83333 6.2597 3.88601 6.35347 3.97978C6.44724 4.07355 6.49992 4.20073 6.49992 4.33333V5.66667C6.49992 5.79927 6.44724 5.92645 6.35347 6.02022C6.2597 6.11399 6.13253 6.16667 5.99992 6.16667C5.86731 6.16667 5.74013 6.11399 5.64637 6.02022C5.5526 5.92645 5.49992 5.79927 5.49992 5.66667V4.33333C5.49992 4.20073 5.5526 4.07355 5.64637 3.97978C5.74013 3.88601 5.86731 3.83333 5.99992 3.83333ZM8.49992 5C8.49992 4.86739 8.5526 4.74021 8.64637 4.64645C8.74013 4.55268 8.86731 4.5 8.99992 4.5H11.9999C12.1325 4.5 12.2597 4.55268 12.3535 4.64645C12.4472 4.74021 12.4999 4.86739 12.4999 5C12.4999 5.13261 12.4472 5.25979 12.3535 5.35355C12.2597 5.44732 12.1325 5.5 11.9999 5.5H8.99992C8.86731 5.5 8.74013 5.44732 8.64637 5.35355C8.5526 5.25979 8.49992 5.13261 8.49992 5ZM3.99992 9.83333C4.13253 9.83333 4.2597 9.88601 4.35347 9.97978C4.44724 10.0735 4.49992 10.2007 4.49992 10.3333V11.6667C4.49992 11.7993 4.44724 11.9265 4.35347 12.0202C4.2597 12.114 4.13253 12.1667 3.99992 12.1667C3.86731 12.1667 3.74013 12.114 3.64637 12.0202C3.5526 11.9265 3.49992 11.7993 3.49992 11.6667V10.3333C3.49992 10.2007 3.5526 10.0735 3.64637 9.97978C3.74013 9.88601 3.86731 9.83333 3.99992 9.83333ZM5.99992 9.83333C6.13253 9.83333 6.2597 9.88601 6.35347 9.97978C6.44724 10.0735 6.49992 10.2007 6.49992 10.3333V11.6667C6.49992 11.7993 6.44724 11.9265 6.35347 12.0202C6.2597 12.114 6.13253 12.1667 5.99992 12.1667C5.86731 12.1667 5.74013 12.114 5.64637 12.0202C5.5526 11.9265 5.49992 11.7993 5.49992 11.6667V10.3333C5.49992 10.2007 5.5526 10.0735 5.64637 9.97978C5.74013 9.88601 5.86731 9.83333 5.99992 9.83333ZM8.49992 11C8.49992 10.8674 8.5526 10.7402 8.64637 10.6464C8.74013 10.5527 8.86731 10.5 8.99992 10.5H11.9999C12.1325 10.5 12.2597 10.5527 12.3535 10.6464C12.4472 10.7402 12.4999 10.8674 12.4999 11C12.4999 11.1326 12.4472 11.2598 12.3535 11.3536C12.2597 11.4473 12.1325 11.5 11.9999 11.5H8.99992C8.86731 11.5 8.74013 11.4473 8.64637 11.3536C8.5526 11.2598 8.49992 11.1326 8.49992 11Z" fill="#868E96"/>
</svg>
