<svg width="16" height="16" viewBox="0 0 16 16" fill="none" xmlns="http://www.w3.org/2000/svg">
<path fill-rule="evenodd" clip-rule="evenodd" d="M2.11459 2.78133C1.33325 3.562 1.33325 4.81933 1.33325 7.33333V7.5H14.6666V7.33333C14.6666 4.81933 14.6666 3.562 13.8853 2.78133C13.1039 2.00067 11.8473 2 9.33325 2H6.66659C4.15259 2 2.89525 2 2.11459 2.78133ZM14.6666 8.5H1.33325V8.66667C1.33325 11.1807 1.33325 12.438 2.11459 13.2187C2.89592 13.9993 4.15259 14 6.66659 14H9.33325C11.8473 14 13.1046 14 13.8853 13.2187C14.6659 12.4373 14.6666 11.1807 14.6666 8.66667V8.5ZM3.49992 11.6667C3.49992 11.7993 3.5526 11.9265 3.64637 12.0202C3.74013 12.114 3.86731 12.1667 3.99992 12.1667C4.13253 12.1667 4.2597 12.114 4.35347 12.0202C4.44724 11.9265 4.49992 11.7993 4.49992 11.6667V10.3333C4.49992 10.2007 4.44724 10.0735 4.35347 9.97978C4.2597 9.88601 4.13253 9.83333 3.99992 9.83333C3.86731 9.83333 3.74013 9.88601 3.64637 9.97978C3.5526 10.0735 3.49992 10.2007 3.49992 10.3333V11.6667ZM5.99992 12.1667C5.86731 12.1667 5.74013 12.114 5.64637 12.0202C5.5526 11.9265 5.49992 11.7993 5.49992 11.6667V10.3333C5.49992 10.2007 5.5526 10.0735 5.64637 9.97978C5.74013 9.88601 5.86731 9.83333 5.99992 9.83333C6.13253 9.83333 6.2597 9.88601 6.35347 9.97978C6.44724 10.0735 6.49992 10.2007 6.49992 10.3333V11.6667C6.49992 11.7993 6.44724 11.9265 6.35347 12.0202C6.2597 12.114 6.13253 12.1667 5.99992 12.1667ZM8.99992 10.5C8.86731 10.5 8.74013 10.5527 8.64637 10.6464C8.5526 10.7402 8.49992 10.8674 8.49992 11C8.49992 11.1326 8.5526 11.2598 8.64637 11.3536C8.74013 11.4473 8.86731 11.5 8.99992 11.5H11.9999C12.1325 11.5 12.2597 11.4473 12.3535 11.3536C12.4472 11.2598 12.4999 11.1326 12.4999 11C12.4999 10.8674 12.4472 10.7402 12.3535 10.6464C12.2597 10.5527 12.1325 10.5 11.9999 10.5H8.99992ZM5.99992 6.16667C5.86731 6.16667 5.74013 6.11399 5.64637 6.02022C5.5526 5.92645 5.49992 5.79927 5.49992 5.66667V4.33333C5.49992 4.20073 5.5526 4.07355 5.64637 3.97978C5.74013 3.88601 5.86731 3.83333 5.99992 3.83333C6.13253 3.83333 6.2597 3.88601 6.35347 3.97978C6.44724 4.07355 6.49992 4.20073 6.49992 4.33333V5.66667C6.49992 5.79927 6.44724 5.92645 6.35347 6.02022C6.2597 6.11399 6.13253 6.16667 5.99992 6.16667ZM3.49992 5.66667C3.49992 5.79927 3.5526 5.92645 3.64637 6.02022C3.74013 6.11399 3.86731 6.16667 3.99992 6.16667C4.13253 6.16667 4.2597 6.11399 4.35347 6.02022C4.44724 5.92645 4.49992 5.79927 4.49992 5.66667V4.33333C4.49992 4.20073 4.44724 4.07355 4.35347 3.97978C4.2597 3.88601 4.13253 3.83333 3.99992 3.83333C3.86731 3.83333 3.74013 3.88601 3.64637 3.97978C3.5526 4.07355 3.49992 4.20073 3.49992 4.33333V5.66667ZM8.49992 5C8.49992 4.86739 8.5526 4.74021 8.64637 4.64645C8.74013 4.55268 8.86731 4.5 8.99992 4.5H11.9999C12.1325 4.5 12.2597 4.55268 12.3535 4.64645C12.4472 4.74021 12.4999 4.86739 12.4999 5C12.4999 5.13261 12.4472 5.25978 12.3535 5.35355C12.2597 5.44732 12.1325 5.5 11.9999 5.5H8.99992C8.86731 5.5 8.74013 5.44732 8.64637 5.35355C8.5526 5.25978 8.49992 5.13261 8.49992 5Z" fill="#868E96"/>
</svg>
