<svg width="16" height="16" viewBox="0 0 16 16" fill="none" xmlns="http://www.w3.org/2000/svg">
<path fill-rule="evenodd" clip-rule="evenodd" d="M8 5.5C7.33696 5.5 6.70107 5.76339 6.23223 6.23223C5.76339 6.70107 5.5 7.33696 5.5 8C5.5 8.66304 5.76339 9.29893 6.23223 9.76777C6.70107 10.2366 7.33696 10.5 8 10.5C8.66304 10.5 9.29893 10.2366 9.76777 9.76777C10.2366 9.29893 10.5 8.66304 10.5 8C10.5 7.33696 10.2366 6.70107 9.76777 6.23223C9.29893 5.76339 8.66304 5.5 8 5.5ZM6.5 8C6.5 7.60218 6.65804 7.22064 6.93934 6.93934C7.22064 6.65804 7.60218 6.5 8 6.5C8.39782 6.5 8.77936 6.65804 9.06066 6.93934C9.34196 7.22064 9.5 7.60218 9.5 8C9.5 8.39782 9.34196 8.77936 9.06066 9.06066C8.77936 9.34196 8.39782 9.5 8 9.5C7.60218 9.5 7.22064 9.34196 6.93934 9.06066C6.65804 8.77936 6.5 8.39782 6.5 8Z" fill="#868E96"/>
<path fill-rule="evenodd" clip-rule="evenodd" d="M8 0.833333C7.53 0.833333 7.10133 0.962666 6.63267 1.18C6.17933 1.39133 5.65333 1.702 4.99667 2.09133L4.494 2.38867C3.83667 2.778 3.312 3.08867 2.90733 3.386C2.48867 3.694 2.16733 4.00867 1.93533 4.42133C1.70333 4.834 1.59867 5.274 1.54867 5.79667C1.5 6.30333 1.5 6.924 1.5 7.704V8.296C1.5 9.076 1.5 9.696 1.54867 10.2027C1.59867 10.726 1.70333 11.1667 1.93533 11.5787C2.168 11.9913 2.48867 12.306 2.90733 12.614C3.312 12.9113 3.83667 13.222 4.494 13.6113L4.99667 13.9087C5.65333 14.298 6.17867 14.6087 6.63267 14.82C7.10133 15.0373 7.53 15.1667 8 15.1667C8.47 15.1667 8.89867 15.0373 9.36733 14.82C9.82067 14.6087 10.3467 14.298 11.0033 13.9087L11.506 13.6113C12.1633 13.222 12.688 12.9113 13.0927 12.614C13.5113 12.306 13.8327 11.9913 14.0647 11.5787C14.2967 11.166 14.4013 10.726 14.4513 10.2033C14.5 9.69667 14.5 9.076 14.5 8.29667V7.704C14.5 6.924 14.5 6.304 14.4513 5.79733C14.4013 5.274 14.2967 4.83333 14.0647 4.42133C13.832 4.00867 13.5113 3.694 13.0927 3.386C12.688 3.08867 12.1633 2.778 11.506 2.38867L11.0033 2.09133C10.3467 1.702 9.82133 1.39133 9.36733 1.18C8.89867 0.962666 8.47 0.833333 8 0.833333ZM5.48333 2.96467C6.168 2.55933 6.65067 2.27467 7.054 2.08733C7.44733 1.90467 7.72733 1.83333 8 1.83333C8.27267 1.83333 8.55333 1.90467 8.94667 2.08667C9.34933 2.27467 9.832 2.56 10.5167 2.96467L10.974 3.236C11.6587 3.64133 12.1407 3.92733 12.5007 4.192C12.8513 4.45 13.054 4.66533 13.1927 4.912C13.3327 5.15933 13.4127 5.44933 13.456 5.892C13.4993 6.34533 13.5 6.91867 13.5 7.72933V8.27067C13.5 9.08133 13.5 9.654 13.456 10.1073C13.4133 10.5507 13.3327 10.8407 13.1927 11.088C13.054 11.3347 12.8513 11.55 12.5007 11.808C12.1407 12.0727 11.6587 12.3587 10.974 12.764L10.5167 13.0353C9.832 13.4407 9.34933 13.7253 8.946 13.9127C8.55267 14.0953 8.27267 14.1667 8 14.1667C7.72733 14.1667 7.44667 14.0953 7.05333 13.9133C6.65067 13.7253 6.168 13.44 5.48333 13.0353L5.026 12.764C4.34133 12.3587 3.85933 12.0727 3.49933 11.808C3.14867 11.55 2.946 11.3347 2.80733 11.088C2.66733 10.8407 2.58667 10.5507 2.544 10.108C2.50067 9.65467 2.5 9.08133 2.5 8.27067V7.72933C2.5 6.91867 2.5 6.346 2.544 5.89267C2.58667 5.44933 2.66733 5.15933 2.80667 4.912C2.946 4.66533 3.14867 4.45 3.5 4.192C3.86 3.92733 4.34133 3.64133 5.02667 3.236L5.48333 2.96467Z" fill="#868E96"/>
</svg>
