<svg width="16" height="16" viewBox="0 0 16 16" fill="none" xmlns="http://www.w3.org/2000/svg">
<path fill-rule="evenodd" clip-rule="evenodd" d="M9.37075 1.5C10.5961 1.5 11.5667 1.5 12.3261 1.602C13.1074 1.70733 13.7401 1.92867 14.2394 2.42733C14.7381 2.92667 14.9594 3.55933 15.0647 4.34067C15.1667 5.10067 15.1667 6.07067 15.1667 7.296V8.704C15.1667 9.92933 15.1667 10.9 15.0647 11.6593C14.9594 12.4407 14.7381 13.0733 14.2394 13.5727C13.7401 14.0713 13.1074 14.2927 12.3261 14.398C11.5661 14.5 10.5961 14.5 9.37075 14.5H6.02275C6.00675 14.5005 5.99073 14.5003 5.97475 14.4993C5.05208 14.4967 4.29275 14.4813 3.67408 14.398C2.89275 14.2927 2.26008 14.0713 1.76075 13.5727C1.26208 13.0733 1.04075 12.4407 0.935415 11.6593C0.833415 10.8993 0.833416 9.92933 0.833416 8.704V7.296C0.833416 6.07067 0.833415 5.1 0.935415 4.34067C1.04075 3.55933 1.26208 2.92667 1.76075 2.42733C2.26008 1.92867 2.89275 1.70733 3.67408 1.602C4.29275 1.51867 5.05208 1.50333 5.97408 1.50067C5.9903 1.49989 6.00654 1.49989 6.02275 1.50067L6.62942 1.5H9.37075ZM6.50008 2.5H9.33342C10.6047 2.5 11.5074 2.50133 12.1934 2.59333C12.8634 2.68333 13.2501 2.85267 13.5321 3.13467C13.8141 3.41667 13.9834 3.80333 14.0734 4.474C14.1654 5.15933 14.1667 6.062 14.1667 7.33333V8.66667C14.1667 9.938 14.1654 10.8413 14.0734 11.5267C13.9834 12.1967 13.8141 12.5833 13.5321 12.8653C13.2501 13.1473 12.8634 13.3167 12.1927 13.4067C11.5074 13.4987 10.6047 13.5 9.33342 13.5H6.50008V2.5ZM5.50008 13.496C4.81075 13.4893 4.26141 13.468 3.80675 13.4067C3.13675 13.3167 2.75008 13.1473 2.46808 12.8653C2.18608 12.5833 2.01675 12.1967 1.92675 11.526C1.83475 10.8413 1.83342 9.938 1.83342 8.66667V7.33333C1.83342 6.062 1.83475 5.15933 1.92675 4.47333C2.01675 3.80333 2.18608 3.41667 2.46808 3.13467C2.75008 2.85267 3.13675 2.68333 3.80742 2.59333C4.26075 2.532 4.81075 2.51133 5.50008 2.504V13.496Z" fill="#868E96"/>
</svg>
