<svg width="24" height="24" viewBox="0 0 24 24" fill="none" xmlns="http://www.w3.org/2000/svg">
<g id="solar:hand-shake-outline">
<path id="Vector" fill-rule="evenodd" clip-rule="evenodd" d="M18.9056 3.92178C17.8916 2.88578 16.4456 2.50478 15.0306 2.90678C14.9348 2.93753 14.8338 2.94869 14.7336 2.9396C14.6334 2.93051 14.5361 2.90135 14.4474 2.85386C14.3587 2.80637 14.2805 2.74151 14.2174 2.66316C14.1542 2.58481 14.1075 2.49456 14.08 2.39779C14.0525 2.30101 14.0447 2.19969 14.0572 2.09985C14.0696 2.00001 14.102 1.9037 14.1525 1.81665C14.2029 1.7296 14.2704 1.65358 14.3508 1.59313C14.4312 1.53269 14.523 1.48904 14.6206 1.46478C16.5576 0.912784 18.5746 1.43978 19.9776 2.87278C20.0481 2.94284 20.1039 3.0262 20.1419 3.11801C20.1798 3.20982 20.1992 3.30826 20.1988 3.4076C20.1984 3.50695 20.1782 3.60523 20.1395 3.69673C20.1008 3.78823 20.0443 3.87113 19.9733 3.94061C19.9023 4.0101 19.8182 4.06478 19.7259 4.10149C19.6336 4.1382 19.5349 4.1562 19.4355 4.15445C19.3362 4.1527 19.2382 4.13123 19.1472 4.09129C19.0563 4.05135 18.9742 3.99373 18.9056 3.92178ZM11.1896 3.30778C10.9756 2.94078 10.3516 2.71778 9.71864 3.08078C9.08664 3.44078 8.97564 4.07779 9.18664 4.43779L11.7116 8.76979C11.7655 8.85495 11.8017 8.9501 11.818 9.04956C11.8342 9.14901 11.8303 9.25072 11.8064 9.34863C11.7825 9.44653 11.7391 9.53861 11.6788 9.61937C11.6186 9.70013 11.5426 9.76791 11.4556 9.81867C11.3685 9.86943 11.2721 9.90212 11.1721 9.91479C11.0722 9.92747 10.9706 9.91986 10.8737 9.89243C10.7767 9.865 10.6863 9.8183 10.6077 9.75514C10.5292 9.69197 10.4642 9.61363 10.4166 9.52479L7.88964 5.19378L7.04864 3.74978C6.83464 3.38278 6.21064 3.15978 5.57764 3.52278C4.94564 3.88278 4.83464 4.51978 5.04464 4.87979L8.83364 11.3768C8.88328 11.4619 8.91567 11.5559 8.92897 11.6535C8.94226 11.7512 8.9362 11.8504 8.91113 11.9457C8.88606 12.041 8.84247 12.1304 8.78285 12.2088C8.72322 12.2872 8.64874 12.3531 8.56364 12.4028C8.47854 12.4524 8.3845 12.4848 8.28689 12.4981C8.18927 12.5114 8.08999 12.5053 7.99472 12.4803C7.89945 12.4552 7.81005 12.4116 7.73162 12.352C7.65319 12.2924 7.58728 12.2179 7.53764 12.1328L5.85364 9.24479C5.63964 8.87779 5.01664 8.65479 4.38264 9.01779C3.75164 9.37778 3.63964 10.0138 3.85064 10.3748L7.63864 16.8718C9.24864 19.6308 13.2186 20.5258 16.5856 18.6018C19.9496 16.6788 21.1456 12.8378 19.5406 10.0848L17.0146 5.75379C16.8006 5.38679 16.1766 5.16378 15.5436 5.52578C14.9116 5.88679 14.8016 6.52278 15.0116 6.88378L16.6956 9.77079C16.7457 9.8564 16.7783 9.95109 16.7915 10.0494C16.8047 10.1477 16.7983 10.2476 16.7726 10.3434C16.7469 10.4392 16.7025 10.5289 16.6419 10.6074C16.5813 10.6859 16.5058 10.7517 16.4196 10.8008C14.8766 11.6808 14.4046 13.3858 15.0796 14.5438C15.1293 14.6289 15.1617 14.7229 15.175 14.8205C15.1883 14.9182 15.1822 15.0174 15.1571 15.1127C15.1321 15.208 15.0885 15.2974 15.0288 15.3758C14.9692 15.4542 14.8947 15.5201 14.8096 15.5698C14.7245 15.6194 14.6305 15.6518 14.5329 15.6651C14.4353 15.6784 14.336 15.6723 14.2407 15.6473C14.1454 15.6222 14.056 15.5786 13.9776 15.519C13.8992 15.4594 13.8333 15.3849 13.7836 15.2998C12.7236 13.4828 13.3916 11.2368 15.0466 9.92279L11.1896 3.30778ZM13.9196 5.00979L12.4866 2.55378C11.7706 1.32578 10.1636 1.09978 8.97564 1.77978C8.61348 1.98483 8.30158 2.26803 8.06264 2.60878C7.26264 1.72778 5.88464 1.62078 4.83364 2.22078C3.64364 2.90178 3.03064 4.40279 3.75064 5.63679L4.75264 7.35579C4.36104 7.39894 3.98234 7.52143 3.63964 7.71579C2.44864 8.39579 1.83564 9.89779 2.55564 11.1318L6.34464 17.6288C8.45464 21.2488 13.4086 22.1468 17.3306 19.9048C21.2546 17.6628 22.9516 12.9558 20.8376 9.32979L18.3096 4.99978C17.5936 3.77178 15.9866 3.54578 14.7986 4.22478C14.4486 4.42478 14.1486 4.69579 13.9176 5.00979M4.41364 17.8598C4.49873 17.8101 4.59277 17.7777 4.69039 17.7644C4.78801 17.7511 4.8873 17.7571 4.98258 17.7822C5.07786 17.8073 5.16727 17.8509 5.24569 17.9105C5.32411 17.9702 5.39002 18.0447 5.43964 18.1298C6.26664 19.5478 7.52964 20.6198 9.08964 21.3158C9.27131 21.3969 9.41331 21.5469 9.48438 21.7328C9.55546 21.9186 9.5498 22.1251 9.46864 22.3068C9.38748 22.4885 9.23748 22.6305 9.05163 22.7015C8.86579 22.7726 8.65931 22.7669 8.47764 22.6858C6.66664 21.8768 5.14664 20.6058 4.14364 18.8858C4.09398 18.8007 4.06156 18.7067 4.04825 18.609C4.03494 18.5114 4.041 18.4121 4.06607 18.3168C4.09115 18.2216 4.13475 18.1322 4.19438 18.0537C4.25402 17.9753 4.32853 17.9094 4.41364 17.8598Z" fill="#497561"/>
</g>
</svg>
