<svg width="16" height="16" viewBox="0 0 16 16" fill="none" xmlns="http://www.w3.org/2000/svg">
<path fill-rule="evenodd" clip-rule="evenodd" d="M2.30925 2.30933C1.58925 3.02933 1.40059 4.07399 1.35059 5.83333H14.6493C14.5993 4.07333 14.4106 3.02999 13.6899 2.30933C12.7146 1.33333 11.1426 1.33333 7.99992 1.33333C4.85725 1.33333 3.28592 1.33333 2.30925 2.30933ZM1.33325 8C1.33325 7.58488 1.33392 7.19599 1.33525 6.83333H5.49992V14.6373C3.93992 14.5727 2.98325 14.364 2.30925 13.6907C1.33325 12.7133 1.33325 11.1427 1.33325 8ZM3.99992 4.66666C4.17673 4.66666 4.3463 4.59642 4.47132 4.4714C4.59635 4.34637 4.66659 4.17681 4.66659 3.99999C4.66659 3.82318 4.59635 3.65361 4.47132 3.52859C4.3463 3.40357 4.17673 3.33333 3.99992 3.33333C3.82311 3.33333 3.65354 3.40357 3.52851 3.52859C3.40349 3.65361 3.33325 3.82318 3.33325 3.99999C3.33325 4.17681 3.40349 4.34637 3.52851 4.4714C3.65354 4.59642 3.82311 4.66666 3.99992 4.66666ZM6.66659 3.99999C6.66659 4.17681 6.59635 4.34637 6.47132 4.4714C6.3463 4.59642 6.17673 4.66666 5.99992 4.66666C5.82311 4.66666 5.65354 4.59642 5.52851 4.4714C5.40349 4.34637 5.33325 4.17681 5.33325 3.99999C5.33325 3.82318 5.40349 3.65361 5.52851 3.52859C5.65354 3.40357 5.82311 3.33333 5.99992 3.33333C6.17673 3.33333 6.3463 3.40357 6.47132 3.52859C6.59635 3.65361 6.66659 3.82318 6.66659 3.99999ZM7.99992 4.66666C8.17673 4.66666 8.3463 4.59642 8.47132 4.4714C8.59635 4.34637 8.66659 4.17681 8.66659 3.99999C8.66659 3.82318 8.59635 3.65361 8.47132 3.52859C8.3463 3.40357 8.17673 3.33333 7.99992 3.33333C7.82311 3.33333 7.65354 3.40357 7.52851 3.52859C7.40349 3.65361 7.33325 3.82318 7.33325 3.99999C7.33325 4.17681 7.40349 4.34637 7.52851 4.4714C7.65354 4.59642 7.82311 4.66666 7.99992 4.66666Z" fill="#868E96"/>
<path d="M14.6666 8C14.6666 11.1427 14.6666 12.714 13.6899 13.69C12.7146 14.6667 11.1426 14.6667 7.99992 14.6667C7.45392 14.6667 6.95592 14.6667 6.49992 14.6613V6.83333H14.6646C14.6659 7.196 14.6666 7.58488 14.6666 8Z" fill="#868E96"/>
</svg>
