<svg width="16" height="16" viewBox="0 0 16 16" fill="none" xmlns="http://www.w3.org/2000/svg">
<path fill-rule="evenodd" clip-rule="evenodd" d="M7.96192 0.833328H8.03792C9.57725 0.833328 10.7833 0.833328 11.7246 0.959995C12.6873 1.08933 13.4473 1.35999 14.0439 1.95599C14.6406 2.55266 14.9106 3.31266 15.0399 4.276C15.1666 5.21666 15.1666 6.42266 15.1666 7.962V8.038C15.1666 9.57733 15.1666 10.7833 15.0399 11.7247C14.9106 12.6873 14.6399 13.4473 14.0439 14.044C13.4473 14.6407 12.6873 14.9107 11.7239 15.04C10.7833 15.1667 9.57725 15.1667 8.03792 15.1667H7.96192C6.42259 15.1667 5.21659 15.1667 4.27525 15.04C3.31259 14.9107 2.55259 14.64 1.95592 14.044C1.35925 13.4473 1.08925 12.6873 0.959919 11.724C0.833252 10.7833 0.833252 9.57733 0.833252 8.038V7.962C0.833252 6.42266 0.833252 5.21666 0.959919 4.27533C1.08925 3.31266 1.35992 2.55266 1.95592 1.95599C2.55259 1.35933 3.31259 1.08933 4.27592 0.959995C5.21659 0.833328 6.42259 0.833328 7.96192 0.833328ZM4.40859 1.95066C3.55659 2.06533 3.04259 2.28399 2.66325 2.66333C2.28325 3.04333 2.06525 3.55666 1.95059 4.40933C1.83459 5.27599 1.83325 6.41466 1.83325 8C1.83325 9.58533 1.83459 10.724 1.95059 11.5907C2.06525 12.4433 2.28392 12.9573 2.66325 13.3373C3.04325 13.7167 3.55659 13.9347 4.40925 14.0493C5.27592 14.1653 6.41459 14.1667 7.99992 14.1667C9.58525 14.1667 10.7239 14.1653 11.5906 14.0493C12.4433 13.9347 12.9573 13.716 13.3373 13.3367C13.7166 12.9567 13.9346 12.4433 14.0493 11.5907C14.1653 10.724 14.1666 9.58533 14.1666 8C14.1666 6.41466 14.1653 5.27599 14.0493 4.40933C13.9346 3.55666 13.7159 3.04266 13.3366 2.66266C12.9566 2.28333 12.4433 2.06533 11.5906 1.95066C10.7239 1.83466 9.58525 1.83333 7.99992 1.83333C6.41459 1.83333 5.27525 1.83466 4.40859 1.95066ZM6.55792 6.11466C6.55792 5.98205 6.6106 5.85488 6.70437 5.76111C6.79813 5.66734 6.92531 5.61466 7.05792 5.61466H9.88592C10.0185 5.61466 10.1457 5.66734 10.2395 5.76111C10.3332 5.85488 10.3859 5.98205 10.3859 6.11466V8.94266C10.3859 9.07527 10.3332 9.20245 10.2395 9.29622C10.1457 9.38998 10.0185 9.44266 9.88592 9.44266C9.75331 9.44266 9.62613 9.38998 9.53237 9.29622C9.4386 9.20245 9.38592 9.07527 9.38592 8.94266V7.32133L6.46792 10.24C6.42214 10.2891 6.36694 10.3285 6.30561 10.3558C6.24428 10.3832 6.17807 10.3979 6.11093 10.3991C6.0438 10.4002 5.97711 10.3879 5.91485 10.3627C5.85259 10.3376 5.79604 10.3002 5.74856 10.2527C5.70108 10.2052 5.66365 10.1487 5.6385 10.0864C5.61336 10.0241 5.60101 9.95745 5.60219 9.89031C5.60338 9.82318 5.61807 9.75697 5.6454 9.69564C5.67273 9.6343 5.71213 9.5791 5.76125 9.53333L8.67859 6.61533H7.05725C6.92464 6.61533 6.79747 6.56265 6.7037 6.46888C6.60993 6.37511 6.55725 6.24794 6.55725 6.11533" fill="#868E96"/>
</svg>
