<svg width="16" height="16" viewBox="0 0 16 16" fill="none" xmlns="http://www.w3.org/2000/svg">
<path fill-rule="evenodd" clip-rule="evenodd" d="M10.9999 14.5593L10.9746 14.5647H10.9719C10.9617 14.5678 10.9513 14.57 10.9406 14.5713L10.9393 14.572L10.9719 14.5647L10.9999 14.5593Z" fill="#868E96"/>
<path d="M14.6666 10C14.2773 10 13.9493 10 13.6666 10.0053C13.0479 10.016 12.6479 10.0513 12.3033 10.1633C11.803 10.3259 11.3483 10.6045 10.9764 10.9765C10.6044 11.3484 10.3258 11.8031 10.1633 12.3033C10.0513 12.648 10.0166 13.048 10.0053 13.6667C9.99992 13.9493 9.99992 14.2773 9.99992 14.6667C10.3221 14.6662 10.6361 14.634 10.9406 14.5713L10.9719 14.5647H10.9746L10.9999 14.5593C11.8709 14.3676 12.6689 13.93 13.2996 13.2994C13.9303 12.6689 14.3674 11.871 14.5593 11C14.6304 10.6773 14.6661 10.344 14.6666 10Z" fill="#868E96"/>
<path fill-rule="evenodd" clip-rule="evenodd" d="M1.33325 8.00001C1.33325 11.1427 1.33325 12.714 2.30925 13.69C3.28659 14.6667 4.85725 14.6667 7.99992 14.6667H8.99992V14.4933C8.99925 13.422 8.99859 12.65 9.21192 11.994C9.25814 11.8527 9.31125 11.7142 9.37125 11.5787C8.93377 11.7474 8.46883 11.8338 7.99992 11.8333C7.17157 11.8325 6.36561 11.5643 5.70192 11.0687C5.5953 10.9896 5.52445 10.8715 5.50494 10.7402C5.48544 10.6089 5.51888 10.4753 5.59792 10.3687C5.67695 10.2621 5.7951 10.1912 5.92638 10.1717C6.05766 10.1522 6.1913 10.1856 6.29792 10.2647C6.78325 10.6247 7.36925 10.8333 7.99992 10.8333C8.63059 10.8333 9.21659 10.6247 9.70192 10.2653C9.78561 10.2032 9.88664 10.1687 9.99088 10.1668C10.0951 10.1649 10.1973 10.1956 10.2833 10.2547C10.7642 9.77827 11.3501 9.42117 11.9939 9.21201C12.6499 8.99868 13.4219 8.99934 14.4939 9.00001H14.6666V8.00001C14.6666 4.85734 14.6666 3.28601 13.6899 2.30934C12.7146 1.33334 11.1426 1.33334 7.99992 1.33334C4.85725 1.33334 3.28592 1.33334 2.30925 2.30934C1.33325 3.28668 1.33325 4.85734 1.33325 8.00001ZM9.99992 8.00001C10.3679 8.00001 10.6666 7.55201 10.6666 7.00001C10.6666 6.44801 10.3679 6.00001 9.99992 6.00001C9.63192 6.00001 9.33325 6.44801 9.33325 7.00001C9.33325 7.55201 9.63192 8.00001 9.99992 8.00001ZM5.99992 8.00001C6.36792 8.00001 6.66659 7.55201 6.66659 7.00001C6.66659 6.44801 6.36792 6.00001 5.99992 6.00001C5.63192 6.00001 5.33325 6.44801 5.33325 7.00001C5.33325 7.55201 5.63192 8.00001 5.99992 8.00001Z" fill="#868E96"/>
</svg>
