<svg width="16" height="16" viewBox="0 0 16 16" fill="none" xmlns="http://www.w3.org/2000/svg">
<path d="M1.33325 4.33333C1.33325 2.91933 1.33325 2.212 1.77259 1.77267C2.21192 1.33333 2.91925 1.33333 4.33325 1.33333C5.74725 1.33333 6.45459 1.33333 6.89392 1.77267C7.33325 2.212 7.33325 2.91933 7.33325 4.33333C7.33325 5.74733 7.33325 6.45467 6.89392 6.894C6.45459 7.33333 5.74725 7.33333 4.33325 7.33333C2.91925 7.33333 2.21192 7.33333 1.77259 6.894C1.33325 6.45467 1.33325 5.74733 1.33325 4.33333ZM8.66659 11.6667C8.66659 10.2527 8.66659 9.54533 9.10592 9.106C9.54525 8.66667 10.2526 8.66667 11.6666 8.66667C13.0806 8.66667 13.7879 8.66667 14.2273 9.106C14.6666 9.54533 14.6666 10.2527 14.6666 11.6667C14.6666 13.0807 14.6666 13.788 14.2273 14.2273C13.7879 14.6667 13.0806 14.6667 11.6666 14.6667C10.2526 14.6667 9.54525 14.6667 9.10592 14.2273C8.66659 13.788 8.66659 13.0807 8.66659 11.6667ZM1.33325 11.6667C1.33325 10.2527 1.33325 9.54533 1.77259 9.106C2.21192 8.66667 2.91925 8.66667 4.33325 8.66667C5.74725 8.66667 6.45459 8.66667 6.89392 9.106C7.33325 9.54533 7.33325 10.2527 7.33325 11.6667C7.33325 13.0807 7.33325 13.788 6.89392 14.2273C6.45459 14.6667 5.74725 14.6667 4.33325 14.6667C2.91925 14.6667 2.21192 14.6667 1.77259 14.2273C1.33325 13.788 1.33325 13.0807 1.33325 11.6667ZM8.66659 4.33333C8.66659 2.91933 8.66659 2.212 9.10592 1.77267C9.54525 1.33333 10.2526 1.33333 11.6666 1.33333C13.0806 1.33333 13.7879 1.33333 14.2273 1.77267C14.6666 2.212 14.6666 2.91933 14.6666 4.33333C14.6666 5.74733 14.6666 6.45467 14.2273 6.894C13.7879 7.33333 13.0806 7.33333 11.6666 7.33333C10.2526 7.33333 9.54525 7.33333 9.10592 6.894C8.66659 6.45467 8.66659 5.74733 8.66659 4.33333Z" fill="#868E96"/>
</svg>
