<svg width="16" height="16" viewBox="0 0 16 16" fill="none" xmlns="http://www.w3.org/2000/svg">
<g clip-path="url(#clip0_49_27552)">
<path fill-rule="evenodd" clip-rule="evenodd" d="M8.16658 1.88933C7.85992 1.83733 7.44125 1.83333 6.68658 1.83333C5.40858 1.83333 4.49992 1.83467 3.81192 1.92667C3.13725 2.01667 2.74992 2.18667 2.46792 2.468C2.18592 2.75 2.01659 3.13667 1.92659 3.80733C1.83459 4.49267 1.83325 5.39533 1.83325 6.66733V9.334C1.83325 10.6047 1.83459 11.5073 1.92659 12.1927C2.01659 12.8633 2.18592 13.25 2.46792 13.5327C2.74992 13.814 3.13658 13.9833 3.80725 14.0733C4.49258 14.166 5.39525 14.1667 6.66658 14.1667H9.33325C10.6046 14.1667 11.5079 14.1653 12.1933 14.0733C12.8633 13.9833 13.2499 13.814 13.5319 13.532C13.8139 13.25 13.9833 12.8633 14.0733 12.1927C14.1653 11.508 14.1666 10.6047 14.1666 9.33333V9.042C14.1666 8.018 14.1599 7.53267 14.0506 7.16667H11.9639C11.2086 7.16667 10.5919 7.16667 10.1039 7.10133C9.59525 7.03267 9.15392 6.88467 8.80125 6.532C8.44858 6.17933 8.30058 5.73867 8.23192 5.22867C8.16658 4.742 8.16658 4.12467 8.16658 3.36867V1.88933ZM9.16658 2.40667V3.33333C9.16658 4.13333 9.16792 4.68267 9.22325 5.09533C9.27658 5.494 9.37258 5.68933 9.50858 5.82467C9.64392 5.96067 9.83925 6.05667 10.2379 6.11C10.6506 6.16533 11.1999 6.16667 11.9999 6.16667H13.3466C13.0908 5.92306 12.8307 5.68392 12.5666 5.44933L9.92725 3.074C9.67826 2.8464 9.42465 2.62391 9.16658 2.40667ZM6.78325 0.833333C7.70658 0.833333 8.30325 0.833333 8.85192 1.04333C9.40059 1.254 9.84192 1.65133 10.5253 2.26667L10.5966 2.33067L13.2353 4.706L13.3186 4.78067C14.1079 5.49067 14.6186 5.95 14.8926 6.566C15.1673 7.182 15.1673 7.86867 15.1666 8.93V9.37067C15.1666 10.596 15.1666 11.5667 15.0646 12.326C14.9593 13.1073 14.7379 13.74 14.2393 14.2393C13.7399 14.738 13.1073 14.9593 12.3259 15.0647C11.5659 15.1667 10.5959 15.1667 9.37058 15.1667H6.62925C5.40392 15.1667 4.43325 15.1667 3.67392 15.0647C2.89259 14.9593 2.25992 14.738 1.76059 14.2393C1.26192 13.74 1.04059 13.1073 0.935252 12.326C0.833252 11.566 0.833252 10.596 0.833252 9.37067V6.63C0.833252 5.40467 0.833252 4.434 0.935252 3.67467C1.04059 2.89333 1.26192 2.26067 1.76059 1.76133C2.26059 1.262 2.89459 1.04133 3.67925 0.936C4.44192 0.834 5.41725 0.834 6.64925 0.834H6.68658L6.78325 0.833333Z" fill="#868E96"/>
<path fill-rule="evenodd" clip-rule="evenodd" d="M6.8418 8.86533C6.96601 8.91176 7.06669 9.00561 7.1217 9.12626C7.1767 9.2469 7.18154 9.38446 7.13514 9.50867L6.13514 12.1753C6.11211 12.2368 6.0772 12.2932 6.03239 12.3412C5.98758 12.3892 5.93376 12.4279 5.87399 12.4551C5.81422 12.4823 5.74967 12.4975 5.68404 12.4998C5.61841 12.502 5.55297 12.4914 5.49147 12.4683C5.42997 12.4453 5.3736 12.4104 5.32559 12.3656C5.27758 12.3208 5.23887 12.267 5.21166 12.2072C5.15672 12.0865 5.15197 11.9489 5.19847 11.8247L6.19847 9.158C6.24489 9.0338 6.33875 8.93312 6.45939 8.87811C6.58004 8.8231 6.71759 8.81826 6.8418 8.86467M5.0198 8.97933C5.11344 9.07308 5.16603 9.20017 5.16603 9.33267C5.16603 9.46517 5.11344 9.59225 5.0198 9.686L4.70647 9.99933L5.0198 10.3127C5.10812 10.4074 5.15621 10.5328 5.15392 10.6623C5.15164 10.7919 5.09916 10.9155 5.00755 11.0071C4.91594 11.0987 4.79235 11.1512 4.66282 11.1535C4.53329 11.1557 4.40792 11.1077 4.31314 11.0193L3.64647 10.3527C3.55284 10.2589 3.50024 10.1318 3.50024 9.99933C3.50024 9.86683 3.55284 9.73975 3.64647 9.646L4.31314 8.97933C4.40689 8.8857 4.53397 8.83311 4.66647 8.83311C4.79897 8.83311 4.92605 8.8857 5.0198 8.97933ZM7.31314 10.3127C7.40689 10.219 7.53397 10.1664 7.66647 10.1664C7.79897 10.1664 7.92605 10.219 8.0198 10.3127L8.68647 10.9793C8.7801 11.0731 8.8327 11.2002 8.8327 11.3327C8.8327 11.4652 8.7801 11.5922 8.68647 11.686L8.0198 12.3527C7.97403 12.4018 7.91883 12.4412 7.8575 12.4685C7.79616 12.4958 7.72995 12.5105 7.66282 12.5117C7.59568 12.5129 7.529 12.5006 7.46674 12.4754C7.40448 12.4503 7.34792 12.4128 7.30045 12.3654C7.25297 12.3179 7.21554 12.2613 7.19039 12.1991C7.16524 12.1368 7.15289 12.0701 7.15408 12.003C7.15526 11.9358 7.16996 11.8696 7.19728 11.8083C7.22461 11.747 7.26401 11.6918 7.31314 11.646L7.62647 11.3327L7.31314 11.0193C7.2195 10.9256 7.16691 10.7985 7.16691 10.666C7.16691 10.5335 7.2195 10.4064 7.31314 10.3127Z" fill="#868E96"/>
</g>
<defs>
<clipPath id="clip0_49_27552">
<rect width="16" height="16" fill="white"/>
</clipPath>
</defs>
</svg>
