<svg width="16" height="16" viewBox="0 0 16 16" fill="none" xmlns="http://www.w3.org/2000/svg">
<path d="M12.9014 5.078L10.2614 2.70267C9.51008 2.026 9.13475 1.68733 8.67275 1.51067L8.66675 3.33333C8.66675 4.90467 8.66675 5.69067 9.15475 6.17867C9.64275 6.66667 10.4287 6.66667 12.0001 6.66667H14.3867C14.1454 6.19733 13.7121 5.808 12.9014 5.078Z" fill="#868E96"/>
<path fill-rule="evenodd" clip-rule="evenodd" d="M6.66659 14.6667H9.33325C11.8473 14.6667 13.1046 14.6667 13.8853 13.8853C14.6666 13.1047 14.6666 11.8473 14.6666 9.33333V9.042C14.6666 8.46 14.6666 8.02267 14.6379 7.66667H11.9366C11.2053 7.66667 10.5586 7.66667 10.0379 7.59667C9.47325 7.52067 8.90859 7.34667 8.44792 6.886C7.98659 6.42467 7.81259 5.86 7.73659 5.29533C7.66658 4.77467 7.66659 4.12867 7.66659 3.39667L7.67325 1.50733C7.67325 1.452 7.67792 1.398 7.68659 1.34467C7.41392 1.33333 7.09059 1.33333 6.68659 1.33333C4.15925 1.33333 2.89525 1.33333 2.11459 2.11467C1.33325 2.89533 1.33325 4.15267 1.33325 6.66667V9.33333C1.33325 11.8473 1.33325 13.1047 2.11459 13.8853C2.89525 14.6667 4.15259 14.6667 6.66659 14.6667ZM7.31325 10.3133C7.407 10.2197 7.53408 10.1671 7.66659 10.1671C7.79909 10.1671 7.92617 10.2197 8.01992 10.3133L8.68659 10.98C8.78022 11.0737 8.83281 11.2008 8.83281 11.3333C8.83281 11.4658 8.78022 11.5929 8.68659 11.6867L8.01992 12.3533C7.97414 12.4025 7.91894 12.4419 7.85761 12.4692C7.79628 12.4965 7.73007 12.5112 7.66293 12.5124C7.5958 12.5136 7.52911 12.5012 7.46685 12.4761C7.40459 12.4509 7.34804 12.4135 7.30056 12.366C7.25308 12.3185 7.21565 12.262 7.1905 12.1997C7.16536 12.1375 7.15301 12.0708 7.15419 12.0037C7.15538 11.9365 7.17007 11.8703 7.1974 11.809C7.22473 11.7476 7.26413 11.6924 7.31325 11.6467L7.62659 11.3333L7.31325 11.02C7.21962 10.9263 7.16703 10.7992 7.16703 10.6667C7.16703 10.5342 7.21962 10.4071 7.31325 10.3133ZM7.13459 9.50867C7.15998 9.44672 7.17268 9.38031 7.17192 9.31336C7.17117 9.24642 7.15698 9.18031 7.13019 9.11895C7.1034 9.05759 7.06457 9.00224 7.01598 8.95617C6.9674 8.91011 6.91006 8.87427 6.84737 8.85078C6.78468 8.82729 6.7179 8.81664 6.65101 8.81944C6.58412 8.82224 6.51848 8.83845 6.45797 8.86711C6.39746 8.89576 6.34332 8.93627 6.29877 8.98624C6.25421 9.03621 6.22014 9.09462 6.19859 9.158L5.19859 11.8247C5.17319 11.8866 5.16049 11.953 5.16125 12.02C5.162 12.0869 5.17619 12.153 5.20298 12.2144C5.22977 12.2757 5.2686 12.3311 5.31719 12.3772C5.36577 12.4232 5.42311 12.4591 5.4858 12.4826C5.54849 12.506 5.61527 12.5167 5.68216 12.5139C5.74905 12.5111 5.81469 12.4949 5.8752 12.4662C5.93571 12.4376 5.98985 12.3971 6.0344 12.3471C6.07896 12.2971 6.11303 12.2387 6.13459 12.1753L7.13459 9.50867ZM5.01992 8.98C5.11355 9.07375 5.16615 9.20083 5.16615 9.33333C5.16615 9.46583 5.11355 9.59292 5.01992 9.68667L4.70659 10L5.01992 10.3133C5.06904 10.3591 5.10844 10.4143 5.13577 10.4756C5.1631 10.537 5.1778 10.6032 5.17898 10.6703C5.18016 10.7375 5.16781 10.8041 5.14267 10.8664C5.11752 10.9287 5.08009 10.9852 5.03261 11.0327C4.98513 11.0802 4.92858 11.1176 4.86632 11.1427C4.80406 11.1679 4.73737 11.1802 4.67024 11.1791C4.6031 11.1779 4.53689 11.1632 4.47556 11.1359C4.41423 11.1085 4.35903 11.0691 4.31325 11.02L3.64659 10.3533C3.55295 10.2596 3.50036 10.1325 3.50036 10C3.50036 9.8675 3.55295 9.74042 3.64659 9.64667L4.31325 8.98C4.407 8.88637 4.53409 8.83377 4.66659 8.83377C4.79909 8.83377 4.92617 8.88637 5.01992 8.98Z" fill="#868E96"/>
</svg>
