<svg width="16" height="16" viewBox="0 0 16 16" fill="none" xmlns="http://www.w3.org/2000/svg">
<path fill-rule="evenodd" clip-rule="evenodd" d="M3.41134 5.168C3.54358 5.15921 3.6739 5.2033 3.77365 5.29055C3.87341 5.37781 3.93444 5.5011 3.94334 5.63333L4.25001 10.2333C4.31001 11.1313 4.35267 11.7567 4.44601 12.2267C4.53734 12.6833 4.66401 12.9247 4.84601 13.0953C5.02867 13.266 5.27801 13.3767 5.73934 13.4367C6.21534 13.4987 6.84201 13.5 7.74201 13.5H8.25801C9.15801 13.5 9.78467 13.4987 10.2607 13.4367C10.722 13.3767 10.9713 13.266 11.154 13.0953C11.336 12.9247 11.4627 12.6833 11.554 12.2273C11.6473 11.7567 11.69 11.1313 11.75 10.2327L12.0567 5.63333C12.0611 5.5678 12.0783 5.50377 12.1074 5.44491C12.1365 5.38604 12.177 5.33349 12.2264 5.29025C12.2758 5.247 12.3333 5.21392 12.3955 5.19289C12.4577 5.17186 12.5235 5.16329 12.589 5.16766C12.6545 5.17204 12.7186 5.18928 12.7774 5.2184C12.8363 5.24752 12.8888 5.28795 12.9321 5.33739C12.9753 5.38682 13.0084 5.44428 13.0294 5.5065C13.0505 5.56872 13.0591 5.63447 13.0547 5.7L12.7453 10.3347C12.6887 11.1893 12.6427 11.8807 12.5347 12.4227C12.422 12.986 12.2313 13.4567 11.8367 13.8253C11.4427 14.1947 10.96 14.354 10.39 14.428C9.84201 14.5 9.15001 14.5 8.29334 14.5H7.70667C6.85001 14.5 6.15801 14.5 5.61001 14.428C5.04001 14.354 4.55734 14.1947 4.16334 13.8253C3.76867 13.4567 3.57801 12.9853 3.46534 12.4227C3.35734 11.88 3.31201 11.1893 3.25467 10.3347L2.94534 5.7C2.941 5.63446 2.9496 5.56872 2.97067 5.50651C2.99174 5.44431 3.02486 5.38686 3.06813 5.33746C3.11141 5.28806 3.16399 5.24766 3.22288 5.21859C3.28177 5.18951 3.34581 5.17232 3.41134 5.168ZM6.90334 1.5H6.87267C6.72867 1.5 6.60267 1.5 6.48401 1.51866C6.25287 1.55569 6.0336 1.6463 5.84375 1.78325C5.6539 1.9202 5.49874 2.09968 5.39067 2.30733C5.33467 2.414 5.29534 2.53333 5.25001 2.67L5.24001 2.69933L5.17534 2.89266C5.12429 3.0741 5.01323 3.23288 4.8603 3.34306C4.70738 3.45325 4.52161 3.50833 4.33334 3.49933H2.33334C2.20064 3.49933 2.07338 3.55204 1.97955 3.64587C1.88572 3.7397 1.83301 3.86697 1.83301 3.99966C1.83301 4.13236 1.88572 4.25962 1.97955 4.35345C2.07338 4.44728 2.20064 4.5 2.33334 4.5H13.6673C13.7999 4.5 13.9271 4.44732 14.0209 4.35355C14.1147 4.25978 14.1673 4.1326 14.1673 4C14.1673 3.86739 14.1147 3.74021 14.0209 3.64644C13.9271 3.55267 13.7999 3.5 13.6673 3.5H11.6067C11.4286 3.49572 11.2566 3.43451 11.1159 3.32533C10.9751 3.21615 10.8731 3.06475 10.8247 2.89333L10.76 2.69933L10.7507 2.67C10.7047 2.53333 10.6653 2.414 10.61 2.30733C10.5019 2.09959 10.3466 1.92006 10.1566 1.78311C9.96667 1.64616 9.74727 1.55559 9.51601 1.51866C9.38714 1.50231 9.25718 1.49606 9.12734 1.5H9.09667H6.90334ZM6.09667 3.29C6.07001 3.36266 6.04001 3.43266 6.00534 3.5H9.99467C9.96016 3.43216 9.92988 3.36225 9.90401 3.29066L9.87734 3.21466L9.81134 3.01466C9.78696 2.93111 9.75734 2.84917 9.72267 2.76933C9.68668 2.7 9.63495 2.64007 9.57162 2.59434C9.5083 2.54861 9.43514 2.51835 9.35801 2.506C9.27111 2.49851 9.18383 2.4965 9.09667 2.5H6.90334C6.71134 2.5 6.67134 2.50133 6.64201 2.50666C6.56494 2.51895 6.49182 2.5491 6.4285 2.59471C6.36518 2.64033 6.31341 2.70013 6.27734 2.76933C6.26401 2.796 6.24934 2.83266 6.18867 3.01533L6.12201 3.21533L6.09667 3.29Z" fill="#868E96"/>
</svg>
