<svg width="16" height="16" viewBox="0 0 16 16" fill="none" xmlns="http://www.w3.org/2000/svg">
<path fill-rule="evenodd" clip-rule="evenodd" d="M4.83325 3.99999C4.83325 3.16014 5.16688 2.35469 5.76075 1.76082C6.35461 1.16696 7.16007 0.833328 7.99992 0.833328C8.83977 0.833328 9.64523 1.16696 10.2391 1.76082C10.833 2.35469 11.1666 3.16014 11.1666 3.99999C11.1666 4.83985 10.833 5.6453 10.2391 6.23917C9.64523 6.83303 8.83977 7.16666 7.99992 7.16666C7.16007 7.16666 6.35461 6.83303 5.76075 6.23917C5.16688 5.6453 4.83325 4.83985 4.83325 3.99999ZM7.99992 1.83333C7.42528 1.83333 6.87418 2.0616 6.46785 2.46793C6.06153 2.87426 5.83325 3.42536 5.83325 3.99999C5.83325 4.57463 6.06153 5.12573 6.46785 5.53206C6.87418 5.93839 7.42528 6.16666 7.99992 6.16666C8.57455 6.16666 9.12565 5.93839 9.53198 5.53206C9.93831 5.12573 10.1666 4.57463 10.1666 3.99999C10.1666 3.42536 9.93831 2.87426 9.53198 2.46793C9.12565 2.0616 8.57455 1.83333 7.99992 1.83333Z" fill="#868E96"/>
<path d="M11.8334 11.1113C11.8334 10.9787 11.7807 10.8515 11.687 10.7578C11.5932 10.664 11.466 10.6113 11.3334 10.6113C11.2008 10.6113 11.0736 10.664 10.9799 10.7578C10.8861 10.8515 10.8334 10.9787 10.8334 11.1113V11.5H10.4441C10.3115 11.5 10.1843 11.5527 10.0905 11.6464C9.99677 11.7402 9.94409 11.8674 9.94409 12C9.94409 12.1326 9.99677 12.2598 10.0905 12.3535C10.1843 12.4473 10.3115 12.5 10.4441 12.5H10.8334V12.8887C10.8334 13.0213 10.8861 13.1484 10.9799 13.2422C11.0736 13.336 11.2008 13.3887 11.3334 13.3887C11.466 13.3887 11.5932 13.336 11.687 13.2422C11.7807 13.1484 11.8334 13.0213 11.8334 12.8887V12.5H12.2221C12.3547 12.5 12.4819 12.4473 12.5756 12.3535C12.6694 12.2598 12.7221 12.1326 12.7221 12C12.7221 11.8674 12.6694 11.7402 12.5756 11.6464C12.4819 11.5527 12.3547 11.5 12.2221 11.5H11.8334V11.1113Z" fill="#868E96"/>
<path fill-rule="evenodd" clip-rule="evenodd" d="M11.2079 8.836C11.7232 8.81563 12.2356 8.92141 12.7007 9.14413C13.1658 9.36686 13.5695 9.6998 13.8767 10.114C14.1838 10.5282 14.3852 11.0112 14.4632 11.5209C14.5413 12.0307 14.4936 12.5517 14.3245 13.0389C14.1553 13.526 13.8698 13.9645 13.4926 14.3162C13.1155 14.6679 12.6582 14.9221 12.1604 15.0569C11.6626 15.1916 11.1395 15.2027 10.6365 15.0893C10.1334 14.9759 9.66569 14.7413 9.27392 14.406C8.85218 14.469 8.42633 14.5004 7.99992 14.5C6.63992 14.5 5.38525 14.1867 4.45192 13.6533C3.53325 13.128 2.83325 12.3267 2.83325 11.3333C2.83325 10.34 3.53325 9.53867 4.45192 9.01334C5.38525 8.48001 6.64059 8.16667 7.99992 8.16667C9.20325 8.16667 10.3219 8.412 11.2079 8.836ZM11.3333 9.83334C10.7586 9.83334 10.2075 10.0616 9.80119 10.4679C9.39486 10.8743 9.16659 11.4254 9.16659 12C9.16659 12.5746 9.39486 13.1257 9.80119 13.5321C10.2075 13.9384 10.7586 14.1667 11.3333 14.1667C11.9079 14.1667 12.459 13.9384 12.8653 13.5321C13.2716 13.1257 13.4999 12.5746 13.4999 12C13.4999 11.4254 13.2716 10.8743 12.8653 10.4679C12.459 10.0616 11.9079 9.83334 11.3333 9.83334ZM8.53325 13.4813C8.29157 13.025 8.16565 12.5164 8.16659 12C8.16659 10.886 8.74192 9.90667 9.61192 9.342C9.08276 9.22391 8.54209 9.16511 7.99992 9.16667C6.78192 9.16667 5.70392 9.45001 4.94792 9.88201C4.17792 10.322 3.83325 10.8533 3.83325 11.3333C3.83325 11.8133 4.17792 12.3447 4.94792 12.7847C5.70392 13.2167 6.78192 13.5 7.99992 13.5C8.18059 13.5 8.35925 13.4933 8.53325 13.4813Z" fill="#868E96"/>
</svg>
