<svg width="16" height="16" viewBox="0 0 16 16" fill="none" xmlns="http://www.w3.org/2000/svg">
<path d="M12.6673 8.00004C12.6673 8.17685 12.5971 8.34642 12.4721 8.47145C12.347 8.59647 12.1775 8.66671 12.0007 8.66671C11.8238 8.66671 11.6543 8.59647 11.5292 8.47145C11.4042 8.34642 11.334 8.17685 11.334 8.00004C11.334 7.82323 11.4042 7.65366 11.5292 7.52864C11.6543 7.40361 11.8238 7.33337 12.0007 7.33337C12.1775 7.33337 12.347 7.40361 12.4721 7.52864C12.5971 7.65366 12.6673 7.82323 12.6673 8.00004Z" fill="#868E96"/>
<path fill-rule="evenodd" clip-rule="evenodd" d="M6.62998 2.16663H8.70465C9.92998 2.16663 10.9007 2.16663 11.66 2.26863C12.4413 2.37396 13.074 2.59529 13.5733 3.09396C14.1893 3.71063 14.386 4.53596 14.4573 5.60729C14.842 5.77596 15.1327 6.13396 15.164 6.58729C15.1673 6.62796 15.1673 6.67129 15.1673 6.71129V9.28863C15.1673 9.32863 15.1673 9.37196 15.1647 9.41196C15.1327 9.86529 14.842 10.224 14.4573 10.3933C14.386 11.464 14.1893 12.2893 13.5733 12.906C13.074 13.4046 12.4413 13.626 11.66 13.7313C10.9 13.8333 9.92998 13.8333 8.70465 13.8333H6.62998C5.40465 13.8333 4.43398 13.8333 3.67465 13.7313C2.89332 13.626 2.26065 13.4046 1.76132 12.906C1.26265 12.4066 1.04132 11.774 0.935984 10.9926C0.833984 10.2326 0.833984 9.26263 0.833984 8.03729V7.96263C0.833984 6.73729 0.833984 5.76663 0.935984 5.00729C1.04132 4.22596 1.26265 3.59329 1.76132 3.09396C2.26065 2.59529 2.89332 2.37396 3.67465 2.26863C4.43465 2.16663 5.40465 2.16663 6.62998 2.16663ZM13.446 10.5H12.154C10.724 10.5 9.49998 9.41463 9.49998 7.99996C9.49998 6.58529 10.724 5.49996 12.1533 5.49996H13.4453C13.3693 4.60596 13.198 4.13329 12.8653 3.80129C12.5833 3.51929 12.1967 3.34996 11.526 3.25996C10.8413 3.16796 9.93798 3.16663 8.66665 3.16663H6.66665C5.39532 3.16663 4.49265 3.16796 3.80665 3.25996C3.13665 3.34996 2.74998 3.51929 2.46798 3.80129C2.18598 4.08329 2.01732 4.46996 1.92732 5.13996C1.83532 5.82529 1.83398 6.72796 1.83398 7.99929C1.83398 9.27063 1.83532 10.174 1.92732 10.8593C2.01732 11.5293 2.18665 11.916 2.46865 12.198C2.75065 12.48 3.13732 12.6493 3.80798 12.7393C4.49332 12.8313 5.39598 12.8326 6.66732 12.8326H8.66732C9.93865 12.8326 10.842 12.8313 11.5273 12.7393C12.1973 12.6493 12.584 12.48 12.866 12.198C13.1987 11.866 13.37 11.3946 13.446 10.5ZM3.50065 5.33329C3.50065 5.20068 3.55333 5.07351 3.6471 4.97974C3.74087 4.88597 3.86804 4.83329 4.00065 4.83329H6.66732C6.79993 4.83329 6.9271 4.88597 7.02087 4.97974C7.11464 5.07351 7.16732 5.20068 7.16732 5.33329C7.16732 5.4659 7.11464 5.59308 7.02087 5.68685C6.9271 5.78061 6.79993 5.83329 6.66732 5.83329H4.00065C3.86804 5.83329 3.74087 5.78061 3.6471 5.68685C3.55333 5.59308 3.50065 5.4659 3.50065 5.33329ZM13.95 6.49996H12.154C11.2047 6.49996 10.5 7.20596 10.5 7.99996C10.5 8.79396 11.2047 9.49996 12.1533 9.49996H13.9653C14.1027 9.49129 14.162 9.39863 14.1667 9.34263V6.65729C14.162 6.60129 14.1027 6.50863 13.9653 6.50063L13.95 6.49996Z" fill="#868E96"/>
</svg>
