<svg xmlns="http://www.w3.org/2000/svg" version="1.1" xmlns:xlink="http://www.w3.org/1999/xlink" xmlns:svgjs="http://svgjs.dev/svgjs" width="16" height="16"><svg width="16" height="16" viewBox="0 0 16 16" fill="none" xmlns="http://www.w3.org/2000/svg">
<rect width="16" height="16" rx="8" fill="#497561"></rect>
<path fill-rule="evenodd" clip-rule="evenodd" d="M10.6599 3C10.9216 2.99988 11.1642 3.13704 11.2951 3.35908L12.2026 4.89818C12.3319 5.1175 12.3326 5.3864 12.2044 5.60431L11.2923 7.15426C11.1641 7.37217 10.9263 7.50625 10.6679 7.50637L10.4739 7.50645C10.5482 7.83495 10.5483 8.17121 10.4802 8.49287L10.611 8.49281C10.8727 8.49269 11.1153 8.62986 11.2462 8.85189L12.1537 10.391C12.283 10.6103 12.2837 10.8792 12.1554 11.0971L11.2434 12.6471C11.1152 12.865 10.8774 12.9991 10.6189 12.9992L8.80535 13C8.54372 13.0001 8.30109 12.863 8.17018 12.6409L7.26271 11.1018C7.13339 10.8825 7.13272 10.6136 7.26094 10.3957L7.35132 10.2421C7.03701 10.1367 6.74406 9.96749 6.49468 9.74023L6.37821 9.93816C6.24999 10.1561 6.01219 10.2901 5.75375 10.2903L3.94015 10.2911C3.67852 10.2912 3.4359 10.154 3.30498 9.93201L2.39752 8.39291C2.2682 8.17358 2.26752 7.90468 2.39574 7.68677L3.30777 6.13682C3.43599 5.91891 3.67379 5.78483 3.93223 5.78471L5.74583 5.78389C6.00746 5.78377 6.25008 5.92094 6.38099 6.14297L6.47773 6.30703C6.61137 6.18313 6.76175 6.07243 6.92797 5.97826C7.08277 5.89056 7.2434 5.82169 7.4071 5.77092L7.31164 5.60901C7.18232 5.38968 7.18164 5.12078 7.30986 4.90288L8.22189 3.35292C8.35011 3.13502 8.58791 3.00094 8.84635 3.00082L10.6599 3ZM8.95025 6.40426C8.90729 6.36669 8.87006 6.32225 8.84044 6.27202L8.49738 5.69017C8.49737 5.69017 8.49738 5.69017 8.49738 5.69017L8.39698 5.51993C8.3 5.35543 8.29949 5.15376 8.39565 4.99033L8.84286 4.23032C8.93902 4.06689 9.11737 3.96633 9.31121 3.96624L10.1974 3.96584C10.3936 3.96575 10.5756 4.06862 10.6738 4.23515L11.1172 4.98723C11.2142 5.15172 11.2147 5.3534 11.1186 5.51683L10.6714 6.27683C10.5752 6.44026 10.3968 6.54082 10.203 6.54091L9.31679 6.54131C9.21868 6.54136 9.12413 6.51566 9.04184 6.46914C9.0092 6.45069 8.97849 6.42896 8.95025 6.40426ZM7.88803 6.58659C7.71731 6.61426 7.54869 6.67201 7.39002 6.76189C7.21919 6.85867 7.07553 6.98384 6.96167 7.12781L7.28846 7.68207C7.41778 7.9014 7.41846 8.1703 7.29024 8.3882L6.97635 8.92165C7.19544 9.19023 7.49915 9.36605 7.82722 9.43332L8.17297 8.84574C8.30118 8.62783 8.53899 8.49375 8.79743 8.49363L9.52407 8.49331C9.63554 8.18009 9.6373 7.83104 9.51278 7.50689L8.85427 7.50719C8.59264 7.50731 8.35002 7.37014 8.21911 7.14811L7.88803 6.58659ZM5.75967 7.01904L6.2031 7.77112C6.20461 7.77368 6.20611 7.77627 6.20757 7.77884C6.24722 7.84873 6.2697 7.92503 6.27499 8.00207C6.28203 8.10477 6.25852 8.2088 6.20444 8.30072L5.75723 9.06073C5.66107 9.22415 5.48272 9.32472 5.28888 9.3248L4.40267 9.32521C4.20645 9.3253 4.02448 9.22242 3.9263 9.0559L3.48286 8.30382C3.38588 8.13932 3.38537 7.93765 3.48153 7.77422L3.92874 7.01421C4.0249 6.85079 4.20325 6.75022 4.39709 6.75014L5.28329 6.74973C5.47952 6.74964 5.66149 6.85252 5.75967 7.01904ZM8.34674 10.4832L8.7939 9.72323L8.79394 9.72315C8.79844 9.71552 8.80311 9.70802 8.80795 9.70067C8.90681 9.5506 9.0775 9.45923 9.26224 9.45915L10.0265 9.45881L10.0265 9.45872L10.1485 9.45867C10.3447 9.45858 10.5267 9.56145 10.6249 9.72798L11.0683 10.4801C11.1653 10.6446 11.1658 10.8462 11.0696 11.0097L10.6224 11.7697C10.5263 11.9331 10.3479 12.0337 10.1541 12.0337L9.26788 12.0341C9.07166 12.0342 8.88969 11.9314 8.7915 11.7648L8.34807 11.0128C8.25108 10.8483 8.25058 10.6466 8.34674 10.4832Z" fill="white"></path>
</svg><style>@media (prefers-color-scheme: light) { :root { filter: none; } }
@media (prefers-color-scheme: dark) { :root { filter: none; } }
</style></svg>