<svg xmlns="http://www.w3.org/2000/svg" version="1.1" xmlns:xlink="http://www.w3.org/1999/xlink" xmlns:svgjs="http://svgjs.dev/svgjs" width="301" height="300"><svg width="301" height="300" viewBox="0 0 301 300" fill="none" xmlns="http://www.w3.org/2000/svg">
<rect x="0.263184" width="300" height="300" rx="45" fill="#497561"></rect>
<path d="M113.949 181.201C132.073 212.593 173.173 223.924 205.749 206.51C238.325 189.095 250.04 149.53 231.916 118.137C213.792 86.7454 172.691 75.4144 140.116 92.8289C107.54 110.244 95.8246 149.809 113.949 181.201Z" fill="white"></path>
<path d="M136.635 169.073C147.788 188.391 173.081 195.364 193.127 184.648C213.174 173.931 220.383 149.583 209.23 130.265C198.077 110.947 172.784 103.974 152.738 114.69C132.691 125.407 125.482 149.755 136.635 169.073Z" fill="#497561"></path>
<path d="M106.976 86.8981C114.33 87.0201 121.086 90.9231 124.663 97.1171L149.453 140.055C152.985 146.174 152.879 153.6 149.172 159.557L122.81 201.928C119.103 207.885 112.356 211.475 105.091 211.355L54.1094 210.514C46.7544 210.393 39.9982 206.49 36.422 200.296L11.6321 157.358C8.09938 151.239 8.20608 143.813 11.9124 137.856L38.2751 95.4851C41.9814 89.5281 48.7284 85.9381 55.9944 86.0581L106.976 86.8981Z" fill="white"></path>
<path d="M93.5223 113.352C99.0383 113.443 104.105 116.371 106.787 121.017L118.901 141.998C121.55 146.587 121.47 152.157 118.691 156.624L105.764 177.401C102.984 181.868 97.9243 184.561 92.4753 184.471L67.5623 184.06C62.0463 183.969 56.9793 181.042 54.2973 176.396L42.1833 155.415C39.5343 150.826 39.6143 145.256 42.3943 140.788L55.3203 120.012C58.1003 115.544 63.1613 112.852 68.6103 112.942L93.5223 113.352Z" fill="#497561"></path>
<path d="M189.603 287.646C182.249 287.525 175.492 283.621 171.916 277.427L147.126 234.489C143.594 228.371 143.7 220.944 147.407 214.987L173.769 172.616C177.476 166.659 184.223 163.069 191.488 163.189L242.47 164.03C249.825 164.151 256.581 168.055 260.157 174.249L284.947 217.186C288.48 223.305 288.373 230.732 284.667 236.688L258.304 279.06C254.598 285.016 247.851 288.606 240.585 288.486L189.603 287.646Z" fill="white"></path>
<path d="M203.058 261.192C197.542 261.101 192.475 258.173 189.793 253.528L177.679 232.546C175.03 227.957 175.11 222.387 177.889 217.92L190.816 197.143C193.596 192.676 198.656 189.983 204.105 190.073L229.017 190.484C234.534 190.575 239.601 193.503 242.283 198.148L254.396 219.129C257.046 223.719 256.966 229.288 254.186 233.756L241.259 254.532C238.48 259 233.419 261.692 227.97 261.603L203.058 261.192Z" fill="#497561"></path>
<path d="M246.417 12.3545C253.772 12.4758 260.528 16.3793 264.105 22.5735L288.895 65.511C292.427 71.63 292.32 79.056 288.614 85.013L262.252 127.384C258.545 133.341 251.798 136.931 244.533 136.811L193.551 135.97C186.196 135.849 179.44 131.946 175.864 125.751L151.074 82.814C147.541 76.695 147.648 69.269 151.354 63.312L177.717 20.9407C181.423 14.9839 188.17 11.3941 195.435 11.5139L246.417 12.3545Z" fill="white"></path>
<path d="M232.964 38.8084C238.48 38.8994 243.547 41.8271 246.229 46.4731L258.343 67.4541C260.992 72.0431 260.912 77.6131 258.132 82.0801L245.206 102.857C242.426 107.324 237.365 110.017 231.917 109.927L207.004 109.516C201.488 109.425 196.421 106.498 193.739 101.852L181.625 80.8711C178.976 76.2821 179.056 70.7121 181.836 66.2441L194.762 45.4681C197.542 41.0001 202.603 38.3079 208.051 38.3977L232.964 38.8084Z" fill="#497561"></path>
</svg><style>@media (prefers-color-scheme: light) { :root { filter: none; } }
@media (prefers-color-scheme: dark) { :root { filter: none; } }
</style></svg>