<svg viewBox="0 0 24 24" fill="none" xmlns="http://www.w3.org/2000/svg"><g id="SVGRepo_bgCarrier" stroke-width="0"></g><g id="SVGRepo_tracerCarrier" stroke-linecap="round" stroke-linejoin="round"></g><g id="SVGRepo_iconCarrier"> <path d="M16 9V6C16 4.34315 14.6569 3 13 3H11C9.34315 3 8 4.34315 8 6V9M16 9H8M16 9C17.6569 9 19 10.3431 19 12V18C19 19.6569 17.6569 21 16 21H8C6.34315 21 5 19.6569 5 18V12C5 10.3431 6.34315 9 8 9M12 14V17M13 14C13 14.5523 12.5523 15 12 15C11.4477 15 11 14.5523 11 14C11 13.4477 11.4477 13 12 13C12.5523 13 13 13.4477 13 14Z" stroke="#ffffff" stroke-width="2" stroke-linecap="round" stroke-linejoin="round"></path> </g></svg>