<svg xmlns="http://www.w3.org/2000/svg" width="16" height="16" viewBox="0 0 16 16" fill="none">
    <path fill-rule="evenodd" clip-rule="evenodd" d="M4.50005 8C4.50062 7.48921 4.61298 6.98474 4.82925 6.522C5.04551 6.05926 5.36044 5.64946 5.75193 5.32137C6.14341 4.99328 6.60196 4.75486 7.09539 4.62283C7.58882 4.49081 8.10517 4.46838 8.60818 4.55713C9.1112 4.64588 9.58869 4.84366 10.0071 5.13657C10.4256 5.42948 10.7749 5.81044 11.0304 6.25269C11.286 6.69494 11.4417 7.18777 11.4865 7.69659C11.5314 8.2054 11.4643 8.71786 11.2901 9.198C11.2586 9.27607 11.209 9.34554 11.1454 9.40067L11.0921 9.45067C11.0076 9.5285 10.9022 9.58004 10.7889 9.59899C10.6756 9.61795 10.5593 9.60349 10.4541 9.55738C10.3488 9.51128 10.2593 9.43553 10.1965 9.33939C10.1336 9.24325 10.1001 9.13087 10.1001 9.016V8C10.1 7.52755 9.94064 7.06892 9.64772 6.69823C9.3548 6.32755 8.94544 6.06646 8.48581 5.95718C8.02617 5.8479 7.54311 5.8968 7.1147 6.09598C6.68629 6.29517 6.33756 6.63299 6.12488 7.05486C5.91219 7.47674 5.84798 7.958 5.94261 8.42088C6.03725 8.88375 6.28521 9.30119 6.64641 9.60573C7.00761 9.91027 7.46095 10.0841 7.93316 10.0992C8.40537 10.1142 8.86886 9.96959 9.24872 9.68867C9.35448 9.9157 9.51235 10.1145 9.70949 10.269C9.90662 10.4235 10.1375 10.5293 10.3832 10.5777C10.6289 10.6261 10.8826 10.6158 11.1236 10.5476C11.3646 10.4794 11.5861 10.3553 11.7701 10.1853L11.8234 10.136C11.9901 9.98267 12.1407 9.784 12.2294 9.54067C12.557 8.64147 12.5895 7.66123 12.322 6.74233C12.0546 5.82344 11.5011 5.01374 10.742 4.43087C9.98296 3.848 9.05784 3.52231 8.10104 3.50111C7.14424 3.4799 6.2056 3.76429 5.42146 4.31297C4.63733 4.86164 4.04854 5.64602 3.74062 6.55216C3.4327 7.45831 3.4217 8.43903 3.7092 9.35185C3.9967 10.2647 4.56774 11.0621 5.33937 11.6282C6.111 12.1943 7.04302 12.4997 8.00005 12.5C8.13275 12.5 8.26001 12.4473 8.35384 12.3535C8.44767 12.2596 8.50039 12.1324 8.50039 11.9997C8.50039 11.867 8.44767 11.7397 8.35384 11.6459C8.26001 11.552 8.13275 11.4993 8.00005 11.4993C7.07191 11.4993 6.18177 11.1307 5.52541 10.4744C4.86906 9.81821 4.50023 8.92814 4.50005 8ZM8.00005 6.9C8.14451 6.9 8.28755 6.92845 8.421 6.98373C8.55446 7.03901 8.67573 7.12004 8.77787 7.22218C8.88001 7.32433 8.96104 7.44559 9.01632 7.57905C9.0716 7.71251 9.10005 7.85555 9.10005 8C9.10005 8.14445 9.0716 8.28749 9.01632 8.42095C8.96104 8.55441 8.88001 8.67567 8.77787 8.77782C8.67573 8.87996 8.55446 8.96099 8.421 9.01627C8.28755 9.07155 8.14451 9.1 8.00005 9.1C7.70831 9.1 7.42853 8.98411 7.22224 8.77782C7.01595 8.57153 6.90005 8.29174 6.90005 8C6.90005 7.70826 7.01595 7.42847 7.22224 7.22218C7.42853 7.01589 7.70831 6.9 8.00005 6.9Z" fill="#868E96"/>
    <path fill-rule="evenodd" clip-rule="evenodd" d="M8.00004 0.833252C4.04204 0.833252 0.833374 4.04192 0.833374 7.99992C0.833374 11.9579 4.04204 15.1666 8.00004 15.1666C11.958 15.1666 15.1667 11.9579 15.1667 7.99992C15.1667 4.04192 11.958 0.833252 8.00004 0.833252ZM1.83337 7.99992C1.83337 6.36442 2.48307 4.7959 3.63955 3.63943C4.79602 2.48295 6.36454 1.83325 8.00004 1.83325C9.63554 1.83325 11.2041 2.48295 12.3605 3.63943C13.517 4.7959 14.1667 6.36442 14.1667 7.99992C14.1667 9.63542 13.517 11.2039 12.3605 12.3604C11.2041 13.5169 9.63554 14.1666 8.00004 14.1666C6.36454 14.1666 4.79602 13.5169 3.63955 12.3604C2.48307 11.2039 1.83337 9.63542 1.83337 7.99992Z" fill="#868E96"/>
</svg>