<svg width="16" height="16" viewBox="0 0 16 16" fill="none" xmlns="http://www.w3.org/2000/svg">
<g id="add-square-outline" clip-path="url(#clip0_49_27549)">
<path id="Vector" d="M8.5 6C8.5 5.86739 8.44732 5.74022 8.35355 5.64645C8.25978 5.55268 8.13261 5.5 8 5.5C7.86739 5.5 7.74022 5.55268 7.64645 5.64645C7.55268 5.74022 7.5 5.86739 7.5 6V7.5H6C5.86739 7.5 5.74022 7.55268 5.64645 7.64645C5.55268 7.74022 5.5 7.86739 5.5 8C5.5 8.13261 5.55268 8.25978 5.64645 8.35355C5.74022 8.44732 5.86739 8.5 6 8.5H7.5V10C7.5 10.1326 7.55268 10.2598 7.64645 10.3536C7.74022 10.4473 7.86739 10.5 8 10.5C8.13261 10.5 8.25978 10.4473 8.35355 10.3536C8.44732 10.2598 8.5 10.1326 8.5 10V8.5H10C10.1326 8.5 10.2598 8.44732 10.3536 8.35355C10.4473 8.25978 10.5 8.13261 10.5 8C10.5 7.86739 10.4473 7.74022 10.3536 7.64645C10.2598 7.55268 10.1326 7.5 10 7.5H8.5V6Z" fill="#868E96"/>
<path id="Vector_2" fill-rule="evenodd" clip-rule="evenodd" d="M8.03792 0.833328H7.96192C6.42259 0.833328 5.21659 0.833328 4.27525 0.959995C3.31259 1.08933 2.55259 1.35999 1.95592 1.95599C1.35925 2.55266 1.08925 3.31266 0.959919 4.27599C0.833252 5.21666 0.833252 6.42266 0.833252 7.96199V8.03799C0.833252 9.57733 0.833252 10.7833 0.959919 11.7247C1.08925 12.6873 1.35992 13.4473 1.95592 14.044C2.55259 14.6407 3.31259 14.9107 4.27592 15.04C5.21659 15.1667 6.42259 15.1667 7.96192 15.1667H8.03792C9.57725 15.1667 10.7833 15.1667 11.7246 15.04C12.6873 14.9107 13.4473 14.64 14.0439 14.044C14.6406 13.4473 14.9106 12.6873 15.0399 11.724C15.1666 10.7833 15.1666 9.57733 15.1666 8.03799V7.96199C15.1666 6.42266 15.1666 5.21666 15.0399 4.27533C14.9106 3.31266 14.6399 2.55266 14.0439 1.95599C13.4473 1.35933 12.6873 1.08933 11.7239 0.959995C10.7833 0.833328 9.57725 0.833328 8.03792 0.833328ZM2.66325 2.66333C3.04325 2.28333 3.55659 2.06533 4.40925 1.95066C5.27592 1.83466 6.41459 1.83333 7.99992 1.83333C9.58525 1.83333 10.7239 1.83466 11.5906 1.95066C12.4433 2.06533 12.9573 2.28399 13.3373 2.66333C13.7166 3.04333 13.9346 3.55666 14.0493 4.40933C14.1653 5.27599 14.1666 6.41466 14.1666 7.99999C14.1666 9.58533 14.1653 10.724 14.0493 11.5907C13.9346 12.4433 13.7159 12.9573 13.3366 13.3373C12.9566 13.7167 12.4433 13.9347 11.5906 14.0493C10.7239 14.1653 9.58525 14.1667 7.99992 14.1667C6.41459 14.1667 5.27592 14.1653 4.40925 14.0493C3.55659 13.9347 3.04259 13.716 2.66259 13.3367C2.28325 12.9567 2.06525 12.4433 1.95059 11.5907C1.83459 10.724 1.83325 9.58533 1.83325 7.99999C1.83325 6.41466 1.83459 5.27599 1.95059 4.40933C2.06525 3.55666 2.28392 3.04333 2.66325 2.66333Z" fill="#868E96"/>
</g>
<defs>
<clipPath id="clip0_49_27549">
<rect width="16" height="16" fill="white"/>
</clipPath>
</defs>
</svg>
