<svg xmlns="http://www.w3.org/2000/svg" width="80" height="80" viewBox="0 0 80 80" fill="none">
    <path fill-rule="evenodd" clip-rule="evenodd" d="M11.5466 11.5467C6.66663 16.4333 6.66663 24.2867 6.66663 40C6.66663 55.7133 6.66663 63.57 11.5466 68.45C16.4333 73.3333 24.2866 73.3333 40 73.3333C55.7133 73.3333 63.57 73.3333 68.45 68.45C73.3333 63.5733 73.3333 55.7133 73.3333 40C73.3333 24.2867 73.3333 16.43 68.45 11.5467C63.5733 6.66666 55.7133 6.66666 40 6.66666C24.2866 6.66666 16.43 6.66666 11.5466 11.5467ZM21.4133 31.7333C21.8377 31.2243 22.447 30.9046 23.107 30.8446C23.7671 30.7846 24.424 30.9892 24.9333 31.4133L25.8566 32.18C27.8733 33.86 29.59 35.29 30.7766 36.6067C32.04 38.0067 33.0233 39.61 33.0233 41.6667C33.0233 43.7233 32.04 45.33 30.7766 46.7267C29.59 48.0433 27.8733 49.4733 25.8566 51.1533L24.9333 51.92C24.6824 52.1395 24.3901 52.3066 24.0737 52.4115C23.7573 52.5163 23.4231 52.5569 23.0908 52.5307C22.7584 52.5045 22.4347 52.4121 22.1386 52.2589C21.8425 52.1058 21.5801 51.895 21.3666 51.6389C21.1532 51.3828 20.9932 51.0866 20.896 50.7677C20.7987 50.4489 20.7662 50.1138 20.8004 49.7822C20.8345 49.4506 20.9347 49.1292 21.0949 48.8369C21.2551 48.5445 21.4722 48.2872 21.7333 48.08L22.5133 47.43C24.71 45.5967 26.1466 44.3967 27.0666 43.3767C27.94 42.41 28.0233 41.9533 28.0233 41.6667C28.0233 41.38 27.94 40.9267 27.0666 39.9567C26.1433 38.9367 24.71 37.7333 22.5133 35.9033L21.7333 35.2533C21.2242 34.8289 20.9046 34.2196 20.8446 33.5596C20.7846 32.8995 20.9891 32.2426 21.4133 31.7333ZM59.1666 50C59.1666 50.663 58.9032 51.2989 58.4344 51.7678C57.9656 52.2366 57.3297 52.5 56.6666 52.5H40C39.3369 52.5 38.701 52.2366 38.2322 51.7678C37.7634 51.2989 37.5 50.663 37.5 50C37.5 49.3369 37.7634 48.7011 38.2322 48.2322C38.701 47.7634 39.3369 47.5 40 47.5H56.6666C57.3297 47.5 57.9656 47.7634 58.4344 48.2322C58.9032 48.7011 59.1666 49.3369 59.1666 50Z" fill="#BDD3C9"/>
</svg>