<svg xmlns="http://www.w3.org/2000/svg" width="16" height="16" viewBox="0 0 16 16" fill="none">
    <g clip-path="url(#clip0_2285_3938)">
        <path d="M10.6866 5.64659C10.6408 5.59746 10.5856 5.55806 10.5243 5.53073C10.4629 5.5034 10.3967 5.48871 10.3296 5.48752C10.2625 5.48634 10.1958 5.49869 10.1335 5.52384C10.0713 5.54898 10.0147 5.58641 9.96723 5.63389C9.91975 5.68137 9.88232 5.73793 9.85717 5.80019C9.83202 5.86245 9.81967 5.92913 9.82086 5.99627C9.82204 6.0634 9.83674 6.12961 9.86406 6.19094C9.89139 6.25228 9.93079 6.30748 9.97992 6.35325L10.0939 6.46792C10.5486 6.92259 10.8533 7.22792 11.0499 7.48658C11.2386 7.73325 11.2813 7.87725 11.2813 7.99992C11.2813 8.12259 11.2386 8.26659 11.0499 8.51325C10.8533 8.77125 10.5486 9.07725 10.0939 9.53192L9.97992 9.64659C9.93079 9.69236 9.89139 9.74756 9.86406 9.80889C9.83674 9.87023 9.82204 9.93644 9.82086 10.0036C9.81967 10.0707 9.83202 10.1374 9.85717 10.1997C9.88232 10.2619 9.91975 10.3185 9.96723 10.3659C10.0147 10.4134 10.0713 10.4509 10.1335 10.476C10.1958 10.5011 10.2625 10.5135 10.3296 10.5123C10.3967 10.5111 10.4629 10.4964 10.5243 10.4691C10.5856 10.4418 10.6408 10.4024 10.6866 10.3533L10.8259 10.2146C11.2493 9.79125 11.6026 9.43792 11.8453 9.11992C12.1013 8.78392 12.2813 8.42925 12.2813 7.99992C12.2813 7.57059 12.1013 7.21592 11.8453 6.87992C11.6026 6.56192 11.2493 6.20859 10.8253 5.78525L10.6866 5.64659ZM8.99192 4.29725C9.11988 4.33163 9.22898 4.41539 9.29523 4.53014C9.36148 4.64489 9.37947 4.78124 9.34525 4.90925L7.61992 11.3493C7.60289 11.4127 7.57354 11.4721 7.53353 11.5242C7.49353 11.5763 7.44366 11.62 7.38676 11.6528C7.27187 11.7191 7.13535 11.737 7.00725 11.7026C6.87915 11.6682 6.76996 11.5843 6.7037 11.4694C6.63743 11.3545 6.61953 11.218 6.65392 11.0899L8.37992 4.65058C8.41429 4.52262 8.49805 4.41353 8.6128 4.34728C8.72756 4.28103 8.86391 4.26304 8.99192 4.29725ZM6.01992 5.64659C5.92617 5.55295 5.79909 5.50036 5.66659 5.50036C5.53409 5.50036 5.407 5.55295 5.31325 5.64659L5.17459 5.78525C4.75059 6.20859 4.39725 6.56192 4.15459 6.87992C3.89859 7.21592 3.71925 7.57059 3.71925 7.99992C3.71925 8.42925 3.89925 8.78392 4.15459 9.11992C4.39725 9.43792 4.75059 9.79125 5.17459 10.2146L5.31325 10.3533C5.40804 10.4416 5.5334 10.4897 5.66293 10.4874C5.79247 10.4851 5.91606 10.4326 6.00767 10.341C6.09928 10.2494 6.15175 10.1258 6.15404 9.99627C6.15632 9.86673 6.10824 9.74137 6.01992 9.64659L5.90592 9.53192C5.45125 9.07725 5.14725 8.77192 4.94992 8.51325C4.76125 8.26659 4.71925 8.12259 4.71925 7.99992C4.71925 7.87725 4.76125 7.73325 4.94992 7.48658C5.14725 7.22858 5.45125 6.92259 5.90592 6.46792L6.02059 6.35325C6.11422 6.2595 6.16681 6.13242 6.16681 5.99992C6.16681 5.86742 6.11355 5.74034 6.01992 5.64659Z" fill="#868E96"/>
        <path fill-rule="evenodd" clip-rule="evenodd" d="M7.99992 0.833252C4.04192 0.833252 0.833252 4.04192 0.833252 7.99992C0.833252 11.9579 4.04192 15.1666 7.99992 15.1666C11.9579 15.1666 15.1666 11.9579 15.1666 7.99992C15.1666 4.04192 11.9579 0.833252 7.99992 0.833252ZM1.83325 7.99992C1.83325 6.36442 2.48295 4.7959 3.63943 3.63943C4.7959 2.48295 6.36442 1.83325 7.99992 1.83325C9.63542 1.83325 11.2039 2.48295 12.3604 3.63943C13.5169 4.7959 14.1666 6.36442 14.1666 7.99992C14.1666 9.63542 13.5169 11.2039 12.3604 12.3604C11.2039 13.5169 9.63542 14.1666 7.99992 14.1666C6.36442 14.1666 4.7959 13.5169 3.63943 12.3604C2.48295 11.2039 1.83325 9.63542 1.83325 7.99992Z" fill="#868E96"/>
    </g>
    <defs>
        <clipPath id="clip0_2285_3938">
            <rect width="16" height="16" fill="white"/>
        </clipPath>
    </defs>
</svg>