<svg width="336" height="168" viewBox="0 0 336 168" fill="none" xmlns="http://www.w3.org/2000/svg">
    <path d="M94.2379 122.84C99.6247 130.796 98.986 129.209 102.134 134.153C116.46 156.651 116.587 168.92 127.335 190.377C131.861 199.415 137.649 210.97 147.881 221.763C160.354 234.92 165.969 232.743 192.657 249.089C216.53 263.712 218.781 269.585 227.642 270.077C241.557 270.851 260.611 266.076 258.169 245.187C256.224 228.551 239.322 203.834 228.906 195.272C212.269 181.596 198.728 184.96 187.209 172.571C176.567 161.123 179.04 148.632 176.679 127.3C175.425 115.976 175.594 109.814 176.371 81.2686C177.428 42.3916 177.822 22.6942 171.256 10.0241C165.401 -1.27488 161.539 -12.6806 154.095 -19.6893C146.301 -27.0294 131.273 -38.5529 116.579 -41.7281C113.836 -42.321 97.5701 -42.6033 87.2194 -30.2863C79.8292 -21.4922 82.9652 -15.8656 73.8059 0.452765C65.4478 15.3433 60.3291 13.3093 57.651 24.4273C54.4235 37.8289 58.9982 52.6703 62.2661 63.2706C69.2562 85.9447 81.8534 104.55 94.2379 122.839L94.2379 122.84Z" stroke="url(#paint0_linear_1216_22528)" stroke-width="0.5" stroke-miterlimit="10"/>
    <path d="M95.769 128.487C101.698 136.282 100.95 134.696 104.434 139.554C120.294 161.66 121.277 174.269 133.495 195.563C138.641 204.531 145.221 215.999 156.181 226.363C169.542 238.997 174.99 236.354 202.754 251.246C227.588 264.567 230.243 270.445 239.117 270.315C253.052 270.11 271.727 263.829 267.833 242.522C264.732 225.553 246.149 201.348 235.16 193.292C217.609 180.424 204.335 184.859 191.981 172.945C180.566 161.937 182.161 148.913 178.318 127.145C176.277 115.59 176.016 109.24 174.799 79.8286C173.142 39.7711 172.162 19.4851 164.728 6.92719C158.098 -4.27147 153.451 -15.723 145.536 -22.3971C137.249 -29.3851 121.454 -40.1554 106.573 -42.3637C103.796 -42.7757 87.5493 -41.8961 78.0838 -28.4847C71.3247 -18.9091 74.8464 -13.349 66.848 4.09209C59.5494 20.0072 54.301 18.2828 52.4044 29.9098C50.1187 43.9251 55.718 58.858 59.7172 69.5248C68.2716 92.3407 82.1364 110.568 95.7668 128.487L95.769 128.487Z" stroke="url(#paint1_linear_1216_22528)" stroke-width="0.5" stroke-miterlimit="10"/>
    <path d="M97.6899 134.184C104.148 141.773 103.291 140.196 107.106 144.942C124.47 166.536 126.33 179.432 140.004 200.452C145.763 209.306 153.126 220.626 164.783 230.496C178.992 242.527 184.242 239.418 212.978 252.737C238.681 264.651 241.74 270.504 250.583 269.733C264.47 268.521 282.661 260.717 277.29 239.085C273.013 221.857 252.787 198.302 241.262 190.806C222.856 178.834 209.924 184.349 196.77 172.985C184.614 162.485 185.298 148.977 179.946 126.866C177.104 115.129 176.401 108.618 173.135 78.4574C168.688 37.3807 166.294 16.5889 158.003 4.20872C150.608 -6.83189 145.174 -18.2747 136.812 -24.5684C128.057 -31.1585 111.549 -41.0993 96.5508 -42.3005C93.7517 -42.525 77.6066 -40.4519 69.0981 -25.9788C63.0235 -15.6456 66.9246 -10.1793 60.1622 8.33219C53.9918 25.225 48.6355 23.8287 47.5553 35.9223C46.2527 50.4999 52.8811 65.4547 57.6138 76.1367C67.7388 98.9853 82.8419 116.734 97.6888 134.181L97.6899 134.184Z" stroke="url(#paint2_linear_1216_22528)" stroke-width="0.5" stroke-miterlimit="10"/>
    <path d="M100.004 139.905C106.976 147.245 106.011 145.685 110.149 150.292C128.976 171.25 131.732 184.379 146.838 205.014C153.2 213.706 161.336 224.817 173.653 234.13C188.667 245.483 193.688 241.906 223.283 253.538C249.755 263.942 253.214 269.742 261.982 268.312C275.75 266.066 293.354 256.734 286.487 234.873C281.018 217.462 259.197 194.692 247.179 187.813C227.982 176.825 215.467 183.427 201.552 172.686C188.694 162.761 188.432 148.82 181.551 126.467C177.899 114.601 176.742 107.954 171.38 77.1714C164.078 35.2467 160.241 14.0375 151.105 1.90035C142.959 -8.92226 136.738 -20.2997 127.959 -26.1704C118.766 -32.318 101.605 -41.3541 86.5599 -41.5111C83.752 -41.5405 67.7901 -38.2476 60.3127 -22.7511C54.9739 -11.6876 59.2466 -6.3466 53.7912 13.1775C48.8143 30.9935 43.373 29.9438 43.1397 42.4581C42.8574 57.5437 50.5125 72.4473 55.9788 83.0922C67.6734 105.862 83.9777 123.029 100.005 139.905L100.004 139.905Z" stroke="url(#paint3_linear_1216_22528)" stroke-width="0.5" stroke-miterlimit="10"/>
    <path d="M102.711 145.622C110.177 152.67 109.106 151.135 113.555 155.574C133.798 175.775 137.463 189.078 153.972 209.213C160.925 217.693 169.816 228.536 182.753 237.228C198.522 247.823 203.282 243.784 233.615 253.617C260.749 262.413 264.604 268.129 273.251 266.028C286.829 262.728 303.738 251.866 295.364 229.877C288.694 212.365 265.339 190.517 252.869 184.306C232.952 174.386 220.928 182.076 206.298 172.031C192.778 162.749 191.546 148.43 183.122 125.936C178.65 113.995 177.033 107.243 169.537 75.9711C159.328 33.3805 154.021 11.8443 144.061 0.0199399C135.179 -10.5247 128.181 -21.7768 119.013 -27.1843C109.413 -32.8457 91.6634 -40.9041 76.6432 -39.9831C73.8408 -39.8108 58.147 -35.2776 51.7694 -18.8022C47.2154 -7.04001 51.8501 -1.85488 47.7702 18.6164C44.0478 37.2968 38.5477 36.608 39.1864 49.4961C39.9571 65.0308 48.6324 79.8068 54.829 90.3613C68.0834 112.937 85.5452 129.419 102.711 145.622Z" stroke="url(#paint4_linear_1216_22528)" stroke-width="0.5" stroke-miterlimit="10"/>
    <path d="M105.81 151.308C113.75 158.019 112.575 156.518 117.322 160.762C138.925 180.081 143.509 193.499 161.382 213.019C168.91 221.241 178.535 231.752 192.047 239.76C208.517 249.522 212.982 245.026 243.928 252.958C271.609 260.052 275.853 265.653 284.334 262.87C297.648 258.5 313.758 246.112 303.871 224.101C295.996 206.572 271.173 185.782 258.301 180.292C237.742 171.522 226.282 180.295 210.986 171.017C196.854 162.444 194.624 147.806 184.652 125.279C179.358 113.321 177.274 106.493 167.615 74.8724C154.46 31.8054 147.663 10.0392 136.902 -1.40581C127.307 -11.6115 119.54 -22.6804 110.018 -27.5811C100.046 -32.7128 81.7779 -39.7237 66.8591 -37.6974C64.0752 -37.3191 48.7367 -31.528 43.5233 -14.1261C39.8009 -1.70229 44.7855 3.29645 42.1444 24.643C39.7344 44.1213 34.1994 43.8096 35.7363 57.0171C37.5893 72.9376 47.2739 87.5098 54.1911 97.9182C68.9878 120.183 87.5571 135.877 105.811 151.306L105.81 151.308Z" stroke="url(#paint5_linear_1216_22528)" stroke-width="0.5" stroke-miterlimit="10"/>
    <path d="M109.298 156.932C117.687 163.263 116.409 161.803 121.442 165.828C144.341 184.142 149.848 197.612 169.04 216.4C177.123 224.314 187.459 234.432 201.495 241.696C218.605 250.551 222.747 245.606 254.17 251.537C282.278 256.844 286.904 262.298 295.168 258.826C308.146 253.375 323.352 239.477 311.953 217.551C302.874 200.09 276.662 180.495 263.438 175.774C242.316 168.233 231.498 178.079 215.592 169.638C200.895 161.838 197.65 146.944 186.13 124.495C180.015 112.578 177.459 105.705 165.618 73.8806C149.491 30.5356 141.193 8.63972 129.66 -2.3562C119.376 -12.1618 110.857 -22.9866 101.015 -27.3423C90.7104 -31.9028 71.9972 -37.7997 57.2561 -34.642C54.5049 -34.0523 39.6079 -26.9935 35.6207 -8.72291C32.7736 4.32112 38.095 9.10406 36.9494 31.2474C35.9041 51.4527 30.3603 51.5301 32.815 65.0025C35.7733 81.2413 46.452 95.5323 54.0787 105.739C70.3928 127.572 90.0106 142.377 109.297 156.932L109.298 156.932Z" stroke="url(#paint6_linear_1216_22528)" stroke-width="0.5" stroke-miterlimit="10"/>
    <path d="M113.17 162.464C121.98 168.372 120.604 166.962 125.904 170.739C150.025 187.927 156.459 201.383 176.914 219.326C185.529 226.883 196.546 236.546 211.055 243.007C228.742 250.884 232.528 245.5 264.29 249.34C292.699 252.775 297.694 258.053 305.696 253.888C318.262 247.348 332.462 231.961 319.561 210.232C309.287 192.927 281.771 174.66 268.251 170.757C246.654 164.521 236.549 175.425 220.093 167.887C204.888 160.922 200.613 145.838 187.555 123.579C180.623 111.763 177.594 104.88 163.562 73.0021C144.451 29.5853 134.644 7.66321 122.373 -2.81496C111.429 -12.1595 102.175 -22.6791 92.0543 -26.4505C81.4562 -30.3996 62.3779 -35.1182 47.8929 -30.8105C45.1897 -30.0072 30.8213 -21.6752 28.1181 -2.59915C26.1888 11.0204 31.8307 15.557 32.2318 38.411C32.598 59.266 27.0739 59.7434 30.4616 73.4218C34.5458 89.9102 46.1947 103.838 54.5147 113.787C72.3122 135.067 92.9154 148.882 113.17 162.463L113.17 162.464Z" stroke="url(#paint7_linear_1216_22528)" stroke-width="0.5" stroke-miterlimit="10"/>
    <path d="M117.419 167.876C126.62 173.317 125.148 171.967 130.7 175.471C155.96 191.413 163.318 204.788 184.975 221.771C194.097 228.923 205.76 238.068 220.684 243.669C238.878 250.497 242.28 244.688 274.231 246.353C302.811 247.844 308.161 252.911 315.853 248.053C327.932 240.424 341.025 223.578 326.639 202.159C315.182 185.102 286.459 168.294 272.699 165.252C250.721 160.392 241.4 172.333 224.459 165.764C208.805 159.695 203.488 144.491 188.909 122.537C181.17 110.884 177.669 104.022 161.446 72.2477C139.353 28.9715 128.041 7.13224 115.069 -2.76169C103.501 -11.5842 93.5349 -21.7386 83.1756 -24.8887C72.3279 -28.1881 52.9673 -31.6685 38.8169 -26.1967C36.177 -25.1754 22.4244 -15.5746 21.0586 4.23828C20.0842 18.3843 26.028 22.6429 28.0227 46.1183C29.843 67.54 24.3646 68.4284 28.6995 82.2518C33.9239 98.9146 46.5167 112.401 55.5103 122.033C74.7488 142.639 96.2654 155.365 117.418 167.876L117.419 167.876Z" stroke="url(#paint8_linear_1216_22528)" stroke-width="0.5" stroke-miterlimit="10"/>
    <path d="M122.035 173.135C131.593 178.069 130.031 176.786 135.813 179.991C162.123 194.57 170.396 207.797 193.185 223.703C202.783 230.403 215.056 238.969 230.335 243.656C248.96 249.369 251.949 243.151 283.938 242.566C312.553 242.042 318.244 246.87 325.578 241.32C337.095 232.605 348.981 214.339 333.136 193.347C320.517 176.628 290.693 161.409 276.754 159.269C254.49 155.852 246.025 168.802 228.666 163.265C212.627 158.148 206.263 142.895 190.187 121.366C181.655 109.938 177.683 103.134 159.284 71.6232C134.226 28.7066 121.418 7.05917 107.787 -2.18294C95.6309 -10.4244 84.9816 -20.1505 74.4271 -22.6455C63.3756 -25.2582 43.8188 -27.4459 30.0859 -20.8012C27.5233 -19.5619 14.4738 -8.69787 14.4934 11.7756C14.5076 26.3936 20.7348 30.3459 24.3623 54.3445C27.6726 76.2437 22.2695 77.5517 27.5582 91.4557C33.9325 108.217 47.4343 121.181 57.0786 130.441C77.708 150.248 100.06 161.788 122.033 173.133L122.035 173.135Z" stroke="url(#paint9_linear_1216_22528)" stroke-width="0.5" stroke-miterlimit="10"/>
    <path d="M127.006 178.212C136.885 182.599 135.238 181.393 141.229 184.271C168.493 197.372 177.667 210.38 201.511 225.099C211.553 231.299 224.393 239.226 239.962 242.947C258.94 247.484 261.487 240.874 293.359 237.972C321.867 235.376 327.881 239.931 334.81 233.696C345.692 223.906 356.274 204.266 339.004 183.817C325.25 167.53 294.436 154.024 280.381 152.826C257.933 150.912 250.392 164.839 232.689 160.394C216.332 156.286 208.919 141.056 191.382 120.071C182.072 108.932 177.636 102.221 157.084 71.137C129.093 28.8025 114.807 7.46135 100.564 -1.06245C87.8633 -8.66411 76.5611 -17.9008 65.8584 -19.708C54.6521 -21.6002 34.9896 -22.4428 21.7537 -14.622C19.2838 -13.1625 7.02452 -1.05264 8.47204 20.0018C9.50536 35.034 15.9941 38.6517 21.2861 63.071C26.1159 85.3538 20.8174 87.088 27.0631 101.007C34.5906 117.786 48.9644 130.147 59.2312 138.976C81.1914 157.863 104.294 168.124 127.005 178.211L127.006 178.212Z" stroke="url(#paint10_linear_1216_22528)" stroke-width="0.5" stroke-miterlimit="10"/>
    <path d="M132.319 183.077C142.48 186.879 140.753 185.756 146.93 188.286C175.041 199.799 185.101 212.516 209.913 225.939C220.364 231.593 233.725 238.822 249.516 241.529C268.764 244.83 270.845 237.849 302.436 232.573C330.693 227.853 337.01 232.105 343.488 225.194C353.66 214.344 362.847 193.385 344.192 173.596C329.336 157.836 297.655 146.162 283.551 145.941C261.024 145.587 254.473 160.452 236.504 157.153C219.9 154.105 211.442 138.975 192.484 118.656C182.42 107.869 177.526 101.285 154.856 70.797C123.98 29.2724 108.24 8.352 93.4379 0.609733C80.238 -6.29433 68.3189 -14.9805 57.517 -16.0695C46.206 -17.2096 26.5326 -16.6624 13.8745 -7.66772C11.5124 -5.98912 0.127357 7.34702 3.04093 28.8952C5.12065 44.2806 11.8449 47.5342 18.8285 72.2663C25.2006 94.8359 20.0362 96.9995 27.2379 110.865C35.9175 127.579 51.1187 139.259 61.9762 147.601C85.2008 165.445 108.963 174.335 132.323 183.076L132.319 183.077Z" stroke="url(#paint11_linear_1216_22528)" stroke-width="0.5" stroke-miterlimit="10"/>
    <path d="M137.96 187.696C148.361 190.876 146.56 189.845 152.898 192.003C181.744 201.82 192.667 214.177 218.355 226.197C229.174 231.26 243.008 237.734 258.949 239.383C278.38 241.393 279.968 234.065 311.114 226.366C338.973 219.479 345.572 223.399 351.552 215.826C360.942 203.935 368.644 181.72 348.655 162.71C332.735 147.571 300.317 137.843 286.232 138.629C263.735 139.885 258.237 155.644 240.081 153.543C223.305 151.602 213.813 136.651 193.482 117.118C182.69 106.748 177.349 100.329 152.607 70.6051C118.91 30.1214 101.749 9.73839 86.4423 2.84087C72.7922 -3.31 60.2976 -11.3858 49.4455 -11.7292C38.0823 -12.0889 18.4961 -10.1105 6.49518 0.0504803C4.25523 1.94708 -6.17065 16.48 -1.7616 38.4315C1.38632 54.1036 8.32093 56.967 17.0126 81.8997C24.9434 104.652 19.9425 107.249 28.0935 120.99C37.9177 137.555 53.8971 148.474 65.3094 156.271C89.7221 172.953 114.047 180.387 137.959 187.696L137.96 187.696Z" stroke="url(#paint12_linear_1216_22528)" stroke-width="0.5" stroke-miterlimit="10"/>
    <path d="M143.908 192.042C154.506 194.563 152.637 193.633 159.11 195.396C188.571 203.418 200.329 215.34 226.793 225.855C237.939 230.284 252.191 235.946 268.207 236.495C287.732 237.166 288.805 229.514 319.338 219.357C346.649 210.272 353.505 213.828 358.942 205.609C367.48 192.705 373.613 169.306 352.346 151.193C335.409 136.768 302.391 129.096 288.396 130.917C266.041 133.827 261.656 150.428 243.399 149.573C226.528 148.784 216.016 134.09 194.374 115.464C182.885 105.577 177.109 99.3593 150.354 70.5692C113.914 31.3586 95.3735 11.6307 79.6241 5.63677C65.5784 0.292498 52.5507 -7.11406 41.7008 -6.68678C30.3398 -6.23879 10.9388 -2.79657 -0.323042 8.51545C-2.42456 10.6268 -11.8127 26.3228 -5.88204 48.5817C-1.64848 64.4728 5.4692 66.9187 15.8787 91.9353C25.3781 114.764 20.5701 117.793 29.6596 131.34C40.6152 147.669 57.3172 157.748 69.2462 164.947C94.7631 180.346 119.546 186.243 143.911 192.04L143.908 192.042Z" stroke="url(#paint13_linear_1216_22528)" stroke-width="0.5" stroke-miterlimit="10"/>
    <path d="M150.145 196.084C160.892 197.915 158.963 197.093 165.544 198.44C195.492 204.572 208.053 215.986 235.187 224.897C246.615 228.65 261.227 233.448 277.242 232.861C296.766 232.146 297.302 224.2 327.053 211.56C353.664 200.252 360.75 203.415 365.602 194.573C373.219 180.689 377.705 156.182 355.227 139.084C337.325 125.468 303.852 119.952 290.018 122.831C267.921 127.431 264.705 144.82 246.431 145.255C229.547 145.656 218.035 131.301 195.145 113.702C182.995 104.359 176.8 98.3805 148.101 70.6966C109.015 32.9914 89.1429 14.0363 73.0131 9.00591C58.6295 4.51947 45.1156 -2.16005 34.3225 -0.940343C23.0203 0.337137 3.90709 5.27265 -6.53838 17.7161C-8.4873 20.0378 -16.7572 36.8554 -9.28956 59.3203C-3.95729 75.3586 3.31303 77.362 15.4426 102.342C26.5104 125.136 21.9259 128.597 31.9386 141.876C44.0071 157.881 61.3708 167.045 73.7728 173.592C100.301 187.594 125.437 191.875 150.146 196.085L150.145 196.084Z" stroke="url(#paint14_linear_1216_22528)" stroke-width="0.5" stroke-miterlimit="10"/>
    <path d="M156.649 199.792C167.498 200.902 165.516 200.195 172.175 201.108C202.478 205.259 215.804 216.095 243.493 223.308C255.154 226.345 270.066 230.229 286.001 228.474C305.428 226.335 305.409 218.125 334.204 202.985C359.962 189.442 367.252 192.186 371.474 182.743C378.103 167.916 380.87 142.392 357.254 126.424C338.446 113.708 304.669 110.441 291.069 114.398C269.346 120.718 267.35 138.833 249.153 140.593C232.337 142.219 219.853 128.285 195.791 111.831C183.018 103.097 176.42 97.3941 145.861 70.9878C104.241 35.0221 83.0946 16.9576 66.6531 12.9442C51.9915 9.36463 38.0449 3.46666 27.3629 5.49733C16.1774 7.62392 -2.54448 14.0734 -12.0972 27.6232C-13.8794 30.152 -20.9567 48.0411 -11.9392 70.6074C-5.50163 86.7186 1.89183 88.2556 15.7337 113.072C28.3647 135.717 24.033 139.608 34.9472 152.543C48.1024 168.135 66.0634 176.311 78.8916 182.151C106.332 194.644 131.704 197.239 156.648 199.792L156.649 199.792Z" stroke="url(#paint15_linear_1216_22528)" stroke-width="0.5" stroke-miterlimit="10"/>
    <path d="M163.395 203.137C174.295 203.499 172.269 202.915 178.976 203.374C209.494 205.464 223.545 215.65 251.669 221.076C263.515 223.362 278.659 226.284 294.435 223.333C313.665 219.736 313.073 211.294 340.742 193.652C365.492 177.872 372.956 180.17 376.51 170.155C382.089 154.429 383.067 127.981 358.395 113.258C338.746 101.533 304.824 100.603 291.533 105.65C270.305 113.711 269.577 132.484 251.547 135.603C234.886 138.485 221.459 125.052 196.309 109.862C182.958 101.798 175.979 96.4077 143.652 71.4477C99.6236 37.4539 77.2688 20.3965 60.5874 17.4502C45.7111 14.8233 31.3874 9.76138 20.8733 12.6172C9.8632 15.6081 -8.36378 23.588 -16.9475 38.2093C-18.5498 40.9376 -24.3606 59.8447 -13.792 82.4033C-6.24589 98.5092 1.23584 99.5578 16.776 124.085C30.9558 146.466 26.9064 150.778 38.6959 163.296C52.9073 178.384 71.3948 185.502 84.5991 190.585C112.844 201.459 138.336 202.303 163.396 203.135L163.395 203.137Z" stroke="url(#paint16_linear_1216_22528)" stroke-width="0.5" stroke-miterlimit="10"/>
    <path d="M170.359 206.093C181.258 205.681 179.196 205.225 185.918 205.216C216.507 205.171 231.234 214.635 259.668 218.193C271.644 219.692 286.956 221.608 302.488 217.438C321.42 212.355 320.24 203.716 346.612 183.583C370.201 165.576 377.807 167.401 380.653 156.847C385.122 140.273 384.253 113.003 358.613 99.636C338.194 88.9911 304.289 90.4735 291.383 96.62C270.769 106.438 271.352 125.796 253.583 130.3C237.163 134.463 222.833 121.613 196.683 107.799C182.802 100.467 175.464 95.4243 141.475 72.0808C95.1827 40.2866 71.6932 24.3519 54.8462 22.5229C39.8238 20.8912 25.1807 16.7153 14.8922 20.4094C4.11758 24.2778 -13.5077 33.7946 -21.0505 49.4481C-22.4577 52.3693 -26.9365 72.2312 -14.8201 94.6711C-6.16876 110.692 1.36749 111.233 18.5808 135.339C34.2877 157.336 30.5479 162.061 43.1831 174.087C58.4126 188.583 77.3514 194.573 90.8783 198.851C119.813 208.003 145.302 207.039 170.359 206.091L170.359 206.093Z" stroke="url(#paint17_linear_1216_22528)" stroke-width="0.5" stroke-miterlimit="10"/>
    <path d="M177.512 208.632C188.355 207.424 186.266 207.105 192.971 206.611C223.483 204.366 238.834 213.04 267.447 214.654C279.5 215.334 294.908 216.203 310.11 210.799C328.641 204.21 326.863 195.41 351.765 172.81C374.041 152.594 381.756 153.925 383.858 142.866C387.16 125.5 384.391 97.5161 357.881 85.6144C336.769 76.1347 303.051 80.099 290.606 87.3475C270.726 98.9266 272.659 118.793 255.247 124.703C239.158 130.164 223.966 117.981 196.917 105.654C182.558 99.1108 174.887 94.4543 139.352 72.8908C90.9546 43.5218 66.41 28.8243 49.4769 28.1539C34.3771 27.5566 19.479 24.3139 9.47277 28.8526C-1.00541 33.605 -17.9244 44.6609 -24.3576 61.3019C-25.5576 64.4074 -28.6401 85.1566 -14.9868 107.362C-5.23893 123.216 2.31692 123.23 21.1696 146.783C38.373 168.276 34.9722 173.404 48.4141 184.863C64.617 198.676 83.9274 203.474 97.7203 206.901C127.223 214.231 152.582 211.407 177.512 208.631L177.512 208.632Z" stroke="url(#paint18_linear_1216_22528)" stroke-width="0.5" stroke-miterlimit="10"/>
    <path d="M184.823 210.728C195.556 208.706 193.45 208.527 200.104 207.537C230.385 203.034 246.304 210.851 274.96 210.453C287.029 210.285 302.462 210.072 317.25 203.421C335.276 195.312 332.888 186.39 356.154 161.356C376.965 138.963 384.753 139.778 386.08 128.253C388.162 110.157 383.447 81.5771 356.173 71.2428C334.451 63.0122 301.091 69.513 289.182 77.8635C270.159 91.2007 273.473 111.493 256.515 118.823C240.846 125.597 224.84 114.159 196.999 103.428C182.219 97.732 174.24 93.4941 137.288 73.8741C86.9598 47.1516 61.4505 33.8013 44.5119 34.33C29.4067 34.8019 14.3189 32.538 4.65389 37.9259C-5.46676 43.5677 -21.5737 56.1539 -26.8297 73.7302C-27.8107 77.01 -29.4381 98.5702 -14.2696 120.426C-3.44047 136.029 4.09907 135.5 24.5486 158.367C43.2094 179.233 40.1748 184.752 54.3829 195.57C71.5101 208.61 91.1083 212.156 105.106 214.688C135.048 220.105 160.149 215.377 184.824 210.729L184.823 210.728Z" stroke="url(#paint19_linear_1216_22528)" stroke-width="0.5" stroke-miterlimit="10"/>
    <path d="M192.264 212.357C202.83 209.506 200.716 209.474 207.286 207.978C237.179 201.169 253.604 208.063 282.162 205.593C294.19 204.553 309.57 203.223 323.858 195.319C341.275 185.683 338.27 176.68 359.733 149.262C378.931 124.737 386.758 125.014 387.277 113.066C388.093 94.3061 381.396 65.2533 353.467 56.5867C331.223 49.6848 298.399 58.7688 287.1 68.2126C269.054 83.2971 273.775 103.928 257.37 112.686C242.212 120.779 225.448 110.167 196.924 101.133C181.783 96.3368 173.528 92.5534 135.298 75.0327C83.2285 51.1704 56.8494 39.2742 39.9893 41.0367C24.9539 42.6074 9.74506 41.3659 0.478966 47.6007C-9.22421 54.1298 -24.4134 68.2322 -28.4311 86.6859C-29.181 90.1292 -29.2998 112.42 -12.6435 133.804C-0.75161 149.072 6.73122 147.986 28.7263 170.033C48.7965 190.15 46.1543 196.045 61.0841 206.148C79.0789 218.326 98.8766 220.563 113.017 222.161C143.265 225.579 167.974 218.912 192.264 212.356L192.264 212.357Z" stroke="url(#paint20_linear_1216_22528)" stroke-width="0.5" stroke-miterlimit="10"/>
    <path d="M199.801 213.499C210.142 209.807 208.032 209.926 214.48 207.915C243.826 198.762 260.692 204.671 289.008 200.077C300.934 198.143 316.184 195.67 329.885 186.512C346.588 175.351 342.962 166.307 362.459 136.566C379.901 109.964 387.727 109.686 387.412 97.3613C386.916 78.0095 378.209 48.6122 349.744 41.7081C327.073 36.2091 294.962 47.9124 284.35 58.4374C267.4 75.2485 273.549 96.1253 257.794 106.312C243.237 115.726 225.775 106.018 196.69 98.7783C181.251 94.935 172.754 91.6377 133.393 76.3679C79.7855 55.5718 52.6412 45.2353 35.9446 48.2601C21.0552 50.9567 5.79735 50.7736 -3.01203 57.8521C-12.2356 65.2652 -26.4046 80.8598 -29.1252 100.127C-29.6331 103.723 -28.1965 126.654 -10.0894 147.449C2.83798 162.296 10.2282 160.64 33.7068 181.732C55.1318 200.978 52.9071 207.229 68.505 216.546C87.3053 227.777 107.211 228.654 121.429 229.281C151.841 230.62 176.025 221.986 199.8 213.499L199.801 213.499Z" stroke="url(#paint21_linear_1216_22528)" stroke-width="0.5" stroke-miterlimit="10"/>
    <path d="M207.399 214.131C217.457 209.59 215.36 209.865 221.652 207.333C250.288 195.809 267.525 200.674 295.452 193.914C307.215 191.067 322.254 187.426 335.284 177.024C351.167 164.344 346.92 155.305 364.295 123.317C379.838 94.7029 387.626 93.8549 386.452 81.2033C384.607 61.3369 373.871 31.7303 344.994 26.6771C321.995 22.6528 290.778 36.9972 280.926 48.585C265.189 67.0921 272.78 88.1204 257.775 99.73C243.91 110.458 225.812 101.73 196.294 96.3761C180.625 93.5345 171.917 90.7538 131.587 77.8809C76.6596 60.3483 48.8602 51.6708 32.4154 55.9818C17.7505 59.8262 2.51667 60.7341 -5.77714 68.6486C-14.4612 76.9359 -27.5074 93.9922 -28.8775 114.002C-29.1337 117.737 -26.1013 141.216 -6.58704 161.301C7.34534 175.64 14.6015 173.406 39.4938 193.408C62.2094 211.66 60.4262 218.249 76.6356 226.71C96.1738 236.908 116.092 236.378 130.318 236C160.75 235.191 184.272 224.572 207.397 214.133L207.399 214.131Z" stroke="url(#paint22_linear_1216_22528)" stroke-width="0.5" stroke-miterlimit="10"/>
    <path d="M215.022 214.234C224.739 208.841 222.666 209.274 228.767 206.217C256.529 192.308 274.064 196.071 301.451 187.11C312.987 183.335 327.735 178.51 340.008 166.875C354.968 152.693 350.1 143.702 365.202 109.555C378.71 79.0112 386.421 77.5779 384.366 64.6516C381.141 44.3536 368.365 14.6783 339.205 11.5576C315.982 9.07244 285.842 26.0699 276.823 38.6954C262.416 58.8604 271.454 79.9399 257.295 92.9588C244.213 104.988 225.55 97.3134 195.73 93.9311C179.901 92.1359 171.021 89.9014 129.891 79.5638C73.8743 65.4832 45.5376 58.5584 29.4329 64.1741C15.0721 69.1827 -0.0614279 71.2123 -7.78299 79.9475C-15.8675 89.0937 -27.6929 107.575 -27.6635 128.252C-27.6581 132.111 -22.995 156.04 -2.12808 175.292C12.77 189.037 19.8529 186.217 46.0804 204.998C70.0136 222.135 68.6947 229.04 85.4545 236.574C105.657 245.657 125.489 243.68 139.655 242.267C169.956 239.247 192.68 226.634 215.021 214.237L215.022 214.234Z" stroke="url(#paint23_linear_1216_22528)" stroke-width="0.5" stroke-miterlimit="10"/>
    <path d="M222.633 213.792C231.951 207.547 229.913 208.141 235.785 204.558C262.51 188.257 280.264 190.866 306.959 179.68C318.203 174.969 332.579 168.946 344.01 156.098C357.945 140.437 352.462 131.54 365.144 95.3371C376.489 62.9532 384.081 60.9258 381.13 47.7793C376.497 27.1358 361.682 -2.46312 332.376 -3.57601C309.035 -4.46109 280.155 15.1862 272.038 28.8188C259.072 50.5926 269.559 71.622 256.344 86.0285C244.132 99.3407 224.98 92.7898 194.996 91.4556C179.08 90.7471 170.066 89.0893 128.316 81.4146C71.4535 70.9625 42.7026 65.8777 27.0295 72.8123C13.0535 78.9958 -1.9024 82.171 -8.99503 91.7096C-16.4223 101.697 -26.9288 121.554 -25.4573 142.816C-25.1826 146.784 -18.8617 171.058 3.2969 189.356C19.1172 202.42 25.9863 199.011 53.4598 216.438C78.5298 232.341 77.6959 239.536 94.9408 246.081C115.727 253.968 135.374 250.51 149.406 248.038C179.422 242.753 201.211 228.148 222.633 213.792Z" stroke="url(#paint24_linear_1216_22528)" stroke-width="0.5" stroke-miterlimit="10"/>
    <path d="M230.196 212.79C239.055 205.698 237.064 206.455 242.672 202.349C268.194 183.662 286.086 185.068 311.937 171.646C322.825 165.992 336.746 158.764 347.253 144.73C360.061 127.621 353.97 118.866 364.098 80.7226C373.157 46.6034 380.587 43.9711 376.726 30.6633C370.664 9.76689 353.821 -19.6086 324.508 -18.645C301.162 -17.8777 273.723 4.40628 266.576 19.009C255.162 42.3339 267.09 63.2063 254.911 78.9732C243.658 93.541 224.095 88.1826 194.091 88.9663C178.164 89.3827 169.056 88.3254 126.872 83.4356C69.4194 76.7757 40.384 73.6147 25.233 81.8726C11.7225 89.2366 -2.97509 93.5781 -9.38539 103.898C-16.0976 114.704 -25.1937 135.88 -22.243 157.641C-21.6926 161.702 -13.6941 186.211 9.68745 203.435C26.3808 215.732 32.9949 211.733 61.6172 227.68C87.7358 242.231 87.4055 249.692 105.065 255.181C126.35 261.799 145.709 256.827 159.534 253.277C189.109 245.683 209.827 229.097 230.193 212.791L230.196 212.79Z" stroke="url(#paint25_linear_1216_22528)" stroke-width="0.5" stroke-miterlimit="10"/>
    <path d="M237.67 211.216C246.012 203.285 244.079 204.208 249.387 199.58C273.544 178.527 291.49 178.686 316.341 163.023C326.809 156.426 340.192 147.991 349.693 132.802C361.277 114.286 354.591 105.719 362.032 65.7644C368.689 30.0244 375.919 26.7828 371.139 13.3747C363.633 -7.67975 344.783 -36.6792 315.608 -33.5792C292.373 -31.1104 266.555 -6.22133 260.444 9.31117C250.684 34.1207 264.04 54.7271 252.991 71.8183C242.781 87.6102 222.892 83.5053 193.017 86.469C177.158 88.0418 167.998 87.6102 125.576 85.6144C67.7985 82.8971 38.6138 81.734 24.0753 91.3162C11.1109 99.8607 -3.24772 105.383 -8.92226 116.457C-14.8649 128.052 -22.4611 150.485 -17.9998 172.652C-17.167 176.789 -7.47801 201.419 17.0481 217.452C34.5589 228.898 40.8777 224.309 70.5431 238.652C97.6132 251.738 97.804 259.435 115.803 263.81C137.499 269.084 156.462 262.58 170.007 257.935C198.98 247.998 218.49 229.45 237.67 211.216Z" stroke="url(#paint26_linear_1216_22528)" stroke-width="0.5" stroke-miterlimit="10"/>
    <path d="M245.016 209.06C252.786 200.304 250.921 201.391 255.893 196.252C278.523 172.864 296.437 171.736 320.135 153.841C330.116 146.303 342.877 136.667 351.298 120.363C361.561 100.488 354.294 92.1588 358.93 50.5328C363.077 13.2984 370.063 9.44526 364.359 -4.00098C355.404 -25.1143 334.575 -53.5818 305.689 -48.2953C282.682 -44.0857 258.663 -16.6319 253.651 -0.218688C245.646 25.9969 260.406 46.2295 250.575 64.6004C241.492 81.5749 221.365 78.7845 191.77 83.9806C176.059 86.7393 166.891 86.953 124.434 87.9514C66.6071 89.3117 37.4126 90.2143 23.5783 101.114C11.2417 110.835 -2.69723 117.545 -7.58588 129.342C-12.7045 141.695 -18.7181 165.31 -12.7209 187.787C-11.6015 191.981 -0.218598 216.615 25.3659 231.339C43.6321 241.851 49.6162 236.678 80.2092 249.293C108.126 260.806 108.853 268.706 127.114 271.912C149.124 275.776 167.589 267.723 180.776 261.972C208.985 249.669 227.154 229.191 245.015 209.06L245.016 209.06Z" stroke="url(#paint27_linear_1216_22528)" stroke-width="0.5" stroke-miterlimit="10"/>
    <path d="M252.194 206.313C259.334 196.75 257.549 198.002 262.151 192.358C283.093 166.678 300.885 164.231 323.278 144.122C332.71 135.653 344.768 124.824 352.03 107.451C360.882 86.2739 353.052 78.2308 354.773 35.0886C356.312 -3.50289 363.013 -7.96755 356.385 -21.3844C345.979 -42.453 323.215 -70.2316 294.767 -62.7182C272.111 -56.7341 250.065 -26.7733 246.21 -9.53279C240.053 18.0039 256.189 37.7503 247.664 57.3496C239.787 75.46 219.515 74.0375 190.353 81.5095C174.873 85.476 165.743 86.3556 123.457 90.4366C65.8673 95.9945 36.8057 99.0214 23.765 111.226C12.1358 122.11 -1.29958 130.013 -5.35438 142.497C-9.59884 155.568 -13.9512 180.287 -6.39968 202.971C-4.99031 207.204 8.08315 231.72 34.6334 245.023C53.5885 254.52 59.1965 248.769 90.595 259.544C119.247 269.375 120.524 277.448 138.964 279.432C161.191 281.822 179.047 272.214 191.802 265.35C219.083 250.669 235.78 228.303 252.194 206.314L252.194 206.313Z" stroke="url(#paint28_linear_1216_22528)" stroke-width="0.5" stroke-miterlimit="10"/>
    <path d="M259.163 202.974C265.618 192.624 263.925 194.041 268.122 187.907C287.222 159.991 304.801 156.194 325.735 133.904C334.553 124.515 345.826 112.512 351.859 94.123C359.213 71.7071 350.84 63.9987 349.548 19.506C348.391 -20.2921 354.764 -25.3661 347.217 -38.6881C335.366 -59.6074 310.721 -86.538 282.866 -76.7661C260.682 -68.9835 240.78 -36.5855 238.136 -18.5776C233.915 10.1843 251.389 29.3312 244.252 50.1001C237.658 69.2917 217.336 69.2862 188.766 79.0679C173.601 84.2607 164.554 85.8215 122.656 93.0591C65.5938 102.916 36.8145 108.12 24.6577 121.61C13.8166 133.639 0.964436 142.734 -2.20855 155.864C-5.53087 169.612 -8.14798 195.347 0.9666 218.132C2.667 222.384 17.4191 246.656 44.8326 258.427C64.4046 266.831 69.5973 260.514 101.672 269.336C130.939 277.387 132.776 285.598 151.309 286.312C173.649 287.172 190.792 276.006 203.036 268.03C229.228 250.97 244.323 226.767 259.164 202.975L259.163 202.974Z" stroke="url(#paint29_linear_1216_22528)" stroke-width="0.5" stroke-miterlimit="10"/>
    <path d="M265.881 199.038C271.598 187.931 270.009 189.509 273.768 182.898C290.875 152.815 308.145 147.646 327.474 123.218C335.615 112.929 346.023 99.7735 350.758 80.4293C356.53 56.8471 347.64 49.5224 343.247 3.85898C339.318 -36.9877 345.32 -42.6633 336.863 -55.8207C323.581 -76.4817 297.117 -102.406 270.012 -90.353C248.425 -80.7534 230.832 -46.0031 229.451 -27.2943C227.246 2.58803 246.014 21.0221 240.342 42.8951C235.103 63.1059 214.83 64.5622 187.012 76.6764C172.246 83.1074 163.329 85.3626 122.039 95.819C65.8027 110.06 37.4573 117.481 26.2706 132.227C16.2949 145.378 4.1087 155.656 1.85894 169.386C-0.496552 183.765 -1.31188 210.418 9.37012 233.195C11.3637 237.446 27.7726 261.346 55.9404 271.48C76.0509 278.716 80.7902 271.845 113.402 278.612C143.16 284.787 145.566 293.098 164.103 292.5C186.448 291.778 202.771 279.061 214.429 269.979C239.367 250.551 252.737 224.575 265.881 199.039L265.881 199.038Z" stroke="url(#paint30_linear_1216_22528)" stroke-width="0.5" stroke-miterlimit="10"/>
    <defs>
        <linearGradient id="paint0_linear_1216_22528" x1="258.382" y1="114.103" x2="56.5495" y2="114.103" gradientUnits="userSpaceOnUse">
            <stop stop-color="#AFE3CB"/>
            <stop offset="1" stop-color="#D2CECE" stop-opacity="0.12"/>
        </linearGradient>
        <linearGradient id="paint1_linear_1216_22528" x1="268.356" y1="113.94" x2="51.874" y2="113.94" gradientUnits="userSpaceOnUse">
            <stop stop-color="#AFE3CB"/>
            <stop offset="1" stop-color="#D2CECE" stop-opacity="0.12"/>
        </linearGradient>
        <linearGradient id="paint2_linear_1216_22528" x1="278.254" y1="113.742" x2="47.389" y2="113.742" gradientUnits="userSpaceOnUse">
            <stop stop-color="#AFE3CB"/>
            <stop offset="1" stop-color="#D2CECE" stop-opacity="0.12"/>
        </linearGradient>
        <linearGradient id="paint3_linear_1216_22528" x1="288.021" y1="113.508" x2="43.1321" y2="113.508" gradientUnits="userSpaceOnUse">
            <stop stop-color="#AFE3CB"/>
            <stop offset="1" stop-color="#D2CECE" stop-opacity="0.12"/>
        </linearGradient>
        <linearGradient id="paint4_linear_1216_22528" x1="297.597" y1="113.204" x2="39.1354" y2="113.204" gradientUnits="userSpaceOnUse">
            <stop stop-color="#AFE3CB"/>
            <stop offset="1" stop-color="#D2CECE" stop-opacity="0.12"/>
        </linearGradient>
        <linearGradient id="paint5_linear_1216_22528" x1="306.929" y1="112.771" x2="35.4709" y2="112.771" gradientUnits="userSpaceOnUse">
            <stop stop-color="#AFE3CB"/>
            <stop offset="1" stop-color="#D2CECE" stop-opacity="0.12"/>
        </linearGradient>
        <linearGradient id="paint6_linear_1216_22528" x1="315.965" y1="112.192" x2="32.194" y2="112.192" gradientUnits="userSpaceOnUse">
            <stop stop-color="#AFE3CB"/>
            <stop offset="1" stop-color="#D2CECE" stop-opacity="0.12"/>
        </linearGradient>
        <linearGradient id="paint7_linear_1216_22528" x1="324.655" y1="111.449" x2="27.7174" y2="111.449" gradientUnits="userSpaceOnUse">
            <stop stop-color="#AFE3CB"/>
            <stop offset="1" stop-color="#D2CECE" stop-opacity="0.12"/>
        </linearGradient>
        <linearGradient id="paint8_linear_1216_22528" x1="332.945" y1="110.527" x2="20.9515" y2="110.527" gradientUnits="userSpaceOnUse">
            <stop stop-color="#AFE3CB"/>
            <stop offset="1" stop-color="#D2CECE" stop-opacity="0.12"/>
        </linearGradient>
        <linearGradient id="paint9_linear_1216_22528" x1="340.788" y1="110.428" x2="14.4934" y2="110.428" gradientUnits="userSpaceOnUse">
            <stop stop-color="#AFE3CB"/>
            <stop offset="1" stop-color="#D2CECE" stop-opacity="0.12"/>
        </linearGradient>
        <linearGradient id="paint10_linear_1216_22528" x1="348.138" y1="111.75" x2="8.35367" y2="111.75" gradientUnits="userSpaceOnUse">
            <stop stop-color="#AFE3CB"/>
            <stop offset="1" stop-color="#D2CECE" stop-opacity="0.12"/>
        </linearGradient>
        <linearGradient id="paint11_linear_1216_22528" x1="354.953" y1="112.938" x2="2.56727" y2="112.938" gradientUnits="userSpaceOnUse">
            <stop stop-color="#AFE3CB"/>
            <stop offset="1" stop-color="#D2CECE" stop-opacity="0.12"/>
        </linearGradient>
        <linearGradient id="paint12_linear_1216_22528" x1="361.193" y1="113.976" x2="-2.83721" y2="113.976" gradientUnits="userSpaceOnUse">
            <stop stop-color="#AFE3CB"/>
            <stop offset="1" stop-color="#D2CECE" stop-opacity="0.12"/>
        </linearGradient>
        <linearGradient id="paint13_linear_1216_22528" x1="366.822" y1="114.916" x2="-7.81863" y2="114.916" gradientUnits="userSpaceOnUse">
            <stop stop-color="#AFE3CB"/>
            <stop offset="1" stop-color="#D2CECE" stop-opacity="0.12"/>
        </linearGradient>
        <linearGradient id="paint14_linear_1216_22528" x1="371.811" y1="115.912" x2="-12.3569" y2="115.912" gradientUnits="userSpaceOnUse">
            <stop stop-color="#AFE3CB"/>
            <stop offset="1" stop-color="#D2CECE" stop-opacity="0.12"/>
        </linearGradient>
        <linearGradient id="paint15_linear_1216_22528" x1="376.134" y1="116.997" x2="-16.4221" y2="116.997" gradientUnits="userSpaceOnUse">
            <stop stop-color="#AFE3CB"/>
            <stop offset="1" stop-color="#D2CECE" stop-opacity="0.12"/>
        </linearGradient>
        <linearGradient id="paint16_linear_1216_22528" x1="379.778" y1="118.174" x2="-19.9852" y2="118.174" gradientUnits="userSpaceOnUse">
            <stop stop-color="#AFE3CB"/>
            <stop offset="1" stop-color="#D2CECE" stop-opacity="0.12"/>
        </linearGradient>
        <linearGradient id="paint17_linear_1216_22528" x1="382.725" y1="119.445" x2="-23.0287" y2="119.445" gradientUnits="userSpaceOnUse">
            <stop stop-color="#AFE3CB"/>
            <stop offset="1" stop-color="#D2CECE" stop-opacity="0.12"/>
        </linearGradient>
        <linearGradient id="paint18_linear_1216_22528" x1="384.972" y1="120.817" x2="-25.52" y2="120.817" gradientUnits="userSpaceOnUse">
            <stop stop-color="#AFE3CB"/>
            <stop offset="1" stop-color="#D2CECE" stop-opacity="0.12"/>
        </linearGradient>
        <linearGradient id="paint19_linear_1216_22528" x1="386.513" y1="125.677" x2="-27.423" y2="125.677" gradientUnits="userSpaceOnUse">
            <stop stop-color="#AFE3CB"/>
            <stop offset="1" stop-color="#D2CECE" stop-opacity="0.12"/>
        </linearGradient>
        <linearGradient id="paint20_linear_1216_22528" x1="387.342" y1="131.976" x2="-28.6806" y2="131.976" gradientUnits="userSpaceOnUse">
            <stop stop-color="#AFE3CB"/>
            <stop offset="1" stop-color="#D2CECE" stop-opacity="0.12"/>
        </linearGradient>
        <linearGradient id="paint21_linear_1216_22528" x1="387.421" y1="134.861" x2="-29.2047" y2="134.861" gradientUnits="userSpaceOnUse">
            <stop stop-color="#AFE3CB"/>
            <stop offset="1" stop-color="#D2CECE" stop-opacity="0.12"/>
        </linearGradient>
        <linearGradient id="paint22_linear_1216_22528" x1="386.567" y1="131.071" x2="-28.8918" y2="131.071" gradientUnits="userSpaceOnUse">
            <stop stop-color="#AFE3CB"/>
            <stop offset="1" stop-color="#D2CECE" stop-opacity="0.12"/>
        </linearGradient>
        <linearGradient id="paint23_linear_1216_22528" x1="384.695" y1="127.401" x2="-27.6636" y2="127.401" gradientUnits="userSpaceOnUse">
            <stop stop-color="#AFE3CB"/>
            <stop offset="1" stop-color="#D2CECE" stop-opacity="0.12"/>
        </linearGradient>
        <linearGradient id="paint24_linear_1216_22528" x1="381.77" y1="123.679" x2="-25.5966" y2="123.679" gradientUnits="userSpaceOnUse">
            <stop stop-color="#AFE3CB"/>
            <stop offset="1" stop-color="#D2CECE" stop-opacity="0.12"/>
        </linearGradient>
        <linearGradient id="paint25_linear_1216_22528" x1="377.771" y1="119.881" x2="-22.815" y2="119.881" gradientUnits="userSpaceOnUse">
            <stop stop-color="#AFE3CB"/>
            <stop offset="1" stop-color="#D2CECE" stop-opacity="0.12"/>
        </linearGradient>
        <linearGradient id="paint26_linear_1216_22528" x1="372.685" y1="115.983" x2="-19.3422" y2="115.983" gradientUnits="userSpaceOnUse">
            <stop stop-color="#AFE3CB"/>
            <stop offset="1" stop-color="#D2CECE" stop-opacity="0.12"/>
        </linearGradient>
        <linearGradient id="paint27_linear_1216_22528" x1="366.51" y1="111.993" x2="-15.2241" y2="111.993" gradientUnits="userSpaceOnUse">
            <stop stop-color="#AFE3CB"/>
            <stop offset="1" stop-color="#D2CECE" stop-opacity="0.12"/>
        </linearGradient>
        <linearGradient id="paint28_linear_1216_22528" x1="359.259" y1="107.915" x2="-10.5167" y2="107.915" gradientUnits="userSpaceOnUse">
            <stop stop-color="#AFE3CB"/>
            <stop offset="1" stop-color="#D2CECE" stop-opacity="0.12"/>
        </linearGradient>
        <linearGradient id="paint29_linear_1216_22528" x1="354.847" y1="103.763" x2="-5.28719" y2="103.763" gradientUnits="userSpaceOnUse">
            <stop stop-color="#AFE3CB"/>
            <stop offset="1" stop-color="#D2CECE" stop-opacity="0.12"/>
        </linearGradient>
        <linearGradient id="paint30_linear_1216_22528" x1="352.647" y1="99.5533" x2="0.378121" y2="99.5533" gradientUnits="userSpaceOnUse">
            <stop stop-color="#AFE3CB"/>
            <stop offset="1" stop-color="#D2CECE" stop-opacity="0.12"/>
        </linearGradient>
    </defs>
</svg>

