<svg xmlns="http://www.w3.org/2000/svg" width="16" height="16" viewBox="0 0 16 16" fill="none">
    <path d="M11.3334 6.00122C12.7834 6.00922 13.5687 6.07389 14.0807 6.58589C14.6667 7.17189 14.6667 8.11455 14.6667 9.99989V10.6666C14.6667 12.5526 14.6667 13.4952 14.0807 14.0812C13.4954 14.6666 12.552 14.6666 10.6667 14.6666H5.33337C3.44804 14.6666 2.50471 14.6666 1.91937 14.0812C1.33337 13.4946 1.33337 12.5526 1.33337 10.6666V9.99989C1.33337 8.11455 1.33337 7.17189 1.91937 6.58589C2.43137 6.07389 3.21671 6.00922 4.66671 6.00122" stroke="#868E96" stroke-linecap="round"/>
    <path d="M8 9.99992V1.33325M8 1.33325L10 3.66659M8 1.33325L6 3.66659" stroke="#868E96" stroke-linecap="round" stroke-linejoin="round"/>
</svg>