<svg width="180" height="32" viewBox="0 0 180 32" fill="none" xmlns="http://www.w3.org/2000/svg">
    <g clip-path="url(#clip0_1354_25837)">
        <path d="M43.0123 22.2782H49.0143V25.188H39.3589V6.89075H43.0123V22.2782Z" fill="#384641"/>
        <path d="M61.7226 21.7015H54.468L53.2676 25.188H49.4315L55.9815 6.86453H60.2352L66.7852 25.188H62.923L61.7226 21.7015ZM60.731 18.7656L58.0953 11.1112L55.4596 18.7656H60.731Z" fill="#384641"/>
        <path d="M84.0299 25.188H80.3765L72.1041 12.6316V25.188H68.4507V6.86453H72.1041L80.3765 19.4471V6.86453H84.0299V25.188Z" fill="#384641"/>
        <path d="M99.253 6.89075V9.8529H94.3991V25.188H90.7457V9.8529H85.8919V6.89075H99.253Z" fill="#384641"/>
        <path d="M107.425 25.3715C106.155 25.3715 105.007 25.153 103.98 24.7161C102.971 24.2792 102.171 23.6501 101.579 22.8287C100.988 22.0074 100.683 21.0375 100.666 19.919H104.58C104.633 20.6705 104.894 21.2646 105.363 21.7015C105.85 22.1384 106.511 22.3569 107.347 22.3569C108.199 22.3569 108.869 22.1559 109.356 21.754C109.843 21.3345 110.087 20.7928 110.087 20.1287C110.087 19.587 109.921 19.1413 109.591 18.7918C109.26 18.4423 108.843 18.1714 108.338 17.9792C107.851 17.7695 107.173 17.5423 106.303 17.2976C105.12 16.9481 104.154 16.6073 103.406 16.2753C102.675 15.9258 102.04 15.4102 101.501 14.7287C100.979 14.0296 100.718 13.1034 100.718 11.95C100.718 10.8665 100.988 9.92281 101.527 9.11892C102.067 8.31503 102.823 7.70337 103.798 7.28395C104.772 6.84706 105.885 6.62861 107.138 6.62861C109.017 6.62861 110.539 7.09172 111.705 8.01794C112.888 8.92668 113.54 10.2024 113.662 11.8452H109.643C109.608 11.216 109.339 10.7005 108.834 10.2985C108.347 9.87912 107.695 9.66941 106.877 9.66941C106.164 9.66941 105.589 9.8529 105.155 10.2199C104.737 10.5869 104.528 11.1199 104.528 11.8189C104.528 12.3083 104.685 12.7189 104.998 13.051C105.328 13.3656 105.729 13.6277 106.198 13.8374C106.685 14.0296 107.364 14.2568 108.234 14.519C109.417 14.8685 110.382 15.218 111.13 15.5675C111.879 15.917 112.522 16.4413 113.062 17.1403C113.601 17.8394 113.871 18.7569 113.871 19.8928C113.871 20.8714 113.618 21.7802 113.114 22.619C112.609 23.4579 111.87 24.1307 110.896 24.6375C109.921 25.1268 108.764 25.3715 107.425 25.3715Z" fill="#384641"/>
        <path d="M128.651 6.89075V9.8529H123.797V25.188H120.143V9.8529H115.29V6.89075H128.651Z" fill="#384641"/>
        <path d="M138.988 25.3715C137.284 25.3715 135.718 24.9695 134.291 24.1656C132.865 23.3617 131.734 22.252 130.899 20.8365C130.064 19.4035 129.646 17.7869 129.646 15.9869C129.646 14.2044 130.064 12.6054 130.899 11.1898C131.734 9.75679 132.865 8.63833 134.291 7.83444C135.718 7.03055 137.284 6.62861 138.988 6.62861C140.711 6.62861 142.277 7.03055 143.686 7.83444C145.112 8.63833 146.234 9.75679 147.052 11.1898C147.887 12.6054 148.305 14.2044 148.305 15.9869C148.305 17.7869 147.887 19.4035 147.052 20.8365C146.234 22.252 145.112 23.3617 143.686 24.1656C142.259 24.9695 140.693 25.3715 138.988 25.3715ZM138.988 22.0947C140.084 22.0947 141.05 21.8501 141.885 21.3608C142.72 20.854 143.373 20.1374 143.842 19.2112C144.312 18.285 144.547 17.2102 144.547 15.9869C144.547 14.7636 144.312 13.6976 143.842 12.7888C143.373 11.8626 142.72 11.1549 141.885 10.6655C141.05 10.1762 140.084 9.93155 138.988 9.93155C137.892 9.93155 136.918 10.1762 136.066 10.6655C135.231 11.1549 134.578 11.8626 134.109 12.7888C133.639 13.6976 133.404 14.7636 133.404 15.9869C133.404 17.2102 133.639 18.285 134.109 19.2112C134.578 20.1374 135.231 20.854 136.066 21.3608C136.918 21.8501 137.892 22.0947 138.988 22.0947Z" fill="#384641"/>
        <path d="M158.695 25.3715C156.99 25.3715 155.424 24.9695 153.998 24.1656C152.571 23.3617 151.44 22.252 150.605 20.8365C149.77 19.4035 149.353 17.7869 149.353 15.9869C149.353 14.2044 149.77 12.6054 150.605 11.1898C151.44 9.75679 152.571 8.63833 153.998 7.83444C155.424 7.03055 156.99 6.62861 158.695 6.62861C160.417 6.62861 161.983 7.03055 163.392 7.83444C164.819 8.63833 165.941 9.75679 166.759 11.1898C167.594 12.6054 168.011 14.2044 168.011 15.9869C168.011 17.7869 167.594 19.4035 166.759 20.8365C165.941 22.252 164.819 23.3617 163.392 24.1656C161.966 24.9695 160.4 25.3715 158.695 25.3715ZM158.695 22.0947C159.791 22.0947 160.757 21.8501 161.592 21.3608C162.427 20.854 163.079 20.1374 163.549 19.2112C164.018 18.285 164.253 17.2102 164.253 15.9869C164.253 14.7636 164.018 13.6976 163.549 12.7888C163.079 11.8626 162.427 11.1549 161.592 10.6655C160.757 10.1762 159.791 9.93155 158.695 9.93155C157.599 9.93155 156.625 10.1762 155.772 10.6655C154.937 11.1549 154.285 11.8626 153.815 12.7888C153.345 13.6976 153.11 14.7636 153.11 15.9869C153.11 17.2102 153.345 18.285 153.815 19.2112C154.285 20.1374 154.937 20.854 155.772 21.3608C156.625 21.8501 157.599 22.0947 158.695 22.0947Z" fill="#384641"/>
        <path d="M173.6 22.2782H179.602V25.188H169.946V6.89075H173.6V22.2782Z" fill="#384641"/>
        <path fill-rule="evenodd" clip-rule="evenodd" d="M26.6675 0.342896C27.5021 0.342523 28.276 0.773602 28.6936 1.47142L31.5884 6.30859C32.0009 6.99791 32.003 7.84302 31.594 8.52786L28.6847 13.3991C28.2757 14.084 27.5172 14.5054 26.6927 14.5058L26.0739 14.506C26.3111 15.5385 26.3114 16.5953 26.0942 17.6062L26.5114 17.606C27.346 17.6056 28.1199 18.0367 28.5375 18.7345L31.4323 23.5717C31.8448 24.261 31.847 25.1061 31.438 25.791L28.5287 30.6623C28.1197 31.3471 27.3611 31.7685 26.5367 31.7689L20.7514 31.7715C19.9169 31.7718 19.1429 31.3408 18.7253 30.6429L15.8305 25.8058C15.418 25.1165 15.4159 24.2713 15.8249 23.5865L16.1132 23.1037C15.1106 22.7726 14.1761 22.2407 13.3806 21.5265L13.009 22.1485C12.6 22.8334 11.8415 23.2548 11.017 23.2551L5.23181 23.2577C4.39723 23.2581 3.62327 22.827 3.20567 22.1292L0.310911 17.292C-0.101605 16.6027 -0.103762 15.7576 0.305248 15.0728L3.21455 10.2015C3.62356 9.51662 4.38213 9.09522 5.20655 9.09485L10.9918 9.09227C11.8264 9.0919 12.6003 9.52298 13.0179 10.2208L13.3265 10.7364C13.7528 10.347 14.2325 9.99909 14.7627 9.70315C15.2565 9.42752 15.7689 9.21107 16.2911 9.05151L15.9866 8.54265C15.5741 7.85333 15.5719 7.00821 15.9809 6.32337L18.8902 1.45209C19.2993 0.767249 20.0578 0.345843 20.8822 0.345475L26.6675 0.342896ZM21.2136 11.042C21.0766 10.9239 20.9579 10.7843 20.8634 10.6264L19.769 8.79771L19.4488 8.26267C19.1394 7.74568 19.1378 7.11184 19.4445 6.59821L20.8711 4.20962C21.1778 3.69599 21.7468 3.37994 22.3651 3.37966L25.192 3.3784C25.818 3.37812 26.3984 3.70143 26.7116 4.22479L28.1262 6.58846C28.4355 7.10545 28.4372 7.73929 28.1304 8.25292L26.7038 10.6415C26.3971 11.1551 25.8282 11.4712 25.2098 11.4715L22.3829 11.4727C22.0699 11.4729 21.7683 11.3921 21.5058 11.2459C21.4017 11.1879 21.3037 11.1196 21.2136 11.042ZM17.8252 11.615C17.2807 11.702 16.7428 11.8835 16.2366 12.166C15.6917 12.4701 15.2334 12.8635 14.8702 13.316L15.9127 15.058C16.3252 15.7473 16.3274 16.5924 15.9183 17.2772L14.9171 18.9538C15.6159 19.7979 16.5848 20.3505 17.6313 20.5619L18.7342 18.7152C19.1432 18.0304 19.9018 17.609 20.7262 17.6086L23.0441 17.6076C23.3997 16.6232 23.4053 15.5261 23.0081 14.5074L20.9075 14.5083C20.0729 14.5087 19.299 14.0776 18.8814 13.3798L17.8252 11.615ZM11.0359 12.9742L12.4505 15.3378C12.4553 15.3459 12.46 15.354 12.4647 15.3621C12.5912 15.5818 12.6629 15.8216 12.6798 16.0637C12.7022 16.3865 12.6273 16.7134 12.4547 17.0023L11.0282 19.3909C10.7214 19.9045 10.1525 20.2206 9.53416 20.2209L6.70722 20.2221C6.08128 20.2224 5.50081 19.8991 5.18761 19.3757L3.77309 17.012C3.46371 16.4951 3.46209 15.8612 3.76885 15.3476L5.1954 12.959C5.50216 12.4454 6.07108 12.1293 6.6894 12.129L9.51634 12.1278C10.1423 12.1275 10.7227 12.4508 11.0359 12.9742ZM19.2885 23.8614L20.7149 21.473C20.7292 21.4491 20.7443 21.4252 20.7597 21.4021C21.0751 20.9305 21.6196 20.6433 22.2089 20.6431L24.6467 20.642L25.036 20.6416C25.6619 20.6413 26.2424 20.9646 26.5556 21.488L27.9701 23.8516C28.2795 24.3686 28.2811 25.0025 27.9744 25.5161L26.5478 27.9047C26.2411 28.4183 25.6721 28.7344 25.0538 28.7346L22.2269 28.7359C21.6009 28.7362 21.0205 28.4129 20.7073 27.8895L19.2928 25.5258C18.9834 25.0089 18.9818 24.375 19.2885 23.8614Z" fill="#384641"/>
    </g>
    <defs>
        <clipPath id="clip0_1354_25837">
            <rect width="180" height="32" fill="white"/>
        </clipPath>
    </defs>
</svg>
