<svg xmlns="http://www.w3.org/2000/svg" width="16" height="16" viewBox="0 0 16 16" fill="none">
    <path fill-rule="evenodd" clip-rule="evenodd" d="M7.47725 4.18792C7.60418 4.22614 7.71074 4.31321 7.77349 4.42997C7.83625 4.54673 7.85007 4.68364 7.81192 4.81059L7.40525 6.16659H9.69458L10.1879 4.52259C10.2285 4.39851 10.316 4.29522 10.4317 4.2348C10.5474 4.17437 10.6822 4.1616 10.8072 4.1992C10.9322 4.23681 11.0375 4.32182 11.1007 4.43606C11.1639 4.5503 11.1799 4.68472 11.1453 4.81059L10.7386 6.16659H11.9999C12.1325 6.16659 12.2597 6.21926 12.3535 6.31303C12.4472 6.4068 12.4999 6.53398 12.4999 6.66659C12.4999 6.79919 12.4472 6.92637 12.3535 7.02014C12.2597 7.11391 12.1325 7.16659 11.9999 7.16659H10.4386L9.93859 8.83325H11.3333C11.4659 8.83325 11.593 8.88593 11.6868 8.9797C11.7806 9.07347 11.8333 9.20064 11.8333 9.33325C11.8333 9.46586 11.7806 9.59304 11.6868 9.68681C11.593 9.78057 11.4659 9.83325 11.3333 9.83325H9.63859L9.14525 11.4766C9.10361 11.5992 9.01606 11.7008 8.90102 11.7601C8.78597 11.8195 8.6524 11.8319 8.5284 11.7947C8.40439 11.7576 8.29962 11.6738 8.23612 11.561C8.17262 11.4482 8.15534 11.3152 8.18792 11.1899L8.59459 9.83325H6.30525L5.81192 11.4766C5.79501 11.5416 5.76516 11.6026 5.72416 11.6558C5.68316 11.7091 5.63185 11.7535 5.57329 11.7865C5.51473 11.8194 5.45013 11.8402 5.38334 11.8477C5.31656 11.8551 5.24896 11.849 5.18458 11.8297C5.12021 11.8105 5.06038 11.7784 5.00867 11.7355C4.95696 11.6926 4.91444 11.6397 4.88363 11.5799C4.85283 11.5202 4.83438 11.4549 4.82939 11.3879C4.8244 11.3209 4.83297 11.2535 4.85459 11.1899L5.26125 9.83325H3.99992C3.86731 9.83325 3.74013 9.78057 3.64636 9.68681C3.5526 9.59304 3.49992 9.46586 3.49992 9.33325C3.49992 9.20064 3.5526 9.07347 3.64636 8.9797C3.74013 8.88593 3.86731 8.83325 3.99992 8.83325H5.56125L6.06125 7.16659H4.66659C4.53398 7.16659 4.4068 7.11391 4.31303 7.02014C4.21926 6.92637 4.16659 6.79919 4.16659 6.66659C4.16659 6.53398 4.21926 6.4068 4.31303 6.31303C4.4068 6.21926 4.53398 6.16659 4.66659 6.16659H6.36125L6.85459 4.52259C6.89281 4.39566 6.97987 4.2891 7.09663 4.22635C7.2134 4.16359 7.3503 4.14977 7.47725 4.18792ZM7.10525 7.16659H9.39459L8.89459 8.83325H6.60525L7.10525 7.16659Z" fill="#868E96"/>
    <path fill-rule="evenodd" clip-rule="evenodd" d="M7.99992 0.833252C4.04192 0.833252 0.833252 4.04192 0.833252 7.99992C0.833252 11.9579 4.04192 15.1666 7.99992 15.1666C11.9579 15.1666 15.1666 11.9579 15.1666 7.99992C15.1666 4.04192 11.9579 0.833252 7.99992 0.833252ZM1.83325 7.99992C1.83325 6.36442 2.48295 4.7959 3.63943 3.63943C4.7959 2.48295 6.36442 1.83325 7.99992 1.83325C9.63542 1.83325 11.2039 2.48295 12.3604 3.63943C13.5169 4.7959 14.1666 6.36442 14.1666 7.99992C14.1666 9.63542 13.5169 11.2039 12.3604 12.3604C11.2039 13.5169 9.63542 14.1666 7.99992 14.1666C6.36442 14.1666 4.7959 13.5169 3.63943 12.3604C2.48295 11.2039 1.83325 9.63542 1.83325 7.99992Z" fill="#868E96"/>
</svg>