<svg xmlns="http://www.w3.org/2000/svg" width="80" height="80" viewBox="0 0 80 80" fill="none">
    <path fill-rule="evenodd" clip-rule="evenodd" d="M11.5465 11.5467C7.9465 15.1467 7.00317 20.37 6.75317 29.1667H73.2465C72.9965 20.3667 72.0532 15.15 68.4498 11.5467C63.5732 6.66669 55.7132 6.66669 39.9998 6.66669C24.2865 6.66669 16.4298 6.66669 11.5465 11.5467ZM6.6665 40C6.6665 37.9245 6.66984 35.98 6.6765 34.1667H27.4998V73.1867C19.6998 72.8633 14.9165 71.82 11.5465 68.4534C6.6665 63.5667 6.6665 55.7134 6.6665 40ZM19.9998 23.3334C20.8839 23.3334 21.7317 22.9822 22.3569 22.357C22.982 21.7319 23.3332 20.8841 23.3332 20C23.3332 19.116 22.982 18.2681 22.3569 17.643C21.7317 17.0179 20.8839 16.6667 19.9998 16.6667C19.1158 16.6667 18.2679 17.0179 17.6428 17.643C17.0177 18.2681 16.6665 19.116 16.6665 20C16.6665 20.8841 17.0177 21.7319 17.6428 22.357C18.2679 22.9822 19.1158 23.3334 19.9998 23.3334ZM33.3332 20C33.3332 20.8841 32.982 21.7319 32.3569 22.357C31.7317 22.9822 30.8839 23.3334 29.9998 23.3334C29.1158 23.3334 28.2679 22.9822 27.6428 22.357C27.0177 21.7319 26.6665 20.8841 26.6665 20C26.6665 19.116 27.0177 18.2681 27.6428 17.643C28.2679 17.0179 29.1158 16.6667 29.9998 16.6667C30.8839 16.6667 31.7317 17.0179 32.3569 17.643C32.982 18.2681 33.3332 19.116 33.3332 20ZM39.9998 23.3334C40.8839 23.3334 41.7317 22.9822 42.3569 22.357C42.982 21.7319 43.3332 20.8841 43.3332 20C43.3332 19.116 42.982 18.2681 42.3569 17.643C41.7317 17.0179 40.8839 16.6667 39.9998 16.6667C39.1158 16.6667 38.2679 17.0179 37.6428 17.643C37.0177 18.2681 36.6665 19.116 36.6665 20C36.6665 20.8841 37.0177 21.7319 37.6428 22.357C38.2679 22.9822 39.1158 23.3334 39.9998 23.3334Z" fill="#BDD3C9"/>
    <path d="M73.3332 40C73.3332 55.7134 73.3332 63.57 68.4498 68.45C63.5732 73.3334 55.7132 73.3334 39.9998 73.3334C37.2698 73.3334 34.7798 73.3334 32.4998 73.3067V34.1667H73.3232C73.3298 35.98 73.3332 37.9245 73.3332 40Z" fill="#BDD3C9"/>
</svg>