<svg xmlns="http://www.w3.org/2000/svg" width="16" height="16" viewBox="0 0 16 16" fill="none">
    <path fill-rule="evenodd" clip-rule="evenodd" d="M7.66797 10.8333C7.80058 10.8333 7.92775 10.8859 8.02152 10.9797C8.11529 11.0735 8.16797 11.2006 8.16797 11.3333V11.9999C8.16797 12.1325 8.11529 12.2597 8.02152 12.3535C7.92775 12.4472 7.80058 12.4999 7.66797 12.4999C7.53536 12.4999 7.40818 12.4472 7.31442 12.3535C7.22065 12.2597 7.16797 12.1325 7.16797 11.9999V11.3333C7.16797 11.2006 7.22065 11.0735 7.31442 10.9797C7.40818 10.8859 7.53536 10.8333 7.66797 10.8333ZM9.33464 10.8333C9.46724 10.8333 9.59442 10.8859 9.68819 10.9797C9.78196 11.0735 9.83464 11.2006 9.83464 11.3333V11.9999C9.83464 12.1325 9.78196 12.2597 9.68819 12.3535C9.59442 12.4472 9.46724 12.4999 9.33464 12.4999C9.20203 12.4999 9.07485 12.4472 8.98108 12.3535C8.88731 12.2597 8.83464 12.1325 8.83464 11.9999V11.3333C8.83464 11.2006 8.88731 11.0735 8.98108 10.9797C9.07485 10.8859 9.20203 10.8333 9.33464 10.8333ZM11.0013 10.8333C11.1339 10.8333 11.2611 10.8859 11.3549 10.9797C11.4486 11.0735 11.5013 11.2006 11.5013 11.3333V11.9999C11.5013 12.1325 11.4486 12.2597 11.3549 12.3535C11.2611 12.4472 11.1339 12.4999 11.0013 12.4999C10.8687 12.4999 10.7415 12.4472 10.6477 12.3535C10.554 12.2597 10.5013 12.1325 10.5013 11.9999V11.3333C10.5013 11.2006 10.554 11.0735 10.6477 10.9797C10.7415 10.8859 10.8687 10.8333 11.0013 10.8333ZM12.668 10.8333C12.8006 10.8333 12.9278 10.8859 13.0215 10.9797C13.1153 11.0735 13.168 11.2006 13.168 11.3333V11.9999C13.168 12.1325 13.1153 12.2597 13.0215 12.3535C12.9278 12.4472 12.8006 12.4999 12.668 12.4999C12.5354 12.4999 12.4082 12.4472 12.3144 12.3535C12.2206 12.2597 12.168 12.1325 12.168 11.9999V11.3333C12.168 11.2006 12.2206 11.0735 12.3144 10.9797C12.4082 10.8859 12.5354 10.8333 12.668 10.8333Z" fill="#868E96"/>
    <path fill-rule="evenodd" clip-rule="evenodd" d="M3.70865 1.91467C4.10065 1.61 4.54998 1.5 5.00065 1.5H11.0007C11.452 1.5 11.9013 1.61 12.2927 1.91467C12.6793 2.21533 12.9573 2.668 13.144 3.26133L13.146 3.26733L15.0487 9.83133C15.094 9.98733 15.1207 10.1513 15.1367 10.322C15.1673 10.638 15.1673 11.03 15.1673 11.5047V11.554C15.1673 12.0287 15.1673 12.4207 15.1367 12.7373C15.1053 13.066 15.0367 13.3673 14.8653 13.6393C14.7346 13.8476 14.564 14.0279 14.3633 14.17C14.098 14.358 13.802 14.4333 13.4833 14.4673C13.18 14.5 12.806 14.5 12.3607 14.5H3.64065C3.19532 14.5 2.82132 14.5 2.51865 14.4673C2.19932 14.4327 1.90332 14.358 1.63798 14.17C1.43734 14.0279 1.26674 13.8476 1.13598 13.6393C0.963984 13.3673 0.895984 13.066 0.864651 12.7373C0.833984 12.4207 0.833984 12.0287 0.833984 11.554V11.5047C0.833984 11.03 0.833984 10.638 0.864651 10.322C0.880651 10.1507 0.907318 9.98733 0.952651 9.83133L2.85532 3.26667L2.85732 3.26067C3.04398 2.66733 3.32265 2.21533 3.70865 1.91467ZM2.34732 8.61467C2.40444 8.6054 2.46179 8.59762 2.51932 8.59133C2.82198 8.55867 3.19598 8.55867 3.64132 8.55867H12.3613C12.8067 8.55867 13.1807 8.55867 13.4833 8.592C13.5415 8.59733 13.5989 8.60489 13.6553 8.61467L12.1893 3.55667C12.0427 3.09467 11.8573 2.84267 11.6787 2.70333C11.5033 2.56667 11.2867 2.5 11.0013 2.5H5.00132C4.71598 2.5 4.49932 2.56667 4.32398 2.70333C4.14532 2.84267 3.95932 3.09467 3.81332 3.55667L2.34732 8.61467ZM2.62598 9.586C2.39265 9.61067 2.28665 9.65467 2.21598 9.70467C2.12251 9.77129 2.04319 9.85581 1.98265 9.95333C1.92932 10.0373 1.88532 10.1613 1.86065 10.4173C1.83532 10.68 1.83465 11.024 1.83465 11.5293C1.83465 12.0347 1.83465 12.3787 1.86065 12.6413C1.88532 12.8973 1.92932 13.0213 1.98198 13.106C2.04532 13.206 2.12532 13.2893 2.21598 13.354C2.28665 13.404 2.39265 13.448 2.62598 13.4733C2.86932 13.4993 3.18865 13.5 3.66798 13.5H12.3347C12.814 13.5 13.1333 13.4993 13.3767 13.4733C13.61 13.448 13.716 13.404 13.7867 13.3533C13.8773 13.2893 13.9573 13.2053 14.02 13.106C14.0733 13.022 14.1173 12.8973 14.142 12.6413C14.1673 12.3787 14.168 12.0347 14.168 11.5293C14.168 11.024 14.168 10.68 14.142 10.4173C14.1173 10.1613 14.0733 10.0373 14.0207 9.95333C13.9599 9.85575 13.8804 9.77122 13.7867 9.70467C13.716 9.65467 13.61 9.61133 13.3767 9.586C13.1333 9.55933 12.814 9.55933 12.3347 9.55933H3.66798C3.18865 9.55933 2.86932 9.55933 2.62598 9.586Z" fill="#868E96"/>
</svg>