<svg xmlns="http://www.w3.org/2000/svg" width="16" height="16" viewBox="0 0 16 16" fill="none">
    <path d="M12.6673 7.99992C12.6673 8.17673 12.5971 8.3463 12.4721 8.47132C12.347 8.59635 12.1775 8.66659 12.0007 8.66659C11.8238 8.66659 11.6543 8.59635 11.5292 8.47132C11.4042 8.3463 11.334 8.17673 11.334 7.99992C11.334 7.82311 11.4042 7.65354 11.5292 7.52851C11.6543 7.40349 11.8238 7.33325 12.0007 7.33325C12.1775 7.33325 12.347 7.40349 12.4721 7.52851C12.5971 7.65354 12.6673 7.82311 12.6673 7.99992Z" fill="#868E96"/>
    <path fill-rule="evenodd" clip-rule="evenodd" d="M6.62998 2.1665H8.70465C9.92998 2.1665 10.9007 2.1665 11.66 2.2685C12.4413 2.37384 13.074 2.59517 13.5733 3.09384C14.1893 3.7105 14.386 4.53584 14.4573 5.60717C14.842 5.77584 15.1327 6.13384 15.164 6.58717C15.1673 6.62784 15.1673 6.67117 15.1673 6.71117V9.2885C15.1673 9.3285 15.1673 9.37184 15.1647 9.41184C15.1327 9.86517 14.842 10.2238 14.4573 10.3932C14.386 11.4638 14.1893 12.2892 13.5733 12.9058C13.074 13.4045 12.4413 13.6258 11.66 13.7312C10.9 13.8332 9.92998 13.8332 8.70465 13.8332H6.62998C5.40465 13.8332 4.43398 13.8332 3.67465 13.7312C2.89332 13.6258 2.26065 13.4045 1.76132 12.9058C1.26265 12.4065 1.04132 11.7738 0.935984 10.9925C0.833984 10.2325 0.833984 9.2625 0.833984 8.03717V7.9625C0.833984 6.73717 0.833984 5.7665 0.935984 5.00717C1.04132 4.22584 1.26265 3.59317 1.76132 3.09384C2.26065 2.59517 2.89332 2.37384 3.67465 2.2685C4.43465 2.1665 5.40465 2.1665 6.62998 2.1665ZM13.446 10.4998H12.154C10.724 10.4998 9.49998 9.4145 9.49998 7.99984C9.49998 6.58517 10.724 5.49984 12.1533 5.49984H13.4453C13.3693 4.60584 13.198 4.13317 12.8653 3.80117C12.5833 3.51917 12.1967 3.34984 11.526 3.25984C10.8413 3.16784 9.93798 3.1665 8.66665 3.1665H6.66665C5.39532 3.1665 4.49265 3.16784 3.80665 3.25984C3.13665 3.34984 2.74998 3.51917 2.46798 3.80117C2.18598 4.08317 2.01732 4.46984 1.92732 5.13984C1.83532 5.82517 1.83398 6.72784 1.83398 7.99917C1.83398 9.2705 1.83532 10.1738 1.92732 10.8592C2.01732 11.5292 2.18665 11.9158 2.46865 12.1978C2.75065 12.4798 3.13732 12.6492 3.80798 12.7392C4.49332 12.8312 5.39598 12.8325 6.66732 12.8325H8.66732C9.93865 12.8325 10.842 12.8312 11.5273 12.7392C12.1973 12.6492 12.584 12.4798 12.866 12.1978C13.1987 11.8658 13.37 11.3945 13.446 10.4998ZM3.50065 5.33317C3.50065 5.20056 3.55333 5.07339 3.6471 4.97962C3.74087 4.88585 3.86804 4.83317 4.00065 4.83317H6.66732C6.79993 4.83317 6.9271 4.88585 7.02087 4.97962C7.11464 5.07339 7.16732 5.20056 7.16732 5.33317C7.16732 5.46578 7.11464 5.59296 7.02087 5.68672C6.9271 5.78049 6.79993 5.83317 6.66732 5.83317H4.00065C3.86804 5.83317 3.74087 5.78049 3.6471 5.68672C3.55333 5.59296 3.50065 5.46578 3.50065 5.33317ZM13.95 6.49984H12.154C11.2047 6.49984 10.5 7.20584 10.5 7.99984C10.5 8.79384 11.2047 9.49984 12.1533 9.49984H13.9653C14.1027 9.49117 14.162 9.3985 14.1667 9.3425V6.65717C14.162 6.60117 14.1027 6.5085 13.9653 6.5005L13.95 6.49984Z" fill="#868E96"/>
</svg>