<svg width="32" height="32" viewBox="0 0 32 32" fill="none" xmlns="http://www.w3.org/2000/svg">
<rect width="32" height="32" fill="black"/>
<path d="M5.82636 12.5715L5.20507 15.7144H7.14659L7.37957 14.4287H10.253L10.4083 13.7858H7.48141L7.5686 13.2858H10.5637L10.7569 12.5715H5.82636Z" fill="white"/>
<path fill-rule="evenodd" clip-rule="evenodd" d="M10.486 15.7144L11.1849 12.5715H16.4659L15.7669 15.7144H13.9031L14.136 14.4287H12.6605L12.2722 15.7144H10.486ZM12.8158 13.8572L12.9711 13.2144H14.4467L14.2914 13.8572H12.8158Z" fill="white"/>
<path fill-rule="evenodd" clip-rule="evenodd" d="M15.3786 19.4287L16.0776 16.2858H21.3585L20.6595 19.4287H18.7957L19.0287 18.143H17.5531L17.1648 19.4287H15.3786ZM17.7084 17.5715L17.8637 16.9287H19.3393L19.184 17.5715H17.7084Z" fill="white"/>
<path d="M16.8542 12.5715H22.2127L21.9798 13.5715H19.9606L20.0382 13.2144H18.5627L18.4074 13.8572H21.9021L21.4361 15.7144H16.1552L16.3882 14.7144H18.2521L18.1744 15.143H19.6499L19.8053 14.4287H16.4659L16.8542 12.5715Z" fill="white"/>
<path d="M22.3681 13.2858L22.5234 12.5715H27.5713L27.416 13.2858H25.7851L25.3192 15.7144H23.4553L23.9213 13.2858H22.3681Z" fill="white"/>
<path d="M5.12741 16.2858L4.42847 19.4287H6.21466L6.68062 17.5715H6.83595L7.76787 19.4287H9.78705L10.4083 16.2858H8.62214L8.15618 18.0001H8.00085L6.99127 16.2858H5.12741Z" fill="white"/>
<path d="M10.0977 19.4287L10.719 16.2858H15.7669L15.6116 16.8572H12.5828L12.4275 17.4287H15.3786L15.2233 18.143H12.2722L12.1169 18.7144H15.2233L15.068 19.4287H10.0977Z" fill="white"/>
<path fill-rule="evenodd" clip-rule="evenodd" d="M21.6866 16.2858L20.9702 19.4287H22.834L23.1447 18.143H24.3872L24.5426 19.4287H26.4064L26.1734 18.143L26.7171 17.4287L26.95 16.2858H21.6866ZM23.3 17.5715L23.4553 16.9287H25.0085L24.8532 17.5715H23.3Z" fill="white"/>
</svg>
