<svg width="32" height="32" viewBox="0 0 32 32" fill="none" xmlns="http://www.w3.org/2000/svg">
<rect width="32" height="32" fill="#121B27"/>
<path d="M11.5364 21.6035L13.8348 17.623C13.8365 17.62 13.8383 17.6169 13.84 17.6138L13.8619 17.5761L14.0314 17.2825L14.0317 17.2831L13.84 17.6138C13.6181 17.9967 13.8954 18.4754 14.3389 18.4754H22.3885C23.5822 18.4754 24.5499 19.4424 24.5499 20.6352C24.5499 21.8281 23.5822 22.795 22.3885 22.795H13.4743C13.0567 22.795 12.6668 22.6767 12.3364 22.4718C12.0411 22.2901 11.7854 22.0345 11.5998 21.7133L11.5364 21.6035Z" fill="url(#paint0_linear_2711_62333)"/>
<path d="M14.1426 10.6462L16.4805 14.695C16.4895 14.708 16.4981 14.7216 16.5062 14.7356L18.1746 17.6138C18.3963 17.9964 18.1198 18.4744 17.677 18.4754H22.2802L22.3414 18.3694C22.5268 18.0481 22.6203 17.699 22.63 17.3524C22.6423 16.9638 22.5498 16.567 22.341 16.2054L17.8839 8.48633C17.2871 7.45266 15.9657 7.09817 14.9326 7.69459C13.8994 8.29103 13.5458 9.61249 14.1426 10.6462Z" fill="url(#paint1_linear_2711_62333)"/>
<path fill-rule="evenodd" clip-rule="evenodd" d="M14.1955 10.7378L16.4805 14.6951C16.2442 14.3536 15.7221 14.3671 15.5084 14.7357L15.3209 15.0591H15.3153L13.8619 17.5763L13.84 17.614C13.8383 17.6171 13.8365 17.6201 13.8348 17.6231L11.4814 21.699C10.8845 22.7327 9.56314 23.0871 8.53001 22.4908C7.49688 21.8943 7.14318 20.5729 7.74004 19.5392L12.1971 11.8201C12.4059 11.4585 12.7033 11.18 13.0461 10.9963C13.3511 10.8315 13.7003 10.7379 14.0712 10.7378H14.1955Z" fill="url(#paint2_linear_2711_62333)"/>
<path d="M16.0123 11.7289C17.2063 11.7289 18.1742 10.761 18.1742 9.56696C18.1742 8.37296 17.2063 7.40503 16.0123 7.40503C14.8183 7.40503 13.8503 8.37296 13.8503 9.56696C13.8503 10.761 14.8183 11.7289 16.0123 11.7289Z" fill="#2B81E4"/>
<path d="M22.3878 22.7951C23.5818 22.7951 24.5497 21.8271 24.5497 20.6331C24.5497 19.4391 23.5818 18.4712 22.3878 18.4712C21.1938 18.4712 20.2258 19.4391 20.2258 20.6331C20.2258 21.8271 21.1938 22.7951 22.3878 22.7951Z" fill="#FF6800"/>
<path d="M9.61188 22.7829C10.8059 22.7829 11.7738 21.8149 11.7738 20.6209C11.7738 19.4269 10.8059 18.459 9.61188 18.459C8.41788 18.459 7.44995 19.4269 7.44995 20.6209C7.44995 21.8149 8.41788 22.7829 9.61188 22.7829Z" fill="#2B81E4"/>
<defs>
<linearGradient id="paint0_linear_2711_62333" x1="24.5499" y1="20.6575" x2="11.5295" y2="20.5842" gradientUnits="userSpaceOnUse">
<stop stop-color="#FF6800"/>
<stop offset="1" stop-color="#863600"/>
</linearGradient>
<linearGradient id="paint1_linear_2711_62333" x1="14.7662" y1="7.75923" x2="21.5451" y2="19.1063" gradientUnits="userSpaceOnUse">
<stop stop-color="#2B81E4"/>
<stop offset="1" stop-color="#143E6F"/>
</linearGradient>
<linearGradient id="paint2_linear_2711_62333" x1="8.39042" y1="22.4776" x2="15.1938" y2="10.7275" gradientUnits="userSpaceOnUse">
<stop stop-color="#2B81E4"/>
<stop offset="1" stop-color="#143E6F"/>
</linearGradient>
</defs>
</svg>
