<svg width="32" height="32" viewBox="0 0 32 32" fill="none" xmlns="http://www.w3.org/2000/svg">
<rect width="32" height="32" fill="#26BA9E"/>
<path d="M24.4479 11.424C24.4476 11.4039 24.4449 11.3839 24.4418 11.3637C24.44 11.352 24.4393 11.3401 24.4365 11.3287C24.436 11.3262 24.436 11.3237 24.4355 11.3212C24.4303 11.3007 24.4222 11.2821 24.4144 11.2631C24.4112 11.2555 24.4094 11.2474 24.4059 11.2399C24.3922 11.211 24.3757 11.1842 24.3567 11.1596C24.3534 11.1552 24.349 11.1517 24.3454 11.1474C24.3289 11.1276 24.3111 11.109 24.2915 11.0925C24.2894 11.0906 24.2878 11.0881 24.2855 11.0863L21.5594 8.86985C21.5549 8.8663 21.5495 8.86463 21.545 8.86119C21.5207 8.84293 21.4948 8.8273 21.4673 8.81439C21.4592 8.81052 21.4515 8.80626 21.4431 8.80291C21.4097 8.78956 21.3748 8.77987 21.3387 8.77498C21.3323 8.77416 21.3261 8.77457 21.3197 8.77394C21.2897 8.77122 21.2593 8.77174 21.2286 8.77539C21.2179 8.77665 21.2075 8.77811 21.197 8.78009C21.1884 8.78176 21.1799 8.78176 21.1712 8.78393L7.89691 12.1438C7.87219 12.1501 7.84918 12.1594 7.82655 12.1694C7.82364 12.1706 7.82039 12.1707 7.81757 12.1721C7.81696 12.1724 7.81644 12.1729 7.81581 12.1732C7.78161 12.1895 7.75107 12.2105 7.7227 12.2341C7.71551 12.2401 7.70894 12.2466 7.70216 12.253C7.68016 12.2739 7.66046 12.2967 7.64326 12.3214C7.63909 12.3274 7.63429 12.3327 7.63043 12.339C7.61136 12.3695 7.59644 12.4023 7.58519 12.4367C7.58258 12.4446 7.58112 12.4529 7.57903 12.461C7.57132 12.4903 7.56673 12.5202 7.56517 12.5511C7.56486 12.5569 7.56256 12.5622 7.56256 12.5682L7.53003 15.4046C7.52993 15.4126 7.53212 15.4202 7.53243 15.4281C7.53316 15.4457 7.53494 15.4631 7.53775 15.4805C7.54004 15.4945 7.54255 15.5083 7.54619 15.5219C7.55047 15.538 7.5561 15.5535 7.56215 15.5691C7.56736 15.5825 7.57215 15.5958 7.57851 15.6087C7.58602 15.6235 7.59561 15.6374 7.60489 15.6516C7.61281 15.6636 7.61969 15.6761 7.62877 15.6872C7.6393 15.7003 7.65222 15.7116 7.66432 15.7236C7.67422 15.7333 7.68256 15.7445 7.69351 15.7533L7.72385 15.778C8.2098 16.1792 9.36883 17.3348 9.33546 18.2567C9.33721 19.1821 9.29604 20.6869 9.29552 20.7022C9.29176 20.8366 9.34944 20.9655 9.4521 21.0524L11.8952 23.1212C11.8978 23.1234 11.9007 23.1249 11.9033 23.1271C11.9154 23.1368 11.9282 23.1454 11.9413 23.1537C11.9497 23.1591 11.9577 23.165 11.9663 23.1698C11.9802 23.1775 11.9947 23.1836 12.0093 23.1898C12.0177 23.1933 12.0257 23.1976 12.0341 23.2006C12.0525 23.2071 12.0714 23.2116 12.0905 23.2156C12.0958 23.2167 12.1008 23.2187 12.106 23.2195C12.1306 23.2238 12.1557 23.2262 12.1811 23.2262C12.1818 23.2262 12.1824 23.226 12.183 23.226C12.2171 23.2258 12.2511 23.221 12.2847 23.2129C12.2874 23.2123 12.2901 23.2126 12.2928 23.2119L14.9812 22.5147C15.1747 22.4645 15.3106 22.2909 15.3129 22.0909L15.3592 18.061C15.3666 17.9492 15.4548 16.9663 16.2588 16.3806C16.8958 16.4932 16.8877 17.0681 16.8691 17.2431C16.867 17.2595 16.8659 17.276 16.8657 17.2926L16.8483 18.8129C16.8468 18.946 16.9052 19.0727 17.0074 19.1581L19.4391 21.1874C19.4447 21.1921 19.4511 21.1954 19.4569 21.1998C19.4666 21.2071 19.4763 21.2139 19.4867 21.2204C19.4996 21.2286 19.5129 21.2359 19.5265 21.2426C19.5373 21.2481 19.548 21.2533 19.5593 21.2579C19.5743 21.2638 19.5897 21.2684 19.6052 21.2727C19.616 21.2757 19.6266 21.2791 19.6376 21.2813C19.6583 21.2854 19.6794 21.2874 19.7007 21.2884C19.7065 21.2886 19.712 21.2903 19.718 21.2903C19.7198 21.2903 19.7214 21.2903 19.7232 21.2903C19.7575 21.2903 19.7905 21.2855 19.8225 21.2781C19.8251 21.2776 19.8277 21.2778 19.8303 21.2772L22.4959 20.6126C22.6914 20.5638 22.8294 20.3894 22.8317 20.1879L22.876 16.3338C22.8763 16.3284 22.8764 16.3229 22.8764 16.3172C22.8772 16.2064 22.921 15.2401 24.0678 14.699C24.1006 14.6918 24.1331 14.681 24.1643 14.6661C24.3167 14.5933 24.4144 14.4404 24.4163 14.2715L24.4489 11.435C24.4491 11.4313 24.4479 11.4278 24.4479 11.424ZM10.8386 14.3058L8.96961 12.7861L20.8302 9.78421L20.8073 11.7827L10.8386 14.3058ZM8.41862 15.2009L8.43812 13.4959L10.2862 14.9986L10.2666 16.7035L8.41862 15.2009ZM21.7124 10.1361L23.0419 11.217L21.6962 11.5577L21.7124 10.1361ZM23.5563 12.0008L23.5408 13.3611L22.2385 12.3343L23.5563 12.0008ZM10.1757 17.7714L10.4196 17.9698C10.4217 17.9716 10.4241 17.9726 10.4263 17.9744C10.4352 17.9814 10.445 17.9871 10.4544 17.9935C10.4681 18.0025 10.4818 18.0114 10.4962 18.0189C10.5059 18.0239 10.516 18.0281 10.5262 18.0324C10.5423 18.0392 10.5587 18.0453 10.5755 18.0502C10.5811 18.0518 10.586 18.0546 10.5917 18.056C10.9976 18.1576 11.7355 18.6612 11.7723 19.3059L11.7478 21.8353L10.1871 20.5137C10.1985 20.0611 10.2231 18.9872 10.2215 18.2721C10.2276 18.1043 10.2101 17.937 10.1757 17.7714ZM17.409 16.073C17.3821 16.0386 17.353 16.0063 17.3233 15.9747C17.325 15.9745 17.3262 15.9741 17.3279 15.9739C17.8531 15.9046 18.2639 16.0011 18.5846 16.2689C19.2208 16.8001 19.3063 17.8426 19.3134 17.9493L19.2909 19.9097L17.7369 18.6127L17.7517 17.323C17.7658 17.1708 17.7933 16.565 17.409 16.073ZM21.9907 16.2933C21.9905 16.299 21.9903 16.3047 21.9902 16.3105L21.9497 19.8357L20.1727 20.2787L20.1996 17.9444C20.1997 17.9365 20.1994 17.9285 20.1991 17.9206C20.1965 17.8591 20.1245 16.405 19.1574 15.5928C18.6424 15.1603 17.9874 14.993 17.2119 15.0955C15.1563 15.3669 14.5222 17.128 14.4741 18.0213C14.4739 18.0277 14.4735 18.0338 14.4735 18.0401L14.4309 21.742L12.6304 22.209L12.6585 19.301C12.6586 19.293 12.6584 19.285 12.6581 19.2768C12.6156 18.3266 11.8231 17.6175 11.1459 17.3168L11.1709 15.1354L21.1553 12.6083L23.1715 14.198C22.0784 14.973 21.9958 16.0842 21.9907 16.2933Z" fill="white"/>
</svg>
