<svg width="32" height="32" viewBox="0 0 32 32" fill="none" xmlns="http://www.w3.org/2000/svg">
<rect width="32" height="32" fill="#1D1D1B"/>
<path d="M10.375 12.6305C10.375 10.8565 10.375 9.96953 10.7253 9.29197C11.0335 8.69597 11.5252 8.21141 12.13 7.90773C12.8176 7.5625 13.7177 7.5625 15.5179 7.5625H16.4821C18.2823 7.5625 19.1824 7.5625 19.87 7.90773C20.4748 8.21141 20.9665 8.69597 21.2747 9.29197C21.625 9.96953 21.625 10.8565 21.625 12.6305V13.5807H19.2143V11.6485C19.2143 10.939 19.2143 10.5842 19.0742 10.3131C18.9509 10.0747 18.7542 9.88092 18.5123 9.75945C18.2372 9.62136 17.8772 9.62136 17.1571 9.62136H14.8429C14.1228 9.62136 13.7628 9.62136 13.4877 9.75945C13.2458 9.88092 13.0491 10.0747 12.9258 10.3131C12.7857 10.5842 12.7857 10.939 12.7857 11.6485V13.5807H10.375V12.6305Z" fill="white"/>
<path d="M10.375 17.8568V18.807C10.375 20.581 10.375 21.468 10.7253 22.1455C11.0335 22.7415 11.5252 23.2261 12.13 23.5298C12.8176 23.875 13.7177 23.875 15.5179 23.875H16.4821C18.2823 23.875 19.1824 23.875 19.87 23.5298C20.4748 23.2261 20.9665 22.7415 21.2747 22.1455C21.625 21.468 21.625 20.581 21.625 18.807V17.8568H19.2143V19.789C19.2143 20.4985 19.2143 20.8533 19.0742 21.1244C18.9509 21.3628 18.7542 21.5566 18.5123 21.678C18.2372 21.8161 17.8772 21.8161 17.1571 21.8161H14.8429C14.1228 21.8161 13.7628 21.8161 13.4877 21.678C13.2458 21.5566 13.0491 21.3628 12.9258 21.1244C12.7857 20.8533 12.7857 20.4985 12.7857 19.789V17.8568H10.375Z" fill="white"/>
<path d="M12.5446 15.7188C12.5446 16.2436 12.1129 16.669 11.5804 16.669C11.0478 16.669 10.6161 16.2436 10.6161 15.7188C10.6161 15.1939 11.0478 14.7685 11.5804 14.7685C12.1129 14.7685 12.5446 15.1939 12.5446 15.7188Z" fill="#FFED00"/>
<path d="M21.3839 15.7188C21.3839 16.2436 20.9522 16.669 20.4196 16.669C19.8871 16.669 19.4554 16.2436 19.4554 15.7188C19.4554 15.1939 19.8871 14.7685 20.4196 14.7685C20.9522 14.7685 21.3839 15.1939 21.3839 15.7188Z" fill="#4C6CD3"/>
</svg>
