<svg width="32" height="32" viewBox="0 0 32 32" fill="none" xmlns="http://www.w3.org/2000/svg">
<rect width="32" height="32" fill="#00EC97"/>
<path d="M20.5212 8.84967L17.3875 13.4996C17.1737 13.8209 17.5912 14.1959 17.8912 13.9334L20.6238 11.2546C20.7038 11.1859 20.8213 11.2334 20.8213 11.3509V19.7358C20.8213 19.8483 20.6712 19.8958 20.6075 19.8158L11.6288 8.65092C11.4821 8.47054 11.2965 8.32575 11.0858 8.22746C10.8752 8.12916 10.6449 8.07992 10.4125 8.08343C9.44875 8.08343 8.5 8.57092 8.5 9.68591V21.4758C8.50151 21.8234 8.61611 22.1611 8.82651 22.4379C9.0369 22.7146 9.33166 22.9154 9.66624 23.0099C10.0008 23.1043 10.357 23.0873 10.6811 22.9614C11.0052 22.8355 11.2794 22.6076 11.4625 22.312L14.5913 17.6621C14.805 17.3408 14.3925 16.9658 14.0925 17.2283L11.3762 19.9608C11.2962 20.0295 11.1787 19.982 11.1787 19.8633V11.5009C11.1787 11.3834 11.3288 11.3409 11.3925 11.4209L20.355 22.5158C20.655 22.8858 21.105 23.0833 21.5713 23.0833C22.5413 23.0833 23.5 22.6008 23.5 21.482V9.69091C23.4994 9.34077 23.3845 9.00039 23.1728 8.72152C22.9611 8.44265 22.6641 8.24053 22.327 8.14589C21.9899 8.05125 21.6311 8.06927 21.3052 8.1972C20.9792 8.32514 20.704 8.55599 20.5212 8.85467V8.84967Z" fill="#1B1B18"/>
</svg>
