<svg width="32" height="32" viewBox="0 0 32 32" fill="none" xmlns="http://www.w3.org/2000/svg">
<rect width="32" height="32" fill="#05090F"/>
<path d="M20.6966 17.8169L16.1987 15.6205L16.0195 15.7297L15.8832 15.5999L11.3425 17.8169L11.1633 18.1015L11.2726 18.3516L15.6167 20.4724H16.0195H16.4224L20.7656 18.3516L20.8757 18.1015L20.6966 17.8169Z" fill="#95001A"/>
<path d="M11.163 18.1016L16.0192 20.4725V20.6693L12.8724 22.2064H12.4686L11.163 21.56L10.9839 21.2969V18.3852L11.163 18.1016Z" fill="#40004D"/>
<path d="M20.8757 18.1016L16.0212 20.4725V20.6693L19.1681 22.2064H19.5718L20.8774 21.56L21.0566 21.2969V18.3852L20.8757 18.1016Z" fill="#520033"/>
<path d="M20.8772 13.3862L20.698 13.4963V17.8169L20.8754 18.1014L21.0563 18.3851L23.9917 19.8182H24.3945L24.973 19.532L20.8772 13.3862Z" fill="#FFA80A"/>
<path d="M11.1626 13.3862L11.3417 13.4963V17.8169L11.1626 18.1014L10.9834 18.3851L8.04803 19.8182H7.64516L7.06665 19.532L11.1626 13.3862Z" fill="#FF3417"/>
<path d="M11.1632 21.56L7.64575 19.8183L11.1632 18.1016V21.56Z" fill="#6D0044"/>
<path d="M16.0194 23.9635L19.5691 22.2064L16.0194 20.4724L12.4688 22.2064L16.0194 23.9635Z" fill="#6D0074"/>
<path d="M20.8775 21.56L24.3949 19.8183L20.8757 18.1016L20.8775 21.56Z" fill="#6D0044"/>
<path d="M16.0204 7.94727H14.7891L11.1633 13.3863L11.3425 13.4964L16.0195 11.2122V11.0154L16.1987 10.8925L16.1995 8.10114L16.0204 7.94727Z" fill="#FFA80A"/>
<path d="M16.0195 11.0154L11.1633 13.3863V18.1015L16.0195 15.7297L16.1987 15.6206V11.2991L16.0195 11.0154Z" fill="#D7001F"/>
<path d="M16.0204 7.94727H17.2518L20.8774 13.3863L20.6983 13.4964L16.1987 11.2991L16.0195 11.0154L16.0204 7.94727Z" fill="#FFE50A"/>
<path d="M20.8757 18.1015L16.0195 15.7297V11.0154L20.8757 13.3863V18.1015Z" fill="#EF8109"/>
</svg>
