<svg width="32" height="32" viewBox="0 0 32 32" fill="none" xmlns="http://www.w3.org/2000/svg">
<rect width="32" height="32" fill="black"/>
<g clip-path="url(#clip0_2711_62306)">
<path d="M12.6533 8.13848L17.1134 12.5986C15.9305 13.7815 14.3261 14.4461 12.6533 14.4461C10.9804 14.4461 9.37602 13.7815 8.19312 12.5986L12.6533 8.13848Z" fill="white"/>
<path d="M23.8011 12.5981L19.341 17.0582C18.1581 15.8753 17.4935 14.271 17.4935 12.5981C17.4935 10.9252 18.1581 9.32084 19.341 8.13794L23.8011 12.5981Z" fill="white"/>
<path d="M19.3419 23.7457L14.8818 19.2856C16.0646 18.1027 17.669 17.4382 19.3419 17.4382C21.0148 17.4382 22.6191 18.1027 23.8021 19.2856L19.3419 23.7457Z" fill="white"/>
<path d="M8.19442 19.2875L12.6546 14.8273C13.8375 16.0103 14.502 17.6146 14.502 19.2875C14.502 20.9604 13.8375 22.5647 12.6546 23.7476L8.19442 19.2875Z" fill="white"/>
</g>
<defs>
<clipPath id="clip0_2711_62306">
<rect width="16" height="16" fill="white" transform="translate(8 8)"/>
</clipPath>
</defs>
</svg>
