<svg xmlns="http://www.w3.org/2000/svg" width="17" height="17" viewBox="0 0 17 17" fill="none">
    <path d="M10.572 5.30006L8.5 7.37206L6.428 5.30006L5.3 6.42806L7.372 8.50006L5.3 10.5721L6.428 11.7001L8.5 9.62806L10.572 11.7001L11.7 10.5721L9.628 8.50006L11.7 6.42806L10.572 5.30006ZM8.5 0.500061C4.076 0.500061 0.5 4.07606 0.5 8.50006C0.5 12.9241 4.076 16.5001 8.5 16.5001C12.924 16.5001 16.5 12.9241 16.5 8.50006C16.5 4.07606 12.924 0.500061 8.5 0.500061ZM8.5 14.9001C4.972 14.9001 2.1 12.0281 2.1 8.50006C2.1 4.97206 4.972 2.10006 8.5 2.10006C12.028 2.10006 14.9 4.97206 14.9 8.50006C14.9 12.0281 12.028 14.9001 8.5 14.9001Z" fill="#87B19E"/>
</svg>