<svg width="90" height="120" viewBox="0 0 90 120" fill="none" xmlns="http://www.w3.org/2000/svg">
    <rect y="-39.7139" width="100.814" height="225.587" transform="rotate(-45 0 -39.7139)" fill="#75C7A2"/>
    <path d="M67.9402 9.5939C67.7139 9.36763 67.5413 9.12156 67.4226 8.85569C67.3094 8.58981 67.25 8.31828 67.2444 8.0411C67.2444 7.76391 67.2967 7.4938 67.4013 7.23075C67.506 6.96771 67.6686 6.72588 67.8892 6.50526C68.1099 6.28464 68.3517 6.12201 68.6147 6.01736C68.8778 5.91271 69.1479 5.86321 69.4251 5.86887C69.7051 5.87169 69.9766 5.93109 70.2397 6.04706C70.5084 6.16302 70.7559 6.33414 70.9821 6.56042C71.2112 6.78952 71.3824 7.03984 71.4955 7.31136C71.6143 7.58289 71.6652 7.86291 71.6482 8.15141L71.1052 8.14292C71.1108 7.91099 71.0712 7.69603 70.9864 7.49804C70.9043 7.29722 70.7827 7.1162 70.6215 6.95498C70.4546 6.78811 70.2708 6.66083 70.07 6.57314C69.872 6.48829 69.6697 6.44445 69.4633 6.44162C69.2568 6.43879 69.0531 6.47839 68.8523 6.56042C68.6572 6.64244 68.4776 6.76548 68.3135 6.92953C68.1495 7.09358 68.025 7.27459 67.9402 7.47258C67.861 7.67057 67.8228 7.87281 67.8256 8.07928C67.8284 8.28576 67.8723 8.48799 67.9571 8.68598C68.0448 8.8868 68.1721 9.07065 68.339 9.23752C68.5002 9.39874 68.6798 9.52178 68.8778 9.60663C69.0786 9.68866 69.2964 9.72543 69.5311 9.71694L69.5396 10.26C69.2511 10.277 68.9697 10.2275 68.6953 10.1115C68.4238 9.99837 68.1721 9.82584 67.9402 9.5939ZM70.4951 12.1318C70.2688 11.9056 70.1175 11.6552 70.0411 11.3809C69.9647 11.1065 69.9619 10.8322 70.0326 10.5578C70.1061 10.2806 70.2532 10.0317 70.4738 9.81111C70.6973 9.58766 70.9462 9.44058 71.2205 9.36987C71.4949 9.29916 71.7678 9.30341 72.0394 9.3826C72.3137 9.45897 72.564 9.61029 72.7903 9.83656C73.0138 10.06 73.1637 10.3089 73.24 10.5833C73.3221 10.8576 73.3263 11.1306 73.2528 11.4021C73.1849 11.6736 73.0378 11.9225 72.8115 12.1488C72.5881 12.3722 72.3392 12.5193 72.0648 12.59C71.7933 12.6636 71.5189 12.6607 71.2418 12.5816C70.9674 12.5052 70.7185 12.3553 70.4951 12.1318ZM70.8514 11.7755C70.9957 11.9197 71.1569 12.0159 71.3351 12.064C71.5161 12.1149 71.6985 12.1134 71.8824 12.0597C72.0691 12.0031 72.2416 11.8957 72.4 11.7373C72.5612 11.576 72.6673 11.4049 72.7182 11.2239C72.7719 11.0401 72.7734 10.8576 72.7224 10.6766C72.6744 10.4984 72.5782 10.3372 72.4339 10.1929C72.2897 10.0487 72.1285 9.95253 71.9503 9.90445C71.7721 9.85636 71.5897 9.85778 71.403 9.90869C71.2191 9.95677 71.0466 10.0614 70.8854 10.2226C70.727 10.381 70.6209 10.555 70.5672 10.7445C70.5163 10.9312 70.5149 11.1136 70.5629 11.2918C70.611 11.47 70.7072 11.6312 70.8514 11.7755ZM77.3332 14.3794C77.5142 14.5605 77.6387 14.7556 77.7065 14.9649C77.7744 15.1742 77.7744 15.3892 77.7065 15.6098C77.6415 15.8332 77.4987 16.0553 77.278 16.2759L75.984 17.5699L75.5767 17.1626L76.8241 15.9153C77.0419 15.6975 77.155 15.4825 77.1635 15.2704C77.172 15.0583 77.0843 14.8603 76.9004 14.6764C76.7647 14.5407 76.6176 14.4501 76.4592 14.4049C76.3008 14.3596 76.1382 14.3639 75.9713 14.4176C75.8073 14.4742 75.6432 14.5845 75.4792 14.7485L74.3209 15.9068L73.9136 15.4995L75.161 14.2522C75.3788 14.0344 75.4919 13.8194 75.5004 13.6073C75.5117 13.398 75.424 13.2 75.2373 13.0133C75.1044 12.8804 74.9587 12.7913 74.8003 12.746C74.6419 12.7008 74.4793 12.705 74.3124 12.7587C74.1456 12.8125 73.9801 12.9214 73.816 13.0854L72.6578 14.2437L72.2505 13.8364L74.4991 11.5878L74.8894 11.9781L74.2912 12.5763L74.3803 12.3599C74.5981 12.2836 74.8216 12.2779 75.0507 12.343C75.2798 12.408 75.4919 12.5381 75.6871 12.7333C75.902 12.9483 76.0335 13.1873 76.0816 13.4503C76.1325 13.7105 76.0745 13.9721 75.9077 14.2352L75.8101 14.0018C76.0505 13.8972 76.3079 13.8774 76.5822 13.9424C76.8566 14.0075 77.1069 14.1532 77.3332 14.3794ZM76.7335 18.3193L78.9821 16.0707L79.3894 16.478L77.1408 18.7266L76.7335 18.3193ZM79.6185 15.8416C79.5393 15.7624 79.4982 15.6705 79.4954 15.5659C79.4954 15.464 79.5322 15.3763 79.6057 15.3028C79.6821 15.2264 79.7712 15.1883 79.873 15.1883C79.9777 15.1911 80.0696 15.2321 80.1488 15.3113C80.228 15.3905 80.2676 15.481 80.2676 15.5828C80.2732 15.6846 80.2393 15.7723 80.1658 15.8459C80.0894 15.9222 79.9989 15.9618 79.8942 15.9647C79.7924 15.9647 79.7005 15.9236 79.6185 15.8416ZM81.3889 18.4351C81.5727 18.619 81.6986 18.8156 81.7665 19.0249C81.8372 19.237 81.84 19.4548 81.775 19.6782C81.7099 19.9017 81.5671 20.1237 81.3465 20.3443L80.0525 21.6383L79.6452 21.231L80.8925 19.9837C81.1103 19.7659 81.2206 19.5481 81.2234 19.3303C81.2291 19.1154 81.1358 18.9117 80.9434 18.7194C80.7992 18.5751 80.645 18.4776 80.481 18.4267C80.3169 18.3757 80.15 18.3757 79.9803 18.4267C79.8135 18.4804 79.648 18.5893 79.4839 18.7533L78.3257 19.9116L77.9184 19.5043L80.167 17.2557L80.5573 17.646L79.9506 18.2527L80.0482 18.0278C80.2688 17.9543 80.4965 17.9529 80.7313 18.0236C80.966 18.0943 81.1852 18.2315 81.3889 18.4351ZM80.942 24.2249C80.7355 24.0184 80.5644 23.7879 80.4286 23.5334C80.2929 23.2845 80.2179 23.0455 80.2038 22.8164L80.7129 22.6976C80.727 22.8927 80.785 23.0921 80.8868 23.2958C80.9858 23.5023 81.1188 23.6889 81.2856 23.8558C81.5515 24.1217 81.8089 24.2546 82.0578 24.2546C82.3067 24.2546 82.5584 24.1273 82.813 23.8728L83.2882 23.3976L83.7761 22.9946L84.2046 22.5236L84.8198 21.9084L85.2058 22.2945L83.2627 24.2376C82.8667 24.6336 82.4764 24.826 82.0917 24.8146C81.7071 24.8033 81.3238 24.6068 80.942 24.2249ZM81.8329 23.2321C81.6152 23.0143 81.4653 22.7739 81.3832 22.5109C81.3069 22.2478 81.2998 21.9834 81.362 21.7175C81.4271 21.4545 81.5671 21.2155 81.782 21.0005C81.9998 20.7827 82.2388 20.6427 82.499 20.5805C82.7649 20.5183 83.028 20.5267 83.2882 20.6059C83.5512 20.688 83.7916 20.8379 84.0094 21.0557C84.2018 21.248 84.3375 21.463 84.4167 21.7005C84.4987 21.9353 84.5058 22.18 84.4379 22.4345C84.3729 22.6919 84.2173 22.9436 83.9712 23.1897C83.728 23.433 83.4777 23.5871 83.2203 23.6522C82.9657 23.72 82.7182 23.7158 82.4778 23.6394C82.2402 23.5602 82.0253 23.4245 81.8329 23.2321ZM82.236 22.9224C82.3859 23.0723 82.55 23.1742 82.7281 23.2279C82.9063 23.2816 83.0831 23.2859 83.2585 23.2406C83.4367 23.1982 83.5979 23.1049 83.7421 22.9606C83.8864 22.8164 83.9797 22.6551 84.0221 22.4769C84.0674 22.3016 84.0617 22.1262 84.0052 21.9509C83.9514 21.7727 83.8496 21.6086 83.6997 21.4587C83.5498 21.3088 83.3843 21.2056 83.2033 21.149C83.028 21.0924 82.8512 21.0854 82.673 21.1278C82.4976 21.173 82.3378 21.2678 82.1936 21.412C82.0493 21.5563 81.9546 21.7161 81.9093 21.8915C81.8669 22.0697 81.8725 22.2478 81.9263 22.426C81.9829 22.6071 82.0861 22.7725 82.236 22.9224ZM65.0614 16.5977C64.8747 16.411 64.722 16.2073 64.6032 15.9867C64.4872 15.7689 64.4179 15.5752 64.3953 15.4055L64.8874 15.2527C64.9185 15.414 64.9822 15.5879 65.0784 15.7746C65.1745 15.9613 65.2961 16.1281 65.4432 16.2752C65.6327 16.4647 65.7954 16.5736 65.9311 16.6019C66.0697 16.633 66.1871 16.6005 66.2833 16.5043C66.354 16.4336 66.3837 16.353 66.3724 16.2625C66.361 16.172 66.3229 16.0744 66.2578 15.9697C66.1956 15.8679 66.1206 15.759 66.0329 15.6431C65.9481 15.5243 65.8661 15.4026 65.7869 15.2782C65.7105 15.1509 65.6511 15.0236 65.6087 14.8964C65.5691 14.7662 65.562 14.6376 65.5875 14.5103C65.6158 14.3802 65.6949 14.2501 65.8251 14.12C65.9608 13.9842 66.1178 13.9036 66.296 13.8781C66.4742 13.8527 66.6594 13.8824 66.8518 13.9672C67.0498 14.0521 67.2449 14.1907 67.4373 14.383C67.5843 14.5301 67.7144 14.697 67.8276 14.8836C67.9464 15.0703 68.0213 15.2443 68.0524 15.4055L67.5561 15.554C67.5221 15.3843 67.4627 15.2315 67.3779 15.0958C67.293 14.96 67.1954 14.837 67.0851 14.7266C66.9069 14.5485 66.7443 14.4452 66.5972 14.4169C66.453 14.3858 66.3356 14.4155 66.2451 14.506C66.1687 14.5824 66.1348 14.6673 66.1433 14.7606C66.1574 14.8539 66.1942 14.9529 66.2536 15.0576C66.3158 15.1651 66.3893 15.2782 66.4742 15.397C66.5619 15.513 66.6439 15.6346 66.7203 15.7619C66.7994 15.8863 66.8588 16.0108 66.8984 16.1352C66.9409 16.2625 66.9494 16.3898 66.9239 16.517C66.9013 16.6472 66.8263 16.7758 66.699 16.9031C66.5633 17.0389 66.4063 17.1167 66.2281 17.1365C66.0499 17.1563 65.8604 17.1223 65.6596 17.0346C65.4616 16.9441 65.2622 16.7985 65.0614 16.5977ZM67.505 19.0413C67.2788 18.815 67.1274 18.5647 67.0511 18.2904C66.9747 18.016 66.9719 17.7417 67.0426 17.4673C67.1161 17.1901 67.2632 16.9412 67.4838 16.7206C67.7073 16.4971 67.9562 16.3501 68.2305 16.2794C68.5049 16.2086 68.7778 16.2129 69.0494 16.2921C69.3237 16.3685 69.574 16.5198 69.8003 16.746C70.0238 16.9695 70.1737 17.2184 70.25 17.4928C70.3321 17.7671 70.3363 18.0401 70.2628 18.3116C70.1949 18.5831 70.0478 18.832 69.8215 19.0583C69.5981 19.2817 69.3492 19.4288 69.0748 19.4995C68.8033 19.5731 68.5289 19.5702 68.2517 19.491C67.9774 19.4147 67.7285 19.2648 67.505 19.0413ZM67.8614 18.6849C68.0057 18.8292 68.1669 18.9253 68.3451 18.9734C68.5261 19.0243 68.7085 19.0229 68.8924 18.9692C69.0791 18.9126 69.2516 18.8051 69.41 18.6467C69.5712 18.4855 69.6773 18.3144 69.7282 18.1334C69.7819 17.9495 69.7833 17.7671 69.7324 17.5861C69.6843 17.4079 69.5882 17.2467 69.4439 17.1024C69.2997 16.9582 69.1385 16.862 68.9603 16.8139C68.7821 16.7658 68.5996 16.7673 68.413 16.8182C68.2291 16.8663 68.0566 16.9709 67.8954 17.1321C67.737 17.2905 67.6309 17.4645 67.5772 17.654C67.5263 17.8406 67.5248 18.0231 67.5729 18.2013C67.621 18.3795 67.7172 18.5407 67.8614 18.6849ZM70.1981 21.7344C69.9718 21.5081 69.8205 21.2578 69.7442 20.9835C69.6678 20.7091 69.665 20.4347 69.7357 20.1604C69.8092 19.8832 69.9563 19.6343 70.1769 19.4137C70.4004 19.1902 70.6493 19.0431 70.9236 18.9724C71.198 18.9017 71.4709 18.906 71.7424 18.9852C72.0168 19.0615 72.2671 19.2129 72.4934 19.4391C72.7168 19.6626 72.8667 19.9115 72.9431 20.1858C73.0251 20.4602 73.0294 20.7331 72.9558 21.0047C72.888 21.2762 72.7409 21.5251 72.5146 21.7514C72.2912 21.9748 72.0423 22.1219 71.7679 22.1926C71.4964 22.2661 71.222 22.2633 70.9448 22.1841C70.6705 22.1078 70.4216 21.9578 70.1981 21.7344ZM70.5545 21.378C70.6988 21.5223 70.86 21.6184 71.0382 21.6665C71.2192 21.7174 71.4016 21.716 71.5855 21.6623C71.7721 21.6057 71.9447 21.4982 72.1031 21.3398C72.2643 21.1786 72.3704 21.0075 72.4213 20.8265C72.475 20.6426 72.4764 20.4602 72.4255 20.2792C72.3774 20.101 72.2813 19.9398 72.137 19.7955C71.9928 19.6513 71.8315 19.5551 71.6533 19.507C71.4752 19.4589 71.2927 19.4603 71.106 19.5113C70.9222 19.5593 70.7497 19.664 70.5884 19.8252C70.4301 19.9836 70.324 20.1575 70.2702 20.3471C70.2193 20.5337 70.2179 20.7162 70.266 20.8944C70.3141 21.0725 70.4103 21.2338 70.5545 21.378ZM75.4241 22.3698C75.6079 22.5536 75.7338 22.7502 75.8017 22.9595C75.8724 23.1717 75.8752 23.3894 75.8101 23.6129C75.7451 23.8363 75.6023 24.0584 75.3816 24.279L74.0876 25.573L73.6803 25.1657L74.9277 23.9184C75.1455 23.7006 75.2558 23.4828 75.2586 23.265C75.2643 23.05 75.1709 22.8464 74.9786 22.6541C74.8343 22.5098 74.6802 22.4122 74.5161 22.3613C74.3521 22.3104 74.1852 22.3104 74.0155 22.3613C73.8486 22.4151 73.6832 22.5239 73.5191 22.688L72.3609 23.8462L71.9536 23.4389L74.2022 21.1903L74.5925 21.5807L73.9858 22.1874L74.0834 21.9625C74.304 21.889 74.5317 21.8876 74.7665 21.9583C75.0012 22.029 75.2204 22.1662 75.4241 22.3698Z" fill="white"/>
</svg>
