<svg width="14" height="14" viewBox="0 0 14 14" fill="none" xmlns="http://www.w3.org/2000/svg">
    <path d="M7 14C3.13381 14 0 10.8662 0 7C0 3.13381 3.13381 0 7 0C10.8662 0 14 3.13381 14 7C14 10.8662 10.8662 14 7 14ZM11.8077 9.91856V4.37413L6.99344 1.60125L6.98688 1.60475L2.18925 4.37719V9.92031L6.99081 12.6862L6.99125 12.6866L11.8073 9.919L11.8077 9.91856ZM9.67706 9.03219L8.85588 8.56144L7.02363 9.625C7.01832 9.62812 7.01228 9.62976 7.00612 9.62976C6.99997 9.62976 6.99393 9.62812 6.98863 9.625L4.88644 8.40656L4.88556 6.28687L3.03888 5.22813L6.9755 2.92031C6.97708 2.91935 6.9789 2.91883 6.98075 2.91883C6.9826 2.91883 6.98442 2.91935 6.986 2.92031L10.6422 5.01069L9.99556 5.38475L6.98775 3.654L4.32031 5.21981L5.24563 5.75138L6.9895 4.73725L6.99038 4.73637L9.121 5.95481L9.12012 7.97169L10.9362 9.01163L10.9358 9.04225L6.99125 11.3452L3.33463 9.2575L3.97469 8.88256L6.98512 10.6094L9.67706 9.03175V9.03219ZM7.57094 6.62594V6.61106L7.5705 6.60144L7.57006 6.59619L7.56919 6.58525V6.58175L7.56787 6.56994V6.56687L7.56613 6.55463V6.55244L7.56438 6.53975V6.538L7.56219 6.52487L7.56175 6.524L7.55912 6.51087L7.55869 6.50956L7.55562 6.49644V6.49556C7.5548 6.49115 7.55377 6.48677 7.55256 6.48244V6.48156L7.54862 6.46844L7.54469 6.454C7.54235 6.44507 7.53943 6.4363 7.53594 6.42775L7.53069 6.41419C7.52908 6.40976 7.52733 6.40538 7.52544 6.40106L7.51975 6.38794L7.51406 6.37569L7.50794 6.36256L7.50181 6.35031L7.49481 6.33806C7.49242 6.33416 7.49009 6.33022 7.48781 6.32625V6.32581C7.48555 6.32197 7.48322 6.31818 7.48081 6.31444L7.48037 6.314C7.47801 6.31028 7.47553 6.30663 7.47294 6.30306V6.30219L7.4655 6.29169C7.4655 6.29169 7.4655 6.29081 7.46463 6.29081L7.45719 6.28031L7.45631 6.27944C7.45369 6.27594 7.45194 6.27244 7.44887 6.26894L7.44844 6.26806L7.44013 6.258L7.43925 6.25712L7.43138 6.2475L7.4305 6.24662L7.42175 6.23744C7.42175 6.237 7.42175 6.23656 7.42088 6.23612L7.41256 6.22694C7.41219 6.22656 7.4119 6.22611 7.41169 6.22563L7.40338 6.21688C7.40002 6.21352 7.39667 6.21017 7.39331 6.20681L7.392 6.2055L7.38325 6.19675L7.38238 6.19587L7.37362 6.188L7.37188 6.18669L7.36269 6.17837L7.36137 6.17706C7.35839 6.17449 7.35533 6.17201 7.35219 6.16963L7.35087 6.16875L7.34125 6.16087L7.33994 6.16L7.32987 6.15256L7.32856 6.15169L7.3185 6.14425L7.31719 6.14337L7.30713 6.13637L7.30581 6.13594L7.29531 6.12894L7.29444 6.12806C7.29087 6.12575 7.28722 6.12357 7.2835 6.1215H7.28263L7.27125 6.1145H7.27038L7.25856 6.1075C7.11893 6.04853 6.96145 6.04585 6.81989 6.10002C6.67832 6.15419 6.56319 6.26101 6.49858 6.39813C6.43398 6.53525 6.42491 6.69205 6.47327 6.8357C6.52164 6.97936 6.62368 7.09874 6.75806 7.16887L6.50431 8.32913H7.46419L7.20825 7.16975C7.42788 7.07788 7.57094 6.8635 7.57094 6.62594Z" fill="white"/>
</svg>
