<svg width="48" height="49" viewBox="0 0 48 49" fill="none" xmlns="http://www.w3.org/2000/svg">
    <g clip-path="url(#clip0_838_144)">
        <path d="M37.14 29.6568V15.2047C37.14 12.3247 33.7799 9.50209 29.6279 9.50209C27.3963 9.5359 25.2668 10.3215 23.688 11.6934L16.194 5.26032C18.1852 3.57522 20.571 2.28343 23.1887 1.47308C25.8063 0.662728 28.5941 0.352878 31.362 0.564671C41.106 1.36815 47.526 8.22899 47.526 15.4081V38.8864L37.14 29.6568Z" fill="url(#paint0_linear_838_144)"/>
        <path d="M0 9.65334V33.1316C0 40.3107 6.426 47.1716 16.164 47.9751C18.9319 48.1869 21.7197 47.877 24.3373 47.0667C26.9549 46.2563 29.3408 44.9645 31.332 43.2794L23.838 36.8464C22.2592 38.2183 20.1297 39.0039 17.898 39.0377C13.746 39.0377 10.386 36.2151 10.386 33.3351V18.9872" fill="#4D62D2" fill-opacity="0.56"/>
        <path d="M28.0199 21.7525L47.5139 38.7508V43.4464C47.5139 44.9856 45.7619 46.6082 43.6559 46.6395C42.4559 46.6395 41.2019 45.8203 40.4219 45.1421L20.5799 27.7995L0.00585938 9.79947V5.1038C0.00585938 3.56467 1.75786 1.94207 3.86386 1.91077C5.06386 1.91077 6.31788 2.72989 7.09788 3.40815L28.0199 21.7525Z" fill="url(#paint1_linear_838_144)"/>
    </g>
    <defs>
        <linearGradient id="paint0_linear_838_144" x1="20.916" y1="-0.00402405" x2="50.4696" y2="35.8816" gradientUnits="userSpaceOnUse">
            <stop offset="0.06" stop-color="#B6D7FE"/>
            <stop offset="0.12" stop-color="#A6D4FC"/>
            <stop offset="0.26" stop-color="#88CEF8"/>
            <stop offset="0.38" stop-color="#76CAF6"/>
            <stop offset="0.47" stop-color="#70C9F5"/>
            <stop offset="0.73" stop-color="#18A0EC"/>
        </linearGradient>
        <linearGradient id="paint1_linear_838_144" x1="49.3679" y1="46.0238" x2="7.65037" y2="-0.806602" gradientUnits="userSpaceOnUse">
            <stop stop-color="#35D7FD"/>
            <stop offset="0.68" stop-color="#9A68FE"/>
            <stop offset="1" stop-color="#B45DFF"/>
        </linearGradient>
        <clipPath id="clip0_838_144">
            <rect width="48" height="48" fill="white" transform="translate(0 0.5)"/>
        </clipPath>
    </defs>
</svg>
