<svg version="1.0" id="katman_1" xmlns="http://www.w3.org/2000/svg" x="0px" y="0px"
     viewBox="0 0 800 600" style="enable-background:new 0 0 800 600;" xml:space="preserve">
<style type="text/css">
	.st0{fill:#EDEDED;}
</style>
    <path class="st0" d="M399.8,531c127.8,0,231.4-103.6,231.4-231.4c0-127.8-103.6-231.4-231.4-231.4c-127.8,0-231.4,103.6-231.4,231.4
	C168.4,427.4,272,531,399.8,531z"/>
    <path d="M474.5,188.5l-52.2,77.5c-3.6,5.3,3.3,11.7,8.3,7.2l51.4-44.7c1.4-1.1,3.3-0.3,3.3,1.7V370c0,1.9-2.5,2.8-3.6,1.4
	L326.3,185.2c-5-6.1-12.2-9.4-20.3-9.4h-5.6c-14.4,0-26.4,12-26.4,26.7v196.8c0,14.7,11.9,26.7,26.7,26.7c9.2,0,17.8-4.7,22.8-12.8
	l52.2-77.5c3.6-5.3-3.3-11.7-8.3-7.2L316,372.8c-1.4,1.1-3.3,0.3-3.3-1.7V231.6c0-1.9,2.5-2.8,3.6-1.4l155.5,186.2
	c5,6.1,12.5,9.5,20.3,9.5h5.6c14.7,0,26.7-12,26.7-26.7V202.4c0-14.7-11.9-26.7-26.7-26.7C488.1,175.7,479.5,180.5,474.5,188.5z"/>
</svg>