<svg width="52" height="50" viewBox="0 0 52 50" fill="none" xmlns="http://www.w3.org/2000/svg">
    <path d="M2.0054 27.5045L14.5959 27.5502M2 34.5H11.3115M19.7049 34.5H32.5574M19.7049 48.5H30.1967M19.7049 41.5H29.0164M39.7705 34.5H50M37.8033 48.5H50M35.3115 41.5H50M2 41.5H14.7213M2 48.5H11.3115M19.7049 27.5H30.1967M37.8033 27.5H50" stroke="#13BCBC" stroke-width="3" stroke-linecap="round"/>
    <path d="M31.8361 7.4909H30.7869V5.4935C30.7869 2.73709 28.4368 0.5 25.541 0.5C22.6453 0.5 20.2951 2.73709 20.2951 5.4935V7.4909H19.2459C18.0918 7.4909 17.1476 8.38973 17.1476 9.4883V19.4753C17.1476 20.5739 18.0918 21.4727 19.2459 21.4727H31.8361C32.9902 21.4727 33.9345 20.5739 33.9345 19.4753V9.4883C33.9345 8.38973 32.9902 7.4909 31.8361 7.4909ZM22.3935 5.4935C22.3935 3.83566 23.7994 2.4974 25.541 2.4974C27.2827 2.4974 28.6886 3.83566 28.6886 5.4935V7.4909H22.3935V5.4935ZM31.8361 19.4753H19.2459V9.4883H31.8361V19.4753ZM25.541 16.4792C26.6951 16.4792 27.6394 15.5804 27.6394 14.4818C27.6394 13.3832 26.6951 12.4844 25.541 12.4844C24.3869 12.4844 23.4427 13.3832 23.4427 14.4818C23.4427 15.5804 24.3869 16.4792 25.541 16.4792Z" fill="#13BCBC"/>
</svg>
